<svg xmlns="http://www.w3.org/2000/svg" viewBox="0 0 292 83">
                                <defs>
                                  <style>
                                    .accessory__frame_top {
                                      fill: #6e6760;
                                    }

                                    .accessory__frame_top--opacity {
                                      opacity: 0.6;
                                    }
                                  </style>
                                </defs>
                                <g id="レイヤー_2" data-name="レイヤー 2">
                                  <g id="レイヤー_2-2" data-name="レイヤー 2">
                                    <path class="accessory__frame_top"
                                      d="M150 32.83l-.54-.27a3.26 3.26 0 00.44-2.23c-1.46-.38-1.9-1.09-2-1.62a1.91 1.91 0 01.64-1.78 1.8 1.8 0 011.68-.16A1.57 1.57 0 01151 28a4.54 4.54 0 00.48-1.07 6 6 0 013.29-3.87 39 39 0 01-4.12-7c-.39-1-.75-2-1.07-3l.57-.19c.32 1 .68 2 1.06 3a40.54 40.54 0 004.21 7.09l.22.39-.31.13a5.4 5.4 0 00-3.28 3.67c-.29.77-.53 1.44-1.19 1.71l-.41.17v-.44c0-.67-.18-1.1-.51-1.26a1.26 1.26 0 00-1 .09 1.31 1.31 0 00-.42 1.18c.12.56.72 1 1.73 1.21h.17l.05.16a3.64 3.64 0 01-.47 2.86zM149.89 33.11l-.52-.29.07-.15.54.28-.09.16zM149.26 34.16l-.5-.33c.19-.29.37-.58.53-.87l.52.3c-.17.3-.35.6-.55.9z">
                                    </path>
                                    <path class="accessory__frame_top" transform="rotate(-55.95 148.334 34.988)"
                                      d="M148.19 34.68h.32v.6h-.32z"></path>
                                    <path class="accessory__frame_top"
                                      d="M147.42 39.36H146l.18-.42c.48-1.08-.48-2.49-1.49-4-.37-.56-.76-1.13-1.08-1.7l.52-.3c.31.55.69 1.12 1.06 1.66a13.89 13.89 0 011.5 2.6 10 10 0 011.09-2l.5.33c-.95 1.44-1.47 2.5-1.08 3.37zM143.57 33.11l-.15-.28.54-.27c0 .09.09.18.13.26zM143.26 32.48A3.41 3.41 0 01143 30v-.16h.17c1-.24 1.62-.65 1.74-1.21a1.31 1.31 0 00-.42-1.18 1.26 1.26 0 00-1-.09c-.33.16-.51.59-.51 1.26V29l-.41-.17c-.66-.27-.9-.94-1.19-1.71a5.39 5.39 0 00-3.29-3.67l-.3-.13.21-.32a40.19 40.19 0 004.24-7.12 73.5 73.5 0 002.91-9.47l.58.13a72.66 72.66 0 01-2.93 9.55 39.81 39.81 0 01-4.12 7 6 6 0 013.28 3.87 4.51 4.51 0 00.49 1.07 1.54 1.54 0 01.79-1.22 1.77 1.77 0 011.67.16 1.87 1.87 0 01.64 1.78c-.11.53-.55 1.24-2 1.62a3 3 0 00.29 1.91z">
                                    </path>
                                    <path class="accessory__frame_top" transform="rotate(-77.21 145.477 6.155)"
                                      d="M145.36 5.85h.26v.6h-.26z"></path>
                                    <path class="accessory__frame_top"
                                      d="M148.42 9.18a77.89 77.89 0 01-1.7-7.85c-.2 1.17-.43 2.48-.72 3.85l-.58-.12c.34-1.65.61-3.21.83-4.54.07-.38.29-.52.47-.52s.36 0 .46.46A79.52 79.52 0 00149 9zM148.53 9.59l-.06-.21.58-.16.06.21-.58.16z">
                                    </path>
                                    <path class="accessory__frame_top" transform="rotate(-16.3 147.3 9.9)"
                                      d="M148.6 9.7h.6v.19h-.6z"></path>
                                    <path class="accessory__frame_top"
                                      d="M173.07 42.78l-.12-.3a5.47 5.47 0 00-3.68-3.29c-.77-.28-1.44-.53-1.71-1.18l-.17-.41h.45c.67 0 1.09-.18 1.25-.51A1.25 1.25 0 00169 36a1.33 1.33 0 00-1.18-.41c-.55.12-1 .71-1.21 1.73v.17h-.17a3.65 3.65 0 01-2.84-.42l.27-.54a3.26 3.26 0 002.23.44c.38-1.46 1.09-1.9 1.62-2a1.93 1.93 0 011.79.64 1.82 1.82 0 01.15 1.67 1.55 1.55 0 01-1.21.8 4.44 4.44 0 001.06.48 6 6 0 013.87 3.29 39.29 39.29 0 017-4.13c1-.38 2-.74 3-1.06l.2.57c-.95.31-1.95.67-3 1.06a39.93 39.93 0 00-7.09 4.21zM163.45 37.09l-.16-.08.29-.53.15.08-.28.53zM163.14 36.93c-.3-.17-.6-.36-.9-.55l.33-.5.87.53z">
                                    </path>
                                    <path class="accessory__frame_top" transform="rotate(-56.06 161.431 35.462)"
                                      d="M161.12 35.3h.6v.32h-.6z"></path>
                                    <path class="accessory__frame_top"
                                      d="M160.84 35.44c-1.45-1-2.51-1.47-3.38-1.09l-.42.19v-1.39l.42.19c1.08.48 2.49-.48 4-1.49.56-.38 1.13-.76 1.71-1.09l.29.53c-.55.31-1.12.69-1.66 1.06a13.89 13.89 0 01-2.6 1.5 9.81 9.81 0 012 1.09zM163.57 31.21l-.28-.53.28-.14.27.54zM189.89 32.83a75.83 75.83 0 01-9.55-2.93 39.26 39.26 0 01-7-4.13 6 6 0 01-3.87 3.29 4.42 4.42 0 00-1.06.49 1.52 1.52 0 011.21.79 1.81 1.81 0 01-.15 1.67 1.89 1.89 0 01-1.79.64c-.53-.11-1.24-.56-1.62-2a3 3 0 00-1.91.28l-.24-.54a3.41 3.41 0 012.49-.27l.16.05v.16c.24 1 .66 1.63 1.21 1.75a1.36 1.36 0 001.18-.42 1.25 1.25 0 00.09-1c-.16-.33-.58-.5-1.25-.5h-.45l.17-.41c.27-.65.94-.9 1.71-1.18a5.44 5.44 0 003.78-3.36l.12-.3.36.19a40.19 40.19 0 007.12 4.24 73 73 0 009.48 2.9zM190.31 32.92l-.25-.05.13-.59.25.06-.13.58zM187.38 36.11l-.15-.57a75.09 75.09 0 017.84-1.7c-1.36-.23-2.57-.45-3.85-.72l.12-.59c1.5.32 2.9.56 4.54.84.38.07.52.29.52.46s0 .36-.45.47a81.88 81.88 0 00-8.57 1.81z">
                                    </path>
                                    <path class="accessory__frame_top" transform="matrix(.96 -.27 .27 .96 -2.75 51.82)"
                                      d="M186.89 35.61h.22v.6h-.22z"></path>
                                    <path class="accessory__frame_top"
                                      d="M186.6 36.34l-.17-.58.19-.06.16.58-.18.06zM125.42 32.69A1.94 1.94 0 01124 32a1.81 1.81 0 01-.15-1.67 1.5 1.5 0 011.21-.79 4.61 4.61 0 00-1.06-.49 6 6 0 01-3.87-3.29 39.64 39.64 0 01-7 4.13c-1 .39-2 .75-3 1.07l-.19-.57c.95-.32 1.95-.68 3-1.06a39.89 39.89 0 007.06-4.21l.39-.21.13.3a5.44 5.44 0 003.68 3.29c.77.28 1.44.53 1.71 1.18l.17.41h-.45c-.67 0-1.09.17-1.25.5a1.21 1.21 0 00.09 1 1.35 1.35 0 001.18.42c.55-.12 1-.72 1.2-1.74v-.16l.16-.06a3.67 3.67 0 012.85.43l-.27.54a3.27 3.27 0 00-2.23-.44c-.38 1.45-1.09 1.9-1.63 2a1.32 1.32 0 01-.31.11z">
                                    </path>
                                    <path class="accessory__frame_top" transform="rotate(-62 129.957 30.903)"
                                      d="M129.65 30.82h.6V31h-.6z"></path>
                                    <path class="accessory__frame_top"
                                      d="M130.89 31.82c-.29-.19-.58-.37-.87-.53l.29-.53c.3.17.6.36.9.55zM132.01 32.57l-.22-.15.29-.53.26.18-.33.5zM130.31 36.93l-.29-.52c.55-.31 1.11-.69 1.66-1.06a12.81 12.81 0 012.59-1.5 10.5 10.5 0 01-2-1.09l.33-.5c1.44 1 2.51 1.46 3.38 1.08l.42-.19v1.39l-.42-.19c-1.08-.47-2.49.48-4 1.49-.52.38-1.1.77-1.67 1.09zM129.89 37.16l-.27-.54.26-.14.29.53zM120.39 42.78l-.36-.19a40.51 40.51 0 00-7.12-4.23 72.67 72.67 0 00-9.48-2.91l.14-.58a73.62 73.62 0 019.55 2.92 39.87 39.87 0 017 4.13 6 6 0 013.88-3.29 4.64 4.64 0 001.06-.48 1.53 1.53 0 01-1.21-.8 1.82 1.82 0 01.15-1.67 1.92 1.92 0 011.78-.64c.54.12 1.25.56 1.63 2a3 3 0 001.91-.29l.24.55a3.42 3.42 0 01-2.5.26h-.15v-.16c-.24-1-.66-1.62-1.21-1.74a1.33 1.33 0 00-1.18.41 1.21 1.21 0 00-.09 1.05c.16.33.58.5 1.25.51h.45l-.17.41c-.27.65-.94.9-1.72 1.18a5.48 5.48 0 00-3.67 3.29zM103.27 35.41l-.22-.05.1-.59-.07.29.1-.28.22.05-.13.58zM102.12 35.16c-1.64-.34-3.21-.61-4.54-.83-.38-.08-.52-.29-.52-.47s0-.36.45-.47a79.26 79.26 0 008.56-1.81l.16.58a75.37 75.37 0 01-7.84 1.69c1.17.2 2.48.44 3.85.72z">
                                    </path>
                                    <path class="accessory__frame_top" transform="rotate(-15.75 106.493 31.787)"
                                      d="M106.36 31.48h.22v.6h-.22z"></path>
                                    <path class="accessory__frame_top"
                                      d="M106.84 31.99l-.17-.58.19-.05.16.58-.18.05zM230 58.67l-.34-.5.65-.44.34.5zM225 62.56l-.4-.45a50.75 50.75 0 014.48-3.54l.35.49a51.51 51.51 0 00-4.43 3.5zM223.2 64.3l-.2-.3s-1.52-2-2.31-3l.46-.38c.63.76 1.68 2.13 2.12 2.71l.47-.46.42.43-.71.69zM221.59 60.68l-.39-.46.16-.14.39.46-.16.14zM221.91 60.41l-.39-.46c1.42-1.18 3.38-2.65 3.4-2.66l.19-.15.18.16.85.74.16.14 1.56-1 .33.51-1.95 1.25-.51-.45c-.2-.19-.41-.37-.65-.58-.52.4-2.03 1.54-3.17 2.5z">
                                    </path>
                                    <path class="accessory__frame_top" transform="rotate(-32.99 228.725 57.004)"
                                      d="M228.6 56.7h.2v.6h-.2z"></path>
                                    <path class="accessory__frame_top"
                                      d="M229.27 56.99l-.32-.51.25-.16.33.51-.26.16zM231.17 55.77l-.32-.51.31-.2.2.23.12.28-.31.2z">
                                    </path>
                                    <path class="accessory__frame_top" transform="rotate(-32.76 232.235 54.716)"
                                      d="M231.67 54.42h1.15v.6h-1.15z"></path>
                                    <path class="accessory__frame_top"
                                      d="M235.77 55l-.22-.37h-1.43v-.6l3.28-.09-.91.58c-.23.18-.49.33-.72.48z"></path>
                                    <path class="accessory__frame_top" transform="rotate(-31.41 235.16 55.032)"
                                      d="M234.93 54.73h.43v.6h-.43z"></path>
                                    <path class="accessory__frame_top"
                                      d="M232.55 57l-.32-.5c.85-.54 1.64-1 2.34-1.45l.31.51c-.7.44-1.48.9-2.33 1.44zM254.62 62.34a1.08 1.08 0 01-.71-.3 1.15 1.15 0 01-.33-.8c0-.22 0-.31-.16-.41s-.46.13-.6.2-.52.26-.72.09a.53.53 0 01-.13-.66c.22-.58 1.46-1.72 2-1.72.47 0 .74 0 .94.25a5.05 5.05 0 01.26 3.13.71.71 0 01-.55.22zm-1.25-2.12a.68.68 0 01.38.12 1 1 0 01.43.85c0 .2 0 .31.14.4a.42.42 0 00.35.14 6.92 6.92 0 00-.21-2.31 1.52 1.52 0 00-.52-.08 4.07 4.07 0 00-1.28 1.1 1.68 1.68 0 01.71-.22zM250.87 66.27l-.51-.32a3.31 3.31 0 01.34-.45l.44.41a2.42 2.42 0 00-.27.36z">
                                    </path>
                                    <path class="accessory__frame_top"
                                      d="M251.3 65.75l-.39-.45a2.26 2.26 0 01.37-.26.84.84 0 00-.63.06.37.37 0 00-.19.44l-.57.17a1 1 0 01.43-1.11 1.65 1.65 0 011.62.05.45.45 0 01.27.44.37.37 0 01-.29.32 1.86 1.86 0 00-.62.34zM261.41 56l-.63-.28.25-.55.19.09a6.35 6.35 0 01.78-.9l-2.94.05-.27.44c-.19-.12-.42-.27-.69-.47l-.17-.13.07-.25c.07-.21.07-.21 5-.3h1.22l-1.08.58a4.16 4.16 0 00-1.43 1.35zM239.58 55a.41.41 0 01.06-.42 1.58 1.58 0 011.08-.45l-.12.59a1.46 1.46 0 00-.49.23.24.24 0 000-.21zM228.33 55.12l-.32-.51.99-.61 2.2-.05-1.67 1.12-.35-.48-.85.53zM227.26 56.59l-1.07-.85.96-.59.31.51-.23.14.06.05.42-.29.34.5-.79.53z">
                                    </path>
                                    <path class="accessory__frame_top" transform="rotate(-33.66 228.32 55.533)"
                                      d="M228.15 55.24h.29v.6h-.29z"></path>
                                    <path class="accessory__frame_top" transform="rotate(-35.27 220.426 58.07)"
                                      d="M220.19 57.77h.53v.6h-.53z"></path>
                                    <path class="accessory__frame_top" transform="rotate(-35.27 221.475 57.33)"
                                      d="M221.22 57.03h.54v.6h-.54z"></path>
                                    <path class="accessory__frame_top"
                                      d="M218.37 58.75a37.32 37.32 0 00-6.44-3.86l-.67-.31.69-.25c2.16-.64 8.05-.51 11.34 1.59l.38.24-1.78 1.26-.35-.49 1-.74c-2.83-1.58-7.27-1.83-9.61-1.47a40.66 40.66 0 015.75 3.54z">
                                    </path>
                                    <path class="accessory__frame_top"
                                      d="M219 59.21l-.37-.28.35-.48.33.24-.31.52zM210.5 58.26c-.4-.3-.79-.58-1.16-.84l-.3-.21 1.57-1.51.19.1.52.28-.3.53a3.07 3.07 0 00-.31-.17l-.73.7.88.63zM215.72 62.85l-.21-.24a28.09 28.09 0 00-4.35-3.87l.36-.48a29.46 29.46 0 014.23 3.74l.91-.93.43.42z">
                                    </path>
                                    <path class="accessory__frame_top" transform="rotate(-45.53 217.182 60.926)"
                                      d="M217.07 60.63h.24v.6h-.24z"></path>
                                    <path class="accessory__frame_top"
                                      d="M217 60.75a44 44 0 00-4.82-3.46l.31-.51a43 43 0 014.89 3.51zM212.02 57.18l-.29-.17.31-.52.29.18-.31.51zM211.41 56.82l-.29-.16.29-.53.3.17-.3.52zM205.79 59.17l-.23-.16c-1.26-.87-3.7-2.52-6-3.8l-1-.57h1.16c2.08.09 6.69 2.84 6.89 3l.26.16-.17.26s0 .06-.77.94zm-4-3.37c1.53 1 3 1.92 3.92 2.56l.35-.42a36.84 36.84 0 00-4.3-2.14zM207.71 56.58l-.21-.11c-.07 0-1.73-.85-2.65-1.39l-1-.56h3.93a.89.89 0 01.85.77v.13zm-1.54-1.46l1.38.71.49-.58a.23.23 0 00-.21-.13zM224.47 55.27l-2.2-1.64 2.54.01v.6h-.72l.41.29.43-.27.33.5-.79.51z">
                                    </path>
                                    <path class="accessory__frame_top" transform="rotate(-89.6 225.758 53.944)"
                                      d="M225.45 53.73h.6v.42h-.6z"></path>
                                    <path class="accessory__frame_top"
                                      d="M241.73 54.26l-1.22-1.08 1.22-1.08.19.12c.13.09.26.18.38.28a2.41 2.41 0 00.63.4l.72.28-.72.28a2.41 2.41 0 00-.63.4c-.12.1-.25.19-.38.28zm-.32-1.08l.37.33.15-.12.27-.21-.27-.21-.15-.12zM236.15 52.07c-.41-.27-.9-.56-1.45-.9a61.23 61.23 0 01-11.7-8.68l.42-.42A61.08 61.08 0 00235 50.66l1.47.9z">
                                    </path>
                                    <path class="accessory__frame_top" transform="rotate(-52.48 222.926 42.66)"
                                      d="M222.47 42.35h.94v.6h-.94z"></path>
                                    <path class="accessory__frame_top"
                                      d="M222.05 44.29l-.47-.36.07-.09.52.31-.12.14zM221.75 44.67l-.47-.37.21-.26.47.37-.21.26zM221.07 45.8l-.09-.09.39-.45.1.09-.4.45zM221.67 46.3l-.26-.22.38-.46.26.22-.38.46zM222.42 46.91c-.18-.14-.37-.29-.54-.44l.37-.46.55.43zM234.45 52.06l-1.81-.06h-.07l-6.27-4-.16.15-.85.74-.18.15-.19-.14s-1.1-.82-2.26-1.73l.38-.47c.85.68 1.68 1.3 2 1.58l.65-.58.51-.45.19.12 6.39 4.11h1.64zM216.32 75.36l-.15-.58a4.15 4.15 0 01.6-.1l.52-.07.11.59-.56.08a3.56 3.56 0 00-.52.08zM218.59 74.78l-.3-.52a2.12 2.12 0 00.2-.12l.35.48a1.32 1.32 0 01-.25.16zM220.23 73.65l-.34-.5.82-.56.34.5zM221.69 72.67l-.33-.5a40.3 40.3 0 016.66-3.5l.23.55a39.88 39.88 0 00-6.56 3.45zM228.73 69.03l-.23-.56.78-.32.23.56-.78.32z">
                                    </path>
                                    <path class="accessory__frame_top" transform="rotate(-21.65 230.163 68.106)"
                                      d="M229.82 67.8h.81v.6h-.81z"></path>
                                    <path class="accessory__frame_top" transform="rotate(-21.97 231.997 67.405)"
                                      d="M231.76 67.11h.39v.6h-.39z"></path>
                                    <path class="accessory__frame_top"
                                      d="M232.63 67.46l-.23-.56c1.32-.54 2.49-1 3.69-1.59.6-.27 1.35-.64 2.2-1.07l.27.54c-.86.43-1.61.8-2.22 1.08-1.21.55-2.34 1.06-3.71 1.6zM239.44 64.33l-.27-.53c1.73-.89 3.82-2 6-3.16l.28.53c-2.18 1.17-4.27 2.28-6.01 3.16z">
                                    </path>
                                    <path class="accessory__frame_top" transform="matrix(.89 -.47 .47 .89 -.03 121.3)"
                                      d="M245.56 60.42h.26v.6h-.26z"></path>
                                    <path class="accessory__frame_top" transform="rotate(-27.98 248.124 59.452)"
                                      d="M247.63 59.16h.9v.6h-.9z"></path>
                                    <path class="accessory__frame_top" transform="rotate(-27.98 248.981 59.005)"
                                      d="M248.69 58.7h.5v.6h-.5z"></path>
                                    <path class="accessory__frame_top"
                                      d="M249.51 59.04l-.28-.53.17-.09.27.54-.16.08zM251 58.06l-.4-.45c.62-.56 1-1.16.86-1.54l.59-.14a2.42 2.42 0 01-1.05 2.13zM247.26 57.11a1 1 0 01.18-.91 1.29 1.29 0 011.24-.29 2.16 2.16 0 011.88-.94 2.55 2.55 0 01.72.19l-.25.55a1.6 1.6 0 00-.53-.14 1.65 1.65 0 00-1.44.83l-.06.06-.11.09h-.15c-.42-.09-.73-.06-.86.08a.32.32 0 000 .32zM247.77 57.69a.8.8 0 01-.29-.2l.44-.41zM248.63 58.28l-.31-.51a1.94 1.94 0 00.29-.21l-.17-.23-.13-.27a.81.81 0 011.07.1l.24.16-.19.27a3.26 3.26 0 01-.8.69zM244.35 58.26l-.44-.14.19-.57.43.14zM243.54 58l-.9-.32c-.63-.23-1.29-.46-1.94-.65l.18-.58c.66.2 1.32.44 2 .67l.89.31zM234.61 58.16l-.31-.51c1.12-.67 2.33-1.34 3.61-2l.21-.11.15.18a4.13 4.13 0 01.95.9c.24-.2.56-.47.93-.37l.34.09-.16.58-.32-.09c-.09 0-.26.13-.4.25a2 2 0 01-.3.23h-.07l-.25.09-.12-.24a2.89 2.89 0 00-.86-.93c-1.2.66-2.34 1.3-3.4 1.93zM233.07 59.13l-.33-.5.34-.22.32.5-.33.22zM229 62.16l-.39-.46c1-.81 2-1.6 3.09-2.36l.34.49c-1.1.75-2.12 1.53-3.04 2.33zM222.9 68.74l-.2-.49a14.91 14.91 0 00-2.62-4.56l.46-.38a14.62 14.62 0 012.51 4.23 36.86 36.86 0 015-5.36l.39.46a35.78 35.78 0 00-5.2 5.68zM220 63.6l-.1-.12.45-.4.11.13-.46.39zM219.69 63.24l-.09-.1.2-.23.23-.2-.23.2.25-.17.09.11-.45.39zM219.47 63q-.19-.23-.42-.45l.44-.41.43.46zM217.92 64.16l-.46-.39c.1-.11.2-.23.31-.34l.44.4zM217.36 64.87l-.48-.37.21-.27.48.37-.21.27zM216.11 66.73l-.25-.52a13.91 13.91 0 00-3-3.71l.41-.44a15.58 15.58 0 012.89 3.44c.23-.33.43-.61.64-.89l.48.36c-.29.39-.58.79-.89 1.24zM212.69 62.34l-.21-.19.4-.45.22.2-.41.44zM212.33 62c-.47-.41-1-.81-1.48-1.21l.37-.48c.52.41 1 .82 1.51 1.24zM206.89 62.17l-.36-.37a37.32 37.32 0 00-7.53-5.25l.28-.53a37.87 37.87 0 017.32 5.06 8.81 8.81 0 011.4-2.53c.11-.07.43-.3 2.95 1.58l-.36.48a14 14 0 00-2.32-1.49 14.67 14.67 0 00-1.27 2.57zM198.88 56.47l-.68-.35.26-.53.7.35zM197.9 56c-.73-.36-1.48-.69-2.22-1l.22-.56c.75.3 1.52.64 2.27 1zM192.49 54.94h-4.44l-.19-.26.34-.24v-.1h4.16a4.35 4.35 0 01.85-.74l.11-.06h.12c.63.19 1.26.4 1.88.64l-.21.56c-.58-.22-1.15-.41-1.72-.59a6.78 6.78 0 00-.67.65l-.09.1zM187.78 54.56l-.13-.18.49-.34.13.18-.49.34zM187.51 54.19l-.32-.46.49-.35.32.46-.49.35z">
                                    </path>
                                    <path class="accessory__frame_top" transform="rotate(-4.53 186.912 53.606)"
                                      d="M186.58 53.3h.51v.6h-.51z"></path>
                                    <path class="accessory__frame_top"
                                      d="M185.93 54.93l-.32-.51a1.09 1.09 0 00.17-.13l.39.46zM186.18 52.3a.75.75 0 00-.07-.12l.51-.32a1.4 1.4 0 01.1.16zM186.3 52.59a.78.78 0 00-.05-.14l.56-.23c0 .07.05.14.07.21zM188.2 51.19h.73v.6h-.73zM193.34 52.58h-.13a4.35 4.35 0 01-.85-.74h-3.19v-.6h3.46l.09.09a5.08 5.08 0 00.67.65c.46-.14.9-.28 1.33-.44l.21.56c-.49.18-1 .34-1.47.49zM195.08 52l-.21-.56a32.48 32.48 0 003.74-1.65l.28.53a32.72 32.72 0 01-3.81 1.68zM200.18 49.63l-.29-.52 1.42-.85.32.51c-.47.29-.96.58-1.45.86zM202.04 48.5l-.33-.5.44-.28.33.5-.44.28zM203.76 47.34l-.36-.49c.62-.44 1.22-.91 1.8-1.38l.38.47c-.58.48-1.2.95-1.82 1.4zM208.2 47.64a.27.27 0 01-.18-.06 9 9 0 01-1.4-2.53l-.64.55-.38-.46c.32-.27.63-.54.93-.82l.37-.33.12.48a15.47 15.47 0 001.27 2.53 9.06 9.06 0 001.28-.76l.33.5c-1.08.74-1.5.9-1.7.9zM210 46.68l-.33-.5a26.16 26.16 0 004.52-3.91l.45.4a27.3 27.3 0 01-4.64 4.01zM219.29 44.22l-.22-.21a18.52 18.52 0 01-2.91-3.39 12.35 12.35 0 01-1.34 1.85l-.46-.39a10.88 10.88 0 001.5-2.16l.25-.53.28.52a19.17 19.17 0 002.87 3.46 15.19 15.19 0 003.44-5.49l.2-.5.32.43a34.84 34.84 0 002.26 2.77L225 41c-.69-.76-1.35-1.55-2-2.39a15.63 15.63 0 01-3.51 5.39zM238.12 50.58l-.21-.1a43.36 43.36 0 01-12.74-9.35l.44-.4A42.89 42.89 0 00238 49.86a3 3 0 00.86-.93l.12-.24.32.12.3.24c.14.12.31.27.4.24.46-.11 1-.26 1.57-.47l.19.57c-.62.21-1.14.36-1.62.49a1.05 1.05 0 01-.93-.38 4.35 4.35 0 01-1 .93zM250.39 51.16a2.21 2.21 0 01-1.71-.94c-1.11.17-1.37-.44-1.43-.64a.89.89 0 011.28-1.08c-1.36-1-3.38-.31-5.68.51h-.13l-.2-.56h.13c2.65-1 5.17-1.85 6.78.09l.21.25-.27.19a.77.77 0 01-1 .11c-.17-.08-.27-.13-.39-.09a.41.41 0 00-.14.42c.06.22.4.29.91.18h.13l.19.16a1.63 1.63 0 001.44.83c.4 0 .87-.24.93-.51a1.54 1.54 0 00-.51-1.19l.45-.39a2.05 2.05 0 01.62 1.7c-.16.66-1 .91-1.46 1z">
                                    </path>
                                    <path class="accessory__frame_top"
                                      d="M250 48.05c-.19-.12-.38-.24-.58-.35l-3.46-1.82.28-.53 3.45 1.82c.23.12.44.25.64.38zM243.61 44.65l-2.07-1.09.28-.53 2.07 1.09zM241 43.29c-.93-.49-1.81-.94-2.59-1.33l.27-.54 2.6 1.34zM238.12 41.8c-.78-.39-1.47-.73-2-1-2.27-1-4.11-1.77-5.73-2.42a45.45 45.45 0 01-11.9-6.38 3.51 3.51 0 00-1.72-.54c-.22 0-.43-.06-.6-.1l.15-.58a3.56 3.56 0 00.52.08 4.11 4.11 0 012 .65 44.74 44.74 0 0011.74 6.34c1.63.65 3.47 1.39 5.76 2.43.57.26 1.26.59 2 1zM253.93 47.39c-.5 0-1.74-1.14-2-1.72a.54.54 0 01.13-.67c.2-.16.44 0 .72.1s.5.25.6.19.15-.18.16-.4a1.12 1.12 0 01.33-.8.88.88 0 011.24-.09 5 5 0 01-.26 3.13c-.2.21-.47.23-.94.26zm-1.27-1.7a4.2 4.2 0 001.28 1.1 1.64 1.64 0 00.53-.08 7.25 7.25 0 00.2-2.32.46.46 0 00-.35.14c-.11.1-.12.21-.14.41a1 1 0 01-.43.85 1.1 1.1 0 01-1.09-.1zM251 41.72a1.21 1.21 0 01-.7-.19 1 1 0 01-.46-1 1 1 0 01.66-.79h.2l.15.19a1.88 1.88 0 001 .85.38.38 0 01.29.33.46.46 0 01-.27.44 1.86 1.86 0 01-.87.17zm.71-.43l.09-.29zm-1.19-.86a.58.58 0 00-.1.27.38.38 0 00.21.33.89.89 0 00.63.06 2.43 2.43 0 01-.72-.66zm-.18-.26zM260.57 51.21l-.28-.54.2-.09.27.53-.19.1zM259.68 52.36c-1.62 0-1.62 0-1.69-.25l-.06-.2.17-.13a8.68 8.68 0 01.84-.56l.3.52h.45zM264.19 52.44l-3.38-.06v-.6h1.18a6.82 6.82 0 01-.81-.93l-.11-.16.47-.37.13.17a4 4 0 001.43 1.34zM260.76 51.11l-.26-.54.15-.07.29.53-.18.08zM240.64 52a1.63 1.63 0 01-1-.45.41.41 0 01-.06-.42c.15-.32 1.45-.53 1.62-.53a.4.4 0 01.4.21.54.54 0 010 .47 1.43 1.43 0 01-.85.71zm-.2-.65a.67.67 0 00.19 0 .5.5 0 00.22-.15z">
                                    </path>
                                    <path class="accessory__frame_top" transform="rotate(-56.14 227.998 50.404)"
                                      d="M227.71 50.18h.6v.45h-.6z"></path>
                                    <path class="accessory__frame_top"
                                      d="M231.2 52.17l-2.2-.04-.8-.5.32-.51.6.38.33-.49 1.75 1.16zM228.07 51.55l-1.88-1.17 1.07-.84.48.33-.33.49-.12-.08-.06.04 1.16.72-.32.51zM218 51.94l-.08-.6.53-.08.1.59zM215.08 52.14a11.6 11.6 0 01-3.08-.33l-.77-.23.7-.34a36.88 36.88 0 006-3.52l.35.49A38.3 38.3 0 01213 51.4a18.21 18.21 0 004.52 0l.07.6a23.68 23.68 0 01-2.51.14zM221.85 51l-.23-.55c.34-.15.66-.3 1-.47l-3.39-2.4-.75.54-.35-.49.91-.66.18-.13 4.45 3.16-.38.24a9.23 9.23 0 01-1.44.76zM221.19 51.2l-.2-.57.29-.1.21.56-.3.11zM210.61 50.42L209 48.91l.3-.21 1.42-1 .36.48L210 49l.73.71c.77-.41 1.57-.89 2.37-1.41l.33.5a29.07 29.07 0 01-2.61 1.54z">
                                    </path>
                                    <path class="accessory__frame_top" transform="rotate(-36.2 211.205 47.715)"
                                      d="M211.09 47.42h.24v.6h-.24z"></path>
                                    <path class="accessory__frame_top" d="M212.93 46.77l-.38-.47.57-.47.39.46z"></path>
                                    <path class="accessory__frame_top"
                                      d="M213.6 48.65l-.33-.5a45.65 45.65 0 003.73-2.74l-1.23-1.25a24.77 24.77 0 01-2.12 2l-.39-.46a21 21 0 002.27-2.21l.21-.24 2.15 2.17-.26.21a45.2 45.2 0 01-4.03 3.02zM198.51 51.53l1.07-.61c1.09-.61 2.34-1.38 3.71-2.28l.33.51c-.65.42-1.27.82-1.87 1.18a36.32 36.32 0 004.25-2.14l-.35-.43-.77.53-.34-.5 1-.68.23-.15.17.21c.74.88.76.92.77.94l.17.26-.26.16c-.2.12-4.81 2.87-6.89 2.95z">
                                    </path>
                                    <path class="accessory__frame_top" transform="rotate(-33.92 204.47 48.236)"
                                      d="M204.28 47.94h.33v.6h-.33z"></path>
                                    <path class="accessory__frame_top" transform="rotate(-33.66 203.913 48.601)"
                                      d="M203.72 48.31h.34v.6h-.34z"></path>
                                    <path class="accessory__frame_top"
                                      d="M207.84 51.6h-4l1-.56c.92-.53 2.58-1.35 2.65-1.39l.21-.1 1 1.16v.13a.86.86 0 01-.86.76zm-1.67-.6h1.65a.28.28 0 00.22-.13l-.49-.57z">
                                    </path>
                                    <path class="accessory__frame_top" transform="rotate(-.47 222.877 52.115)"
                                      d="M224 51.89h.34v.6H224z"></path>
                                    <path class="accessory__frame_top"
                                      d="M222.27 52.5l2.2-1.64.5.33-.32.5-.15-.1-.77.57.01.33-1.47.01z"></path>
                                    <path class="accessory__frame_top" transform="rotate(-.37 227.464 53.385)"
                                      d="M224.57 51.88h1.39v.6h-1.39z"></path>
                                    <path class="accessory__frame_top"
                                      d="M216.09 31.32c-.17-.11-.19-.29-.05-.53a.94.94 0 00-.09-1.2c-.22-.27-.42-.53-.6-.77l.47-.36.6.75a1.52 1.52 0 01.14 1.87l-.28-.06z">
                                    </path>
                                    <path class="accessory__frame_top"
                                      d="M219.74 30.08c-1.93-1.58-2.92-3.08-2.94-4.45a1.65 1.65 0 011.68-1.87 2.85 2.85 0 00.41-.09 3.47 3.47 0 00-3.36-.18 2.48 2.48 0 00-1.18 1.91 4.51 4.51 0 001.09 2.6l-.48.35a5 5 0 01-1.21-2.9 3.13 3.13 0 011.46-2.45c.76-.46 2.1-.79 4.17.28l.14.13a.66.66 0 01-.28.78 1.88 1.88 0 01-.67.19c-.63.1-1.18.19-1.17 1.27s.93 2.53 2.72 4zM221.06 31.07l-.32-.23.34-.49.32.22-.34.5zM229.83 35.48c-.87-.35-1.77-.7-2.68-1a40.86 40.86 0 01-5.74-3.13l.33-.5a39.45 39.45 0 005.64 3.07c.9.34 1.8.69 2.67 1z">
                                    </path>
                                    <path class="accessory__frame_top" transform="rotate(-68.13 230.479 35.424)"
                                      d="M230.2 35.21h.6v.43h-.6z"></path>
                                    <path class="accessory__frame_top" transform="rotate(-67.76 231.241 35.738)"
                                      d="M230.95 35.6h.6v.26h-.6z"></path>
                                    <path class="accessory__frame_top"
                                      d="M238.13 39c-2-.93-4.09-1.83-6.16-2.68l.23-.56c2.07.86 4.15 1.77 6.18 2.7z">
                                    </path>
                                    <path class="accessory__frame_top"
                                      d="M239.71 39.77l-1.58-.77.25-.54 1.59.74zM241.94 40.84l-1.12-.54.26-.54 1.12.54-.26.54z">
                                    </path>
                                    <path class="accessory__frame_top" transform="rotate(-63.63 242.672 40.857)"
                                      d="M242.36 40.52h.6v.7h-.6z"></path>
                                    <path class="accessory__frame_top"
                                      d="M246 42.87c-.77-.4-1.62-.84-2.56-1.31l.27-.54 2.56 1.32z"></path>
                                    <path class="accessory__frame_top" transform="rotate(-61.92 246.771 42.974)"
                                      d="M246.47 42.76h.6v.42h-.6z"></path>
                                    <path class="accessory__frame_top"
                                      d="M248.8 44.41l-1.16-.64.28-.52 1.17.64zM250.35 45.32l-.17-.1-.64-.39.3-.51.46.26a5.9 5.9 0 00.78-1.38 4.13 4.13 0 01-3-2.74l-.11-.33.34-.06c.58-.1.56-.36.55-.59s-.17-.54-1.14-1.3l.37-.47c.92.71 1.34 1.25 1.37 1.74a1 1 0 01-.7 1.12 3.69 3.69 0 002.79 2.14l.3.08-.09.3a6.43 6.43 0 01-1.15 2.06l-.1.06zM246.72 37.46l-.3-.2.33-.5.31.2-.34.5zM244.75 36.18c-.51-.33-.47-2.54-.44-3 .08-1 .32-1.29.52-1.38a.63.63 0 01.43 0 .89.89 0 00.51 0 .47.47 0 00.21-.21 1 1 0 01.38-.35 1.7 1.7 0 012 .65 2 2 0 01.21 2 .42.42 0 01-.33.28c-.28 0-.35-.28-.39-.46s-.1-.51-.27-.61a.33.33 0 00-.28 0 .53.53 0 00-.31.19c-.13.21-.4.66 1 2l-.4.44c-1.26-1.15-1.6-2-1.15-2.72a1.14 1.14 0 01.68-.47 1 1 0 01.74.1 1.12 1.12 0 01.2.17 1.07 1.07 0 00-.21-.46 1.16 1.16 0 00-1.21-.48c-.06 0-.09.08-.16.17a1 1 0 01-.45.4 1.35 1.35 0 01-.87.06h-.08a7 7 0 00.05 3.31zM248.76 36.64l-.42-.34.38-.46.41.32zM253.64 38.61a1.2 1.2 0 01-1.1-.73 2.09 2.09 0 01-1.75.2h-.06c-.61-.42-1.14-.79-1.6-1.13l.36-.48c.44.33.95.69 1.54 1.08a1.55 1.55 0 001.48-.35l.38-.3.11.47c.1.49.39.73.77.66l.12.59zM254.47 38.32l-.36-.48a.73.73 0 00.18-.17l.46.39a1.37 1.37 0 01-.28.26zM256.28 39.73a1.84 1.84 0 00-.17-.38l.52-.3a2.38 2.38 0 01.22.49zM256.82 40.73l-.48-.36.24.18-.24-.17a.66.66 0 000-.11l.6.06a.76.76 0 01-.12.4zM256.49 41.42l-.58-.17a2.39 2.39 0 01.19-.48l.54.27a1.44 1.44 0 00-.15.38zM256.57 42.79a1.11 1.11 0 01-.72-1.26l.6.08a.52.52 0 00.34.63zM257.56 43h-.28V42.41h.46l.06.2c0 .09.05.16.07.24l-.35.08z">
                                    </path>
                                    <path class="accessory__frame_top"
                                      d="M257.87 43.92l-.56-.22a1.29 1.29 0 000-.76l.58-.14a1.83 1.83 0 01-.02 1.12zM257.27 44.71l-.37-.48a.93.93 0 00.18-.16l.44.42zM255.13 51.92a1.14 1.14 0 01-.84-.32 2.12 2.12 0 01-.31-1.88v-.21h.2a6.08 6.08 0 001.89-.68.65.65 0 01-.36-.45c-.09-.53.59-1.05 1.19-1.33a2.7 2.7 0 00.82-.56 1.78 1.78 0 01-1.14-1s-.28-.9.08-1.13l.16.25.26.13a1.91 1.91 0 00.05.53 1.31 1.31 0 001.1.67h.35l-.08.34c-.11.49-.76 1-1.35 1.25s-.84.59-.85.68a1.08 1.08 0 00.43.1h.56l-.35.44a4.71 4.71 0 01-2.4 1.25 1.46 1.46 0 00.18 1.16.63.63 0 00.57.13c.19 0 .39-.23.65-.52a7.16 7.16 0 011.24-1.09 4.4 4.4 0 011.12-.52l.18.57a3.61 3.61 0 00-1 .46 6.16 6.16 0 00-1.13 1 1.82 1.82 0 01-1 .71zM259 49.61l-.11-.59.51-.07a6.16 6.16 0 00.69-1l.51.31a5.4 5.4 0 01-.86 1.17l-.07.07h-.11c-.13.05-.32.08-.56.11zM260.83 47.3h-.6v-.81h.6c.01.24.01.51 0 .81zM260.21 46a6.47 6.47 0 00-.15-1.23l.53-.29a6.2 6.2 0 00.68.93l-.44.4a1.49 1.49 0 010 .19zM263.46 47.14a3.19 3.19 0 01-1.64-.47l.3-.52a2.17 2.17 0 002.94-.38c.4-.63.14-1.35-.7-1.92l-.47-.33.54-.2a3.89 3.89 0 00.59-.25l.28.53-.17.09a1.84 1.84 0 01.44 2.4 2.49 2.49 0 01-2.11 1.05zM265.64 43.4l-.34-.5a1.79 1.79 0 00.62-.68l.54.26a2.36 2.36 0 01-.82.92zM265.69 40.17a2.81 2.81 0 00-.35-.45l.41-.43a3.08 3.08 0 01.45.55zM264.79 39.34l-.22-.1.22-.56.27.12z">
                                    </path>
                                    <path class="accessory__frame_top"
                                      d="M264.57 39.24l-.34-.11.17-.58.39.13zM260.11 39.15h-.34l-.08-.17c-.31-.65.47-2.3 2.14-3.18l.28.53a3.86 3.86 0 00-1.78 1.84A1.91 1.91 0 01261 38a1.49 1.49 0 011.18.41l-.42.43a.88.88 0 00-.71-.24 1.21 1.21 0 00-.84.43zM271.86 42.45a6.19 6.19 0 00-1.25-3.57 7.94 7.94 0 00-8-2.77l-.21-.57c1.19-.44 3.2-.66 6 .77a7.69 7.69 0 012.65 2.21 6.75 6.75 0 011.37 3.9zM272.46 43.3h-.6v-.47h.6c.01.17.01.31 0 .47zM269.6 48.61l.06-.57c.08-.86-.18-1.39-.72-1.46L269 46a1.5 1.5 0 011.26 1.64 3.17 3.17 0 011.23 0 2.39 2.39 0 001.67-.13c-1.11-.88-1.59-1.55-1.52-2.07l.07-.54.59.07-.07.55c0 .08 0 .55 1.62 1.77l.32.24-.31.25a2.85 2.85 0 01-2.47.45 1.91 1.91 0 00-1.3.07zM267.89 52.12A2 2 0 01267 52h-.08c-.43-.19-1.24-.54-1.31-1.24s.59-1.26 2.1-2.08a1.72 1.72 0 01-.46-1 1.35 1.35 0 01.54-1.28l.35.48a.79.79 0 00-.3.74 1.08 1.08 0 00.55.83l.59.26-.57.29c-2.1 1.07-2.22 1.58-2.21 1.71 0 .35.68.63 1 .75h.08a2.36 2.36 0 001.7-.08l.18.57a4.14 4.14 0 01-1.27.17zM269.64 51.72l-.21-.56.56-.21.22.56-.57.21zM274.32 52.38a1 1 0 01-.25 0c-.38-.08-.88-.39-1.15-1.37a3.36 3.36 0 00-1.81.19l-.18-.57a3.79 3.79 0 012.33-.15h.14l.05.14c.11.48.33 1 .74 1.12a.76.76 0 00.69-.24.72.72 0 00.06-.6c-.12-.23-.48-.28-.76-.28h-.44l.17-.41c.19-.48.69-.66 1.2-.85a3.54 3.54 0 002.41-2.15l.13-.3.37.19a26.51 26.51 0 004.73 2.82c1.42.54 2.74 1 4 1.35l-.16.58c-1.31-.38-2.64-.83-4.08-1.36a26.24 26.24 0 01-4.62-2.72 4.07 4.07 0 01-2.6 2.15l-.49.2a1.06 1.06 0 01.65.53 1.28 1.28 0 01-.12 1.22 1.38 1.38 0 01-1.01.51zM291.44 53.75l-.11-.59.55-.1a49.43 49.43 0 01-4.94-1.1l.17-.58a53.72 53.72 0 005.89 1.27.45.45 0 01.43.4c0 .08 0 .33-.38.41z">
                                    </path>
                                    <path class="accessory__frame_top"
                                      d="M280.14 57.58l-.32-.51a16 16 0 012.72-1.45 48.73 48.73 0 018.3-2.37l.11.59a48.18 48.18 0 00-8.2 2.34 15.56 15.56 0 00-2.61 1.4zM279.7 57.86l-.32-.51.27-.17.32.51-.27.17zM277.94 59.05l-.28-.53c.3-.22.69-.49 1.1-.76l.33.5c-.4.27-.79.53-1.12.77zM277.1 58.12a3.57 3.57 0 00-2-1.37c-.51-.2-1-.38-1.2-.85l-.17-.41h.44c.28 0 .64 0 .76-.28a.72.72 0 00-.06-.6.76.76 0 00-.69-.24c-.41.08-.63.64-.73 1.08v.17l-.16.06a5.14 5.14 0 01-3.33-.51l-.66-.25.2-.57.68.26a5.16 5.16 0 002.77.54c.26-1 .77-1.29 1.15-1.37a1.38 1.38 0 011.29.47 1.28 1.28 0 01.12 1.22 1.06 1.06 0 01-.65.53l.49.19a4.26 4.26 0 012.27 1.59zM269 54.81l-.31-.09.15-.58.34.1zM266.77 57c-.83-.56-1.19-1-1.14-1.51.07-.7.88-1.05 1.31-1.24h.08a2.07 2.07 0 01.77-.18v.6a1.53 1.53 0 00-.55.12h-.08c-.28.12-.92.4-1 .75 0 .07 0 .37.89 1zM268.05 58.1l-.51-.33a1.69 1.69 0 01.27-.32l.4.45a.64.64 0 00-.16.2zM267.56 59.59a1.42 1.42 0 01-.25-.47l.58-.17a.79.79 0 00.13.26zM269.12 60.12l-.12-.58a.75.75 0 00.49-.36l.52.31a1.28 1.28 0 01-.89.63z">
                                    </path>
                                    <path class="accessory__frame_top"
                                      d="M270 59.48l-.52-.3a1 1 0 00.11-.23l.57.18a1.39 1.39 0 01-.16.35zM271.71 61.12l-.06-.42c-.07-.56.41-1.23 1.52-2.12a2.44 2.44 0 00-1.67-.13 2.38 2.38 0 01-1.69-.13l.29-.53a1.8 1.8 0 001.3.07 2.88 2.88 0 012.47.45l.3.23-.28.24c-1.63 1.24-1.66 1.71-1.65 1.8l.06.46zM264.37 70.92a5.54 5.54 0 01-2-.34l.21-.57a7.9 7.9 0 008-2.77 7.16 7.16 0 001.17-5.5l.6-.06a7.84 7.84 0 01-1.29 5.92 7.59 7.59 0 01-2.65 2.21 9 9 0 01-4.04 1.11zM261.62 70.21l-.31-.2.34-.5.27.18zM260 68.58a1.67 1.67 0 01-.28-1.43l.08-.17h.34l.09.12a1.22 1.22 0 00.84.44.88.88 0 00.71-.24l.42.43a1.49 1.49 0 01-1.18.41 1.85 1.85 0 01-.66-.18 3.16 3.16 0 00.16.32zM262.35 67.82l-.01-.6.21-.01.01.6-.21.01z">
                                    </path>
                                    <path class="accessory__frame_top"
                                      d="M262.86 67.8v-.6c2.22-.11 2.73-.85 3.16-1.8a1.86 1.86 0 00-.06-1.48 2.51 2.51 0 00-1.45-1.09l-.63-.17.51-.38c.68-.46 1-1 .86-1.55a1.63 1.63 0 00-1.4-1.12c-1.18-.17-2.39.57-3.23 2l-.53-.28a6.41 6.41 0 00.15-1.21h.6v.15a3.48 3.48 0 013.07-1.27 2.22 2.22 0 011.89 1.57 1.94 1.94 0 01-.67 1.85 2.68 2.68 0 011.33 1.21 2.38 2.38 0 01.07 2c-.53 1.29-1.36 2.05-3.67 2.17zM260.84 59.31l-.6-.01v-.26l.6-.01v.28zM258.21 56.92a4.27 4.27 0 01-1-.5l.33-.5a3.49 3.49 0 00.89.43zM256.48 55.87c-.11-.1-.21-.19-.3-.29l.43-.42a3.44 3.44 0 00.27.27zM254.86 56.8a7.4 7.4 0 00-.64-.15h-.2v-.2a2.11 2.11 0 01.31-1.88 1.19 1.19 0 011.09-.31 1.8 1.8 0 011 .71l-.43.42c-.27-.3-.47-.51-.66-.54a.64.64 0 00-.57.14 1.44 1.44 0 00-.18 1.15l.49.13zM252.9 69.26l-.38-.31a1.78 1.78 0 00-.93-.4l.06-.6a2.34 2.34 0 01.9.3 1.18 1.18 0 01.81-.7 1.36 1.36 0 011.25.37 2.6 2.6 0 001.63-1.4 1.18 1.18 0 00.1-.77 2 2 0 01-.39-1.88 1.52 1.52 0 011.38-.69 1.23 1.23 0 000-.75 1.32 1.32 0 00-.61-.68c-.36-.23-.09-1.12-.08-1.13a1.78 1.78 0 011.14-1 2.53 2.53 0 00-.82-.55c-.6-.29-1.28-.8-1.19-1.34a.62.62 0 01.36-.44 4.82 4.82 0 00-1-.45l.19-.57a3.81 3.81 0 011.69 1l.35.44h-.56c-.36 0-.43.12-.43.12s.25.39.86.67 1.23.76 1.34 1.24l.08.34h-.35a1.32 1.32 0 00-1.1.69 2.56 2.56 0 00-.05.45 1.8 1.8 0 01.75.9 2 2 0 010 1.35l-.06.21h-.22c-.41 0-.92.07-1.07.37s.09.94.33 1.25a1.42 1.42 0 010 1.2 3.14 3.14 0 01-2.24 2l-.19.06-.13-.15a.8.8 0 00-.79-.33.74.74 0 00-.5.65zM249.85 69.42l-.35-.48 1.22-.86.34.5zM246.86 75a1 1 0 01-.49-.11 1 1 0 01-.39-.35.47.47 0 00-.21-.21.81.81 0 00-.51 0 .7.7 0 01-.43 0c-.2-.09-.44-.33-.52-1.39 0-.42-.07-2.63.45-3l.68-.43.32.5-.68.44a7.36 7.36 0 000 3.27h.08a1.35 1.35 0 01.87.06 1 1 0 01.45.4.55.55 0 00.17.17 1.19 1.19 0 001.2-.48 1.12 1.12 0 00.21-.46 1.12 1.12 0 01-.2.17.94.94 0 01-.74.09 1.13 1.13 0 01-.68-.46c-.59-1 .18-2.12 2.75-4l.36.48c-3.14 2.33-2.76 3-2.59 3.24a.58.58 0 00.31.19.33.33 0 00.28 0c.17-.1.23-.42.27-.62s.09-.43.39-.45a.41.41 0 01.33.27 2.06 2.06 0 01-.21 2 1.9 1.9 0 01-1.47.68z">
                                    </path>
                                    <path class="accessory__frame_top"
                                      d="M246 69.88l-.32-.5c1-.66 3.18-2 3.22-2.73 0-.23 0-.49-.55-.59l.11-.59a1.09 1.09 0 011 1.21c-.05.84-1.27 1.77-3.46 3.2zM249.14 64.88l-.49-.35a3.62 3.62 0 01.36-.42l.43.41a2.6 2.6 0 00-.3.36zM249.68 64.3l-.39-.46a4.13 4.13 0 01.42-.31l.29.47a2.88 2.88 0 00-.32.3z">
                                    </path>
                                    <path class="accessory__frame_top"
                                      d="M245.71 64.05l-.27-.53c2.78-1.44 4.5-2.45 4.74-2.61l.17-.11.26.18a6.23 6.23 0 011.14 2l.1.31-.3.09a5.6 5.6 0 00-1 .36l-.25-.55a6.28 6.28 0 01.81-.3 6.2 6.2 0 00-.78-1.39c-.61.39-2.23 1.32-4.62 2.55z">
                                    </path>
                                    <path class="accessory__frame_top" transform="rotate(-26.57 243.392 64.89)"
                                      d="M243.05 64.58h.77v.6h-.77z"></path>
                                    <path class="accessory__frame_top"
                                      d="M237 68.26l-.24-.55c1.88-.84 3.76-1.73 5.6-2.64l.27.54c-1.84.91-3.73 1.8-5.63 2.65zM231.51 70.62l-.23-.55c1.28-.53 2.57-1.07 3.83-1.62l.24.55c-1.27.55-2.56 1.1-3.84 1.62z">
                                    </path>
                                    <path class="accessory__frame_top" transform="rotate(-21.89 230.284 70.792)"
                                      d="M229.97 70.49h.65v.6h-.65z"></path>
                                    <path class="accessory__frame_top"
                                      d="M224 74l-.29-.52c1.88-1.06 3.46-1.74 3.48-1.75l2.14-.82.22.55c-.7.28-1.41.56-2.14.83-.05-.04-1.6.63-3.41 1.71zM223.3 74.34l-.3-.52.31-.18.3.52-.31.18zM222.5 74.82l-.32-.5.31-.19.31.51-.3.18zM216.84 83.59a3.07 3.07 0 01-1.63-.44 3.1 3.1 0 01-1.46-2.42 3.66 3.66 0 01.44-1.67l.54.27a3.08 3.08 0 00-.38 1.4 2.48 2.48 0 001.18 1.91 3.5 3.5 0 003.36-.18 1.93 1.93 0 00-.41-.09 1.65 1.65 0 01-1.68-1.87c0-1.82 1.73-3.83 5-6l.33.5c-3.1 2-4.76 3.9-4.78 5.47 0 1.09.54 1.18 1.17 1.28a1.88 1.88 0 01.67.18.67.67 0 01.28.78l-.14.14a5.64 5.64 0 01-2.49.74z">
                                    </path>
                                    <path class="accessory__frame_top"
                                      d="M215 78.81l-.52-.32q.19-.31.45-.66l.48.35c-.12.22-.26.43-.41.63zM216.42 76.92l-.47-.38a.94.94 0 00.09-1.2c-.14-.25-.12-.43.05-.54l.32.51-.16-.25.28-.07a1.56 1.56 0 01-.11 1.93zM63.44 58.67l-.65-.44.34-.5.65.44zM68.43 62.56a51.51 51.51 0 00-4.43-3.5l.34-.49a49.52 49.52 0 014.49 3.54zM70.26 64.3l-.26-.24-.71-.69.41-.43.48.46c.44-.58 1.49-1.95 2.12-2.71l.46.38c-.8 1-2.3 2.94-2.31 3zM71.87 60.68l-.16-.14.38-.46.15.13-.37.47zM71.55 60.41c-1.14-1-2.65-2.1-3.18-2.5l-.65.58-.5.45-2-1.25.33-.51 1.56 1 .16-.14c.26-.23.52-.47.85-.74l.18-.16.19.15s2 1.48 3.4 2.66zM64.68 57.31l-.17-.11.33-.51.17.12-.33.5zM64.19 56.99l-.26-.16.33-.51.25.16-.32.51zM62.28 55.77l-.31-.2.29-.53.35.22-.33.51z">
                                    </path>
                                    <path class="accessory__frame_top" transform="rotate(-57.23 61.206 54.727)"
                                      d="M60.91 54.15h.6v1.15h-.6z"></path>
                                    <path class="accessory__frame_top" d="M57.68 55l-.7-.43-.92-.57 3.29.09v.6h-1.43z">
                                    </path>
                                    <path class="accessory__frame_top" transform="rotate(-58.54 58.308 55.037)"
                                      d="M58.01 54.82h.6v.43h-.6z"></path>
                                    <path class="accessory__frame_top"
                                      d="M60.91 57c-.85-.53-1.63-1-2.33-1.44l.31-.51c.7.42 1.49.91 2.34 1.45zM38.83 62.34a.73.73 0 01-.52-.21 5.08 5.08 0 01.26-3.13c.2-.2.47-.22.94-.25.52-.05 1.75 1.13 2 1.72a.53.53 0 01-.13.66c-.21.17-.44.05-.72-.09s-.51-.25-.6-.2-.15.19-.17.41a1.11 1.11 0 01-.33.8 1 1 0 01-.73.29zm0-.6a.51.51 0 00.35-.15c.1-.09.12-.2.14-.4a1 1 0 01.43-.85 1.08 1.08 0 011.09.1 4.18 4.18 0 00-1.28-1.1 1.59 1.59 0 00-.53.08 7.25 7.25 0 00-.24 2.32zM42.58 66.27a1.54 1.54 0 00-.27-.36l.44-.41a2.22 2.22 0 01.34.45z">
                                    </path>
                                    <path class="accessory__frame_top"
                                      d="M42.16 65.75a1.86 1.86 0 00-.62-.34.37.37 0 01-.29-.32c0-.12 0-.29.27-.44a1.65 1.65 0 011.62-.05 1 1 0 01.43 1.11l-.57-.17a.37.37 0 00-.19-.44.87.87 0 00-.64-.06 2 2 0 01.38.26zM32.05 56l-.27-.35a4.2 4.2 0 00-1.44-1.35l-1.07-.58h1.22c4.9.09 4.9.09 5 .3l.07.21-.17.13-.69.47-.27-.44-2.94-.05a6.35 6.35 0 01.78.9l.19-.09.25.55zM53.88 55l-.54-.26a.19.19 0 000 .21 1.36 1.36 0 00-.52-.23l-.09-.59a1.58 1.58 0 011.08.45.41.41 0 01.07.42zM65.13 55.12l-.88-.53-.32.48-1.67-1.12 2.19.05 1 .61-.32.51zM66.2 56.59l-.79-.53.34-.5.42.29.06-.05-.23-.14.31-.51.96.59-1.07.85z">
                                    </path>
                                    <path class="accessory__frame_top" transform="rotate(-56.36 65.172 55.54)"
                                      d="M64.87 55.4h.6v.29h-.6z"></path>
                                    <path class="accessory__frame_top" transform="rotate(-54.69 72.995 58.066)"
                                      d="M72.7 57.81h.6v.53h-.6z"></path>
                                    <path class="accessory__frame_top" transform="rotate(-54.71 71.962 57.335)"
                                      d="M71.66 57.06h.6v.54h-.6z"></path>
                                    <path class="accessory__frame_top"
                                      d="M75.09 58.75l-.36-.49a41.23 41.23 0 015.75-3.54c-2.35-.36-6.78-.1-9.6 1.47l1 .74-.35.49-1.78-1.26.37-.24c3.3-2.1 9.19-2.23 11.3-1.6l.77.22-.7.35a37.32 37.32 0 00-6.4 3.86z">
                                    </path>
                                    <path class="accessory__frame_top"
                                      d="M74.45 59.21l-.35-.48.38-.28.35.48-.38.28zM83 58.26l-.35-.49.88-.63-.74-.7-.31.17-.29-.53.52-.28.19-.1 1.57 1.51-.3.21zM77.73 62.85l-1.36-1.39.43-.46.91.93a29.46 29.46 0 014.23-3.71l.36.48a27.18 27.18 0 00-4.3 3.91z">
                                    </path>
                                    <path class="accessory__frame_top" transform="rotate(-44.51 76.259 60.934)"
                                      d="M75.96 60.81h.6v.24h-.6z"></path>
                                    <path class="accessory__frame_top"
                                      d="M76.44 60.75l-.38-.46A43 43 0 0181 56.78l.31.51a44 44 0 00-4.87 3.46zM81.44 57.18l-.31-.51.29-.18.31.52-.29.17zM82.05 56.82l-.3-.52.3-.17.29.53-.29.16zM87.67 59.17L87.5 59c-.74-.88-.77-.92-.78-.94l-.17-.26.27-.16c.2-.12 4.81-2.87 6.88-3h1.17l-1 .57c-2.28 1.28-4.73 2.93-6 3.8zm-.24-1.23l.35.42c.94-.64 2.38-1.61 3.92-2.56a36.84 36.84 0 00-4.27 2.14zM85.75 56.58l-1-1.16v-.13a.88.88 0 01.84-.77h3.94l-1 .56c-.92.54-2.58 1.36-2.65 1.39zm-.33-1.33l.49.58 1.38-.71h-1.66a.28.28 0 00-.21.13zM68.98 55.27l-.78-.51.33-.5.43.27.4-.29h-.71l-.01-.6 2.55-.01-2.21 1.64z">
                                    </path>
                                    <path class="accessory__frame_top" transform="rotate(-.37 67.96 54.419)"
                                      d="M67.5 53.65h.42v.6h-.42z"></path>
                                    <path class="accessory__frame_top"
                                      d="M51.73 54.26l-.19-.12a3.73 3.73 0 01-.38-.28 2.41 2.41 0 00-.63-.4l-.72-.28.72-.28a2.41 2.41 0 00.63-.4 3.73 3.73 0 01.38-.28l.19-.12 1.21 1.08zm-.47-1.08l.27.21.15.12.36-.33-.36-.33-.15.12zM57.3 52.07l-.3-.51 1.47-.9A61.08 61.08 0 0070 42.07l.42.42a61.23 61.23 0 01-11.68 8.68c-.53.34-1.02.63-1.44.9z">
                                    </path>
                                    <path class="accessory__frame_top"
                                      d="M70.56 43.21l-.57-.75.48-.36.57.74-.48.37zM71.41 44.3l-.12-.15.48-.37.11.15-.47.37z">
                                    </path>
                                    <path class="accessory__frame_top" transform="rotate(-38.04 71.84 44.352)"
                                      d="M71.54 44.19h.6v.33h-.6z"></path>
                                    <path class="accessory__frame_top"
                                      d="M72.39 45.8l-.4-.45.1-.09.39.45-.09.09zM71.79 46.3l-.39-.46.26-.22.39.46-.26.22zM71 46.91l-.38-.47.58-.44.38.46zM59 52.06v-.6h1.64L67 47.31l.19-.12.5.45.65.58c.37-.28 1.19-.9 2-1.58l.37.47c-1.15.91-2.25 1.73-2.25 1.73l-.19.14-.18-.15c-.33-.27-.59-.51-.85-.74l-.16-.15-6.27 4h-.07zM77.13 75.36a3.22 3.22 0 00-.51-.08l-.56-.08.1-.59.53.07a4 4 0 01.59.1zM74.87 74.78a1.32 1.32 0 01-.25-.16l.35-.48.19.12zM73.23 73.65l-.82-.56.33-.5.83.56zM71.77 72.67a39.51 39.51 0 00-6.57-3.45l.24-.55a40.3 40.3 0 016.66 3.5zM64.73 69.03l-.78-.32.22-.56.79.32-.23.56z">
                                    </path>
                                    <path class="accessory__frame_top" transform="rotate(-68.28 63.228 68.104)"
                                      d="M62.93 67.7h.6v.81h-.6z"></path>
                                    <path class="accessory__frame_top"
                                      d="M61.58 67.76l-.37-.15.23-.55.31.13-.06.29-.11.28zM60.83 67.46c-1.32-.54-2.5-1-3.71-1.6-.61-.28-1.36-.65-2.22-1.08l.27-.54c.85.43 1.59.8 2.2 1.07 1.2.55 2.37 1 3.69 1.59zM54 64.33c-1.74-.88-3.83-2-6.05-3.16l.28-.53 6 3.16z">
                                    </path>
                                    <path class="accessory__frame_top" transform="rotate(-61.95 47.774 60.721)"
                                      d="M47.47 60.59h.6v.26h-.6z"></path>
                                    <path class="accessory__frame_top" transform="rotate(-62.16 45.38 59.46)"
                                      d="M45.08 59.01h.6v.9h-.6z"></path>
                                    <path class="accessory__frame_top" transform="rotate(-62.31 44.512 59.005)"
                                      d="M44.22 58.75h.6v.5h-.6z"></path>
                                    <path class="accessory__frame_top" transform="rotate(-62.34 44.004 58.728)"
                                      d="M43.7 58.64h.6v.18h-.6z"></path>
                                    <path class="accessory__frame_top"
                                      d="M42.48 58.06a2.43 2.43 0 01-1-2.13l.58.14c-.09.38.25 1 .87 1.54zM46.19 57.11l-.57-.18a.31.31 0 000-.32c-.12-.14-.43-.17-.85-.08h-.13l-.19-.16a1.65 1.65 0 00-1.45-.8 1.74 1.74 0 00-.53.14l-.24-.55a2.55 2.55 0 01.67-.16 2.17 2.17 0 011.88.94 1.32 1.32 0 011.22.26.92.92 0 01.19.91zM45.69 57.69l-.21-.57h.06l.43.41a.69.69 0 01-.28.16zM44.82 58.28a3.41 3.41 0 01-.79-.69l-.21-.25.27-.19a.73.73 0 011-.11l-.2.56a2.2 2.2 0 00.25.17zM49.11 58.26l-.18-.57.43-.14.19.57zM49.92 58l-.2-.57.89-.31c.64-.23 1.31-.47 2-.67l.17.58c-.64.19-1.3.43-1.94.65zM58.85 58.16a58.68 58.68 0 00-3.41-1.89 2.86 2.86 0 00-.85.93l-.12.24-.32-.13a2 2 0 01-.3-.23c-.14-.12-.31-.27-.4-.25l-.32.09-.13-.58.35-.09c.38-.1.68.17.93.37a4.39 4.39 0 01.95-.91l.12-.18.24.12c1.28.66 2.5 1.33 3.61 2zM60.39 59.13l-.33-.22.32-.5.34.22-.33.5zM64.48 62.16c-.94-.8-2-1.58-3-2.33l.34-.49c1.09.76 2.13 1.55 3.09 2.36zM70.56 68.74l-.32-.42A36.26 36.26 0 0065 62.64l.39-.46a36.8 36.8 0 015 5.36 14.87 14.87 0 012.52-4.23l.46.38a14.91 14.91 0 00-2.62 4.56zM73.46 63.6l-.46-.39.11-.13.45.4-.1.12zM73.77 63.24l-.46-.39.1-.11.47.37-.11.13zM74 63l-.45-.4.42-.46.44.41zM75.54 64.16l-.29-.33.44-.4c.11.11.21.23.31.35zM76.1 64.87l-.21-.27.47-.37.22.27-.48.37zM77.34 66.74l-.27-.52c-.32-.46-.6-.86-.89-1.25l.48-.36.64.89a15.58 15.58 0 012.89-3.44l.41.44a13.91 13.91 0 00-3 3.71zM80.76 62.34l-.4-.44.22-.2.4.45-.22.19zM81.13 62l-.4-.45c.48-.42 1-.84 1.51-1.24l.37.48c-.52.4-1.01.81-1.48 1.21zM86.56 62.14l-.13-.49a15.06 15.06 0 00-1.26-2.53 13.84 13.84 0 00-2.32 1.49l-.36-.48c2.52-1.88 2.84-1.65 3-1.58a9.33 9.33 0 011.4 2.52 38.51 38.51 0 017.31-5l.29.53a37.32 37.32 0 00-7.51 5.25zM94.58 56.47l-.28-.53.69-.35.27.53zM95.56 56l-.27-.54c.75-.36 1.51-.7 2.27-1l.22.56c-.78.27-1.49.6-2.22.98zM105.41 54.94h-4.58l-.09-.1a6.86 6.86 0 00-.68-.65c-.57.18-1.14.38-1.71.59l-.21-.56a29.3 29.3 0 011.86-.64h.12l.13.05a4.28 4.28 0 01.84.74h4.17v.1l.34.24z">
                                    </path>
                                    <path class="accessory__frame_top" transform="rotate(-54.6 105.512 54.3)"
                                      d="M105.39 54h.22v.6h-.22z"></path>
                                    <path class="accessory__frame_top" d="M105.94 54.19l-.49-.35.33-.46.49.35-.33.46z">
                                    </path>
                                    <path class="accessory__frame_top" transform="rotate(-85.55 106.62 53.6)"
                                      d="M106.32 53.34h.6v.52h-.6z"></path>
                                    <path class="accessory__frame_top"
                                      d="M107.53 54.93a2.15 2.15 0 01-.24-.18l.38-.46.18.13zM107.28 52.3l-.54-.28a1.4 1.4 0 01.1-.16l.5.32zM107.16 52.59l-.58-.16a1.72 1.72 0 01.07-.21l.56.23a.78.78 0 00-.05.14zM104.52 51.19h.73v.6h-.73zM100.14 52.59h-.12c-.52-.16-1-.32-1.49-.5l.21-.56c.43.16.88.31 1.32.44a5.13 5.13 0 00.68-.65l.09-.09h3.46v.6h-3.2a4.28 4.28 0 01-.84.74zM98.38 52a32.72 32.72 0 01-3.81-1.68l.27-.53a34.07 34.07 0 003.74 1.65zM93.28 49.63c-.5-.28-1-.57-1.45-.86l.32-.51c.46.29.94.57 1.42.85zM91.42 48.51l-.44-.29.33-.5.44.28-.33.51zM89.7 47.34c-.62-.45-1.23-.92-1.82-1.4l.38-.47c.58.47 1.18.94 1.79 1.38zM85.26 47.64c-.21 0-.62-.16-1.7-.89l.33-.5a8.51 8.51 0 001.28.76 15.07 15.07 0 001.28-2.57l.12-.49.36.37c.3.28.61.55.93.82l-.39.46-.63-.55a9.22 9.22 0 01-1.4 2.53.27.27 0 01-.18.06zM83.44 46.68a27.76 27.76 0 01-4.63-4l.45-.4a26.16 26.16 0 004.52 3.91zM74.18 44.21L74 44a15.92 15.92 0 01-3.56-5.41c-.64.84-1.29 1.63-2 2.39l-.44-.4c.79-.88 1.53-1.78 2.26-2.77l.31-.43.21.5a15.19 15.19 0 003.44 5.49 19.45 19.45 0 002.87-3.46l.27-.52.26.53a10.79 10.79 0 001.49 2.16l-.45.39a12.35 12.35 0 01-1.34-1.85A18.46 18.46 0 0174.4 44zM55.31 50.6l-.12-.18a4.19 4.19 0 01-.95-.92 1.07 1.07 0 01-.94.38c-.47-.12-1-.28-1.61-.49l.19-.57c.61.21 1.11.36 1.57.47.09 0 .26-.12.4-.24l.3-.24h.07l.25-.09.12.24a3.07 3.07 0 00.85.93 42.76 42.76 0 0012.4-9.13l.45.4a43.36 43.36 0 01-12.74 9.35zM43.07 51.16h-.17c-.47 0-1.3-.3-1.46-1a2.05 2.05 0 01.65-1.73l.45.39a1.56 1.56 0 00-.54 1.23c.07.27.54.47.93.51a1.63 1.63 0 001.45-.83l.06-.07.11-.08h.15c.51.11.85 0 .91-.18a.42.42 0 00-.14-.42c-.12 0-.23 0-.4.09a.78.78 0 01-1-.15l-.26-.19.24-.21c1.61-1.94 4.12-1 6.78-.1l.12.05-.2.56h-.12c-2.3-.82-4.32-1.54-5.68-.51a1 1 0 01.76-.06 1 1 0 01.52 1.14c-.06.2-.32.81-1.43.64a2.21 2.21 0 01-1.73.92z">
                                    </path>
                                    <path class="accessory__frame_top"
                                      d="M43.48 48.05l-.33-.5c.2-.13.41-.26.63-.38l3.45-1.82.28.53-3.45 1.82c-.2.11-.4.23-.58.35zM49.84 44.65l-.28-.53c.72-.38 1.41-.75 2.08-1.09l.28.53zM52.42 43.29l-.27-.53 2.6-1.34.25.58zM55.34 41.8l-.27-.54c.79-.4 1.48-.73 2-1 2.28-1 4.13-1.78 5.76-2.42a45.44 45.44 0 0011.79-6.34 4.11 4.11 0 012-.65 3.18 3.18 0 00.52-.08l.15.58a6 6 0 01-.59.1A3.48 3.48 0 0075 32a45.45 45.45 0 01-11.9 6.4c-1.62.65-3.46 1.38-5.73 2.42-.56.25-1.25.59-2.03.98zM39.53 47.39c-.47 0-.74-.06-.94-.26a5 5 0 01-.28-3.13.87.87 0 011.23.09 1.08 1.08 0 01.33.8c0 .22 0 .31.17.4s.46-.12.6-.19.51-.26.72-.1a.54.54 0 01.13.67c-.22.58-1.49 1.72-1.96 1.72zm-.74-3a7.25 7.25 0 00.2 2.32 1.59 1.59 0 00.53.08 4.32 4.32 0 001.28-1.1c-.34.16-.76.33-1.09.1a1 1 0 01-.43-.85.59.59 0 00-.14-.41.47.47 0 00-.35-.14zM42.44 41.72a1.86 1.86 0 01-.92-.24c-.25-.15-.29-.33-.27-.44a.38.38 0 01.29-.33 1.83 1.83 0 001-.85l.11-.17h.24a1 1 0 01.66.79 1 1 0 01-.45 1 1.25 1.25 0 01-.66.24zm-.81-.72l.09.29zm.54.09a.92.92 0 00.64-.06.38.38 0 00.19-.33.58.58 0 00-.1-.27 2.35 2.35 0 01-.73.66zM32.89 51.21l-.16-.08.23-.56.21.1-.28.54zM33.78 52.36v-.6h.45l.3-.52c.24.14.51.32.84.56l.16.12-.05.21c-.08.19-.08.19-1.7.23zM29.26 52.44l1.08-.59a4.09 4.09 0 001.44-1.34l.12-.17.48.37-.12.16a6.1 6.1 0 01-.8.93h1.18v.6zM32.7 51.11l-.14-.06.09-.29.12-.28.19.09-.26.54zM52.82 52h-.08a1.43 1.43 0 01-.85-.71.54.54 0 010-.47.4.4 0 01.4-.21c.18 0 1.48.21 1.63.53a.41.41 0 01-.06.42 1.65 1.65 0 01-1.04.44zm-.2-.75a.63.63 0 00.24.16l.16-.06z">
                                    </path>
                                    <path class="accessory__frame_top" transform="rotate(-33.85 65.434 50.395)"
                                      d="M65.23 50.1h.45v.6h-.45z"></path>
                                    <path class="accessory__frame_top"
                                      d="M62.26 52.17l1.75-1.16.33.49.6-.38.31.51-.8.5-2.19.04zM65.39 51.55l-.32-.51 1.16-.72-.06-.04-.12.08-.34-.49.49-.33 1.07.84-1.88 1.17zM75.42 51.94l-.55-.09.1-.59.54.08zM78.36 52.14a23.16 23.16 0 01-2.47-.14l.07-.6a18.21 18.21 0 004.52 0 38.3 38.3 0 01-5.26-3.19l.34-.49a36.51 36.51 0 006 3.52l.67.31-.7.25a12.15 12.15 0 01-3.17.34zM71.61 51a9.82 9.82 0 01-1.45-.74l-.37-.26 4.49-3.18.17.13c.31.22.61.45.92.66l-.35.49-.75-.54-3.39 2.4a9.53 9.53 0 001 .47zM72.27 51.2l-.31-.11.21-.56.3.1-.2.57zM82.85 50.42l-.2-.1c-.84-.44-1.72-1-2.6-1.54l.32-.5c.81.52 1.6 1 2.37 1.41l.74-.71-1.14-.82.35-.48c.5.36 1 .71 1.43 1l.3.21z">
                                    </path>
                                    <path class="accessory__frame_top"
                                      d="M82.17 48.03l-.2-.14.36-.48.19.14-.35.48zM80.53 46.77l-.53-.48.39-.46c.18.16.37.32.57.47z">
                                    </path>
                                    <path class="accessory__frame_top"
                                      d="M79.86 48.65a46.79 46.79 0 01-4-3l-.25-.21 2.14-2.17.22.24a21.74 21.74 0 002.26 2.21l-.38.46a23.37 23.37 0 01-2.12-2l-1.23 1.25a44 44 0 003.71 2.74zM94.87 51.48h-1.14c-2.1-.08-6.71-2.83-6.91-2.95l-.27-.16.17-.26s0-.06.78-.94l.17-.21.23.15 1 .68-.33.5-.77-.53-.35.43a36.84 36.84 0 004.27 2.14c-.59-.36-1.21-.76-1.86-1.18l.33-.51c1.37.9 2.62 1.67 3.71 2.28z">
                                    </path>
                                    <path class="accessory__frame_top" transform="rotate(-56.03 89.007 48.236)"
                                      d="M88.71 48.07h.6v.33h-.6z"></path>
                                    <path class="accessory__frame_top" transform="rotate(-56.45 89.57 48.605)"
                                      d="M89.27 48.44h.6v.34h-.6z"></path>
                                    <path class="accessory__frame_top"
                                      d="M85.61 51.6a.87.87 0 01-.83-.76v-.13l1-1.16.21.1c.07 0 1.73.86 2.65 1.39l1 .56h-4zm-.19-.73a.25.25 0 00.2.13h1.67l-1.38-.7z">
                                    </path>
                                    <path class="accessory__frame_top" transform="rotate(-89.51 69.29 52.19)"
                                      d="M68.99 52.02h.6v.34h-.6z"></path>
                                    <path class="accessory__frame_top"
                                      d="M71.19 52.5l-1.47-.01v-.33l-.76-.57-.15.1-.33-.5.5-.33 2.21 1.64z"></path>
                                    <path class="accessory__frame_top" transform="rotate(-89.64 68.188 52.18)"
                                      d="M67.89 51.49h.6v1.39h-.6z"></path>
                                    <path class="accessory__frame_top"
                                      d="M77.37 31.32l-.16-.25-.28.07a1.56 1.56 0 01.07-1.93l.6-.75.47.36c-.18.24-.38.5-.61.77a.94.94 0 00-.08 1.2c.18.21.16.42-.01.53z">
                                    </path>
                                    <path class="accessory__frame_top"
                                      d="M73.72 30.08l-.38-.47c1.79-1.46 2.7-2.8 2.72-4s-.54-1.17-1.17-1.27a1.88 1.88 0 01-.67-.19.65.65 0 01-.29-.78l.15-.13c2.07-1.07 3.41-.74 4.16-.28a3.15 3.15 0 011.47 2.43 5 5 0 01-1.21 2.9L78 28a4.54 4.54 0 001.1-2.55 2.48 2.48 0 00-1.18-1.91 3.47 3.47 0 00-3.36.18 2.57 2.57 0 00.41.09 1.65 1.65 0 011.68 1.87c-.01 1.32-1 2.82-2.93 4.4zM72.4 31.07l-.34-.5.31-.22.35.49-.32.23zM63.63 35.48l-.23-.56c.88-.35 1.78-.7 2.69-1a39.82 39.82 0 005.62-3.07l.34.5a40.42 40.42 0 01-5.73 3.12c-.93.31-1.82.66-2.69 1.01z">
                                    </path>
                                    <path class="accessory__frame_top" transform="rotate(-21.97 62.968 35.424)"
                                      d="M62.75 35.12h.43v.6h-.43z"></path>
                                    <path class="accessory__frame_top" transform="rotate(-22.06 62.211 35.717)"
                                      d="M62.08 35.43h.26v.6h-.26z"></path>
                                    <path class="accessory__frame_top"
                                      d="M55.33 39l-.25-.54c2-.93 4.1-1.84 6.18-2.7l.23.56c-2.07.88-4.14 1.79-6.16 2.68zM53.74 39.77l-.25-.54 1.59-.74.25.54zM51.52 40.84l-.27-.54 1.13-.54.26.54z">
                                    </path>
                                    <path class="accessory__frame_top" transform="rotate(-26.48 50.805 40.862)"
                                      d="M50.45 40.56h.7v.6h-.7z"></path>
                                    <path class="accessory__frame_top" d="M47.51 42.87l-.28-.53L49.8 41l.26.54z"></path>
                                    <path class="accessory__frame_top" transform="rotate(-28.07 46.68 42.973)"
                                      d="M46.47 42.67h.42v.6h-.42z"></path>
                                    <path class="accessory__frame_top"
                                      d="M44.66 44.41l-.3-.52 1.17-.64.29.52zM43.11 45.32l-.26-.17a6.28 6.28 0 01-1.14-2l-.1-.3.3-.09a3.68 3.68 0 002.78-2.14 1 1 0 01-.69-1.17c0-.49.45-1 1.37-1.74l.37.47c-1 .76-1.13 1.14-1.14 1.3s0 .49.55.59l.34.06-.11.33a4.15 4.15 0 01-3 2.74 6.11 6.11 0 00.78 1.38l.46-.26.3.51-.65.39zM46.73 37.46l-.33-.5.3-.2.34.5-.31.2zM48.7 36.18l-.32-.5a7.4 7.4 0 000-3.28h-.08a1.35 1.35 0 01-.87-.06A1.17 1.17 0 0147 32c-.06-.09-.09-.14-.16-.17a1.17 1.17 0 00-1.2.48 1.07 1.07 0 00-.21.46.85.85 0 01.2-.17 1 1 0 01.73-.1 1.17 1.17 0 01.69.47c.45.75.1 1.57-1.15 2.72l-.41-.44c1.43-1.31 1.17-1.76 1-2a.53.53 0 00-.31-.19.37.37 0 00-.28 0 1 1 0 00-.27.62c0 .18-.08.44-.39.46a.42.42 0 01-.33-.28 2 2 0 01.21-2 1.72 1.72 0 012-.66 1 1 0 01.38.36.43.43 0 00.22.2.81.81 0 00.51 0 .63.63 0 01.43 0c.2.09.44.33.51 1.38 0 .5.05 2.71-.47 3.04zM44.69 36.64l-.36-.48.41-.32.38.46zM39.82 38.61h-.25l.12-.59c.38.07.67-.17.77-.66l.1-.47.38.3a1.57 1.57 0 001.49.35c.58-.39 1.09-.75 1.54-1.08l.36.48c-.46.34-1 .71-1.59 1.12h-.08a2.09 2.09 0 01-1.75-.2 1.19 1.19 0 01-1.09.75zM39 38.32a1.42 1.42 0 01-.28-.27l.46-.38a1.41 1.41 0 00.18.17zM37.17 39.73l-.57-.19a3.12 3.12 0 01.23-.49l.52.3a2.64 2.64 0 00-.18.38zM36.63 40.73a.76.76 0 01-.13-.4l.6-.06a.21.21 0 000 .11zM37 41.42a1.88 1.88 0 00-.15-.38l.54-.27a3.19 3.19 0 01.19.48zM36.89 42.79l-.23-.55a.52.52 0 00.35-.63l.6-.08a1.12 1.12 0 01-.72 1.26zM35.9 43v-.08l-.35-.08c0-.08 0-.15.06-.24l.07-.2h.46V43z">
                                    </path>
                                    <path class="accessory__frame_top"
                                      d="M35.59 43.92a1.83 1.83 0 010-1.12l.58.14a1.29 1.29 0 000 .76zM36.19 44.71l-.25-.22.44-.42a1.29 1.29 0 00.17.16zM38.33 51.92h-.25a1.82 1.82 0 01-1-.71 6.16 6.16 0 00-1.13-1 3.76 3.76 0 00-1-.46l.18-.57a4.11 4.11 0 011.12.53 6.77 6.77 0 011.24 1.08c.26.29.46.5.65.52a.63.63 0 00.57-.13 1.47 1.47 0 00.2-1.18 4.71 4.71 0 01-2.43-1.18l-.35-.44h.56c.36 0 .43-.11.43-.11a1.67 1.67 0 00-.86-.67c-.58-.27-1.23-.76-1.34-1.25l-.08-.35h.34a1.3 1.3 0 001.11-.68 3 3 0 00.05-.52h.2l.22-.34c.35.23.08 1.13.08 1.13a1.78 1.78 0 01-1.15 1 3 3 0 00.82.56c.61.28 1.29.8 1.2 1.33a.65.65 0 01-.36.45 6.08 6.08 0 001.89.68h.2v.21a2.15 2.15 0 01-.31 1.88 1.15 1.15 0 01-.8.22zM34.42 49.61c-.2 0-.39-.06-.56-.07h-.11l-.07-.07a5.4 5.4 0 01-.86-1.17l.51-.31A6.16 6.16 0 0034 49l.51.07zM32.63 47.3a6.31 6.31 0 010-.87h.6v.82zM33.25 46h-.6a1.58 1.58 0 010-.19l-.44-.4a6.2 6.2 0 00.68-.93l.53.27a6.21 6.21 0 00-.17 1.25zM30 47.14a2.49 2.49 0 01-2.1-1 1.84 1.84 0 01.44-2.4l-.17-.09.28-.53a3.16 3.16 0 00.54.23l.62.18-.51.37c-.83.57-1.09 1.29-.69 1.92a2.17 2.17 0 002.94.38l.3.52a3.2 3.2 0 01-1.65.42zM27.82 43.4a2.55 2.55 0 01-.83-.92l.54-.26a1.75 1.75 0 00.63.68zM27.77 40.17l-.51-.33a3.08 3.08 0 01.45-.55l.41.43a2.34 2.34 0 00-.35.45zM28.67 39.34l-.27-.54.27-.12.22.56zM28.89 39.24l-.22-.56.39-.13.16.58a2.55 2.55 0 00-.33.11zM33.69 39.15h-.34l-.1-.13a1.17 1.17 0 00-.83-.43.86.86 0 00-.71.24l-.42-.43a1.49 1.49 0 011.18-.4 1.8 1.8 0 01.65.18 3.88 3.88 0 00-1.77-1.84l.28-.53c1.67.88 2.45 2.53 2.14 3.18zM21.6 42.45H21a6.75 6.75 0 011.37-3.9A7.69 7.69 0 0125 36.31c2.82-1.43 4.83-1.21 6-.77l-.21.57a6.93 6.93 0 00-5.54.74 7 7 0 00-2.44 2 6.19 6.19 0 00-1.21 3.6zM21 43.3v-.49h.6v.46zM23.86 48.61l-.5-.28a1.91 1.91 0 00-1.3-.07 2.85 2.85 0 01-2.47-.45l-.29-.21.27-.25c1.63-1.25 1.66-1.72 1.65-1.8l-.07-.55.59-.07.07.54c.07.52-.41 1.19-1.52 2.07a2.33 2.33 0 001.67.13 3.38 3.38 0 011.23 0c0-1.09.65-1.57 1.25-1.64l.08.59c-.54.07-.8.6-.72 1.46zM25.57 52.12a4.08 4.08 0 01-1.25-.23l.18-.57a2.36 2.36 0 001.7.08h.08c.27-.12.92-.4.95-.75 0-.13-.1-.64-2.2-1.71l-.46-.24.43-.28a1.09 1.09 0 00.59-.86.78.78 0 00-.29-.74l.35-.48a1.35 1.35 0 01.54 1.28 1.72 1.72 0 01-.46 1c1.51.82 2.16 1.47 2.1 2.08s-.88 1-1.31 1.24h-.08a2 2 0 01-.87.18zM23.82 51.72l-.57-.21.21-.56.56.21-.2.56zM19.14 52.38a1.4 1.4 0 01-1.05-.49 1.31 1.31 0 01-.09-1.22 1 1 0 01.64-.53l-.48-.2a4.11 4.11 0 01-2.61-2.15 25.88 25.88 0 01-4.62 2.72c-1.43.53-2.76 1-4.07 1.36l-.16-.58c1.29-.37 2.6-.81 4-1.35a26.24 26.24 0 004.74-2.82h.08l.29-.15.12.3a3.57 3.57 0 002.41 2.15c.52.19 1 .37 1.21.85l.17.41h-.45c-.28 0-.63.06-.75.29a.72.72 0 00.05.6.78.78 0 00.69.24c.42-.09.63-.64.74-1.09v-.16l.16-.06a3.79 3.79 0 012.33.15l-.19.57a3.33 3.33 0 00-1.8-.19c-.28 1-.77 1.29-1.15 1.37a1.06 1.06 0 01-.21-.02zM2 53.75l-1.59-.28C0 53.38 0 53.13 0 53.05a.45.45 0 01.42-.4 53.37 53.37 0 005.93-1.27l.16.58a49.43 49.43 0 01-4.94 1.1l.56.1z">
                                    </path>
                                    <path class="accessory__frame_top"
                                      d="M13.32 57.58a16 16 0 00-2.62-1.4 47.87 47.87 0 00-8.19-2.34l.11-.59a49 49 0 018.3 2.37 16.36 16.36 0 012.72 1.45zM13.75 57.86l-.27-.17.32-.51.28.17-.33.51zM15.52 59.05l-1.15-.79.33-.5c.41.27.8.54 1.13.78zM16.36 58.12l-.49-.35a4.26 4.26 0 012.27-1.59l.48-.19a1 1 0 01-.64-.53 1.3 1.3 0 01.11-1.22 1.38 1.38 0 011.3-.47c.38.08.88.39 1.15 1.37a5.11 5.11 0 002.77-.54l.68-.26.2.57-.66.25a5.14 5.14 0 01-3.33.51l-.2-.06v-.18c-.1-.43-.31-1-.73-1.07a.81.81 0 00-.69.24.72.72 0 00-.05.6c.12.23.47.28.75.28h.45l-.17.42c-.2.47-.69.65-1.21.85a3.55 3.55 0 00-1.99 1.37zM24.49 54.81l-.18-.57.33-.1.16.58c-.1.03-.21.05-.31.09zM26.69 57l-.34-.5c.85-.58.89-.88.88-1 0-.35-.68-.63-.95-.75h-.08a1.64 1.64 0 00-.55-.12v-.6a2.12 2.12 0 01.77.18h.08c.43.19 1.24.54 1.31 1.24.07.47-.3.95-1.12 1.55zM25.41 58.1a.83.83 0 00-.16-.2l.4-.45a1.69 1.69 0 01.27.32zM25.9 59.59l-.47-.38a.66.66 0 00.14-.26l.57.17a1.4 1.4 0 01-.24.47zM24.34 60.12a1.28 1.28 0 01-.89-.63l.51-.31a.77.77 0 00.5.36z">
                                    </path>
                                    <path class="accessory__frame_top"
                                      d="M23.45 59.49a1.46 1.46 0 01-.16-.36l.57-.18a1.6 1.6 0 00.1.23zM21.75 61.12l-.59-.12.06-.46c0-.08 0-.56-1.62-1.77l-.32-.25.31-.25a2.88 2.88 0 012.47-.45 1.86 1.86 0 001.3-.07l.29.53a2.38 2.38 0 01-1.69.13 2.44 2.44 0 00-1.67.13c1.1.89 1.59 1.55 1.52 2.08zM29.09 70.92A9 9 0 0125 69.81a7.59 7.59 0 01-2.65-2.21 7.8 7.8 0 01-1.29-5.92l.6.06a7.11 7.11 0 001.17 5.5 6.91 6.91 0 002.44 2 6.93 6.93 0 005.56.73l.21.57a5.58 5.58 0 01-1.95.38zM31.84 70.21l-.31-.52.28-.18.34.5zM33.49 68.58l-.52-.3a3.16 3.16 0 00.16-.32 1.85 1.85 0 01-.66.18 1.49 1.49 0 01-1.18-.41l.42-.43a.87.87 0 00.71.24 1.18 1.18 0 00.83-.44l.09-.12h.34l.09.17a1.71 1.71 0 01-.28 1.43zM31.11 67.82l-.22-.01.02-.6.21.01-.01.6zM30.59 67.8c-2.3-.12-3.09-.88-3.67-2.15a2.47 2.47 0 01.08-2 2.77 2.77 0 011.33-1.19 1.92 1.92 0 01-.67-1.85A2.22 2.22 0 0129.55 59a3.5 3.5 0 013.11 1.29 1 1 0 010-.15h.6a6.56 6.56 0 00.14 1.2l-.52.29c-.85-1.43-2-2.17-3.23-2a1.63 1.63 0 00-1.4 1.12 1.54 1.54 0 00.85 1.55l.48.33-.54.2a2.54 2.54 0 00-1.5 1.1 1.85 1.85 0 00-.06 1.49c.43.95.94 1.69 3.15 1.8zM32.62 59.31v-.28l.6.01v.26l-.6.01zM35.25 56.92l-.19-.57a3.49 3.49 0 00.89-.43l.33.5a4.27 4.27 0 01-1.03.5zM37 55.87l-.4-.44a3.44 3.44 0 00.27-.27l.43.42c-.11.1-.21.19-.3.29zM38.59 56.8l-.16-.57.48-.13a1.45 1.45 0 00-.17-1.1.64.64 0 00-.57-.14c-.2 0-.39.24-.66.53l-.44-.4a1.83 1.83 0 011-.72 1.22 1.22 0 011.09.31 2.14 2.14 0 01.31 1.88v.2h-.21zM40.56 69.26l-.1-.48a.76.76 0 00-.51-.65.8.8 0 00-.78.33l-.13.15-.19-.06a3.17 3.17 0 01-2.25-2 1.44 1.44 0 010-1.19c.24-.31.5-.92.34-1.25s-.67-.37-1.07-.37h-.22l-.07-.21a2 2 0 010-1.35 1.8 1.8 0 01.75-.9 1.9 1.9 0 00-.06-.46 1.28 1.28 0 00-1.09-.68h-.35l.08-.33c.11-.49.76-1 1.34-1.25s.85-.59.85-.68-.08-.08-.42-.11h-.57l.36-.44a3.75 3.75 0 011.69-1l.19.57a4.82 4.82 0 00-1 .45.62.62 0 01.36.44c.09.54-.59 1-1.2 1.34a2.77 2.77 0 00-.82.55 1.78 1.78 0 011.15 1s.27.9-.08 1.13a1.28 1.28 0 00-.61.68 1.23 1.23 0 000 .75 1.49 1.49 0 011.37.69 2 2 0 01-.38 1.88 1.18 1.18 0 00.1.77 2.57 2.57 0 001.63 1.4 1.36 1.36 0 011.25-.37 1.2 1.2 0 01.81.7 2.35 2.35 0 01.89-.3l.07.6a1.78 1.78 0 00-.93.4zM43.6 69.42l-1.2-.84.33-.5c.45.31.86.59 1.23.86zM46.59 75a1.9 1.9 0 01-1.45-.76 2.06 2.06 0 01-.21-2 .41.41 0 01.33-.27c.3 0 .35.28.39.45s.1.52.27.62a.33.33 0 00.28 0 .58.58 0 00.31-.19c.16-.27.54-.91-2.59-3.24l.35-.48c2.57 1.91 3.35 3 2.76 4a1.15 1.15 0 01-.69.46.92.92 0 01-.73-.09.85.85 0 01-.2-.17 1.12 1.12 0 00.21.46 1.13 1.13 0 001.2.47c.07 0 .1-.07.16-.16a1.1 1.1 0 01.46-.4 1.35 1.35 0 01.87-.06h.08a7 7 0 000-3.31l-.65-.4.33-.5.68.44c.51.32.47 2.53.45 3-.08 1.06-.32 1.3-.52 1.39a.7.7 0 01-.43 0 .81.81 0 00-.51 0 .5.5 0 00-.22.21.87.87 0 01-.38.35 1 1 0 01-.55.18z">
                                    </path>
                                    <path class="accessory__frame_top"
                                      d="M47.49 69.88c-2.23-1.43-3.44-2.36-3.49-3.2a1.08 1.08 0 011-1.21l.11.59c-.58.1-.56.36-.55.59 0 .69 2.18 2.07 3.22 2.73zM44.32 64.88a3.58 3.58 0 00-.3-.36l.43-.41a3.62 3.62 0 01.36.42zM43.78 64.3a2.36 2.36 0 00-.36-.26l.33-.51a4 4 0 01.41.31z">
                                    </path>
                                    <path class="accessory__frame_top"
                                      d="M47.74 64.05c-2.38-1.23-4-2.16-4.58-2.51a6.2 6.2 0 00-.78 1.39 6.88 6.88 0 01.81.3l-.25.54a6.5 6.5 0 00-1-.35l-.29-.07.08-.3A6.28 6.28 0 0142.85 61l.26-.18.16.11c.24.16 2 1.17 4.75 2.61zM50.24 65.32l-.69-.34.27-.54.68.34-.26.54zM56.44 68.26c-1.88-.85-3.77-1.74-5.62-2.65l.27-.54c1.84.91 3.72 1.8 5.6 2.64zM62 70.62c-1.28-.52-2.57-1.07-3.84-1.62l.24-.55c1.26.55 2.55 1.09 3.83 1.62z">
                                    </path>
                                    <path class="accessory__frame_top" transform="rotate(-68.2 63.159 70.786)"
                                      d="M62.86 70.46h.6v.65h-.6z"></path>
                                    <path class="accessory__frame_top"
                                      d="M69.51 74c-1.86-1-3.41-1.71-3.43-1.72-.71-.26-1.42-.54-2.13-.82l.22-.55 2.14.82s1.6.69 3.49 1.75zM70.16 74.34l-.26-.15.09-.29.15-.26.32.18-.3.52zM71 74.82l-.3-.18.31-.52.31.2zM76.61 83.59a5.58 5.58 0 01-2.53-.71l-.15-.14a.66.66 0 01.29-.78 1.88 1.88 0 01.67-.18c.63-.1 1.18-.19 1.17-1.28-.06-1.57-1.68-3.5-4.78-5.5l.33-.5c3.32 2.14 5 4.15 5 6A1.66 1.66 0 0175 82.37a1.93 1.93 0 00-.41.09 3.47 3.47 0 003.36.18 2.48 2.48 0 001.18-1.91 3.08 3.08 0 00-.38-1.4l.53-.27a3.56 3.56 0 01.45 1.67 3.12 3.12 0 01-1.47 2.42 3 3 0 01-1.65.44z">
                                    </path>
                                    <path class="accessory__frame_top"
                                      d="M78.43 78.81q-.18-.3-.42-.63l.49-.35a6.87 6.87 0 01.44.66zM77 76.92a1.54 1.54 0 01-.15-1.87h.29l.19-.3c.17.11.19.29 0 .54a.94.94 0 00.08 1.2zM146.83 60.16H146.48a31.93 31.93 0 00-5.67-3.38 66.25 66.25 0 00-5-1.65h-23.87l-.89-.89h-.41a2.23 2.23 0 01-1.92 1.11 2.31 2.31 0 01-1.06-.26l.29-.53a1.69 1.69 0 00.77.19 1.65 1.65 0 001.47-.93l.08-.18h1l.89.9H136c1.65.47 3.3 1 5.05 1.67a31.7 31.7 0 015.7 3.38 32.44 32.44 0 015.72-3.38c1.75-.66 3.4-1.2 5.05-1.67h23.77l.9-.9h1l.09.17a1.63 1.63 0 001.47.94 1.69 1.69 0 00.77-.19l.29.53a2.31 2.31 0 01-1.06.26 2.25 2.25 0 01-1.93-1.11h-.41l-.89.89h-23.9c-1.62.47-3.24 1-5 1.65a31.93 31.93 0 00-5.62 3.3zM182.28 52.56h-.12l-.9-.89h-23.54c-1.69-.47-3.42-1-5.28-1.74a32.14 32.14 0 01-5.71-3.38 32.61 32.61 0 01-5.73 3.37c-1.86.7-3.59 1.27-5.28 1.74h-23.53l-.89.89h-1l-.13-.15a1.62 1.62 0 00-2.79-.3l-.48-.36a2.23 2.23 0 013.74.25h.38l.89-.89h23.67c1.67-.46 3.37-1 5.2-1.71a32.54 32.54 0 005.7-3.39l.15-.08H146.98a32.54 32.54 0 005.67 3.38c1.83.68 3.53 1.25 5.19 1.71h23.67l.89.89h.39a2.23 2.23 0 013.74-.24l-.48.36a1.63 1.63 0 00-2.8.3l-.06.15h-.16z">
                                    </path>
                                  </g>
                                </g>
                              </svg>