<svg xmlns="http://www.w3.org/2000/svg" viewBox="0 0 100 43">
                                <defs>
                                  <style>
                                    .accessory__frame_under {
                                      fill: #6e6760
                                    }
                                  </style>
                                </defs>
                                <g id="レイヤー_2" data-name="レイヤー 2">
                                  <g id="レイヤー_2-2" data-name="レイヤー 2">
                                    <path class="accessory__frame_under"
                                      d="M46.22 29.91c-.32-1-.68-2-1.06-3A40.2 40.2 0 0041 19.85l-.21-.39.3-.13a5.43 5.43 0 003.28-3.67c.29-.78.54-1.45 1.19-1.72l.41-.16v.44q0 1 .51 1.26a1.24 1.24 0 001-.1 1.33 1.33 0 00.41-1.18c-.12-.55-.72-1-1.73-1.2H46l-.05-.16a3.67 3.67 0 01.41-2.84l.54.27a3.27 3.27 0 00-.44 2.23c1.46.38 1.9 1.09 2 1.63a1.92 1.92 0 01-.64 1.78 1.8 1.8 0 01-1.68.15 1.55 1.55 0 01-.79-1.21 4.64 4.64 0 00-.48 1.06 6 6 0 01-3.29 3.88 39.81 39.81 0 014.13 7c.38 1 .74 2 1.06 3zM46.96 10.11l-.54-.27.09-.16.53.28-.08.15zM47.11 9.82l-.52-.29c.17-.3.36-.6.55-.9l.5.33c-.18.28-.36.57-.53.86z">
                                    </path>
                                    <path class="accessory__frame_under" transform="rotate(-55.95 48.054 7.806)"
                                      d="M47.9 7.5h.32v.6h-.32z"></path>
                                    <path class="accessory__frame_under"
                                      d="M52.23 9.82c-.31-.55-.69-1.11-1.06-1.66a13.53 13.53 0 01-1.5-2.59 10 10 0 01-1.09 2l-.5-.33c1-1.44 1.47-2.51 1.08-3.38L49 3.42h1.39l-.19.42c-.47 1.08.48 2.49 1.49 4 .37.55.76 1.13 1.08 1.7zM52.44 10.22l-.13-.22.53-.29c0 .1.1.19.14.29zM51.28 36.41l-.59-.13a72.78 72.78 0 012.93-9.56 39.81 39.81 0 014.12-7 6 6 0 01-3.28-3.87A4.61 4.61 0 0054 14.8a1.52 1.52 0 01-.82 1.2 1.78 1.78 0 01-1.67-.15 1.88 1.88 0 01-.64-1.78c.11-.54.56-1.25 2-1.63a3 3 0 00-.29-1.91l.55-.24a3.43 3.43 0 01.27 2.5v.16h-.16c-1 .23-1.63.65-1.75 1.2a1.31 1.31 0 00.42 1.18 1.23 1.23 0 001 .1q.51-.25.51-1.26v-.44l.41.16c.66.27.9.94 1.19 1.72a5.45 5.45 0 003.29 3.67l.3.13-.19.36a40.47 40.47 0 00-4.24 7.11 73 73 0 00-2.9 9.53z">
                                    </path>
                                    <path class="accessory__frame_under" transform="rotate(-77.41 50.918 36.63)"
                                      d="M50.79 36.33h.26v.6h-.26z"></path>
                                    <path class="accessory__frame_under"
                                      d="M49.67 42.79c-.11 0-.35 0-.45-.46a80.7 80.7 0 00-1.81-8.56l.57-.16a77.76 77.76 0 011.7 7.84c.23-1.35.45-2.57.72-3.85l.59.12c-.32 1.5-.57 2.9-.84 4.55-.07.38-.29.51-.47.52z">
                                    </path>
                                    <path class="accessory__frame_under" transform="rotate(-15.73 47.618 33.394)"
                                      d="M47.31 33.27h.6v.22h-.6z"></path>
                                    <path class="accessory__frame_under"
                                      d="M47.24 33.17l-.06-.19.58-.16.05.18-.57.17zM28.37 7.78a1.92 1.92 0 01-1.44-.68 1.77 1.77 0 01-.16-1.67A1.54 1.54 0 0128 4.64a4.51 4.51 0 00-1.07-.49A6 6 0 0123.05.86a38.7 38.7 0 01-7 4.13c-1 .39-2 .75-3 1.07l-.19-.57c.95-.32 1.95-.68 3-1.06A40 40 0 0022.94.21l.39-.21.13.3a5.39 5.39 0 003.67 3.29c.77.29 1.44.53 1.71 1.18l.17.42h-.44c-.67 0-1.1.17-1.26.51a1.27 1.27 0 00.09 1 1.34 1.34 0 001.18.42c.55-.12 1-.72 1.21-1.74v-.16L30 5.2a3.7 3.7 0 012.84.43l-.27.54a3.26 3.26 0 00-2.23-.44c-.38 1.45-1.09 1.9-1.62 2a1.37 1.37 0 01-.35.05z">
                                    </path>
                                    <path class="accessory__frame_under" transform="rotate(-62 32.887 6)"
                                      d="M32.59 5.91h.6v.18h-.6z"></path>
                                    <path class="accessory__frame_under"
                                      d="M33.83 6.91c-.29-.19-.58-.37-.87-.53l.3-.52c.3.16.6.35.9.55zM34.95 7.66l-.21-.14.28-.54.26.18-.33.5zM33.26 12l-.26-.5c.55-.31 1.12-.69 1.66-1.06a13.36 13.36 0 012.6-1.5 10.89 10.89 0 01-2-1.09l.34-.5c1.44 1 2.5 1.46 3.37 1.08l.42-.19v1.39l-.42-.18c-1.08-.48-2.49.47-4 1.49-.57.37-1.14.76-1.71 1.06zM32.83 12.25l-.27-.54.26-.14.29.53zM23.33 17.88l-.36-.2a40.15 40.15 0 00-7.12-4.23 73.14 73.14 0 00-9.48-2.91l.14-.54a74.09 74.09 0 019.55 2.92 39.87 39.87 0 017 4.13 6 6 0 013.87-3.29 4.54 4.54 0 001.07-.52 1.57 1.57 0 01-1.22-.79 1.8 1.8 0 01.16-1.68 1.9 1.9 0 011.78-.64c.53.12 1.24.56 1.62 2a3 3 0 001.91-.29l.24.55a3.4 3.4 0 01-2.49.26l-.17-.05v-.17c-.24-1-.65-1.61-1.21-1.73a1.36 1.36 0 00-1.18.41 1.29 1.29 0 00-.09 1c.16.33.59.5 1.26.51H29l-.1.37c-.28.7-1 .94-1.72 1.23a5.4 5.4 0 00-3.67 3.28zM6.21 10.5l-.22-.05.1-.59-.06.29.09-.28.23.05-.14.58zM5.06 10.25c-1.64-.34-3.2-.61-4.54-.83C.14 9.34 0 9.13 0 9s0-.36.45-.46A82.16 82.16 0 009 6.67l.16.58A78.49 78.49 0 011.33 9c1.18.19 2.49.43 3.85.72z">
                                    </path>
                                    <path class="accessory__frame_under" transform="rotate(-15.75 9.403 6.863)"
                                      d="M9.3 6.57h.22v.6H9.3z"></path>
                                    <path class="accessory__frame_under"
                                      d="M9.78 7.08l-.16-.58.18-.05.17.58-.19.05zM76 17.88l-.13-.31a5.43 5.43 0 00-3.67-3.28c-.78-.29-1.45-.53-1.72-1.19l-.09-.37h.37q1 0 1.26-.51a1.24 1.24 0 00-.1-1 1.33 1.33 0 00-1.18-.41c-.55.12-1 .72-1.2 1.73v.17l-.16.05a3.67 3.67 0 01-2.85-.42l.27-.54a3.27 3.27 0 002.23.44c.39-1.46 1.09-1.9 1.63-2a1.92 1.92 0 011.78.64 1.8 1.8 0 01.15 1.68 1.57 1.57 0 01-1.22.79 4.36 4.36 0 001.07.48A6 6 0 0176.3 17a39.2 39.2 0 017-4.13c1-.39 2-.74 3-1.06l.19.57c-.94.31-1.94.67-3 1.06a40.2 40.2 0 00-7.08 4.21zM66.39 12.19l-.16-.09.29-.53.15.08-.28.54zM66.09 12c-.3-.17-.6-.35-.9-.55l.32-.5c.29.19.58.36.87.53z">
                                    </path>
                                    <path class="accessory__frame_under" transform="rotate(-56.06 64.364 10.556)"
                                      d="M64.06 10.4h.6v.32h-.6z"></path>
                                    <path class="accessory__frame_under"
                                      d="M63.78 10.53c-1.44-.95-2.51-1.47-3.38-1.08l-.4.18V8.24l.42.19c1.08.48 2.49-.48 4-1.49.55-.37 1.13-.76 1.7-1.08l.29.52c-.55.31-1.11.69-1.66 1.06a13.53 13.53 0 01-2.59 1.5 10 10 0 012 1.09zM66.52 6.3l-.29-.53.28-.14.27.54zM92.84 7.92A72.78 72.78 0 0183.28 5a39.81 39.81 0 01-7-4.12 6 6 0 01-3.87 3.28 4.61 4.61 0 00-1.06.49 1.52 1.52 0 011.21.79 1.78 1.78 0 01-.15 1.67 1.88 1.88 0 01-1.78.64c-.54-.11-1.25-.56-1.63-2a2.91 2.91 0 00-1.9.25l-.24-.55a3.43 3.43 0 012.5-.27h.15v.16c.24 1 .66 1.63 1.21 1.75a1.33 1.33 0 001.18-.42 1.23 1.23 0 00.1-1c-.17-.33-.59-.51-1.26-.51h-.45l.17-.41c.27-.66.94-.9 1.72-1.19A5.43 5.43 0 0075.89.3L76 0l.36.19a40.47 40.47 0 007.11 4.24A73.14 73.14 0 0093 7.34zM93.25 8.02L93 7.96l.13-.59.25.06-.13.59zM90.33 11.21l-.16-.58A78.35 78.35 0 0198 8.93c-1.35-.23-2.56-.45-3.85-.72l.12-.59c1.5.32 2.9.57 4.55.84.38.07.51.29.51.47s0 .36-.45.46a79.52 79.52 0 00-8.55 1.82z">
                                    </path>
                                    <path class="accessory__frame_under" transform="matrix(.96 -.27 .27 .96 .37 24.69)"
                                      d="M89.83 10.7h.22v.6h-.22z"></path>
                                    <path class="accessory__frame_under" d="M89.55 11.43l-.18-.58.17-.05.19.57-.18.06z">
                                    </path>
                                  </g>
                                </g>
                              </svg>