<svg viewBox="0 0 492 46" xmlns="http://www.w3.org/2000/svg">
                              <defs>
                                <style>
                                  .joshuaRosfield {
                                    fill: #ebe6e2;
                                    fill-rule: evenodd;
                                  }
                                </style>
                              </defs>
                              <path id="Joshua_Rosfield.svg" data-name="Joshua Rosfield.svg" class="joshuaRosfield"
                                d="M714.608,1332c-1.267,0-2.592.01-3.975,0.02s-2.708.03-3.975,0.03-2.633-.01-4.1-0.03-2.833-.02-4.1-0.02v0.8q1.1,0.2,2.05.45a3.541,3.541,0,0,1,1.65.97,4.874,4.874,0,0,1,1.075,2.13,15.544,15.544,0,0,1,.375,3.85v21.65a55.074,55.074,0,0,1-.275,6,19.384,19.384,0,0,1-.825,4.05,7.835,7.835,0,0,1-1.275,2.47,4.46,4.46,0,0,1-1.625,1.28,6.188,6.188,0,0,1-1.925.5,21.414,21.414,0,0,1-2.175.1V1377a7.064,7.064,0,0,0,1.7.6,7.87,7.87,0,0,0,1.65.2,12.879,12.879,0,0,0,3.225-.48,7.9,7.9,0,0,0,3.475-2.05,12.089,12.089,0,0,0,2.775-4.52,22.706,22.706,0,0,0,1.125-7.9V1340.2a15.544,15.544,0,0,1,.375-3.85,5.051,5.051,0,0,1,1.05-2.13,3.384,3.384,0,0,1,1.625-.97q0.949-.255,2.1-0.45V1332Zm5.85,28.92a16.731,16.731,0,0,0,3.775,5.53,17.71,17.71,0,0,0,5.75,3.7,20.142,20.142,0,0,0,14.5,0,17.71,17.71,0,0,0,5.75-3.7,17.241,17.241,0,0,0,0-24.7,17.71,17.71,0,0,0-5.75-3.7,20.142,20.142,0,0,0-14.5,0,17.71,17.71,0,0,0-5.75,3.7,16.793,16.793,0,0,0-3.775,5.52A17.927,17.927,0,0,0,720.458,1360.92Zm5.625-12.65a13.968,13.968,0,0,1,2.65-4.5,11.989,11.989,0,0,1,3.875-2.9,11.038,11.038,0,0,1,4.7-1.02,10.926,10.926,0,0,1,4.65,1.02,11.716,11.716,0,0,1,3.85,2.9,14.23,14.23,0,0,1,2.625,4.5,17.59,17.59,0,0,1,0,11.55,14.23,14.23,0,0,1-2.625,4.5,11.946,11.946,0,0,1-3.85,2.93,10.665,10.665,0,0,1-4.65,1.05,10.773,10.773,0,0,1-4.7-1.05,12.228,12.228,0,0,1-3.875-2.93,13.968,13.968,0,0,1-2.65-4.5A17.59,17.59,0,0,1,726.083,1348.27Zm43.425-6.65a9.365,9.365,0,0,1,5.7-1.47,3.754,3.754,0,0,1,2.725.95,5.636,5.636,0,0,1,1.175,3.6h0.95l0.4-7.1a11.79,11.79,0,0,0-4.3-.7,23.633,23.633,0,0,0-5.825.65,13.039,13.039,0,0,0-4.25,1.85,8.067,8.067,0,0,0-2.6,2.87,7.859,7.859,0,0,0-.875,3.68,8.3,8.3,0,0,0,1.125,4.52,10.982,10.982,0,0,0,2.825,3.03,20.788,20.788,0,0,0,3.675,2.15,38.9,38.9,0,0,1,3.675,1.9,11.053,11.053,0,0,1,2.825,2.32,5.052,5.052,0,0,1,1.125,3.38,3.556,3.556,0,0,1-1,2.67,6.251,6.251,0,0,1-2.35,1.45,10.444,10.444,0,0,1-2.7.58c-0.9.07-1.6,0.1-2.1,0.1a15.67,15.67,0,0,1-2.25-.13,2.978,2.978,0,0,1-1.5-.6,3.45,3.45,0,0,1-1-1.45,13.407,13.407,0,0,1-.7-2.62h-1l-0.3,6.95a18.273,18.273,0,0,0,3.1.9,17.3,17.3,0,0,0,3.45.35,29.24,29.24,0,0,0,4.825-.4,14.329,14.329,0,0,0,4.4-1.45,8.8,8.8,0,0,0,3.2-2.85,7.918,7.918,0,0,0,1.225-4.55,8,8,0,0,0-1.15-4.43,11.511,11.511,0,0,0-2.9-3.05,23.164,23.164,0,0,0-3.75-2.22c-1.333-.63-2.583-1.28-3.75-1.93a12.2,12.2,0,0,1-2.9-2.17,4.163,4.163,0,0,1-1.15-3A4.56,4.56,0,0,1,769.508,1341.62Zm53.125,28.85c1.317,0.02,2.525.05,3.625,0.08v-0.85a7.558,7.558,0,0,1-2.325-.63,3.021,3.021,0,0,1-1.325-1.17,4.9,4.9,0,0,1-.6-1.88,20.923,20.923,0,0,1-.15-2.72V1345a20.7,20.7,0,0,1,.15-2.68,4.847,4.847,0,0,1,.6-1.87,3.1,3.1,0,0,1,1.325-1.18,7.148,7.148,0,0,1,2.325-.57v-0.95c-1.067,0-2.242.01-3.525,0.02s-2.458.03-3.525,0.03-2.25-.01-3.55-0.03-2.483-.02-3.55-0.02v0.95a6.775,6.775,0,0,1,2.25.57,3.129,3.129,0,0,1,1.3,1.18,4.575,4.575,0,0,1,.575,1.87,24.874,24.874,0,0,1,.125,2.68v6.4h-16.45V1345a24.874,24.874,0,0,1,.125-2.68,4.575,4.575,0,0,1,.575-1.87,3.1,3.1,0,0,1,1.325-1.18,7.148,7.148,0,0,1,2.325-.57v-0.95c-1.067,0-2.233.01-3.5,0.02s-2.433.03-3.5,0.03-2.258-.01-3.575-0.03-2.508-.02-3.575-0.02v0.95a6.878,6.878,0,0,1,2.3.57,2.962,2.962,0,0,1,1.275,1.18,4.852,4.852,0,0,1,.55,1.87,24.874,24.874,0,0,1,.125,2.68v18.3a24.676,24.676,0,0,1-.125,2.67,5.065,5.065,0,0,1-.55,1.9,2.835,2.835,0,0,1-1.275,1.2,7.256,7.256,0,0,1-2.3.63v0.85c1.067-.03,2.242-0.06,3.525-0.08s2.458-.02,3.525-0.02h3.55c1.3,0,2.483.03,3.55,0.1v-0.85a7.558,7.558,0,0,1-2.325-.63,3.021,3.021,0,0,1-1.325-1.17,4.623,4.623,0,0,1-.575-1.88,25.147,25.147,0,0,1-.125-2.72v-8.5h16.45v8.5a24.676,24.676,0,0,1-.125,2.67,4.772,4.772,0,0,1-.575,1.9,2.985,2.985,0,0,1-1.3,1.2,7.177,7.177,0,0,1-2.25.63v0.85c1.033-.07,2.183-0.1,3.45-0.1h3.5C820.125,1370.45,821.316,1370.46,822.633,1370.47Zm23.525-32.67c-1.067,0-2.233.01-3.5,0.02s-2.433.03-3.5,0.03-2.283-.01-3.65-0.03-2.583-.02-3.65-0.02v0.95c0.633,0.1,1.217.22,1.75,0.35a3.269,3.269,0,0,1,1.4.72,3.349,3.349,0,0,1,.925,1.5,8.806,8.806,0,0,1,.325,2.68v16.2c0,3.77,1.108,6.58,3.325,8.45s5.408,2.8,9.575,2.8a21.434,21.434,0,0,0,8.2-1.25,8.817,8.817,0,0,0,4.275-3.58,12.9,12.9,0,0,0,1.625-5.67q0.25-3.345.25-7.55V1344a8.806,8.806,0,0,1,.325-2.68,3.612,3.612,0,0,1,.875-1.5,2.916,2.916,0,0,1,1.35-.72c0.533-.13,1.133-0.25,1.8-0.35v-0.95c-1.067,0-1.992.01-2.775,0.02s-1.708.03-2.775,0.03h-1.8q-1,0-2.025-.03c-0.683-.01-1.358-0.02-2.025-0.02h-1.8v0.95c0.633,0.1,1.217.22,1.75,0.35a3.269,3.269,0,0,1,1.4.72,3.349,3.349,0,0,1,.925,1.5,8.806,8.806,0,0,1,.325,2.68v10.65c0,1.9-.067,3.67-0.2,5.3a12.418,12.418,0,0,1-1.05,4.27,6.434,6.434,0,0,1-2.625,2.88,9.819,9.819,0,0,1-4.975,1.05,11.235,11.235,0,0,1-4.35-.7,5.621,5.621,0,0,1-2.55-2.05,8.324,8.324,0,0,1-1.225-3.28,26.662,26.662,0,0,1-.325-4.42V1344a8.806,8.806,0,0,1,.325-2.68,3.475,3.475,0,0,1,.9-1.5,3.085,3.085,0,0,1,1.375-.72c0.533-.13,1.133-0.25,1.8-0.35v-0.95Zm48.975,30.57a0.934,0.934,0,0,1-.375.55,2.567,2.567,0,0,1-.925.38,9.345,9.345,0,0,1-1.725.2v1c1.233-.03,2.325-0.06,3.275-0.08s2.042-.02,3.275-0.02c1.267,0,2.433.01,3.5,0.02s2.217,0.05,3.45.08v-1a5.631,5.631,0,0,1-2.125-.43,4.276,4.276,0,0,1-1.45-1.07,7.413,7.413,0,0,1-1.125-1.75q-0.5-1.05-1.1-2.4c-0.8-1.77-1.675-3.79-2.625-6.08s-1.917-4.64-2.9-7.07-1.925-4.86-2.825-7.28-1.7-4.65-2.4-6.72l-1.6.2c-0.667,1.37-1.458,3.03-2.375,5s-1.883,4.05-2.9,6.25-2.033,4.41-3.05,6.62-1.95,4.25-2.8,6.08-1.583,3.37-2.2,4.62-1.008,2.01-1.175,2.28a3.175,3.175,0,0,1-1.275,1.12,8.477,8.477,0,0,1-2.575.68v0.95q0.8,0,1.4-.03c0.4-.01.8-0.03,1.2-0.05s0.817-.02,1.25-0.02h1.5c1.2,0,2.483.01,3.85,0.02s2.683,0.05,3.95.08v-1a13.547,13.547,0,0,1-2.025-.2,3.577,3.577,0,0,1-1.225-.43,1.53,1.53,0,0,1-.625-0.65,2.032,2.032,0,0,1-.175-0.87,3.663,3.663,0,0,1,.075-0.6,11.14,11.14,0,0,1,.375-1.3q0.3-.9.9-2.4c0.4-1,.933-2.32,1.6-3.95h11.3c0.533,1.5.975,2.77,1.325,3.8s0.633,1.87.85,2.52,0.367,1.15.45,1.48a3.45,3.45,0,0,1,.125.7A3.4,3.4,0,0,1,895.133,1368.37ZM887.208,1345q1.25,3.345,2.25,6c0.667,1.77,1.267,3.38,1.8,4.85h-8.75Zm56.85,25.47c1.433,0.02,2.783.05,4.05,0.08v-0.7a7.038,7.038,0,0,1-2.75-.78,3.967,3.967,0,0,1-1.55-1.57,6.375,6.375,0,0,1-.7-2.4,30.9,30.9,0,0,1-.15-3.25v-7.5h3.7q2.05,1.95,4.475,4.52t4.625,5.03c1.467,1.63,2.75,3.07,3.85,4.3s1.8,2,2.1,2.3c0.567-.03,1.208-0.05,1.925-0.05h1.625c0.467,0,1.208.01,2.225,0.02s2.058,0.06,3.125.13l0.2-.7a12.185,12.185,0,0,1-2.525-.88,12.91,12.91,0,0,1-2.125-1.32,21.217,21.217,0,0,1-2.225-1.98c-0.783-.78-1.692-1.74-2.725-2.87l-8.25-8.95a15.862,15.862,0,0,0,4.6-1.73,13.554,13.554,0,0,0,3.5-2.82,12.211,12.211,0,0,0,2.225-3.63,11.147,11.147,0,0,0,.775-4.12,8.326,8.326,0,0,0-3.85-7.43q-3.851-2.52-11.25-2.52c-0.667,0-1.392.02-2.175,0.07l-2.375.15c-0.8.05-1.567,0.1-2.3,0.13s-1.383.05-1.95,0.05q-1.9,0-4.025-.03c-1.417-.01-2.758-0.02-4.025-0.02v0.8a8.029,8.029,0,0,1,2.675.7,3.627,3.627,0,0,1,1.5,1.37,5.484,5.484,0,0,1,.675,2.2,28.4,28.4,0,0,1,.15,3.13v21.65a30.3,30.3,0,0,1-.15,3.2,6.7,6.7,0,0,1-.675,2.4,4.049,4.049,0,0,1-1.5,1.6,6.55,6.55,0,0,1-2.675.8v0.7c1.233-.03,2.542-0.06,3.925-0.08s2.708-.02,3.975-0.02S942.625,1370.46,944.058,1370.47Zm-1.1-29.42a23.85,23.85,0,0,1,.175-3.23,3.708,3.708,0,0,1,.75-1.9,2.82,2.82,0,0,1,1.6-.9,13.258,13.258,0,0,1,2.725-.22,12.262,12.262,0,0,1,4.85.82,8.433,8.433,0,0,1,2.975,2.03,6.94,6.94,0,0,1,1.5,2.55,7.987,7.987,0,0,1,.425,2.35,8.662,8.662,0,0,1-.8,3.87,7.4,7.4,0,0,1-2.175,2.68,9.12,9.12,0,0,1-3.275,1.55,16.218,16.218,0,0,1-4.1.5h-4.65v-10.1Zm29,19.87a16.731,16.731,0,0,0,3.775,5.53,17.71,17.71,0,0,0,5.75,3.7,20.142,20.142,0,0,0,14.5,0,17.622,17.622,0,0,0,5.747-3.7,17.241,17.241,0,0,0,0-24.7,17.622,17.622,0,0,0-5.747-3.7,20.142,20.142,0,0,0-14.5,0,17.71,17.71,0,0,0-5.75,3.7,16.793,16.793,0,0,0-3.775,5.52A17.927,17.927,0,0,0,971.958,1360.92Zm5.625-12.65a13.968,13.968,0,0,1,2.65-4.5,11.989,11.989,0,0,1,3.875-2.9,11.038,11.038,0,0,1,4.7-1.02,10.926,10.926,0,0,1,4.65,1.02,11.716,11.716,0,0,1,3.85,2.9,14.23,14.23,0,0,1,2.625,4.5,17.556,17.556,0,0,1,0,11.55,14.23,14.23,0,0,1-2.625,4.5,11.946,11.946,0,0,1-3.85,2.93,10.665,10.665,0,0,1-4.65,1.05,10.773,10.773,0,0,1-4.7-1.05,12.228,12.228,0,0,1-3.875-2.93,13.968,13.968,0,0,1-2.65-4.5A17.59,17.59,0,0,1,977.583,1348.27Zm41.427-6.65a9.365,9.365,0,0,1,5.7-1.47,3.753,3.753,0,0,1,2.72.95,5.675,5.675,0,0,1,1.18,3.6h0.95l0.4-7.1a11.816,11.816,0,0,0-4.3-.7,23.716,23.716,0,0,0-5.83.65,13.068,13.068,0,0,0-4.25,1.85,8.133,8.133,0,0,0-2.6,2.87,7.892,7.892,0,0,0-.87,3.68,8.3,8.3,0,0,0,1.12,4.52,10.9,10.9,0,0,0,2.83,3.03,20.888,20.888,0,0,0,3.67,2.15,39.5,39.5,0,0,1,3.68,1.9,11.077,11.077,0,0,1,2.82,2.32,5.055,5.055,0,0,1,1.13,3.38,3.583,3.583,0,0,1-1,2.67,6.274,6.274,0,0,1-2.35,1.45,10.444,10.444,0,0,1-2.7.58c-0.9.07-1.6,0.1-2.1,0.1a15.67,15.67,0,0,1-2.25-.13,2.978,2.978,0,0,1-1.5-.6,3.389,3.389,0,0,1-1-1.45,13.2,13.2,0,0,1-.7-2.62h-1l-0.3,6.95a18.007,18.007,0,0,0,3.1.9,17.257,17.257,0,0,0,3.45.35,29.118,29.118,0,0,0,4.82-.4,14.24,14.24,0,0,0,4.4-1.45,8.723,8.723,0,0,0,3.2-2.85,7.9,7.9,0,0,0,1.23-4.55,8.06,8.06,0,0,0-1.15-4.43,11.672,11.672,0,0,0-2.9-3.05,23.425,23.425,0,0,0-3.75-2.22c-1.34-.63-2.59-1.28-3.75-1.93a12,12,0,0,1-2.9-2.17,4.151,4.151,0,0,1-1.15-3A4.56,4.56,0,0,1,1019.01,1341.62Zm34.7,13.18c1.03,0,1.89.02,2.57,0.05a4.677,4.677,0,0,1,1.65.32,2.127,2.127,0,0,1,.95.78,3.215,3.215,0,0,1,.43,1.4h0.85c-0.04-1.03-.05-1.86-0.05-2.48v-3.37c0-.77.01-1.7,0.05-2.8h-0.85a4.23,4.23,0,0,1-.4,1.55,1.754,1.754,0,0,1-.93.8,5.045,5.045,0,0,1-1.67.3c-0.7.03-1.57,0.05-2.6,0.05h-4.3v-6.35a23.261,23.261,0,0,1,.12-2.68,2.136,2.136,0,0,1,.73-1.45,3.462,3.462,0,0,1,1.82-.57c0.82-.07,1.94-0.1,3.38-0.1a10.723,10.723,0,0,1,3,.35,4.734,4.734,0,0,1,3,2.37,17.445,17.445,0,0,1,.85,1.83l0.75-.05c-0.04-.53-0.07-1.16-0.1-1.88s-0.05-1.35-.05-1.92c0-.63.02-1.24,0.07-1.83s0.11-1.15.18-1.72a14.752,14.752,0,0,1-1.73.22c-0.65.05-1.42,0.09-2.32,0.1s-1.98.04-3.23,0.05-2.72.03-4.42,0.03h-5.93c-1.08,0-2.14-.01-3.17-0.03s-1.95-.02-2.75-0.02v0.95a6.943,6.943,0,0,1,2.3.57,2.971,2.971,0,0,1,1.27,1.18,4.685,4.685,0,0,1,.55,1.87,23.077,23.077,0,0,1,.13,2.68v18.3a22.894,22.894,0,0,1-.13,2.67,4.888,4.888,0,0,1-.55,1.9,2.843,2.843,0,0,1-1.27,1.2,7.334,7.334,0,0,1-2.3.63v0.85c1.06-.03,2.24-0.06,3.52-0.08s2.46-.02,3.53-0.02,2.25,0.01,3.55.02,2.48,0.05,3.55.08v-0.85a7.627,7.627,0,0,1-2.33-.63,3.024,3.024,0,0,1-1.32-1.17,4.733,4.733,0,0,1-.58-1.88,26.1,26.1,0,0,1-.12-2.72v-8.5h4.3Zm26,15.55c1.3,0,2.48.03,3.55,0.1v-0.85a6.035,6.035,0,0,1-2.33-.65,3.3,3.3,0,0,1-1.32-1.35,5.747,5.747,0,0,1-.58-2.05c-0.08-.8-0.12-1.73-0.12-2.8V1345a25.813,25.813,0,0,1,.12-2.68,4.683,4.683,0,0,1,.58-1.87,3.107,3.107,0,0,1,1.32-1.18,7.209,7.209,0,0,1,2.33-.57v-0.95c-1.07,0-2.24.01-3.5,0.02s-2.44.03-3.5,0.03-2.26-.01-3.58-0.03-2.51-.02-3.57-0.02v0.95a6.943,6.943,0,0,1,2.3.57,2.971,2.971,0,0,1,1.27,1.18,4.685,4.685,0,0,1,.55,1.87,23.077,23.077,0,0,1,.13,2.68v17.75a24.181,24.181,0,0,1-.13,2.72,5.87,5.87,0,0,1-.55,2.05,3.14,3.14,0,0,1-1.27,1.38,6.317,6.317,0,0,1-2.3.7v0.85c1.06-.03,2.24-0.06,3.52-0.08s2.46-.02,3.53-0.02h3.55Zm23.6-15.55c1.03,0,1.93.02,2.7,0.05a7.085,7.085,0,0,1,1.95.32,2.8,2.8,0,0,1,1.22.78,2.517,2.517,0,0,1,.53,1.4h0.8c0-1.03-.01-1.86-0.03-2.48s-0.02-1.14-.02-1.57,0.01-1.03.02-1.8,0.03-1.7.03-2.8h-0.8a2.961,2.961,0,0,1-.53,1.55,2.366,2.366,0,0,1-1.2.8,7.138,7.138,0,0,1-1.95.3c-0.78.03-1.69,0.05-2.72,0.05h-2.9v-5.85a23.261,23.261,0,0,1,.12-2.68,2.357,2.357,0,0,1,.63-1.45,2.524,2.524,0,0,1,1.5-.57c0.66-.07,1.6-0.1,2.8-0.1a12.58,12.58,0,0,1,3.25.35,5.751,5.751,0,0,1,2.02.95,4.5,4.5,0,0,1,1.23,1.42,17.445,17.445,0,0,1,.85,1.83l0.75-.05c-0.04-.53-0.07-1.16-0.1-1.88s-0.05-1.35-.05-1.92c0-.63.02-1.33,0.07-2.08s0.11-1.4.18-1.97a38.68,38.68,0,0,1-4.53.28c-2.01.05-4.74,0.07-8.17,0.07h-10.35v0.95a6.943,6.943,0,0,1,2.3.57,2.971,2.971,0,0,1,1.27,1.18,4.685,4.685,0,0,1,.55,1.87,23.077,23.077,0,0,1,.13,2.68v18.35a22.894,22.894,0,0,1-.13,2.67,4.735,4.735,0,0,1-.55,1.88,3.075,3.075,0,0,1-1.27,1.2,7.038,7.038,0,0,1-2.3.65v0.85c1.76-.07,3.61-0.11,5.52-0.13s3.76-.02,5.53-0.02q4.2,0,7.22.05a27.96,27.96,0,0,1,4.78.4c0.1-.5.23-1.08,0.4-1.75s0.36-1.36.57-2.08,0.45-1.41.7-2.1a16.844,16.844,0,0,1,.78-1.82l-0.6-.4c-0.5.67-.99,1.28-1.45,1.85a6.114,6.114,0,0,1-1.78,1.45,9.65,9.65,0,0,1-2.67.95,20.3,20.3,0,0,1-4.15.35,23.4,23.4,0,0,1-2.9-.13,2.379,2.379,0,0,1-1.5-.65,2.346,2.346,0,0,1-.58-1.52c-0.05-.67-0.07-1.6-0.07-2.8v-7.45h2.9Zm21.37-17.03c-1.31-.01-2.51-0.02-3.57-0.02v0.95a6.943,6.943,0,0,1,2.3.57,2.971,2.971,0,0,1,1.27,1.18,4.685,4.685,0,0,1,.55,1.87,23.077,23.077,0,0,1,.13,2.68v18.3a22.894,22.894,0,0,1-.13,2.67,4.888,4.888,0,0,1-.55,1.9,2.843,2.843,0,0,1-1.27,1.2,7.334,7.334,0,0,1-2.3.63v0.85c1.76-.07,3.55-0.11,5.35-0.13s3.58-.02,5.35-0.02q4.2,0,6.97.05a22.369,22.369,0,0,1,4.53.45c0.1-.5.23-1.08,0.4-1.73s0.36-1.31.57-2,0.45-1.35.7-2.02a17.309,17.309,0,0,1,.78-1.8l-0.6-.4c-0.5.67-.98,1.27-1.43,1.82a6.25,6.25,0,0,1-1.62,1.4,7.5,7.5,0,0,1-2.33.88,16.369,16.369,0,0,1-3.42.3,27.856,27.856,0,0,1-3.15-.13,2.5,2.5,0,0,1-1.6-.65,2.408,2.408,0,0,1-.6-1.52c-0.07-.67-0.1-1.6-0.1-2.8V1345a25.813,25.813,0,0,1,.12-2.68,4.683,4.683,0,0,1,.58-1.87,3.107,3.107,0,0,1,1.32-1.18,7.209,7.209,0,0,1,2.33-.57v-0.95c-1.07,0-2.24.01-3.5,0.02s-2.44.03-3.5,0.03S1126,1337.79,1124.68,1337.77Zm36.19,32.7q0.99,0.03,1.95.03c0.63,0,1.32.01,2.05,0.02s1.62,0.03,2.66.03a23.942,23.942,0,0,0,8.79-1.45,17.142,17.142,0,0,0,6.03-3.85,15.223,15.223,0,0,0,3.48-5.48,18.125,18.125,0,0,0,1.13-6.27q0-8.25-4.86-12.13t-14.82-3.87c-0.67,0-1.31.02-1.93,0.05s-1.26.07-1.93,0.1-1.39.07-2.18,0.1-1.66.05-2.63,0.05c-1.07,0-2.23-.01-3.5-0.03s-2.44-.02-3.5-0.02v0.95a6.943,6.943,0,0,1,2.3.57,2.971,2.971,0,0,1,1.27,1.18,4.685,4.685,0,0,1,.55,1.87,23.077,23.077,0,0,1,.13,2.68v18.3a22.894,22.894,0,0,1-.13,2.67,4.888,4.888,0,0,1-.55,1.9,2.843,2.843,0,0,1-1.27,1.2,7.334,7.334,0,0,1-2.3.63v0.85c1.06-.03,2.21-0.06,3.45-0.08s2.38-.02,3.45-0.02C1159.41,1370.45,1160.2,1370.46,1160.87,1370.47Zm16.86-26.1q3.375,3.675,3.38,10.38a15.779,15.779,0,0,1-.7,4.62,10.861,10.861,0,0,1-6.23,6.9,14.346,14.346,0,0,1-5.87,1.08,32.838,32.838,0,0,1-3.5-.15,4.519,4.519,0,0,1-2.1-.68,2.665,2.665,0,0,1-1.03-1.55,11.534,11.534,0,0,1-.27-2.82V1346.3q0-1.995.12-3.15a2.534,2.534,0,0,1,.73-1.68,3.242,3.242,0,0,1,1.8-.65c0.8-.08,1.91-0.12,3.35-0.12Q1174.355,1340.7,1177.73,1344.37Z"
                                transform="translate(-695.5 -1331.66)"></path>
                            </svg>