<svg viewBox="0 0 376 45" xmlns="http://www.w3.org/2000/svg">
                              <defs>
                                <style>
                                  .JillWarrick {
                                    fill: #ebe6e2;
                                    fill-rule: evenodd;
                                  }
                                </style>
                              </defs>
                              <path id="Jill_Warrick.svg" data-name="Jill Warrick.svg" class="JillWarrick"
                                d="M255.608,2065c-1.267,0-2.592.01-3.975,0.02s-2.708.03-3.975,0.03-2.633-.01-4.1-0.03-2.833-.02-4.1-0.02v0.8q1.1,0.195,2.05.45a3.541,3.541,0,0,1,1.65.97,4.874,4.874,0,0,1,1.075,2.13,15.544,15.544,0,0,1,.375,3.85v21.65a55.074,55.074,0,0,1-.275,6,19.384,19.384,0,0,1-.825,4.05,7.835,7.835,0,0,1-1.275,2.47,4.46,4.46,0,0,1-1.625,1.28,6.188,6.188,0,0,1-1.925.5,21.414,21.414,0,0,1-2.175.1V2110a7.064,7.064,0,0,0,1.7.6,7.87,7.87,0,0,0,1.65.2,12.879,12.879,0,0,0,3.225-.48,7.9,7.9,0,0,0,3.475-2.05,12.089,12.089,0,0,0,2.775-4.52,22.706,22.706,0,0,0,1.125-7.9V2073.2a15.544,15.544,0,0,1,.375-3.85,5.051,5.051,0,0,1,1.05-2.13,3.384,3.384,0,0,1,1.625-.97q0.949-.255,2.1-0.45V2065Zm17.1,38.35c1.3,0,2.483.03,3.55,0.1v-0.85a5.987,5.987,0,0,1-2.325-.65,3.292,3.292,0,0,1-1.325-1.35,5.608,5.608,0,0,1-.575-2.05,27.454,27.454,0,0,1-.125-2.8V2078a24.874,24.874,0,0,1,.125-2.68,4.575,4.575,0,0,1,.575-1.87,3.1,3.1,0,0,1,1.325-1.18,7.148,7.148,0,0,1,2.325-.57v-0.95c-1.067,0-2.233.01-3.5,0.02s-2.433.03-3.5,0.03-2.258-.01-3.575-0.03-2.508-.02-3.575-0.02v0.95a6.878,6.878,0,0,1,2.3.57,2.962,2.962,0,0,1,1.275,1.18,4.852,4.852,0,0,1,.55,1.87,24.874,24.874,0,0,1,.125,2.68v17.75a26.08,26.08,0,0,1-.125,2.72,6.1,6.1,0,0,1-.55,2.05,3.128,3.128,0,0,1-1.275,1.38,6.254,6.254,0,0,1-2.3.7v0.85c1.067-.03,2.242-0.06,3.525-0.08s2.458-.02,3.525-0.02h3.55Zm14.475-32.58c-1.317-.01-2.508-0.02-3.575-0.02v0.95a6.878,6.878,0,0,1,2.3.57,2.962,2.962,0,0,1,1.275,1.18,4.852,4.852,0,0,1,.55,1.87,24.874,24.874,0,0,1,.125,2.68v18.3a24.676,24.676,0,0,1-.125,2.67,5.065,5.065,0,0,1-.55,1.9,2.835,2.835,0,0,1-1.275,1.2,7.256,7.256,0,0,1-2.3.63v0.85c1.767-.07,3.55-0.11,5.35-0.13s3.583-.02,5.35-0.02q4.2,0,6.975.05a22.291,22.291,0,0,1,4.525.45c0.1-.5.233-1.08,0.4-1.73s0.358-1.31.575-2,0.45-1.35.7-2.02a18.011,18.011,0,0,1,.775-1.8l-0.6-.4c-0.5.67-.975,1.27-1.425,1.82a6.224,6.224,0,0,1-1.625,1.4,7.43,7.43,0,0,1-2.325.88,16.42,16.42,0,0,1-3.425.3,27.927,27.927,0,0,1-3.15-.13,2.524,2.524,0,0,1-1.6-.65,2.488,2.488,0,0,1-.6-1.52c-0.067-.67-0.1-1.6-0.1-2.8V2078a24.874,24.874,0,0,1,.125-2.68,4.575,4.575,0,0,1,.575-1.87,3.1,3.1,0,0,1,1.325-1.18,7.148,7.148,0,0,1,2.325-.57v-0.95c-1.067,0-2.233.01-3.5,0.02s-2.433.03-3.5,0.03S288.5,2070.79,287.183,2070.77Zm30.5,0c-1.317-.01-2.508-0.02-3.575-0.02v0.95a6.878,6.878,0,0,1,2.3.57,2.962,2.962,0,0,1,1.275,1.18,4.852,4.852,0,0,1,.55,1.87,24.874,24.874,0,0,1,.125,2.68v18.3a24.676,24.676,0,0,1-.125,2.67,5.065,5.065,0,0,1-.55,1.9,2.835,2.835,0,0,1-1.275,1.2,7.256,7.256,0,0,1-2.3.63v0.85c1.767-.07,3.55-0.11,5.35-0.13s3.583-.02,5.35-0.02q4.2,0,6.975.05a22.291,22.291,0,0,1,4.525.45c0.1-.5.233-1.08,0.4-1.73s0.358-1.31.575-2,0.45-1.35.7-2.02a18.011,18.011,0,0,1,.775-1.8l-0.6-.4c-0.5.67-.975,1.27-1.425,1.82a6.224,6.224,0,0,1-1.625,1.4,7.43,7.43,0,0,1-2.325.88,16.42,16.42,0,0,1-3.425.3,27.927,27.927,0,0,1-3.15-.13,2.524,2.524,0,0,1-1.6-.65,2.488,2.488,0,0,1-.6-1.52c-0.067-.67-0.1-1.6-0.1-2.8V2078a24.874,24.874,0,0,1,.125-2.68,4.575,4.575,0,0,1,.575-1.87,3.1,3.1,0,0,1,1.325-1.18,7.148,7.148,0,0,1,2.325-.57v-0.95c-1.067,0-2.233.01-3.5,0.02s-2.433.03-3.5,0.03S319,2070.79,317.683,2070.77Zm71.45,5.75q-1.976,6.735-6.075,18.88-2.351-7.4-3.9-12.33t-2.45-7.97q-0.9-3.045-1.25-4.5a10.333,10.333,0,0,1-.35-2,4.793,4.793,0,0,1,.1-0.98,1.486,1.486,0,0,1,.5-0.82,3.138,3.138,0,0,1,1.15-.58,10.435,10.435,0,0,1,2.05-.32V2065c-0.733,0-1.342.01-1.825,0.02s-0.933.04-1.35,0.05-0.858.03-1.325,0.03h-1.8q-2.25,0-4.525-.03c-1.517-.01-3.008-0.04-4.475-0.07v0.9a6.473,6.473,0,0,1,2.4.6,5.548,5.548,0,0,1,1.75,1.37,9.655,9.655,0,0,1,1.35,2.15c0.4,0.85.8,1.85,1.2,2.98,0.933,2.67,1.817,5.22,2.65,7.67s1.667,4.93,2.5,7.43,1.692,5.09,2.575,7.77,1.875,5.6,2.975,8.73l1.7-.1q1.8-3.945,3.45-8.43t3.1-8.75q1.451-4.275,2.7-8.07t2.3-6.5q1.35,3.75,2.525,7.52t2.375,7.68q1.2,3.9,2.5,8.02t2.85,8.63l1.7-.1q1.7-3.8,3.325-7.83t3.1-7.87q1.474-3.855,2.725-7.33t2.225-6.2q0.975-2.715,1.675-4.52a19.068,19.068,0,0,1,1-2.3,7.679,7.679,0,0,1,1.45-1.63,5.754,5.754,0,0,1,3-1.02V2065c-1.267.03-2.617,0.06-4.05,0.07s-2.833.03-4.2,0.03h-1.8q-0.75,0-1.45-.03c-0.467-.01-0.967-0.03-1.5-0.05s-1.183-.02-1.95-0.02v0.9a10.744,10.744,0,0,1,2.4.3,4.508,4.508,0,0,1,1.5.65,2.253,2.253,0,0,1,.775.92,2.85,2.85,0,0,1,.225,1.13,13.339,13.339,0,0,1-.5,3.02q-0.5,1.98-1.5,5.18c-0.667,2.13-1.508,4.71-2.525,7.72s-2.208,6.55-3.575,10.58q-2-6.855-3.5-11.58t-2.475-7.92q-0.975-3.2-1.475-5.13a13.135,13.135,0,0,1-.5-3.17,4.917,4.917,0,0,1,.125-1.28,1.435,1.435,0,0,1,.775-0.77v-0.6c-0.267,0-.617.01-1.05,0.02s-1.017.03-1.75,0.03h-6.8v0.5a1.889,1.889,0,0,0,.425.32,1.738,1.738,0,0,1,.4.33,1.378,1.378,0,0,1,.275.57,4.2,4.2,0,0,1,.1,1.03Q391.108,2069.8,389.133,2076.52Zm53.5,24.85a0.934,0.934,0,0,1-.375.55,2.567,2.567,0,0,1-.925.38,9.345,9.345,0,0,1-1.725.2v1c1.233-.03,2.325-0.06,3.275-0.08s2.042-.02,3.275-0.02c1.267,0,2.433.01,3.5,0.02s2.217,0.05,3.45.08v-1a5.631,5.631,0,0,1-2.125-.43,4.276,4.276,0,0,1-1.45-1.07,7.413,7.413,0,0,1-1.125-1.75q-0.5-1.05-1.1-2.4c-0.8-1.77-1.675-3.79-2.625-6.08s-1.917-4.64-2.9-7.07-1.925-4.86-2.825-7.28-1.7-4.65-2.4-6.72l-1.6.2c-0.667,1.37-1.458,3.03-2.375,5s-1.883,4.05-2.9,6.25-2.033,4.41-3.05,6.62-1.95,4.25-2.8,6.08-1.583,3.37-2.2,4.62-1.008,2.01-1.175,2.28a3.175,3.175,0,0,1-1.275,1.12,8.477,8.477,0,0,1-2.575.68v0.95q0.8,0,1.4-.03c0.4-.01.8-0.03,1.2-0.05s0.817-.02,1.25-0.02h1.5c1.2,0,2.483.01,3.85,0.02s2.683,0.05,3.95.08v-1a13.547,13.547,0,0,1-2.025-.2,3.577,3.577,0,0,1-1.225-.43,1.53,1.53,0,0,1-.625-0.65,2.032,2.032,0,0,1-.175-0.87,3.663,3.663,0,0,1,.075-0.6,11.14,11.14,0,0,1,.375-1.3q0.3-.9.9-2.4c0.4-1,.933-2.32,1.6-3.95h11.3c0.533,1.5.975,2.77,1.325,3.8s0.633,1.87.85,2.52,0.367,1.15.45,1.48a3.45,3.45,0,0,1,.125.7A3.4,3.4,0,0,1,442.633,2101.37ZM434.708,2078q1.249,3.345,2.25,6c0.667,1.77,1.267,3.38,1.8,4.85h-8.75Zm31,25.47c1.3,0.02,2.483.05,3.55,0.08v-0.85a7.558,7.558,0,0,1-2.325-.63,3.021,3.021,0,0,1-1.325-1.17,4.623,4.623,0,0,1-.575-1.88,25.147,25.147,0,0,1-.125-2.72v-6.35h1.25c0.767,0.73,1.592,1.55,2.475,2.45s1.767,1.82,2.65,2.77,1.742,1.89,2.575,2.8,1.592,1.76,2.275,2.53,1.267,1.42,1.75,1.95,0.808,0.88.975,1.05c0.467-.03,1.05-0.05,1.75-0.05h1.5c0.433,0,1.092.01,1.975,0.02s1.758,0.06,2.625.13l0.3-.85a13.194,13.194,0,0,1-2.175-.73,10.815,10.815,0,0,1-1.9-1.07,17.121,17.121,0,0,1-1.925-1.6q-1-.945-2.3-2.4l-6.7-7.2a13.333,13.333,0,0,0,4.325-1.4,10.549,10.549,0,0,0,3.025-2.43,9.368,9.368,0,0,0,1.775-3.2,12.154,12.154,0,0,0,.575-3.77,7.387,7.387,0,0,0-3.05-6.18q-3.05-2.325-9.35-2.32c-1.167,0-2.417.06-3.75,0.17s-2.483.18-3.45,0.18q-1.6,0-3.5-.03c-1.267-.01-2.433-0.02-3.5-0.02v0.95a6.878,6.878,0,0,1,2.3.57,2.962,2.962,0,0,1,1.275,1.18,4.852,4.852,0,0,1,.55,1.87,24.874,24.874,0,0,1,.125,2.68v18.3a24.676,24.676,0,0,1-.125,2.67,5.065,5.065,0,0,1-.55,1.9,2.835,2.835,0,0,1-1.275,1.2,7.256,7.256,0,0,1-2.3.63v0.85c1.067-.03,2.242-0.06,3.525-0.08s2.458-.02,3.525-0.02S464.408,2103.46,465.708,2103.47Zm-0.8-24.62a24.347,24.347,0,0,1,.125-2.75,3.631,3.631,0,0,1,.5-1.6,1.843,1.843,0,0,1,.975-0.75,5.306,5.306,0,0,1,1.6-.2,10.11,10.11,0,0,1,4,.67,6.872,6.872,0,0,1,2.4,1.63,5.369,5.369,0,0,1,1.175,2.02,6.669,6.669,0,0,1,.325,1.88,6.927,6.927,0,0,1-.75,3.4,6.051,6.051,0,0,1-1.95,2.15,8.165,8.165,0,0,1-2.7,1.15,13.353,13.353,0,0,1-3,.35h-2.7v-7.95Zm35.3,24.62c1.3,0.02,2.483.05,3.55,0.08v-0.85a7.558,7.558,0,0,1-2.325-.63,3.021,3.021,0,0,1-1.325-1.17,4.623,4.623,0,0,1-.575-1.88,25.147,25.147,0,0,1-.125-2.72v-6.35h1.25c0.767,0.73,1.592,1.55,2.475,2.45s1.767,1.82,2.65,2.77,1.742,1.89,2.575,2.8,1.592,1.76,2.275,2.53,1.267,1.42,1.75,1.95,0.808,0.88.975,1.05c0.467-.03,1.05-0.05,1.75-0.05h1.5c0.433,0,1.092.01,1.975,0.02s1.758,0.06,2.625.13l0.3-.85a13.194,13.194,0,0,1-2.175-.73,10.815,10.815,0,0,1-1.9-1.07,17.121,17.121,0,0,1-1.925-1.6q-1-.945-2.3-2.4l-6.7-7.2a13.333,13.333,0,0,0,4.325-1.4,10.549,10.549,0,0,0,3.025-2.43,9.368,9.368,0,0,0,1.775-3.2,12.154,12.154,0,0,0,.575-3.77,7.387,7.387,0,0,0-3.05-6.18q-3.05-2.325-9.35-2.32c-1.167,0-2.417.06-3.75,0.17s-2.483.18-3.45,0.18q-1.6,0-3.5-.03c-1.267-.01-2.433-0.02-3.5-0.02v0.95a6.878,6.878,0,0,1,2.3.57,2.962,2.962,0,0,1,1.275,1.18,4.852,4.852,0,0,1,.55,1.87,24.874,24.874,0,0,1,.125,2.68v18.3a24.676,24.676,0,0,1-.125,2.67,5.065,5.065,0,0,1-.55,1.9,2.835,2.835,0,0,1-1.275,1.2,7.256,7.256,0,0,1-2.3.63v0.85c1.067-.03,2.242-0.06,3.525-0.08s2.458-.02,3.525-0.02S498.908,2103.46,500.208,2103.47Zm-0.8-24.62a24.347,24.347,0,0,1,.125-2.75,3.631,3.631,0,0,1,.5-1.6,1.843,1.843,0,0,1,.975-0.75,5.306,5.306,0,0,1,1.6-.2,10.11,10.11,0,0,1,4,.67,6.872,6.872,0,0,1,2.4,1.63,5.369,5.369,0,0,1,1.175,2.02,6.669,6.669,0,0,1,.325,1.88,6.927,6.927,0,0,1-.75,3.4,6.051,6.051,0,0,1-1.95,2.15,8.165,8.165,0,0,1-2.7,1.15,13.353,13.353,0,0,1-3,.35h-2.7v-7.95Zm36.3,24.5c1.3,0,2.483.03,3.55,0.1v-0.85a5.987,5.987,0,0,1-2.325-.65,3.292,3.292,0,0,1-1.325-1.35,5.608,5.608,0,0,1-.575-2.05,27.454,27.454,0,0,1-.125-2.8V2078a24.874,24.874,0,0,1,.125-2.68,4.575,4.575,0,0,1,.575-1.87,3.1,3.1,0,0,1,1.325-1.18,7.148,7.148,0,0,1,2.325-.57v-0.95c-1.067,0-2.233.01-3.5,0.02s-2.433.03-3.5,0.03-2.258-.01-3.575-0.03-2.508-.02-3.575-0.02v0.95a6.878,6.878,0,0,1,2.3.57,2.962,2.962,0,0,1,1.275,1.18,4.852,4.852,0,0,1,.55,1.87,24.874,24.874,0,0,1,.125,2.68v17.75a26.08,26.08,0,0,1-.125,2.72,6.1,6.1,0,0,1-.55,2.05,3.128,3.128,0,0,1-1.275,1.38,6.254,6.254,0,0,1-2.3.7v0.85c1.067-.03,2.242-0.06,3.525-0.08s2.458-.02,3.525-0.02h3.55Zm31.8,0.74a39.528,39.528,0,0,0,4.05-.81l2.05-6.03h-1.05a6.082,6.082,0,0,1-1.925,2.32,10.115,10.115,0,0,1-2.325,1.25,7.694,7.694,0,0,1-2.125.5c-0.65.05-1.092,0.08-1.325,0.08a16.812,16.812,0,0,1-6.725-1.25,14.156,14.156,0,0,1-4.775-3.27,13.479,13.479,0,0,1-2.85-4.54,14.286,14.286,0,0,1-.95-5.07,16.471,16.471,0,0,1,.825-5.09,14.072,14.072,0,0,1,2.525-4.61,12.836,12.836,0,0,1,4.325-3.37,13.838,13.838,0,0,1,6.225-1.3,10.53,10.53,0,0,1,5.65,1.32,4.977,4.977,0,0,1,2.45,3.43h1l0.9-6.3q-0.55-.2-1.575-0.45t-2.375-.48c-0.9-.15-1.883-0.27-2.95-0.37s-2.167-.15-3.3-0.15a23.075,23.075,0,0,0-8.7,1.5,18.042,18.042,0,0,0-6.125,3.95,15.935,15.935,0,0,0-3.625,5.6,17.833,17.833,0,0,0-1.2,6.4,17.44,17.44,0,0,0,1.175,6.27,15.354,15.354,0,0,0,3.6,5.48,17.82,17.82,0,0,0,6.15,3.85,24.223,24.223,0,0,0,8.825,1.45A27.286,27.286,0,0,0,567.508,2104.09Zm32.15-24.84q1.65-1.755,3.05-3.15a26.389,26.389,0,0,1,2.65-2.35,11.213,11.213,0,0,1,2.45-1.45,6.624,6.624,0,0,1,2.55-.5h0.75v-1.05c-0.467,0-1.008.01-1.625,0.02s-1.242.03-1.875,0.03h-6.7c-1.2,0-2.267-.02-3.2-0.05v1.05a8.272,8.272,0,0,1,1.4.12,0.744,0.744,0,0,1,.7.78,5.131,5.131,0,0,1-1.55,2.95q-1.55,1.8-3.95,4.35l-5.4,5.8V2078a24.874,24.874,0,0,1,.125-2.68,4.575,4.575,0,0,1,.575-1.87,3.1,3.1,0,0,1,1.325-1.18,7.148,7.148,0,0,1,2.325-.57v-0.95c-1.067,0-2.242.01-3.525,0.02s-2.458.03-3.525,0.03-2.25-.01-3.55-0.03-2.483-.02-3.55-0.02v0.95a6.878,6.878,0,0,1,2.3.57,2.962,2.962,0,0,1,1.275,1.18,4.852,4.852,0,0,1,.55,1.87,24.874,24.874,0,0,1,.125,2.68v18.3a24.676,24.676,0,0,1-.125,2.67,5.065,5.065,0,0,1-.55,1.9,2.835,2.835,0,0,1-1.275,1.2,7.256,7.256,0,0,1-2.3.63v0.85c1.067-.03,2.242-0.06,3.525-0.08s2.458-.02,3.525-0.02,2.25,0.01,3.55.02,2.483,0.05,3.55.08v-0.85a7.558,7.558,0,0,1-2.325-.63,3.021,3.021,0,0,1-1.325-1.17,4.623,4.623,0,0,1-.575-1.88,25.147,25.147,0,0,1-.125-2.72v-5.6l1.7-1.8c0.7,0.63,1.5,1.39,2.4,2.27s1.817,1.81,2.75,2.78,1.867,1.95,2.8,2.95,1.8,1.93,2.6,2.8,1.492,1.64,2.075,2.32,1.008,1.18,1.275,1.48q0.349,0,.95-0.03c0.4-.01.8-0.02,1.2-0.02h1.85c0.433,0,1.067.01,1.9,0.02s1.683,0.06,2.55.13l0.3-.85a11.38,11.38,0,0,1-2.175-.73,10.831,10.831,0,0,1-1.825-1.07,16.9,16.9,0,0,1-1.875-1.6c-0.65-.63-1.425-1.42-2.325-2.35l-11.1-11.7Z"
                                transform="translate(-236.5 -2064.94)"></path>
                            </svg>