<svg width="510" height="47" viewBox="0 0 510 47" xmlns="http://www.w3.org/2000/svg">
                              <defs>
                                <style>
                                  .cls-1 {
                                    fill: #ebe6e2;
                                    fill-rule: evenodd;
                                  }
                                </style>
                              </defs>
                              <path id="Clive_Rosfield.svg" data-name="Clive Rosfield.svg" class="cls-1"
                                d="M399.989,1438.38a45.785,45.785,0,0,0,5.249-1.05l2.726-8.06h-1.1a9.612,9.612,0,0,1-2.639,3.39,11.585,11.585,0,0,1-3.074,1.77,10.839,10.839,0,0,1-2.784.7q-1.248.12-1.711,0.12a22.912,22.912,0,0,1-9.338-1.77,20.289,20.289,0,0,1-6.67-4.61,19.881,19.881,0,0,1-5.394-13.46,23.05,23.05,0,0,1,1.16-7.13,19.357,19.357,0,0,1,3.567-6.5,18.489,18.489,0,0,1,6.09-4.73,19.268,19.268,0,0,1,8.671-1.82c3.248,0,5.78.66,7.6,2a7.409,7.409,0,0,1,3.19,4.78h1.044l1.218-8.47a45.22,45.22,0,0,0-13.34-1.91,30.618,30.618,0,0,0-11.716,2.06,25.034,25.034,0,0,0-8.31,5.39,21.708,21.708,0,0,0-4.959,7.63,24.391,24.391,0,0,0-1.637,8.76,23.734,23.734,0,0,0,1.608,8.55,20.8,20.8,0,0,0,4.9,7.46,24.613,24.613,0,0,0,8.339,5.24,32.214,32.214,0,0,0,11.948,2.01A39.616,39.616,0,0,0,399.989,1438.38Zm18.886-38.83q-2.292-.03-4.147-0.03v1.1a7.938,7.938,0,0,1,2.668.67,3.388,3.388,0,0,1,1.479,1.36,5.65,5.65,0,0,1,.638,2.17,28.882,28.882,0,0,1,.145,3.11v21.23a28.815,28.815,0,0,1-.145,3.1,5.92,5.92,0,0,1-.638,2.2,3.283,3.283,0,0,1-1.479,1.39,8.577,8.577,0,0,1-2.668.73v0.99q3.073-.12,6.206-0.15t6.206-.03q4.872,0,8.091.06a26.5,26.5,0,0,1,5.249.52c0.116-.58.27-1.25,0.464-2s0.415-1.53.667-2.32,0.522-1.57.812-2.35a22.2,22.2,0,0,1,.9-2.09l-0.7-.46c-0.58.77-1.131,1.48-1.653,2.12a7.347,7.347,0,0,1-1.885,1.62,8.9,8.9,0,0,1-2.7,1.02,19.254,19.254,0,0,1-3.973.34,34.034,34.034,0,0,1-3.654-.14,2.945,2.945,0,0,1-1.856-.76,2.871,2.871,0,0,1-.7-1.76c-0.078-.78-0.116-1.86-0.116-3.25v-20.01a28.626,28.626,0,0,1,.145-3.11,5.306,5.306,0,0,1,.667-2.17,3.538,3.538,0,0,1,1.537-1.36,8.24,8.24,0,0,1,2.7-.67v-1.1q-1.857,0-4.06.03t-4.06.03Q421.165,1399.58,418.875,1399.55Zm43.049,37.78q2.262,0,4.118.12v-0.99a6.724,6.724,0,0,1-2.7-.75,3.874,3.874,0,0,1-1.537-1.57,6.438,6.438,0,0,1-.667-2.37,31.726,31.726,0,0,1-.145-3.25v-20.59a28.626,28.626,0,0,1,.145-3.11,5.306,5.306,0,0,1,.667-2.17,3.538,3.538,0,0,1,1.537-1.36,8.24,8.24,0,0,1,2.7-.67v-1.1q-1.857,0-4.06.03t-4.06.03q-1.857,0-4.147-.03t-4.147-.03v1.1a7.938,7.938,0,0,1,2.668.67,3.388,3.388,0,0,1,1.479,1.36,5.65,5.65,0,0,1,.638,2.17,28.882,28.882,0,0,1,.145,3.11v20.59a30.428,30.428,0,0,1-.145,3.16,7.2,7.2,0,0,1-.638,2.38,3.673,3.673,0,0,1-1.479,1.59,7.114,7.114,0,0,1-2.668.81v0.99q1.856-.06,4.089-0.09t4.089-.03h4.118Zm25.77-20.73q-1.8-4.9-2.813-7.83c-0.677-1.95-1.141-3.37-1.392-4.24a8.443,8.443,0,0,1-.377-1.65,4.034,4.034,0,0,1,.087-0.9,1.122,1.122,0,0,1,.435-0.64,2.821,2.821,0,0,1,1.073-.4,19.828,19.828,0,0,1,2-.26v-1.16q-1.1,0-2.03.03c-0.619.02-1.218,0.04-1.8,0.05s-1.18.03-1.8,0.03H479.11q-2.205,0-4.06-.03c-1.238-.01-2.572-0.04-4-0.08v1.16a6.748,6.748,0,0,1,2.436.49,4.981,4.981,0,0,1,1.711,1.25,8.579,8.579,0,0,1,1.305,2.03c0.386,0.81.812,1.74,1.276,2.78q1.392,3.075,3.045,7.05c1.1,2.65,2.223,5.38,3.364,8.21s2.233,5.64,3.277,8.46,1.972,5.42,2.784,7.78l1.856-.24q1.16-2.37,2.755-5.8c1.063-2.28,2.184-4.69,3.364-7.25s2.358-5.11,3.538-7.68,2.262-4.92,3.248-7.05,1.827-3.91,2.523-5.36a22.192,22.192,0,0,1,1.392-2.64,3.786,3.786,0,0,1,1.479-1.31,9.848,9.848,0,0,1,2.987-.78v-1.1q-0.929,0-1.624.03c-0.464.02-.928,0.04-1.392,0.05s-0.948.03-1.45,0.03h-1.74q-2.088,0-4.466-.03c-1.586-.01-3.113-0.04-4.582-0.08v1.16a8.129,8.129,0,0,1,3.77.75,2.017,2.017,0,0,1,.928,1.74,4.137,4.137,0,0,1-.087.7,12.194,12.194,0,0,1-.435,1.48c-0.232.67-.571,1.59-1.015,2.75s-1.054,2.68-1.827,4.55-1.74,4.16-2.9,6.85-2.552,5.89-4.176,9.6Q489.491,1421.5,487.694,1416.6Zm45.466,2.7c1.2,0,2.242.02,3.132,0.05a8.247,8.247,0,0,1,2.262.38,3.12,3.12,0,0,1,1.421.9,2.984,2.984,0,0,1,.609,1.62h0.928c0-1.19-.01-2.15-0.029-2.87s-0.029-1.32-.029-1.82,0.009-1.2.029-2.09,0.029-1.97.029-3.25h-0.928a3.515,3.515,0,0,1-.609,1.8,2.863,2.863,0,0,1-1.392.93,8.516,8.516,0,0,1-2.262.34q-1.364.06-3.161,0.06H529.8v-6.78a25.828,25.828,0,0,1,.145-3.11,2.727,2.727,0,0,1,.725-1.68,2.874,2.874,0,0,1,1.74-.67c0.773-.07,1.856-0.11,3.248-0.11a14.429,14.429,0,0,1,3.77.4,6.7,6.7,0,0,1,2.349,1.11,5.2,5.2,0,0,1,1.421,1.65,19.483,19.483,0,0,1,.986,2.12l0.87-.06c-0.039-.62-0.078-1.35-0.116-2.18s-0.058-1.57-.058-2.23c0-.73.029-1.54,0.087-2.41s0.125-1.63.2-2.29a46.307,46.307,0,0,1-5.249.33q-3.51.075-9.483,0.08H518.428v1.1a7.938,7.938,0,0,1,2.668.67,3.388,3.388,0,0,1,1.479,1.36,5.65,5.65,0,0,1,.638,2.17,28.882,28.882,0,0,1,.145,3.11v21.28a28.882,28.882,0,0,1-.145,3.11,5.65,5.65,0,0,1-.638,2.17,3.51,3.51,0,0,1-1.479,1.39,8.252,8.252,0,0,1-2.668.76v0.98q3.073-.105,6.409-0.14t6.409-.03q4.872,0,8.381.06a32.64,32.64,0,0,1,5.539.46c0.116-.58.27-1.25,0.464-2.03s0.415-1.57.667-2.41,0.522-1.64.812-2.43a20.815,20.815,0,0,1,.9-2.12l-0.7-.46c-0.58.77-1.141,1.49-1.682,2.14a7.219,7.219,0,0,1-2.059,1.69,11.49,11.49,0,0,1-3.1,1.1,23.358,23.358,0,0,1-4.814.4,28.644,28.644,0,0,1-3.364-.14,2.8,2.8,0,0,1-1.74-.76,2.752,2.752,0,0,1-.667-1.76c-0.058-.78-0.087-1.86-0.087-3.25v-8.64h3.364Zm60.93,18.18q2.493,0.03,4.7.09v-0.82a8.192,8.192,0,0,1-3.19-.9,4.633,4.633,0,0,1-1.8-1.82,7.375,7.375,0,0,1-.812-2.79,35.821,35.821,0,0,1-.174-3.77v-8.7h4.292q2.378,2.265,5.191,5.25c1.875,1.99,3.663,3.94,5.365,5.83s3.19,3.56,4.466,4.99,2.088,2.32,2.436,2.67q0.986-.06,2.233-0.06h1.885q0.811,0,2.581.03c1.179,0.02,2.387.07,3.625,0.14l0.232-.81a14.688,14.688,0,0,1-2.929-1.01,14.95,14.95,0,0,1-2.465-1.54,25.846,25.846,0,0,1-2.581-2.29q-1.363-1.365-3.161-3.34l-9.57-10.38a18.314,18.314,0,0,0,5.336-2,15.793,15.793,0,0,0,4.06-3.28,14.074,14.074,0,0,0,2.581-4.2,13,13,0,0,0,.9-4.79,9.637,9.637,0,0,0-4.466-8.61q-4.467-2.925-13.05-2.93-1.161,0-2.523.09c-0.909.06-1.827,0.11-2.755,0.17s-1.818.11-2.668,0.15-1.605.06-2.262,0.06q-2.205,0-4.669-.03t-4.669-.03v0.93a9.13,9.13,0,0,1,3.1.81,4.209,4.209,0,0,1,1.74,1.59,6.334,6.334,0,0,1,.783,2.55,32.924,32.924,0,0,1,.174,3.63v25.11a35.355,35.355,0,0,1-.174,3.72,7.7,7.7,0,0,1-.783,2.78,4.8,4.8,0,0,1-1.74,1.86,7.655,7.655,0,0,1-3.1.92v0.82q2.145-.06,4.553-0.09t4.611-.03Q591.6,1437.45,594.09,1437.48Zm-1.276-34.13a27.587,27.587,0,0,1,.2-3.75,4.266,4.266,0,0,1,.87-2.2,3.253,3.253,0,0,1,1.856-1.04,14.913,14.913,0,0,1,3.161-.26,14.193,14.193,0,0,1,5.626.95,9.785,9.785,0,0,1,3.451,2.35,8.126,8.126,0,0,1,1.74,2.96,9.261,9.261,0,0,1,.493,2.73,10.077,10.077,0,0,1-.928,4.49,8.59,8.59,0,0,1-2.523,3.1,10.413,10.413,0,0,1-3.8,1.8,18.5,18.5,0,0,1-4.756.58h-5.394v-11.71Zm35.56,23.05a19.364,19.364,0,0,0,4.379,6.41,20.482,20.482,0,0,0,6.67,4.29,23.31,23.31,0,0,0,16.82,0,20.5,20.5,0,0,0,6.67-4.29,20.007,20.007,0,0,0,0-28.65,20.5,20.5,0,0,0-6.67-4.29,23.31,23.31,0,0,0-16.82,0,20.482,20.482,0,0,0-6.67,4.29,19.364,19.364,0,0,0-4.379,6.41A20.785,20.785,0,0,0,628.374,1426.4Zm6.525-14.67a16.2,16.2,0,0,1,3.074-5.22,13.909,13.909,0,0,1,4.5-3.37,12.951,12.951,0,0,1,10.846,0,13.61,13.61,0,0,1,4.466,3.37,16.506,16.506,0,0,1,3.045,5.22,20.381,20.381,0,0,1,0,13.39,16.506,16.506,0,0,1-3.045,5.22,13.841,13.841,0,0,1-4.466,3.4,12.663,12.663,0,0,1-10.846,0,14.147,14.147,0,0,1-4.5-3.4,16.2,16.2,0,0,1-3.074-5.22A20.381,20.381,0,0,1,634.9,1411.73Zm49.813-7.72q2.262-1.71,6.612-1.71a4.358,4.358,0,0,1,3.161,1.1c0.754,0.74,1.208,2.13,1.363,4.18h1.1l0.464-8.24a13.792,13.792,0,0,0-4.988-.81,26.869,26.869,0,0,0-6.757.76,15.1,15.1,0,0,0-4.93,2.14,9.3,9.3,0,0,0-3.016,3.34,9.026,9.026,0,0,0-1.015,4.26,9.637,9.637,0,0,0,1.305,5.25,12.96,12.96,0,0,0,3.277,3.51,23.883,23.883,0,0,0,4.263,2.49,45.593,45.593,0,0,1,4.263,2.21,12.691,12.691,0,0,1,3.277,2.69,5.853,5.853,0,0,1,1.305,3.92,4.129,4.129,0,0,1-1.16,3.1,7.3,7.3,0,0,1-2.726,1.68,12.109,12.109,0,0,1-3.132.67q-1.566.12-2.436,0.12a18.857,18.857,0,0,1-2.61-.15,3.535,3.535,0,0,1-1.74-.7,3.952,3.952,0,0,1-1.16-1.68,15.582,15.582,0,0,1-.812-3.04h-1.16l-0.348,8.06a22.377,22.377,0,0,0,3.6,1.04,19.836,19.836,0,0,0,4,.41,35.409,35.409,0,0,0,5.6-.46,16.345,16.345,0,0,0,5.1-1.69,10.2,10.2,0,0,0,3.712-3.3,10.525,10.525,0,0,0,.087-10.41,13.121,13.121,0,0,0-3.364-3.54,26.574,26.574,0,0,0-4.35-2.58c-1.547-.74-3-1.48-4.35-2.24a13.976,13.976,0,0,1-3.364-2.52,4.835,4.835,0,0,1-1.334-3.48A5.264,5.264,0,0,1,684.712,1404.01Zm40.252,15.29c1.2,0,2.194.02,2.987,0.05a5.582,5.582,0,0,1,1.914.38,2.414,2.414,0,0,1,1.1.9,3.787,3.787,0,0,1,.493,1.62h0.986c-0.039-1.19-.058-2.15-0.058-2.87v-3.91c0-.89.019-1.97,0.058-3.25H731.46a4.9,4.9,0,0,1-.464,1.8,2.094,2.094,0,0,1-1.073.93,6.021,6.021,0,0,1-1.943.34q-1.218.06-3.016,0.06h-4.988v-7.36a25.828,25.828,0,0,1,.145-3.11,2.44,2.44,0,0,1,.841-1.68,3.909,3.909,0,0,1,2.117-.67c0.947-.07,2.252-0.11,3.915-0.11a12.316,12.316,0,0,1,3.48.4,5.811,5.811,0,0,1,2.146,1.11,5.75,5.75,0,0,1,1.334,1.65,19.483,19.483,0,0,1,.986,2.12l0.87-.06c-0.039-.62-0.078-1.35-0.116-2.18s-0.058-1.57-.058-2.23c0-.73.029-1.44,0.087-2.12s0.125-1.34.2-2a16.521,16.521,0,0,1-2,.26q-1.131.09-2.7,0.12t-3.741.06q-2.175.03-5.133,0.03h-6.873q-1.885,0-3.683-.03t-3.19-.03v1.1a7.938,7.938,0,0,1,2.668.67,3.388,3.388,0,0,1,1.479,1.36,5.65,5.65,0,0,1,.638,2.17,28.882,28.882,0,0,1,.145,3.11v21.23a28.815,28.815,0,0,1-.145,3.1,5.92,5.92,0,0,1-.638,2.2,3.283,3.283,0,0,1-1.479,1.39,8.577,8.577,0,0,1-2.668.73v0.99q1.856-.06,4.089-0.09t4.089-.03q1.856,0,4.118.03t4.118,0.09v-0.99a8.925,8.925,0,0,1-2.7-.73,3.477,3.477,0,0,1-1.537-1.36,5.306,5.306,0,0,1-.667-2.17,29.227,29.227,0,0,1-.145-3.16v-9.86h4.988Zm29.84,18.03q2.262,0,4.118.12v-0.99a6.724,6.724,0,0,1-2.7-.75,3.874,3.874,0,0,1-1.537-1.57,6.438,6.438,0,0,1-.667-2.37,31.726,31.726,0,0,1-.145-3.25v-20.59a28.626,28.626,0,0,1,.145-3.11,5.306,5.306,0,0,1,.667-2.17,3.538,3.538,0,0,1,1.537-1.36,8.24,8.24,0,0,1,2.7-.67v-1.1q-1.857,0-4.06.03t-4.06.03q-1.857,0-4.147-.03t-4.147-.03v1.1a7.938,7.938,0,0,1,2.668.67,3.388,3.388,0,0,1,1.479,1.36,5.65,5.65,0,0,1,.638,2.17,28.882,28.882,0,0,1,.145,3.11v20.59a30.428,30.428,0,0,1-.145,3.16,7.2,7.2,0,0,1-.638,2.38,3.673,3.673,0,0,1-1.479,1.59,7.114,7.114,0,0,1-2.668.81v0.99q1.855-.06,4.089-0.09t4.089-.03H754.8Zm27.336-18.03c1.2,0,2.242.02,3.132,0.05a8.247,8.247,0,0,1,2.262.38,3.12,3.12,0,0,1,1.421.9,2.984,2.984,0,0,1,.609,1.62h0.928c0-1.19-.01-2.15-0.029-2.87s-0.029-1.32-.029-1.82,0.009-1.2.029-2.09,0.029-1.97.029-3.25h-0.928a3.515,3.515,0,0,1-.609,1.8,2.863,2.863,0,0,1-1.392.93,8.516,8.516,0,0,1-2.262.34q-1.364.06-3.161,0.06h-3.364v-6.78a25.828,25.828,0,0,1,.145-3.11,2.727,2.727,0,0,1,.725-1.68,2.874,2.874,0,0,1,1.74-.67c0.773-.07,1.856-0.11,3.248-0.11a14.429,14.429,0,0,1,3.77.4,6.7,6.7,0,0,1,2.349,1.11,5.2,5.2,0,0,1,1.421,1.65,19.483,19.483,0,0,1,.986,2.12l0.87-.06c-0.039-.62-0.078-1.35-0.116-2.18s-0.058-1.57-.058-2.23c0-.73.029-1.54,0.087-2.41s0.125-1.63.2-2.29a46.307,46.307,0,0,1-5.249.33q-3.51.075-9.483,0.08H767.408v1.1a7.938,7.938,0,0,1,2.668.67,3.388,3.388,0,0,1,1.479,1.36,5.65,5.65,0,0,1,.638,2.17,28.882,28.882,0,0,1,.145,3.11v21.28a28.882,28.882,0,0,1-.145,3.11,5.65,5.65,0,0,1-.638,2.17,3.51,3.51,0,0,1-1.479,1.39,8.252,8.252,0,0,1-2.668.76v0.98q3.073-.105,6.409-0.14t6.409-.03q4.872,0,8.381.06a32.64,32.64,0,0,1,5.539.46c0.116-.58.27-1.25,0.464-2.03s0.415-1.57.667-2.41,0.522-1.64.812-2.43a20.815,20.815,0,0,1,.9-2.12l-0.7-.46c-0.58.77-1.141,1.49-1.682,2.14a7.219,7.219,0,0,1-2.059,1.69,11.49,11.49,0,0,1-3.1,1.1,23.358,23.358,0,0,1-4.814.4,28.644,28.644,0,0,1-3.364-.14,2.8,2.8,0,0,1-1.74-.76,2.752,2.752,0,0,1-.667-1.76c-0.058-.78-0.087-1.86-0.087-3.25v-8.64h3.364Zm25.315-19.75q-2.292-.03-4.147-0.03v1.1a7.938,7.938,0,0,1,2.668.67,3.388,3.388,0,0,1,1.479,1.36,5.65,5.65,0,0,1,.638,2.17,28.882,28.882,0,0,1,.145,3.11v21.23a28.815,28.815,0,0,1-.145,3.1,5.92,5.92,0,0,1-.638,2.2,3.283,3.283,0,0,1-1.479,1.39,8.577,8.577,0,0,1-2.668.73v0.99q3.073-.12,6.206-0.15t6.206-.03q4.872,0,8.091.06a26.5,26.5,0,0,1,5.249.52c0.116-.58.27-1.25,0.464-2s0.415-1.53.667-2.32,0.522-1.57.812-2.35a22.2,22.2,0,0,1,.9-2.09l-0.7-.46c-0.58.77-1.131,1.48-1.653,2.12a7.347,7.347,0,0,1-1.885,1.62,8.9,8.9,0,0,1-2.7,1.02,19.254,19.254,0,0,1-3.973.34,34.034,34.034,0,0,1-3.654-.14,2.945,2.945,0,0,1-1.856-.76,2.871,2.871,0,0,1-.7-1.76c-0.078-.78-0.116-1.86-0.116-3.25v-20.01a28.626,28.626,0,0,1,.145-3.11,5.306,5.306,0,0,1,.667-2.17,3.538,3.538,0,0,1,1.537-1.36,8.24,8.24,0,0,1,2.7-.67v-1.1q-1.857,0-4.06.03t-4.06.03Q809.745,1399.58,807.455,1399.55Zm41.492,37.93q1.161,0.03,2.266.03t2.382,0.03q1.278,0.03,3.079.03a27.608,27.608,0,0,0,10.2-1.69,19.844,19.844,0,0,0,7-4.46,17.782,17.782,0,0,0,4.038-6.35,21.046,21.046,0,0,0,1.307-7.28q0-9.57-5.635-14.07-5.635-4.485-17.2-4.49-1.163,0-2.236.06c-0.716.03-1.462,0.07-2.236,0.11s-1.618.08-2.528,0.12-1.926.06-3.049,0.06q-1.86,0-4.065-.03t-4.061-.03v1.1a7.938,7.938,0,0,1,2.668.67,3.388,3.388,0,0,1,1.479,1.36,5.65,5.65,0,0,1,.638,2.17,28.882,28.882,0,0,1,.145,3.11v21.23a28.815,28.815,0,0,1-.145,3.1,5.92,5.92,0,0,1-.638,2.2,3.283,3.283,0,0,1-1.479,1.39,8.577,8.577,0,0,1-2.668.73v0.99q1.856-.06,4-0.09t4.006-.03Q847.786,1437.45,848.947,1437.48Zm19.566-30.28q3.915,4.26,3.915,12.04a18.114,18.114,0,0,1-.812,5.36,12.772,12.772,0,0,1-2.61,4.7,13.038,13.038,0,0,1-4.611,3.31,16.792,16.792,0,0,1-6.815,1.24,37.3,37.3,0,0,1-4.06-.17,5.363,5.363,0,0,1-2.436-.78,3.1,3.1,0,0,1-1.189-1.8,13.225,13.225,0,0,1-.319-3.28v-18.38a35.713,35.713,0,0,1,.145-3.66,2.868,2.868,0,0,1,.841-1.94,3.7,3.7,0,0,1,2.088-.76c0.928-.09,2.223-0.14,3.886-0.14Q864.6,1402.94,868.513,1407.2Z"
                                transform="translate(-367.844 -1391.62)"></path>
                            </svg>