<svg viewBox="0 0 350 350" style="enable-background:new 0 0 350 350;" 
  xml:space="preserve" xmlns="http://www.w3.org/2000/svg">
                      <style type="text/css">
                        .ico_language {
                          fill: #FFFFFF;
                        }
                      </style>
                      <path class="ico_language" d="M175.2,0C78.4,0,0,78.4,0,175.2s78.4,175.2,175.2,175.2S350.4,272,350.4,175.2S272,0,175.2,0z M340.7,174.4H303
                        c-0.1-28.2-5-54.8-13.8-78.4h31.3c2.6,4.8,5,9.7,7.1,14.8C336.2,130.9,340.6,152.3,340.7,174.4z M275.5,262.5h-47
                        c4.7-23.3,7.6-50,8.1-78.4h56.6c-0.7,19.5-3.9,38.5-9.4,56.4C281.3,248.2,278.6,255.5,275.5,262.5z M66.7,240.5
                        c-5.5-18-8.7-36.9-9.4-56.4h56.6c0.5,28.5,3.4,55.1,8.1,78.4h-47C71.8,255.5,69.1,248.2,66.7,240.5z M71.5,96h48.9
                        c-4.2,23.6-6.6,50.2-6.6,78.4H57.1c0.1-22.4,3.3-44.1,9.6-64.6C68.2,105.1,69.8,100.5,71.5,96z M220.1,22.2
                        c14,8.1,26.7,19.9,37.7,34.9c6.5,8.9,12.2,18.7,17,29.3h-46.6c-6.8-32.9-17.3-58.9-29.8-73.4C205.8,15,213,18.1,220.1,22.2z
                        M191.6,20c6.5,7.8,12.7,19.8,17.8,34.6c3.4,9.7,6.3,20.4,8.8,31.8h-86.1c2.4-11.4,5.4-22.1,8.8-31.8c5.2-14.8,11.4-26.7,17.8-34.6
                        c5.6-6.8,11.2-10.3,16.5-10.3S186,13.1,191.6,20z M123.5,174.4c0-27.8,2.4-54.5,6.8-78.4h90c4.4,23.9,6.7,50.6,6.8,78.4H123.5z
                        M226.9,184.1c-0.5,28.1-3.3,54.8-8.3,78.4h-86.8c-4.9-23.6-7.8-50.4-8.3-78.4H226.9z M152,12.9c-12.5,14.5-23,40.5-29.8,73.4H75.6
                        c4.8-10.6,10.5-20.4,17-29.3c10.9-15,23.6-26.7,37.7-34.9C137.4,18.1,144.6,15,152,12.9z M124,272.2c6.8,29,16.5,52,28,65.3
                        c-7.4-2.1-14.7-5.2-21.7-9.3c-14-8.1-26.7-19.9-37.7-34.9c-4.8-6.6-9.2-13.7-13.1-21.2H124z M158.7,330.4
                        c-6.5-7.8-12.7-19.8-17.8-34.6c-2.6-7.4-4.9-15.3-6.9-23.7h82.4c-2,8.4-4.3,16.3-6.9,23.7c-5.2,14.8-11.4,26.7-17.8,34.6
                        c-5.6,6.8-11.2,10.3-16.5,10.3S164.4,337.3,158.7,330.4z M198.4,337.5c11.5-13.3,21.2-36.3,28-65.3h44.4
                        c-3.9,7.5-8.3,14.6-13.1,21.2c-10.9,15-23.6,26.7-37.7,34.9C213,332.3,205.8,335.4,198.4,337.5z M236.6,174.4
                        c0-28.2-2.4-54.8-6.6-78.4h48.9c1.8,4.5,3.4,9.1,4.8,13.9c6.3,20.4,9.5,42.1,9.6,64.6H236.6z M239.6,22.7
                        C259.3,31,277,43,292.2,58.2c8.6,8.6,16.2,18,22.6,28.1h-29.5c-11.7-27.2-28.6-49.7-48.9-64.9C237.5,21.8,238.6,22.2,239.6,22.7z
                        M58.2,58.2C73.4,43,91.1,31,110.8,22.7c1.1-0.4,2.1-0.9,3.2-1.3C93.7,36.6,76.8,59.1,65.1,86.3H35.5C42,76.2,49.6,66.8,58.2,58.2z
                        M29.8,96h31.3c-8.7,23.6-13.7,50.2-13.8,78.4H9.7c0.1-22.1,4.5-43.5,13-63.6C24.8,105.7,27.2,100.8,29.8,96z M9.9,184.1h37.6
                        c1,28.5,7,55.1,16.8,78.4H34.6c-4.5-7.3-8.5-14.9-11.9-22.9C15.2,221.9,10.9,203.3,9.9,184.1z M110.8,327.7
                        c-19.7-8.3-37.4-20.3-52.6-35.5c-6.3-6.3-12-12.9-17.1-20h27.7c11.5,23.6,27,43.1,45.2,56.8C112.9,328.6,111.8,328.1,110.8,327.7z
                        M292.2,292.2c-15.2,15.2-32.9,27.1-52.6,35.5c-1.1,0.4-2.1,0.9-3.2,1.3c18.2-13.7,33.7-33.2,45.2-56.8h27.7
                        C304.2,279.3,298.5,286,292.2,292.2z M315.8,262.5H286c9.8-23.3,15.8-50,16.8-78.4h37.6c-1,19.2-5.3,37.8-12.8,55.5
                        C324.3,247.6,320.4,255.2,315.8,262.5z"></path>
                    </svg>