<?xml version="1.0" encoding="UTF-8" standalone="no"?>
<svg
   xmlns:dc="http://purl.org/dc/elements/1.1/"
   xmlns:cc="http://creativecommons.org/ns#"
   xmlns:rdf="http://www.w3.org/1999/02/22-rdf-syntax-ns#"
   xmlns:svg="http://www.w3.org/2000/svg"
   xmlns="http://www.w3.org/2000/svg"
   xmlns:sodipodi="http://sodipodi.sourceforge.net/DTD/sodipodi-0.dtd"
   xmlns:inkscape="http://www.inkscape.org/namespaces/inkscape"
   width="76.656898mm"
   height="13.34344mm"
   viewBox="0 0 76.656898 13.34344"
   version="1.1"
   id="svg8"
   inkscape:version="1.0.2 (e86c870879, 2021-01-15, custom)"
   sodipodi:docname="drawing.svg">
  <title
     id="title14">unchained</title>
  <defs
     id="defs2" />
  <sodipodi:namedview
     id="base"
     pagecolor="#ffffff"
     bordercolor="#666666"
     borderopacity="1.0"
     inkscape:pageopacity="0.0"
     inkscape:pageshadow="2"
     inkscape:zoom="0.35"
     inkscape:cx="126.69258"
     inkscape:cy="32.521001"
     inkscape:document-units="mm"
     inkscape:current-layer="layer1"
     inkscape:document-rotation="0"
     showgrid="false"
     fit-margin-top="0"
     fit-margin-left="0"
     fit-margin-right="0"
     fit-margin-bottom="0"
     inkscape:window-width="1920"
     inkscape:window-height="1018"
     inkscape:window-x="-6"
     inkscape:window-y="-6"
     inkscape:window-maximized="1" />
  <metadata
     id="metadata5">
    <rdf:RDF>
      <cc:Work
         rdf:about="">
        <dc:format>image/svg+xml</dc:format>
        <dc:type
           rdf:resource="http://purl.org/dc/dcmitype/StillImage" />
        <dc:title>unchained</dc:title>
      </cc:Work>
    </rdf:RDF>
  </metadata>
  <g
     inkscape:label="Layer 1"
     inkscape:groupmode="layer"
     id="layer1"
     transform="translate(-72.312589,-139.56215)">
    <g
       aria-label="unchained"
       id="text12"
       style="font-size:10.5833px;line-height:1.25;font-family:Ubuntu;-inkscape-font-specification:Ubuntu;stroke-width:0.264583">
      <path
         d="m 79.424575,152.44839 q -0.541866,0.13547 -1.439331,0.28787 -0.880531,0.1524 -2.048929,0.1524 -1.015998,0 -1.710263,-0.28787 -0.694266,-0.3048 -1.117598,-0.84666 -0.423333,-0.54187 -0.609599,-1.27 -0.186266,-0.74506 -0.186266,-1.64253 v -4.94452 h 1.574797 v 4.60585 q 0,1.60867 0.507999,2.30293 0.507999,0.69427 1.710263,0.69427 0.253999,0 0.524932,-0.0169 0.270933,-0.0169 0.507999,-0.0339 0.237066,-0.0339 0.423333,-0.0508 0.203199,-0.0339 0.287866,-0.0677 v -7.43372 h 1.574797 z"
         style="font-style:normal;font-variant:normal;font-weight:normal;font-stretch:normal;font-size:16.9333px;font-family:Ubuntu;-inkscape-font-specification:'Ubuntu, Normal';font-variant-ligatures:normal;font-variant-caps:normal;font-variant-numeric:normal;font-variant-east-asian:normal;fill:#f9f9f9;stroke-width:0.264583"
         id="path16" />
      <path
         d="m 82.133892,144.15108 q 0.541866,-0.13547 1.439331,-0.28787 0.897465,-0.1524 2.065862,-0.1524 1.049865,0 1.74413,0.3048 0.694266,0.28787 1.100665,0.82973 0.423332,0.52493 0.592665,1.27 0.169333,0.74506 0.169333,1.64253 v 4.94452 h -1.574797 v -4.60586 q 0,-0.81279 -0.118533,-1.38853 -0.1016,-0.57573 -0.355599,-0.93133 -0.254,-0.3556 -0.677332,-0.508 -0.423333,-0.16933 -1.049865,-0.16933 -0.253999,0 -0.524932,0.0169 -0.270933,0.0169 -0.524932,0.0508 -0.237066,0.0169 -0.440266,0.0508 -0.186266,0.0339 -0.270933,0.0508 v 7.43372 h -1.574797 z"
         style="font-style:normal;font-variant:normal;font-weight:normal;font-stretch:normal;font-size:16.9333px;font-family:Ubuntu;-inkscape-font-specification:'Ubuntu, Normal';font-variant-ligatures:normal;font-variant-caps:normal;font-variant-numeric:normal;font-variant-east-asian:normal;fill:#f9f9f9;stroke-width:0.264583"
         id="path18" />
      <path
         d="m 95.680522,152.90559 q -1.066798,0 -1.879597,-0.33866 -0.795865,-0.33867 -1.354664,-0.94827 -0.541865,-0.6096 -0.812798,-1.43933 -0.270933,-0.84666 -0.270933,-1.86266 0,-1.016 0.287866,-1.86267 0.3048,-0.84666 0.846665,-1.45626 0.541866,-0.62653 1.320798,-0.9652 0.795865,-0.3556 1.761063,-0.3556 0.592665,0 1.185331,0.1016 0.592665,0.1016 1.134531,0.32174 l -0.355599,1.33773 q -0.3556,-0.16934 -0.829732,-0.27094 -0.457199,-0.1016 -0.982131,-0.1016 -1.320798,0 -2.031996,0.82974 -0.694266,0.82973 -0.694266,2.42146 0,0.7112 0.1524,1.30386 0.169333,0.59267 0.507999,1.016 0.355599,0.42333 0.897465,0.6604 0.541865,0.22013 1.320797,0.22013 0.626532,0 1.134531,-0.11853 0.507999,-0.11853 0.795865,-0.254 l 0.220133,1.3208 q -0.135466,0.0847 -0.389466,0.16933 -0.253999,0.0677 -0.575732,0.11853 -0.321732,0.0677 -0.694265,0.1016 -0.355599,0.0508 -0.694265,0.0508 z"
         style="font-style:normal;font-variant:normal;font-weight:normal;font-stretch:normal;font-size:16.9333px;font-family:Ubuntu;-inkscape-font-specification:'Ubuntu, Normal';font-variant-ligatures:normal;font-variant-caps:normal;font-variant-numeric:normal;font-variant-east-asian:normal;fill:#f9f9f9;stroke-width:0.264583"
         id="path20" />
      <path
         d="m 99.727551,152.70239 v -12.86931 l 1.574799,-0.27093 v 4.50426 q 0.44026,-0.16933 0.93133,-0.254 0.508,-0.1016 0.99906,-0.1016 1.04987,0 1.74413,0.3048 0.69427,0.28787 1.10067,0.82973 0.42333,0.52493 0.59266,1.27 0.16934,0.74506 0.16934,1.64253 v 4.94452 h -1.5748 v -4.60586 q 0,-0.81279 -0.11853,-1.38853 -0.1016,-0.57573 -0.3556,-0.93133 -0.254,-0.3556 -0.67733,-0.508 -0.42334,-0.16933 -1.04987,-0.16933 -0.254,0 -0.52493,0.0339 -0.27093,0.0339 -0.52493,0.0847 -0.23707,0.0339 -0.44027,0.0847 -0.18627,0.0508 -0.27093,0.0847 v 7.31518 z"
         style="font-style:normal;font-variant:normal;font-weight:normal;font-stretch:normal;font-size:16.9333px;font-family:Ubuntu;-inkscape-font-specification:'Ubuntu, Normal';font-variant-ligatures:normal;font-variant-caps:normal;font-variant-numeric:normal;font-variant-east-asian:normal;fill:#f9f9f9;stroke-width:0.264583"
         id="path22" />
      <path
         d="m 112.37671,151.56786 q 0.5588,0 0.98213,-0.0169 0.44027,-0.0339 0.72813,-0.1016 v -2.62466 q -0.16933,-0.0847 -0.55879,-0.13547 -0.37254,-0.0677 -0.9144,-0.0677 -0.3556,0 -0.762,0.0508 -0.38947,0.0508 -0.72813,0.22013 -0.32174,0.1524 -0.54187,0.44027 -0.22013,0.27093 -0.22013,0.72813 0,0.84666 0.54186,1.18533 0.54187,0.32173 1.4732,0.32173 z m -0.13547,-7.89092 q 0.94827,0 1.59173,0.254 0.6604,0.23707 1.04987,0.69427 0.4064,0.44026 0.57573,1.0668 0.16933,0.6096 0.16933,1.35466 v 5.50332 q -0.20319,0.0339 -0.57573,0.1016 -0.3556,0.0508 -0.8128,0.1016 -0.4572,0.0508 -0.99906,0.0847 -0.52493,0.0508 -1.04987,0.0508 -0.74506,0 -1.37159,-0.1524 -0.62653,-0.1524 -1.08373,-0.47413 -0.4572,-0.33867 -0.7112,-0.88053 -0.254,-0.54187 -0.254,-1.30387 0,-0.72813 0.28786,-1.25306 0.3048,-0.52494 0.8128,-0.84667 0.508,-0.32173 1.18533,-0.47413 0.67734,-0.1524 1.4224,-0.1524 0.23707,0 0.49107,0.0339 0.254,0.0169 0.47413,0.0677 0.23707,0.0339 0.4064,0.0677 0.16933,0.0339 0.23706,0.0508 v -0.44026 q 0,-0.38947 -0.0847,-0.762 -0.0847,-0.38947 -0.3048,-0.67733 -0.22013,-0.3048 -0.6096,-0.47414 -0.37253,-0.18626 -0.98213,-0.18626 -0.77893,0 -1.3716,0.11853 -0.57573,0.1016 -0.8636,0.22013 l -0.18626,-1.30386 q 0.3048,-0.13547 1.01599,-0.254 0.7112,-0.13547 1.54093,-0.13547 z"
         style="font-style:normal;font-variant:normal;font-weight:normal;font-stretch:normal;font-size:16.9333px;font-family:Ubuntu;-inkscape-font-specification:'Ubuntu, Normal';font-variant-ligatures:normal;font-variant-caps:normal;font-variant-numeric:normal;font-variant-east-asian:normal;fill:#f9f9f9;stroke-width:0.264583"
         id="path24" />
      <path
         d="m 119.81042,152.70239 h -1.5748 v -8.80531 h 1.5748 z m -0.79587,-10.39704 q -0.42333,0 -0.72813,-0.27094 -0.28786,-0.28786 -0.28786,-0.76199 0,-0.47414 0.28786,-0.74507 0.3048,-0.28787 0.72813,-0.28787 0.42334,0 0.7112,0.28787 0.3048,0.27093 0.3048,0.74507 0,0.47413 -0.3048,0.76199 -0.28786,0.27094 -0.7112,0.27094 z"
         style="font-style:normal;font-variant:normal;font-weight:normal;font-stretch:normal;font-size:16.9333px;font-family:Ubuntu;-inkscape-font-specification:'Ubuntu, Normal';font-variant-ligatures:normal;font-variant-caps:normal;font-variant-numeric:normal;font-variant-east-asian:normal;fill:#f9f9f9;stroke-width:0.264583"
         id="path26" />
      <path
         d="m 122.51972,144.15108 q 0.54186,-0.13547 1.43933,-0.28787 0.89746,-0.1524 2.06586,-0.1524 1.04987,0 1.74413,0.3048 0.69427,0.28787 1.10067,0.82973 0.42333,0.52493 0.59266,1.27 0.16933,0.74506 0.16933,1.64253 v 4.94452 h -1.57479 v -4.60586 q 0,-0.81279 -0.11854,-1.38853 -0.1016,-0.57573 -0.35559,-0.93133 -0.254,-0.3556 -0.67734,-0.508 -0.42333,-0.16933 -1.04986,-0.16933 -0.254,0 -0.52493,0.0169 -0.27094,0.0169 -0.52494,0.0508 -0.23706,0.0169 -0.44026,0.0508 -0.18627,0.0339 -0.27093,0.0508 v 7.43372 h -1.5748 z"
         style="font-style:normal;font-variant:normal;font-weight:normal;font-stretch:normal;font-size:16.9333px;font-family:Ubuntu;-inkscape-font-specification:'Ubuntu, Normal';font-variant-ligatures:normal;font-variant-caps:normal;font-variant-numeric:normal;font-variant-east-asian:normal;fill:#f9f9f9;stroke-width:0.264583"
         id="path28" />
      <path
         d="m 131.74836,148.31667 q 0,-1.1684 0.33866,-2.032 0.33867,-0.88053 0.89747,-1.45626 0.5588,-0.57573 1.28693,-0.8636 0.72813,-0.28787 1.49013,-0.28787 1.77799,0 2.72626,1.1176 0.94826,1.10067 0.94826,3.36973 0,0.1016 0,0.27093 0,0.1524 -0.0169,0.28787 h -6.02825 q 0.1016,1.37159 0.79586,2.08279 0.69427,0.7112 2.16746,0.7112 0.82974,0 1.38853,-0.13546 0.57574,-0.1524 0.8636,-0.28787 l 0.22014,1.3208 q -0.28787,0.1524 -1.016,0.32173 -0.7112,0.16933 -1.6256,0.16933 -1.15146,0 -1.99813,-0.33866 -0.82973,-0.3556 -1.3716,-0.9652 -0.54186,-0.6096 -0.81279,-1.43933 -0.254,-0.84667 -0.254,-1.84573 z m 6.04518,-0.8636 q 0.0169,-1.0668 -0.54186,-1.74413 -0.54187,-0.69427 -1.50706,-0.69427 -0.54187,0 -0.9652,0.22014 -0.4064,0.2032 -0.69427,0.54186 -0.28786,0.33867 -0.4572,0.77893 -0.1524,0.44027 -0.2032,0.89747 z"
         style="font-style:normal;font-variant:normal;font-weight:normal;font-stretch:normal;font-size:16.9333px;font-family:Ubuntu;-inkscape-font-specification:'Ubuntu, Normal';font-variant-ligatures:normal;font-variant-caps:normal;font-variant-numeric:normal;font-variant-east-asian:normal;fill:#f9f9f9;stroke-width:0.264583"
         id="path30" />
      <path
         d="m 147.39469,145.75974 q -0.28786,-0.23707 -0.82973,-0.4572 -0.54186,-0.22013 -1.18533,-0.22013 -0.67733,0 -1.1684,0.254 -0.47413,0.23706 -0.77893,0.67733 -0.3048,0.42333 -0.44026,1.016 -0.13547,0.59266 -0.13547,1.26999 0,1.54093 0.762,2.3876 0.762,0.82973 2.03199,0.82973 0.64347,0 1.0668,-0.0508 0.44027,-0.0677 0.67733,-0.13546 z m 0,-5.92666 1.5748,-0.27093 v 12.88624 q -0.54186,0.1524 -1.38853,0.3048 -0.84666,0.1524 -1.94733,0.1524 -1.016,0 -1.8288,-0.32173 -0.81279,-0.32173 -1.38853,-0.9144 -0.57573,-0.59266 -0.89746,-1.43933 -0.3048,-0.8636 -0.3048,-1.9304 0,-1.01599 0.254,-1.86266 0.27093,-0.84666 0.77893,-1.45626 0.508,-0.6096 1.23613,-0.94827 0.74507,-0.33866 1.69333,-0.33866 0.762,0 1.33773,0.2032 0.59267,0.2032 0.88053,0.38946 z"
         style="font-style:normal;font-variant:normal;font-weight:normal;font-stretch:normal;font-size:16.9333px;font-family:Ubuntu;-inkscape-font-specification:'Ubuntu, Normal';font-variant-ligatures:normal;font-variant-caps:normal;font-variant-numeric:normal;font-variant-east-asian:normal;fill:#f9f9f9;stroke-width:0.264583"
         id="path32" />
    </g>
  </g>
</svg>
