<svg viewBox="0 0 4344 735" xmlns="http://www.w3.org/2000/svg">
                      <style type="text/css">
                        .header_logo__xvi {
                          fill-rule: evenodd;
                          clip-rule: evenodd;
                          fill: #FFFFFF;
                        }
                      </style>
                      <path class="header_logo__xvi" d="M0,735v-28.5h4344V735H0z M4246.8,638.4c6.3,0,20.9-9.3,20.9-25.2V57.2c0-20-13.5-35.1-20.9-35.1V8.3h95.2v13.5
                        c-4,0-18.3,9.3-18.3,35.6v557.7c0,14.8,11,23.3,18.4,23.3V652h-95.2L4246.8,638.4z M4219.3,52l-67,563.1
                        c0.1,14.6,9.6,23.1,16.1,23.1v13.6h-41.7v-0.6H4108v0.6h-42v-13.6c5.6,0,18.4-9.3,18.4-25.2v-17.9
                        c-17.7-148.7-64.6-542.5-65.2-548.8c-1-11.8-9.6-24.5-17.1-24.5V8h86.2v14.1c-14.1,4.1-16.1,20.2-15.9,27.7c0,0,0,0.1,0,0.2l0,0
                        c0.6,10.7,37.4,277.9,49.4,364.8c2.3,16.9,3.7,35.5,3.7,35.5s1.4-18.7,3.7-35.9c11.6-85.5,46.2-342.4,47.9-363.2l0,0
                        c0-0.2,0-0.3,0-0.4c1.5-20.4-8.5-28.6-13.4-28.6V8h75.1v14.5C4218.7,26.4,4219.3,52,4219.3,52z M3869.8,638.5
                        c0,0,18.7-4.5,24.8-17.6s2.2-30.9,1.6-33.2c-0.4-1.7-15.9-67-24-101.1c-2.9-12.1-4.8-34.4-4.8-34.4s-1.9,22.3-4.9,34.6
                        c-8.9,37.2-26.7,112.2-27.6,115.9c-1.2,5-1.6,31.6,19.5,35.7V652h-95v-13.5c0,0,22.7-5.4,27.6-29.1s55.6-272.8,55.6-272.8
                        s-52.8-272.7-54.4-282.1s-7.4-26.4-31.1-33.4V8.1h122.5v13.1c0,0-13.3,4.2-20.5,9.4s-13.6,14.2-11.9,21.7
                        c1.2,5.4,15.1,67.3,22.8,101.8c3,13.6,5.1,31.3,5.1,31.3s2.2-17.7,5.5-31.3c9-37.1,25.8-107,27.1-111.6c1.7-6.4,0.9-18.8-9.8-21.4V8
                        h95.6v13.2c0,0-16.8,3.8-25,11.8s-12.3,21.1-13.8,28.9s-53.4,253.8-53.4,253.8s53.1,268.2,55,277.9c3.1,16.8,16.5,41.2,37.6,44.9
                        v13.5h-124.3V638.5z M3672.1,654c-19.9,0-36-16-36.1-35.9c0-19.9,16-36,35.9-36.1c19.9,0,36,16,36.1,35.9
                        C3708.1,637.8,3692,653.9,3672.1,654C3672.1,654,3672.1,654,3672.1,654z M3672.1,588.3c-16.4-0.1-29.7,13.2-29.8,29.6
                        s13.2,29.7,29.6,29.8c16.4,0.1,29.7-13.2,29.8-29.6c0-0.1,0-0.1,0-0.2C3701.6,601.6,3688.4,588.4,3672.1,588.3L3672.1,588.3z
                        M3670,620.3h-5.5v18.3h-6.6v-42.3h13.7c7.8,0,15.8,2.1,15.8,11.7c0,4.9-3,8.7-8.6,9.9v0.2c5.8,1.1,6.5,3.7,7.2,8.3
                        c0.6,4,1,8.4,2.5,12.2h-8.4c-0.5-2.4-1.1-5.1-1.4-7.5c-0.5-3.6-0.5-7-2.4-9C3674.5,620.3,3672.3,620.5,3670,620.3L3670,620.3z
                        M3679.1,607.7c0-3.2-1.4-4.8-6.7-4.8h-7.9v10.8h7C3677.6,613.5,3679.1,610.9,3679.1,607.7L3679.1,607.7z M3541.9,40.9
                        c-1.9,10.9-44.4,355.3-44.4,355.3v210.6c0,11.3,10.6,33.1,18.7,32.6v12.5h-102.8v-12.5c7.6,0,19.7-12.7,19.7-32.4V395.2
                        c0,0-42.7-326.7-44.3-342.2c-1.9-15.2-11.6-29.9-20.3-30.9V8.4h93.1V22c-6.8,0-16.7,9.3-15.8,19.1c1,10,19.1,217.6,19.1,217.6
                        s20.1-189.7,22-207.4c1.6-17.5-7.8-29.3-15.6-29.3V8.4h93.4v14.8C3556.1,23.1,3543.3,29.5,3541.9,40.9z M3235.9,350.8
                        c14.4,30.9,30.9,99.4,29.7,155.6c-2.6,105.9-25.9,154.7-85.2,154.7c-51.4,0-83.3-35.9-87.8-133.6c-2.8-66.5,2.6-99.8,2.6-99.8
                        l76.2-47c-9.2,36.5-11.8,78.1-12,130.2c-0.7,73.1,4.4,90.3,10.1,99.6c3.5,6.1,15.1,4.8,16.8,0.7c9.6-22.9,11.1-83.2,11.1-99.6
                        c0-16.6,5-79.9-20.9-136.6c-30.9-67.2-56.2-91.2-73.6-145.5c-13.7-43.3-18.9-153.1,0.7-194C3113,16.1,3139.2,0,3167.4,0
                        c28.5,0,44.8,10.9,59,25.4c25.7,27,18.8,161.3,18.8,161.3l-64.4,37.3c14.6-93.3,3.8-157.9-0.5-168.6c-8.3-20.7-20-9.5-23.1,0.7
                        c-3.3,10-5,42.9-5,68.8c0,25.6,5.4,71.7,17,100.7C3190.6,279.3,3222.4,321.5,3235.9,350.8L3235.9,350.8z M2875.8,637.8
                        c16-4.1,18.6-20.2,18.4-27.7c-0.2-7.7-3.1-84.4-3.1-84.4h-39.6c0,0-4.5,63.1-6.4,83.5c-1.6,20.4,10.1,28.6,15.8,28.6v14.1h-84.7
                        v-14.5c23.1-3.8,22.7-29.5,22.7-29.5l49-599.2h69.1c0,0,36.8,597.2,37.5,604.9c1.2,11.8,10.9,24.5,19.6,24.5v13.8h-98.4V637.8z
                        M2878.2,218l-23.8,264.6h35.4L2878.2,218z M2623.5,67.6v537.5c0,14.6,4.3,34.1,15,34.1v12.7H2545v-12.5c9.5,0,18.4-8.6,18.4-32.7
                        V68.3c-28.1,27-48.6,167.5-48.6,167.5h-20.5l6.1-227.2H2684l3.3,227.2h-21.5C2665.8,235.7,2652.9,105.5,2623.5,67.6z M2357.6,56.7
                        v595.2h-59.9l-64.6-431.3v394.1c0,14.5,13.2,25.4,18.4,25.4v11.8h-87.5v-12.5c4.5,0,18.6-11.1,18.6-21.5V51.3
                        c0-20-12.2-32.7-18.4-32.7v-10h93.6l54.2,381.7V50.3c0-16.1-8.4-30.8-17-30.8V8.6h79.5v10C2371.1,18.6,2357.6,31.1,2357.6,56.7z
                        M1962.9,637.8c16.1-4.1,18.4-20.2,18.4-27.7c-0.2-7.7-3.3-84.4-3.3-84.4h-36.8c0,0-4.2,63.1-6.2,83.5
                        c-1.6,20.4,10.2,28.6,15.8,28.6v14.1h-84.9v-14.5c23.4-3.8,22.8-29.5,22.8-29.5l49.3-599.2h68.2c0,0,36.8,597.2,37.8,604.9
                        c1.2,11.8,11,24.5,19.6,24.5v13.8h-100.7V637.8z M1963.9,218l-19.3,264.6h32.1L1963.9,218z M1698.6,47.9l-11.3,0.2v221.7
                        c31.8,0,43.4-39,43.4-98h17v266.3h-17c0-21.5-7-110.9-43.6-110.9v275.9c0,22.9,13.5,36.3,23.6,36.3v12.5H1592v-13.4
                        c4.5,0,23.8-3.8,23.8-33.4V41.5c0-12-11.4-21.3-24.9-21.3V8.4h207.2v220.3h-17C1781.2,228.7,1762.8,47.9,1698.6,47.9z M1119.4,638.9
                        c14.2-3.1,20.8-28.8,20.8-38.1V51.5c0-12.3-13.9-25-22-25v-18h107.6v16.4c-4.5,0-18.9,13.8-18.9,23.1v563.8
                        c60.6-5.5,81.6-224.3,81.6-224.3h17.2v264.3h-186.3V638.9z M921.4,651.9h-2.6v-14.1c16.2-4.1,18.6-20.2,18.4-27.7
                        c0-7.7-3.1-84.4-3.1-84.4h-31.8c0,0-4.5,63.1-6.1,83.5s9.9,28.6,15.6,28.6v14.1h-89.7v-14.5c23.4-3.8,22.7-29.5,22.7-29.5L896.2,8.6
                        h68.7c0,0,35.8,597.2,36.6,604.9c1.2,11.8,11.1,24.5,19.8,24.5v13.8L921.4,651.9L921.4,651.9z M923.2,241.4l-17.8,241.2h27.3
                        L923.2,241.4z M719.9,56.7v595.2h-60.1l-68.2-431.3v394.1c0,14.5,13.2,25.4,18.7,25.4v11.8h-85.6v-12.5c4.7,0,18.9-11.1,18.9-21.5
                        V51.3c0-20-12.3-32.7-18.4-32.7v-10h91.3l58,381.7V50.3c0-16.1-8.5-30.8-17.5-30.8V8.6h79.7v10C733.1,18.6,719.9,31.1,719.9,56.7z
                        M302.8,651.9h-2.6v-14.1c6.4,0,21.2-9.3,21.2-25.2V54.4c0-20-13.7-35.2-21.2-35.2V8.1H407v10.9c-4,0-18.6,9.3-18.6,35.6v559.5
                        c0,14.8,11.1,23.4,18.6,23.4l0.1,14.3H302.8z M103.1,47.9l-11.8,0.2v221.7c33.5,0,45-39,45-98h17v266.3h-17
                        c0-21.5-11.8-110.9-45-110.9v275.9c0,22.9,13.2,36.3,23.4,36.3v12.5H1.1v-13.4c4,0,23.6-3.8,23.6-33.4V41.5
                        c0-12-11.3-21.3-24.8-21.3V8.4h195.6v220.3h-17.3C178.3,228.7,162.7,47.9,103.1,47.9L103.1,47.9z">
                      </path>
                    </svg>