<svg xmlns="http://www.w3.org/2000/svg" viewBox="0 0 901 45" class="u-pc">
                  <defs>
                    <style>
                      .ttl__message--type01 {
                        fill: #fff;
                      }
                    </style>
                  </defs>
                  <g id="レイヤー_2" data-name="レイヤー 2">
                    <g id="txt">
                      <path class="ttl__message--type01"
                        d="M27,42.55,11.45,14.26l-1.51,22a2.6,2.6,0,0,0-.06.56v.57a5.06,5.06,0,0,0,1.24,3.78A8.76,8.76,0,0,0,15.5,43v.87c-1.37,0-2.67,0-3.89,0s-2.52,0-3.89,0-2.65,0-3.86,0-2.49,0-3.86,0V43a13.49,13.49,0,0,0,2.19-.54,4.06,4.06,0,0,0,1.64-1A4.82,4.82,0,0,0,4.94,39.5a15.59,15.59,0,0,0,.62-3.21L9.13,0h.81L28,33.43,45.85,0h1.24l3.13,36.29a17.41,17.41,0,0,0,.51,3.21,5,5,0,0,0,1,1.92,3.5,3.5,0,0,0,1.51,1,11.75,11.75,0,0,0,2.13.54v.87c-1.37,0-2.7,0-4,0s-2.62,0-4,0l-4.19,0-4.18,0V43c.75-.14,1.46-.28,2.1-.43a4.19,4.19,0,0,0,1.71-.78,3.72,3.72,0,0,0,1.13-1.62,8.12,8.12,0,0,0,.4-2.84,4.18,4.18,0,0,0,0-.51,4.12,4.12,0,0,1,0-.51l-2-22.79L27.59,42.39Z">
                      </path>
                      <path class="ttl__message--type01"
                        d="M68.36,26.89v8c0,1.29,0,2.3.09,3a2.26,2.26,0,0,0,2.24,2.35,26.87,26.87,0,0,0,3.13.14,21.77,21.77,0,0,0,4.48-.38,10.56,10.56,0,0,0,2.89-1,6.77,6.77,0,0,0,1.92-1.56c.5-.62,1-1.28,1.56-2l.65.43a18.81,18.81,0,0,0-.84,2c-.27.74-.52,1.5-.75,2.27s-.44,1.52-.62,2.24-.33,1.35-.44,1.89a29.64,29.64,0,0,0-5.15-.43q-3.27-.06-7.81-.06l-6,0c-2.07,0-4.06.06-6,.14V43a7.86,7.86,0,0,0,2.48-.7A3.34,3.34,0,0,0,61.64,41a5.17,5.17,0,0,0,.6-2,26.52,26.52,0,0,0,.13-2.88V16.31a26.72,26.72,0,0,0-.13-2.89,5.22,5.22,0,0,0-.6-2,3.16,3.16,0,0,0-1.38-1.27,7.51,7.51,0,0,0-2.48-.62v-1H69c3.71,0,6.65,0,8.83-.07a43.37,43.37,0,0,0,4.88-.31q-.11.92-.18,2.13c-.06.81-.09,1.56-.09,2.24s0,1.31.06,2.08.07,1.45.11,2l-.81.05a19.16,19.16,0,0,0-.92-2,5.11,5.11,0,0,0-1.32-1.54,6.37,6.37,0,0,0-2.19-1,13,13,0,0,0-3.51-.38,29.75,29.75,0,0,0-3,.11,2.68,2.68,0,0,0-1.62.62A2.51,2.51,0,0,0,68.5,14a23.84,23.84,0,0,0-.14,2.89v6.32H71.5c1.11,0,2.09,0,2.94,0a8.27,8.27,0,0,0,2.11-.33A2.61,2.61,0,0,0,77.84,22a3.21,3.21,0,0,0,.57-1.68h.86c0,1.19,0,2.2,0,3s0,1.47,0,1.94,0,1,0,1.7,0,1.56,0,2.68h-.86a2.73,2.73,0,0,0-.57-1.52,2.94,2.94,0,0,0-1.32-.83A7.31,7.31,0,0,0,74.41,27q-1.25-.06-2.91-.06Z">
                      </path>
                      <path class="ttl__message--type01"
                        d="M93.91,16.74A4.47,4.47,0,0,0,95.15,20a13.27,13.27,0,0,0,3.13,2.35q1.89,1.05,4,2.08a24.83,24.83,0,0,1,4,2.4,12.54,12.54,0,0,1,3.13,3.29,8.63,8.63,0,0,1,1.24,4.78,8.59,8.59,0,0,1-1.32,4.92A9.53,9.53,0,0,1,106,42.88a15.52,15.52,0,0,1-4.75,1.56,31.66,31.66,0,0,1-5.21.43,18.48,18.48,0,0,1-3.72-.37,20.71,20.71,0,0,1-3.35-1l.32-7.5h1.08a14.54,14.54,0,0,0,.76,2.83,3.82,3.82,0,0,0,1.08,1.57,3.29,3.29,0,0,0,1.62.65,18.3,18.3,0,0,0,2.43.13c.54,0,1.29,0,2.27-.11a10.82,10.82,0,0,0,2.91-.62A6.85,6.85,0,0,0,104,38.91,3.85,3.85,0,0,0,105,36a5.46,5.46,0,0,0-1.22-3.65,11.77,11.77,0,0,0-3-2.51,42,42,0,0,0-4-2.05,22.22,22.22,0,0,1-4-2.32,11.91,11.91,0,0,1-3.06-3.27,9,9,0,0,1-1.21-4.89,8.5,8.5,0,0,1,.94-4,8.64,8.64,0,0,1,2.81-3.11,14.25,14.25,0,0,1,4.59-2,25.3,25.3,0,0,1,6.29-.7,12.73,12.73,0,0,1,4.65.76L107.41,16h-1c-.14-1.9-.57-3.2-1.27-3.88a4,4,0,0,0-2.94-1A10.13,10.13,0,0,0,96,12.66,4.92,4.92,0,0,0,93.91,16.74Z">
                      </path>
                      <path class="ttl__message--type01"
                        d="M121,16.74A4.47,4.47,0,0,0,122.2,20a13.27,13.27,0,0,0,3.13,2.35q1.89,1.05,4,2.08a24.83,24.83,0,0,1,4.05,2.4,12.58,12.58,0,0,1,3.14,3.29,8.71,8.71,0,0,1,1.24,4.78,8.52,8.52,0,0,1-1.33,4.92A9.58,9.58,0,0,1,133,42.88a15.61,15.61,0,0,1-4.75,1.56,31.84,31.84,0,0,1-5.21.43,18.51,18.51,0,0,1-3.73-.37,21,21,0,0,1-3.35-1l.33-7.5h1.08a13.93,13.93,0,0,0,.75,2.83,3.82,3.82,0,0,0,1.08,1.57,3.29,3.29,0,0,0,1.62.65,18.3,18.3,0,0,0,2.43.13c.54,0,1.3,0,2.27-.11a11,11,0,0,0,2.92-.62A6.81,6.81,0,0,0,131,38.91,3.85,3.85,0,0,0,132.08,36a5.45,5.45,0,0,0-1.21-3.65,11.94,11.94,0,0,0-3.05-2.51,44.55,44.55,0,0,0-4-2.05,22.31,22.31,0,0,1-4-2.32,12,12,0,0,1-3-3.27,9,9,0,0,1-1.22-4.89,8.39,8.39,0,0,1,1-4,8.55,8.55,0,0,1,2.81-3.11,14.25,14.25,0,0,1,4.59-2,25.19,25.19,0,0,1,6.29-.7,12.64,12.64,0,0,1,4.64.76L134.46,16h-1c-.14-1.9-.56-3.2-1.26-3.88a4,4,0,0,0-2.95-1,10.07,10.07,0,0,0-6.15,1.59A4.9,4.9,0,0,0,121,16.74Z">
                      </path>
                      <path class="ttl__message--type01"
                        d="M166.54,40.72a3.77,3.77,0,0,0-.14-.76c-.09-.36-.25-.89-.49-1.59s-.54-1.61-.91-2.73-.86-2.48-1.43-4.1H151.36c-.72,1.76-1.29,3.18-1.73,4.26s-.75,2-1,2.59a12.36,12.36,0,0,0-.4,1.41,3.48,3.48,0,0,0-.09.65,2.28,2.28,0,0,0,.19.94,1.63,1.63,0,0,0,.68.7,4,4,0,0,0,1.32.46,15.4,15.4,0,0,0,2.19.22v1.08c-1.37,0-2.79-.06-4.27-.08l-4.16,0H142.5c-.46,0-.91,0-1.34,0l-1.3,0c-.43,0-.94,0-1.51,0v-1a9.21,9.21,0,0,0,2.78-.73,3.45,3.45,0,0,0,1.37-1.21c.18-.29.61-1.11,1.27-2.46s1.46-3,2.38-5,1.93-4.17,3-6.56,2.2-4.78,3.3-7.16,2.14-4.63,3.13-6.75,1.84-3.92,2.57-5.4l1.72-.22c.76,2.24,1.62,4.66,2.6,7.27s2,5.23,3,7.85,2.1,5.18,3.13,7.64,2,4.66,2.83,6.57c.44,1,.83,1.83,1.19,2.59a8.22,8.22,0,0,0,1.22,1.89,4.75,4.75,0,0,0,1.56,1.16,6.28,6.28,0,0,0,2.3.46v1.08c-1.34,0-2.58-.06-3.73-.08s-2.41,0-3.78,0-2.51,0-3.54,0l-3.53.08V42.77a10.52,10.52,0,0,0,1.86-.22,2.9,2.9,0,0,0,1-.4,1,1,0,0,0,.4-.6A3.34,3.34,0,0,0,166.54,40.72ZM152.82,28h9.45c-.58-1.59-1.23-3.33-1.94-5.24s-1.54-4.07-2.43-6.48Z">
                      </path>
                      <path class="ttl__message--type01"
                        d="M206.82,40.72a2.4,2.4,0,0,0,.59,1.76,6.61,6.61,0,0,1-1.86.83c-.85.26-1.79.51-2.84.74s-2.12.42-3.24.56a24.75,24.75,0,0,1-3.07.21,26.19,26.19,0,0,1-9.64-1.59A19.21,19.21,0,0,1,180.14,39a16.53,16.53,0,0,1-3.83-5.94,19.53,19.53,0,0,1-1.24-6.86,19.06,19.06,0,0,1,1.27-6.85,17,17,0,0,1,3.88-6,19.3,19.3,0,0,1,6.62-4.24,25.47,25.47,0,0,1,9.45-1.59c1.22,0,2.41.05,3.56.16s2.22.24,3.19.38,1.83.29,2.56.43,1.31.27,1.7.38l-.8,6.75h-1.09a5,5,0,0,0-2.73-3.54,12.65,12.65,0,0,0-6.2-1.32,15.35,15.35,0,0,0-6.82,1.41,13.84,13.84,0,0,0-4.7,3.62,14.56,14.56,0,0,0-2.71,5,18.56,18.56,0,0,0-.87,5.55,15.8,15.8,0,0,0,1,5.49,15.21,15.21,0,0,0,2.87,4.87,14.88,14.88,0,0,0,4.54,3.49,13.25,13.25,0,0,0,6,1.35,13.1,13.1,0,0,0,2.17-.22,9,9,0,0,0,2.87-1.08v-5.5a7.59,7.59,0,0,0-.11-1.41,1.34,1.34,0,0,0-.46-.83,2.27,2.27,0,0,0-1-.46,12,12,0,0,0-1.73-.27V30.62c.87,0,1.9.05,3.11.05h6.16c1.13,0,2.07,0,2.83-.05v1.24a9,9,0,0,0-1.48.27,1.59,1.59,0,0,0-.87.57,2.46,2.46,0,0,0-.4,1.13,13.47,13.47,0,0,0-.11,2Z">
                      </path>
                      <path class="ttl__message--type01"
                        d="M223.29,26.89v8c0,1.29,0,2.3.08,3a2.26,2.26,0,0,0,2.24,2.35,26.87,26.87,0,0,0,3.13.14,21.71,21.71,0,0,0,4.48-.38,10.44,10.44,0,0,0,2.89-1A6.5,6.5,0,0,0,238,37.48c.5-.62,1-1.28,1.57-2l.64.43a21.31,21.31,0,0,0-.83,2c-.27.74-.53,1.5-.76,2.27s-.44,1.52-.62,2.24-.32,1.35-.43,1.89a29.77,29.77,0,0,0-5.16-.43q-3.27-.06-7.8-.06l-6,0c-2.07,0-4.06.06-6,.14V43a7.85,7.85,0,0,0,2.49-.7,3.41,3.41,0,0,0,1.38-1.3,5.35,5.35,0,0,0,.59-2,26.52,26.52,0,0,0,.13-2.88V16.31a26.72,26.72,0,0,0-.13-2.89,5.4,5.4,0,0,0-.59-2,3.22,3.22,0,0,0-1.38-1.27,7.51,7.51,0,0,0-2.49-.62v-1h11.18c3.71,0,6.65,0,8.83-.07a43.41,43.41,0,0,0,4.89-.31c-.07.61-.14,1.32-.19,2.13s-.08,1.56-.08,2.24,0,1.31,0,2.08.07,1.45.11,2l-.81.05a17.26,17.26,0,0,0-.92-2,4.84,4.84,0,0,0-1.32-1.54,6.37,6.37,0,0,0-2.19-1,13,13,0,0,0-3.51-.38,29.65,29.65,0,0,0-3,.11,2.68,2.68,0,0,0-1.62.62,2.52,2.52,0,0,0-.68,1.56,24.21,24.21,0,0,0-.13,2.89v6.32h3.13c1.12,0,2.1,0,2.94,0a8.27,8.27,0,0,0,2.11-.33,2.64,2.64,0,0,0,1.3-.86,3.3,3.3,0,0,0,.56-1.68h.87q0,1.78,0,3c0,.83,0,1.47,0,1.94s0,1,0,1.7,0,1.56,0,2.68h-.87a2.81,2.81,0,0,0-.56-1.52,3,3,0,0,0-1.33-.83,7.23,7.23,0,0,0-2.1-.35c-.83,0-1.8-.06-2.92-.06Z">
                      </path>
                      <path class="ttl__message--type01"
                        d="M275.67,26.89v9.18A27.2,27.2,0,0,0,275.8,39a5,5,0,0,0,.62,2,3.35,3.35,0,0,0,1.43,1.27,8.29,8.29,0,0,0,2.52.67v.92l-3.84-.08-3.83,0-3.81,0-3.81.08V43a7.91,7.91,0,0,0,2.49-.67,3.08,3.08,0,0,0,1.37-1.3,5.38,5.38,0,0,0,.6-2,26.72,26.72,0,0,0,.13-2.89V16.31a26.72,26.72,0,0,0-.13-2.89,5.22,5.22,0,0,0-.6-2,3.13,3.13,0,0,0-1.37-1.27,7.51,7.51,0,0,0-2.49-.62v-1l3,0c1.12,0,2.26,0,3.43,0h6.4c1.84,0,3.43,0,4.78,0l3.48-.05c1,0,1.81,0,2.51-.11a14.56,14.56,0,0,0,1.87-.24c-.08.61-.14,1.23-.19,1.86s-.08,1.29-.08,2,0,1.31.05,2.08.07,1.45.11,2l-.81.05a19.16,19.16,0,0,0-.92-2,5.46,5.46,0,0,0-1.24-1.54,5.53,5.53,0,0,0-2-1,11.14,11.14,0,0,0-3.24-.38c-1.55,0-2.76,0-3.64.11a3.68,3.68,0,0,0-2,.62,2.26,2.26,0,0,0-.78,1.56,24.21,24.21,0,0,0-.13,2.89v6.86h4.64c1.12,0,2.05,0,2.81,0a5.8,5.8,0,0,0,1.81-.33,1.93,1.93,0,0,0,1-.86,4.64,4.64,0,0,0,.43-1.68h.92q-.06,1.78-.06,3V27c0,.67,0,1.56.06,2.68h-.92a3.55,3.55,0,0,0-.46-1.52,2.27,2.27,0,0,0-1-.83,4.91,4.91,0,0,0-1.78-.35c-.74,0-1.66-.06-2.78-.06Z">
                      </path>
                      <path class="ttl__message--type01"
                        d="M301.37,43.79l-3.81,0-3.8.08V43a7.92,7.92,0,0,0,2.48-.67,3.16,3.16,0,0,0,1.38-1.3,5.57,5.57,0,0,0,.59-2,26.46,26.46,0,0,0,.14-2.89V16.31a26.46,26.46,0,0,0-.14-2.89,5.4,5.4,0,0,0-.59-2,3.22,3.22,0,0,0-1.38-1.27,7.51,7.51,0,0,0-2.48-.62v-1l3.78,0,3.78,0c1,0,2.28-.06,3.72-.19s2.79-.19,4-.19q6.81,0,10.1,2.52a8,8,0,0,1,3.3,6.66,13,13,0,0,1-.63,4.08A10.21,10.21,0,0,1,320,24.87a11.58,11.58,0,0,1-3.27,2.62A14.41,14.41,0,0,1,312,29l7.24,7.77c.93,1,1.76,1.91,2.48,2.6a17.62,17.62,0,0,0,2.08,1.72,11.06,11.06,0,0,0,2.05,1.16,14.69,14.69,0,0,0,2.35.79l-.33.92c-.93-.08-1.88-.12-2.83-.14l-2.13,0H321.3q-1.14,0-1.89.06c-.18-.18-.53-.56-1.06-1.14l-1.89-2.1c-.73-.83-1.55-1.74-2.45-2.73s-1.83-2-2.78-3-1.91-2-2.87-3-1.84-1.85-2.67-2.65h-1.35v6.86a26.91,26.91,0,0,0,.14,2.94,4.86,4.86,0,0,0,.62,2,3.29,3.29,0,0,0,1.43,1.27A8.22,8.22,0,0,0,309,43v.92l-3.83-.08Zm3-18h2.92a13.78,13.78,0,0,0,3.24-.38,8.63,8.63,0,0,0,2.91-1.24,6.48,6.48,0,0,0,2.11-2.32,7.49,7.49,0,0,0,.81-3.67,7.32,7.32,0,0,0-.35-2A5.88,5.88,0,0,0,314.71,14a7.37,7.37,0,0,0-2.59-1.76,11,11,0,0,0-4.32-.73,5.43,5.43,0,0,0-1.73.22,2,2,0,0,0-1.05.81,3.88,3.88,0,0,0-.54,1.73,25.84,25.84,0,0,0-.14,3Z">
                      </path>
                      <path class="ttl__message--type01"
                        d="M327.13,26.14a18.73,18.73,0,0,1,1.46-7.38,18.11,18.11,0,0,1,4.07-6,19.28,19.28,0,0,1,6.21-4,20.78,20.78,0,0,1,7.86-1.46,20.55,20.55,0,0,1,7.8,1.46,19.07,19.07,0,0,1,6.21,4,18.32,18.32,0,0,1,5.59,13.34,18.32,18.32,0,0,1-5.59,13.33,18.91,18.91,0,0,1-6.21,4,20.55,20.55,0,0,1-7.8,1.46,20.78,20.78,0,0,1-7.86-1.46,19.12,19.12,0,0,1-6.21-4,18.11,18.11,0,0,1-4.07-6A18.71,18.71,0,0,1,327.13,26.14Zm6.48-.06a17.84,17.84,0,0,0,1.05,6.24,15.16,15.16,0,0,0,2.86,4.86,13.25,13.25,0,0,0,4.19,3.16,11.85,11.85,0,0,0,10.1,0A12.88,12.88,0,0,0,356,37.18a15.3,15.3,0,0,0,2.84-4.86,17.84,17.84,0,0,0,1.05-6.24,17.84,17.84,0,0,0-1.05-6.24A15.41,15.41,0,0,0,356,15a12.51,12.51,0,0,0-4.15-3.13,12.14,12.14,0,0,0-10.1,0A12.87,12.87,0,0,0,337.52,15a15.27,15.27,0,0,0-2.86,4.86A17.84,17.84,0,0,0,333.61,26.08Z">
                      </path>
                      <path class="ttl__message--type01"
                        d="M389.23,42.71l-12.1-23.92-1.29,18.36a2.25,2.25,0,0,0-.06.49v.48a4.25,4.25,0,0,0,1.06,3.19,7.26,7.26,0,0,0,3.75,1.51v1l-3.51,0-3.51,0c-1.15,0-2.27,0-3.35,0s-2.2,0-3.35,0v-1a16.53,16.53,0,0,0,1.89-.38,3.32,3.32,0,0,0,1.41-.75,3.67,3.67,0,0,0,.94-1.6,12.52,12.52,0,0,0,.51-2.94L374,6.59h1.78l15.06,28.56L405.7,6.59h2.43l1.73,30.56a14.14,14.14,0,0,0,.4,2.94,3.8,3.8,0,0,0,.81,1.6,2.73,2.73,0,0,0,1.3.75,15.1,15.1,0,0,0,1.86.38v1l-3.48,0-3.49,0-3.78,0-3.78,0v-1c.65-.11,1.26-.22,1.81-.35a3.14,3.14,0,0,0,2.38-2,6.79,6.79,0,0,0,.35-2.43,2.63,2.63,0,0,0,0-.41c0-.12,0-.28,0-.46l-1.68-18.52-11.34,24Z">
                      </path>
                      <path class="ttl__message--type01"
                        d="M451.17,43.79l-3.78,0-3.78.08V43a7.92,7.92,0,0,0,2.48-.67,3.16,3.16,0,0,0,1.38-1.3,5.57,5.57,0,0,0,.59-2,26.46,26.46,0,0,0,.14-2.89V16.9A15.7,15.7,0,0,0,448,14a3.07,3.07,0,0,0-.68-1.54,2,2,0,0,0-1.18-.59,11.6,11.6,0,0,0-1.81-.11,12.22,12.22,0,0,0-3.48.4,5.76,5.76,0,0,0-2.14,1.11,5.43,5.43,0,0,0-1.29,1.65c-.33.63-.63,1.3-.92,2l-.81-.21c0-.58.07-1.23.11-2s.05-1.38.05-2,0-1.5-.08-2.45-.12-1.74-.19-2.35a9.63,9.63,0,0,0,1.59.29c.6.07,1.45.12,2.57.15s2.56.06,4.35.07,4.11,0,7,0,5.27,0,7.07,0,3.25,0,4.35-.07,1.95-.08,2.56-.15a12.47,12.47,0,0,0,1.73-.29,16.57,16.57,0,0,0-.21,2.35c0,1-.06,1.77-.06,2.45s0,1.28,0,2,0,1.37.08,2l-.76.21c-.28-.72-.58-1.39-.89-2a5.08,5.08,0,0,0-1.27-1.65,5.79,5.79,0,0,0-2.13-1.11,12.22,12.22,0,0,0-3.48-.4,12.47,12.47,0,0,0-1.89.11,1.94,1.94,0,0,0-1.22.62,3.14,3.14,0,0,0-.64,1.56,16.8,16.8,0,0,0-.19,2.89V36.07A22.28,22.28,0,0,0,454.3,39a5.17,5.17,0,0,0,.65,2,3.29,3.29,0,0,0,1.43,1.27,8.22,8.22,0,0,0,2.51.67v.92L455,43.82Z">
                      </path>
                      <path class="ttl__message--type01"
                        d="M501.28,43.79H497.5c-1.37,0-2.61,0-3.73.11V43a7.81,7.81,0,0,0,2.43-.67,3.35,3.35,0,0,0,1.41-1.3,5.21,5.21,0,0,0,.62-2,26.72,26.72,0,0,0,.13-2.89V26.89H480.59v9.18a26.91,26.91,0,0,0,.14,2.94,5,5,0,0,0,.62,2,3.29,3.29,0,0,0,1.43,1.27,8.3,8.3,0,0,0,2.51.67v.92c-1.15-.07-2.43-.11-3.83-.11h-3.84l-3.8,0L470,43.9V43a8.07,8.07,0,0,0,2.49-.67,3.08,3.08,0,0,0,1.37-1.3,5.38,5.38,0,0,0,.6-2,26.72,26.72,0,0,0,.13-2.89V16.31a26.72,26.72,0,0,0-.13-2.89,5.22,5.22,0,0,0-.6-2,3.13,3.13,0,0,0-1.37-1.27A7.65,7.65,0,0,0,470,9.5v-1l3.86,0,3.86,0,3.78,0,3.78,0v1a7.85,7.85,0,0,0-2.51.62,3.29,3.29,0,0,0-1.43,1.27,5.06,5.06,0,0,0-.62,2,26.46,26.46,0,0,0-.14,2.89v6.91h17.77V16.31a26.72,26.72,0,0,0-.13-2.89,5.06,5.06,0,0,0-.62-2,3.42,3.42,0,0,0-1.41-1.27,7.39,7.39,0,0,0-2.43-.62v-1l3.84,0,3.83,0,3.81,0,3.8,0v1a7.85,7.85,0,0,0-2.51.62,3.29,3.29,0,0,0-1.43,1.27,5.39,5.39,0,0,0-.65,2,23.75,23.75,0,0,0-.16,2.89V36.07a24.15,24.15,0,0,0,.16,2.94,5.33,5.33,0,0,0,.65,2,3.29,3.29,0,0,0,1.43,1.27,8.3,8.3,0,0,0,2.51.67v.92l-3.91-.08Z">
                      </path>
                      <path class="ttl__message--type01"
                        d="M524.5,26.89v8c0,1.29,0,2.3.08,3a2.26,2.26,0,0,0,2.24,2.35,26.87,26.87,0,0,0,3.13.14,21.71,21.71,0,0,0,4.48-.38,10.56,10.56,0,0,0,2.89-1,6.77,6.77,0,0,0,1.92-1.56c.5-.62,1-1.28,1.56-2l.65.43a18.88,18.88,0,0,0-.83,2c-.27.74-.53,1.5-.76,2.27s-.44,1.52-.62,2.24-.33,1.35-.43,1.89a29.77,29.77,0,0,0-5.16-.43q-3.27-.06-7.8-.06l-6,0c-2.07,0-4.06.06-6,.14V43a7.93,7.93,0,0,0,2.49-.7,3.32,3.32,0,0,0,1.37-1.3,5.17,5.17,0,0,0,.6-2,26.52,26.52,0,0,0,.13-2.88V16.31a26.72,26.72,0,0,0-.13-2.89,5.22,5.22,0,0,0-.6-2,3.13,3.13,0,0,0-1.37-1.27,7.58,7.58,0,0,0-2.49-.62v-1h11.18c3.71,0,6.65,0,8.83-.07a43.41,43.41,0,0,0,4.89-.31c-.08.61-.14,1.32-.19,2.13s-.08,1.56-.08,2.24,0,1.31.05,2.08.07,1.45.11,2l-.81.05a19.16,19.16,0,0,0-.92-2,4.84,4.84,0,0,0-1.32-1.54,6.37,6.37,0,0,0-2.19-1,13,13,0,0,0-3.51-.38,29.53,29.53,0,0,0-3,.11,2.68,2.68,0,0,0-1.62.62,2.52,2.52,0,0,0-.68,1.56,24.21,24.21,0,0,0-.13,2.89v6.32h3.13c1.11,0,2.1,0,2.94,0a8.27,8.27,0,0,0,2.11-.33A2.57,2.57,0,0,0,534,22a3.21,3.21,0,0,0,.57-1.68h.86c0,1.19,0,2.2,0,3s0,1.47,0,1.94,0,1,0,1.7,0,1.56,0,2.68h-.86a2.73,2.73,0,0,0-.57-1.52,2.89,2.89,0,0,0-1.32-.83,7.31,7.31,0,0,0-2.11-.35c-.82,0-1.8-.06-2.91-.06Z">
                      </path>
                      <path class="ttl__message--type01"
                        d="M573.2,43.79l-4.29,0-4.24.08v-.75a8.24,8.24,0,0,0,2.89-.79,4.08,4.08,0,0,0,1.62-1.54,6,6,0,0,0,.73-2.4,30,30,0,0,0,.16-3.37V11.12a30,30,0,0,0-.16-3.37,5.91,5.91,0,0,0-.73-2.38,3.94,3.94,0,0,0-1.62-1.48,8.76,8.76,0,0,0-2.89-.76V2.27l4.35,0,4.35,0q3.72,0,6.64-.19c1.94-.12,3.76-.19,5.45-.19q11.71,0,17.69,4.92t6,15.39a23.31,23.31,0,0,1-1.4,8,19.62,19.62,0,0,1-4.27,6.94A21,21,0,0,1,596.15,42a26.75,26.75,0,0,1-10.42,1.86l-3.51,0-3,0-2.83,0C575.46,43.8,574.39,43.79,573.2,43.79ZM584.06,5.51c-1.84,0-3.27,0-4.29.13a3.77,3.77,0,0,0-2.3.84,3.32,3.32,0,0,0-.92,2.11,36.63,36.63,0,0,0-.16,4V33.75a14.77,14.77,0,0,0,.35,3.59,3.28,3.28,0,0,0,1.32,2,6.15,6.15,0,0,0,2.7.84,41.21,41.21,0,0,0,4.43.19,21.43,21.43,0,0,0,8.37-1.43,14.13,14.13,0,0,0,5.32-3.76,13.47,13.47,0,0,0,2.78-5.29,22.86,22.86,0,0,0,.81-6.05,28.05,28.05,0,0,0-1-7.72,13.89,13.89,0,0,0-3.16-5.75,14,14,0,0,0-5.7-3.59A25.84,25.84,0,0,0,584.06,5.51Z">
                      </path>
                      <path class="ttl__message--type01"
                        d="M622.4,26.89v8c0,1.29,0,2.3.08,3a2.26,2.26,0,0,0,2.24,2.35,26.87,26.87,0,0,0,3.13.14,21.71,21.71,0,0,0,4.48-.38,10.44,10.44,0,0,0,2.89-1,6.63,6.63,0,0,0,1.92-1.56c.5-.62,1-1.28,1.57-2l.64.43a21.31,21.31,0,0,0-.83,2c-.27.74-.53,1.5-.76,2.27s-.44,1.52-.62,2.24-.32,1.35-.43,1.89a29.77,29.77,0,0,0-5.16-.43q-3.27-.06-7.8-.06l-6,0c-2.07,0-4.06.06-6,.14V43a7.85,7.85,0,0,0,2.49-.7,3.32,3.32,0,0,0,1.37-1.3,5.17,5.17,0,0,0,.6-2,26.52,26.52,0,0,0,.13-2.88V16.31a26.72,26.72,0,0,0-.13-2.89,5.22,5.22,0,0,0-.6-2,3.13,3.13,0,0,0-1.37-1.27,7.51,7.51,0,0,0-2.49-.62v-1H623c3.71,0,6.65,0,8.83-.07a43.41,43.41,0,0,0,4.89-.31c-.08.61-.14,1.32-.19,2.13s-.08,1.56-.08,2.24,0,1.31,0,2.08.07,1.45.11,2l-.81.05a17.26,17.26,0,0,0-.92-2,4.84,4.84,0,0,0-1.32-1.54,6.37,6.37,0,0,0-2.19-1,13,13,0,0,0-3.51-.38,29.65,29.65,0,0,0-3,.11,2.68,2.68,0,0,0-1.62.62,2.52,2.52,0,0,0-.68,1.56,24.21,24.21,0,0,0-.13,2.89v6.32h3.13c1.12,0,2.1,0,2.94,0a8.27,8.27,0,0,0,2.11-.33,2.64,2.64,0,0,0,1.3-.86,3.3,3.3,0,0,0,.56-1.68h.87q0,1.78,0,3c0,.83,0,1.47,0,1.94s0,1,0,1.7,0,1.56,0,2.68h-.87a2.81,2.81,0,0,0-.56-1.52,3,3,0,0,0-1.33-.83,7.23,7.23,0,0,0-2.1-.35c-.83,0-1.8-.06-2.92-.06Z">
                      </path>
                      <path class="ttl__message--type01"
                        d="M659.22,36q2.28-5.19,3.89-8.94t2.7-6.37c.72-1.75,1.29-3.16,1.7-4.24s.73-1.93,1-2.56a11.23,11.23,0,0,0,.4-1.38,3.58,3.58,0,0,0,.09-.65,1.87,1.87,0,0,0-.87-1.62,7.41,7.41,0,0,0-3.51-.7V8.48l4.27.08,4.16,0h1.62c.46,0,.91,0,1.34,0l1.3-.06,1.51,0v1a9.52,9.52,0,0,0-2.78.73,3.47,3.47,0,0,0-1.37,1.22,19.52,19.52,0,0,0-1.3,2.46c-.65,1.34-1.43,3-2.35,5s-1.93,4.17-3,6.56-2.2,4.78-3.3,7.16l-3.13,6.75c-1,2.12-1.85,3.92-2.56,5.4l-1.73.21c-.76-2.19-1.62-4.61-2.6-7.23s-2-5.26-3-7.89-2.1-5.17-3.13-7.64-2-4.65-2.83-6.56c-.43-1-.83-1.84-1.19-2.59a7.8,7.8,0,0,0-1.22-1.89A4.53,4.53,0,0,0,641.62,10a6.13,6.13,0,0,0-2.27-.46V8.48l3.73.08q1.73,0,3.78,0h1.84c.57,0,1.13,0,1.67,0L652,8.5l1.89,0V9.56a18.19,18.19,0,0,0-1.86.24,2.58,2.58,0,0,0-1,.38,1,1,0,0,0-.4.59,3.49,3.49,0,0,0-.09.84,7.66,7.66,0,0,0,.36,1.54c.23.81.66,2.12,1.29,3.94s1.5,4.25,2.62,7.29S657.42,31.3,659.22,36Z">
                      </path>
                      <path class="ttl__message--type01"
                        d="M691,26.89v8c0,1.29,0,2.3.08,3a2.26,2.26,0,0,0,2.24,2.35,26.87,26.87,0,0,0,3.13.14,21.71,21.71,0,0,0,4.48-.38,10.56,10.56,0,0,0,2.89-1,6.63,6.63,0,0,0,1.92-1.56c.5-.62,1-1.28,1.57-2l.64.43a18.88,18.88,0,0,0-.83,2c-.27.74-.53,1.5-.76,2.27s-.44,1.52-.62,2.24-.33,1.35-.43,1.89a29.77,29.77,0,0,0-5.16-.43q-3.27-.06-7.8-.06l-6,0c-2.07,0-4.06.06-6,.14V43a7.93,7.93,0,0,0,2.49-.7,3.32,3.32,0,0,0,1.37-1.3,5.17,5.17,0,0,0,.6-2,26.52,26.52,0,0,0,.13-2.88V16.31a26.72,26.72,0,0,0-.13-2.89,5.22,5.22,0,0,0-.6-2,3.13,3.13,0,0,0-1.37-1.27,7.58,7.58,0,0,0-2.49-.62v-1h11.18c3.71,0,6.65,0,8.83-.07a43.41,43.41,0,0,0,4.89-.31c-.08.61-.14,1.32-.19,2.13s-.08,1.56-.08,2.24,0,1.31.05,2.08.07,1.45.11,2l-.81.05a19.16,19.16,0,0,0-.92-2,4.84,4.84,0,0,0-1.32-1.54,6.37,6.37,0,0,0-2.19-1,13,13,0,0,0-3.51-.38,29.53,29.53,0,0,0-3,.11,2.68,2.68,0,0,0-1.62.62,2.52,2.52,0,0,0-.68,1.56A24.21,24.21,0,0,0,691,16.9v6.32h3.13c1.11,0,2.1,0,2.94,0a8.27,8.27,0,0,0,2.11-.33,2.57,2.57,0,0,0,1.29-.86A3.21,3.21,0,0,0,701,20.3h.86c0,1.19,0,2.2,0,3s0,1.47,0,1.94,0,1,0,1.7,0,1.56,0,2.68H701a2.73,2.73,0,0,0-.57-1.52,2.89,2.89,0,0,0-1.32-.83A7.31,7.31,0,0,0,697,27c-.82,0-1.8-.06-2.91-.06Z">
                      </path>
                      <path class="ttl__message--type01"
                        d="M718.89,8.53l3.78,0,3.78,0v1a7.85,7.85,0,0,0-2.51.62,3.35,3.35,0,0,0-1.43,1.27,5.06,5.06,0,0,0-.62,2,26.72,26.72,0,0,0-.13,2.89V34.94c0,1.29,0,2.3.1,3a2.77,2.77,0,0,0,.65,1.65,2.75,2.75,0,0,0,1.73.7,32,32,0,0,0,3.4.14,17.41,17.41,0,0,0,3.7-.33,8.11,8.11,0,0,0,2.51-.94,7,7,0,0,0,1.76-1.51c.48-.6,1-1.26,1.54-2l.64.44c-.28.57-.56,1.22-.83,1.94s-.53,1.45-.76,2.19-.44,1.45-.62,2.16-.32,1.32-.43,1.86a24.73,24.73,0,0,0-4.89-.49q-3,0-7.53,0l-5.78,0c-1.94,0-3.87.06-5.78.13V43a8,8,0,0,0,2.49-.67A3.08,3.08,0,0,0,715,41a5.38,5.38,0,0,0,.6-2,26.72,26.72,0,0,0,.13-2.89V16.31a26.72,26.72,0,0,0-.13-2.89,5.22,5.22,0,0,0-.6-2,3.13,3.13,0,0,0-1.37-1.27,7.58,7.58,0,0,0-2.49-.62v-1l3.86,0Z">
                      </path>
                      <path class="ttl__message--type01"
                        d="M738.87,26.14a18.73,18.73,0,0,1,1.46-7.38,18,18,0,0,1,4.08-6,19.17,19.17,0,0,1,6.21-4,21.73,21.73,0,0,1,15.66,0,19.28,19.28,0,0,1,6.21,4,18.43,18.43,0,0,1,5.59,13.34,18.42,18.42,0,0,1-5.59,13.33,19.12,19.12,0,0,1-6.21,4,21.73,21.73,0,0,1-15.66,0,19,19,0,0,1-6.21-4,18,18,0,0,1-4.08-6A18.71,18.71,0,0,1,738.87,26.14Zm6.48-.06a17.84,17.84,0,0,0,1.06,6.24,15,15,0,0,0,2.86,4.86,13.21,13.21,0,0,0,4.18,3.16,11.75,11.75,0,0,0,5.08,1.13,11.59,11.59,0,0,0,5-1.13,12.91,12.91,0,0,0,4.16-3.16,15.28,15.28,0,0,0,2.83-4.86,17.61,17.61,0,0,0,1.06-6.24,17.61,17.61,0,0,0-1.06-6.24A15.39,15.39,0,0,0,767.71,15a12.55,12.55,0,0,0-4.16-3.13,11.85,11.85,0,0,0-5-1.1,12,12,0,0,0-5.08,1.1A12.83,12.83,0,0,0,749.27,15a15.09,15.09,0,0,0-2.86,4.86A17.84,17.84,0,0,0,745.35,26.08Z">
                      </path>
                      <path class="ttl__message--type01"
                        d="M788.39,43.79l-3.81,0-3.8.08V43a7.92,7.92,0,0,0,2.48-.67,3.16,3.16,0,0,0,1.38-1.3,5.57,5.57,0,0,0,.59-2,26.46,26.46,0,0,0,.14-2.89V16.31a26.46,26.46,0,0,0-.14-2.89,5.4,5.4,0,0,0-.59-2,3.22,3.22,0,0,0-1.38-1.27,7.51,7.51,0,0,0-2.48-.62v-1l3.78,0,3.78,0c1,0,2.37,0,4-.16s3.33-.16,5.13-.16a20.08,20.08,0,0,1,5.92.78,12.11,12.11,0,0,1,4.15,2.13A8.88,8.88,0,0,1,810,14.31a9.23,9.23,0,0,1,.84,3.89,11.71,11.71,0,0,1-.81,4.29,10.38,10.38,0,0,1-2.41,3.65,11.91,11.91,0,0,1-3.91,2.51,14.11,14.11,0,0,1-5.35.94,18.59,18.59,0,0,1-4.24-.38,4.83,4.83,0,0,1-2-.75V26.3a10.51,10.51,0,0,0,1.84.38,17.62,17.62,0,0,0,1.89.1,11.42,11.42,0,0,0,3.18-.45,9,9,0,0,0,2.84-1.41,6.94,6.94,0,0,0,2-2.4,7.36,7.36,0,0,0,.76-3.46,7.91,7.91,0,0,0-.46-2.62,7,7,0,0,0-1.43-2.4,7.45,7.45,0,0,0-2.54-1.78,9.29,9.29,0,0,0-3.83-.7,12.42,12.42,0,0,0-2.54.21,3,3,0,0,0-1.54.81,3.32,3.32,0,0,0-.78,1.73,15.94,15.94,0,0,0-.22,3V36.07A26.91,26.91,0,0,0,791.5,39a4.86,4.86,0,0,0,.62,2,3.29,3.29,0,0,0,1.43,1.27,8.22,8.22,0,0,0,2.51.67v.92l-3.83-.08Z">
                      </path>
                      <path class="ttl__message--type01"
                        d="M823.87,26.89v8c0,1.29,0,2.3.08,3a2.26,2.26,0,0,0,2.24,2.35,27,27,0,0,0,3.13.14,21.88,21.88,0,0,0,4.49-.38,10.48,10.48,0,0,0,2.88-1,6.5,6.5,0,0,0,1.92-1.56c.51-.62,1-1.28,1.57-2l.65.43a18.81,18.81,0,0,0-.84,2c-.27.74-.52,1.5-.76,2.27s-.44,1.52-.62,2.24-.32,1.35-.43,1.89a29.77,29.77,0,0,0-5.16-.43q-3.27-.06-7.8-.06l-6,0c-2.07,0-4.06.06-6,.14V43a7.86,7.86,0,0,0,2.48-.7,3.41,3.41,0,0,0,1.38-1.3,5.35,5.35,0,0,0,.59-2,26.26,26.26,0,0,0,.14-2.88V16.31a26.46,26.46,0,0,0-.14-2.89,5.4,5.4,0,0,0-.59-2,3.22,3.22,0,0,0-1.38-1.27,7.51,7.51,0,0,0-2.48-.62v-1h11.17c3.71,0,6.65,0,8.83-.07a43.41,43.41,0,0,0,4.89-.31c-.07.61-.14,1.32-.19,2.13s-.08,1.56-.08,2.24,0,1.31.05,2.08.08,1.45.11,2l-.81.05a17.26,17.26,0,0,0-.92-2A4.84,4.84,0,0,0,835,13.12a6.37,6.37,0,0,0-2.19-1,13,13,0,0,0-3.51-.38,29.65,29.65,0,0,0-3,.11,2.68,2.68,0,0,0-1.62.62A2.52,2.52,0,0,0,824,14a24.21,24.21,0,0,0-.13,2.89v6.32H827c1.12,0,2.1,0,2.94,0a8.27,8.27,0,0,0,2.11-.33,2.64,2.64,0,0,0,1.3-.86,3.3,3.3,0,0,0,.56-1.68h.87q0,1.78,0,3c0,.83,0,1.47,0,1.94s0,1,0,1.7,0,1.56,0,2.68h-.87a2.81,2.81,0,0,0-.56-1.52A3,3,0,0,0,832,27.3a7.17,7.17,0,0,0-2.1-.35c-.83,0-1.8-.06-2.92-.06Z">
                      </path>
                      <path class="ttl__message--type01"
                        d="M850.6,43.79l-3.81,0L843,43.9V43a7.91,7.91,0,0,0,2.49-.67,3.16,3.16,0,0,0,1.38-1.3,5.57,5.57,0,0,0,.59-2,26.72,26.72,0,0,0,.13-2.89V16.31a26.72,26.72,0,0,0-.13-2.89,5.4,5.4,0,0,0-.59-2,3.22,3.22,0,0,0-1.38-1.27A7.51,7.51,0,0,0,843,9.5v-1l3.78,0,3.78,0c1.05,0,2.29-.06,3.73-.19s2.79-.19,4.05-.19q6.81,0,10.1,2.52a8,8,0,0,1,3.29,6.66,13.3,13.3,0,0,1-.62,4.08,10.07,10.07,0,0,1-1.92,3.46,11.39,11.39,0,0,1-3.26,2.62A14.49,14.49,0,0,1,861.24,29l7.23,7.77c.94,1,1.77,1.91,2.49,2.6A17.62,17.62,0,0,0,873,41.09a11.06,11.06,0,0,0,2.05,1.16,14.69,14.69,0,0,0,2.35.79l-.33.92c-.93-.08-1.88-.12-2.83-.14l-2.14,0h-1.62q-1.12,0-1.89.06-.27-.27-1-1.14l-1.89-2.1-2.46-2.73c-.9-1-1.82-2-2.78-3s-1.91-2-2.86-3-1.84-1.85-2.67-2.65h-1.35v6.86A27.2,27.2,0,0,0,853.7,39a5,5,0,0,0,.62,2,3.32,3.32,0,0,0,1.44,1.27,8.13,8.13,0,0,0,2.51.67v.92l-3.84-.08Zm3-18h2.91a13.78,13.78,0,0,0,3.24-.38,8.68,8.68,0,0,0,2.92-1.24,6.57,6.57,0,0,0,2.11-2.32,7.49,7.49,0,0,0,.81-3.67,7.32,7.32,0,0,0-.35-2A5.88,5.88,0,0,0,863.94,14a7.42,7.42,0,0,0-2.6-1.76A11,11,0,0,0,857,11.5a5.36,5.36,0,0,0-1.72.22,2,2,0,0,0-1.06.81,3.88,3.88,0,0,0-.54,1.73,26.2,26.2,0,0,0-.13,3Z">
                      </path>
                      <path class="ttl__message--type01"
                        d="M883.86,16.74A4.52,4.52,0,0,0,885.1,20a13.33,13.33,0,0,0,3.14,2.35q1.89,1.05,4,2.08a24.83,24.83,0,0,1,4.05,2.4,12.54,12.54,0,0,1,3.13,3.29,8.63,8.63,0,0,1,1.24,4.78,8.59,8.59,0,0,1-1.32,4.92,9.7,9.7,0,0,1-3.46,3.08,15.52,15.52,0,0,1-4.75,1.56,31.75,31.75,0,0,1-5.21.43,18.65,18.65,0,0,1-3.73-.37,21,21,0,0,1-3.35-1l.33-7.5h1.08a14.62,14.62,0,0,0,.75,2.83,3.82,3.82,0,0,0,1.08,1.57,3.37,3.37,0,0,0,1.62.65,18.3,18.3,0,0,0,2.43.13c.54,0,1.3,0,2.27-.11a10.89,10.89,0,0,0,2.92-.62,6.85,6.85,0,0,0,2.54-1.56A3.85,3.85,0,0,0,895,36a5.46,5.46,0,0,0-1.22-3.65,11.94,11.94,0,0,0-3-2.51,43.23,43.23,0,0,0-4-2.05,22.67,22.67,0,0,1-4-2.32,12,12,0,0,1-3-3.27,9,9,0,0,1-1.21-4.89,8.38,8.38,0,0,1,.94-4,8.64,8.64,0,0,1,2.81-3.11,14.25,14.25,0,0,1,4.59-2,25.3,25.3,0,0,1,6.29-.7,12.64,12.64,0,0,1,4.64.76L897.36,16h-1c-.15-1.9-.57-3.2-1.27-3.88a4,4,0,0,0-3-1A10.07,10.07,0,0,0,886,12.66,4.9,4.9,0,0,0,883.86,16.74Z">
                      </path>
                    </g>
                  </g>
                </svg>