<svg viewBox="0 0 396 45" xmlns="http://www.w3.org/2000/svg">
                    <defs>
                      <style>
                        .ttl__socialMedia {
                          fill: #fff;
                        }
                      </style>
                    </defs>
                    <g id="レイヤー_2" data-name="レイヤー 2">
                      <g id="レイヤー_2-2" data-name="レイヤー 2">
                        <path class="ttl__socialMedia"
                          d="M5.56,12a5.85,5.85,0,0,0,.87,3.24,9.36,9.36,0,0,0,2.29,2.43A18.16,18.16,0,0,0,12,19.6l3.67,1.78c1.25.62,2.47,1.26,3.67,1.95a15.65,15.65,0,0,1,3.24,2.4,10.84,10.84,0,0,1,2.3,3.21,10.19,10.19,0,0,1,.86,4.38,10,10,0,0,1-1.56,5.78,11.47,11.47,0,0,1-4,3.59,17.8,17.8,0,0,1-5.54,1.83A37,37,0,0,1,8.53,45a23.53,23.53,0,0,1-4.4-.41A18.21,18.21,0,0,1,.27,43.47l.38-7.56h.92a11.22,11.22,0,0,0,.94,2.81,4.89,4.89,0,0,0,1.41,1.7A4.91,4.91,0,0,0,6,41.26a18.58,18.58,0,0,0,3,.21,28.4,28.4,0,0,0,3.18-.21,12.33,12.33,0,0,0,3.51-.95,7.75,7.75,0,0,0,2.84-2.08,5.3,5.3,0,0,0,1.16-3.56A7.32,7.32,0,0,0,18.87,31a9.12,9.12,0,0,0-2.24-2.62,17.8,17.8,0,0,0-3.16-2c-1.17-.59-2.37-1.18-3.62-1.76s-2.44-1.19-3.61-1.86a14.88,14.88,0,0,1-3.16-2.38A10.22,10.22,0,0,1,.84,17.15,10.82,10.82,0,0,1,0,12.69,10,10,0,0,1,1.11,8,10.09,10.09,0,0,1,4.37,4.37,16.92,16.92,0,0,1,9.69,2,29.15,29.15,0,0,1,17,1.19a20.16,20.16,0,0,1,3,.21,11.46,11.46,0,0,1,2.48.65L22,9.77h-.92a5.58,5.58,0,0,0-1.73-3.88,6.73,6.73,0,0,0-4.59-1.35A11.3,11.3,0,0,0,8.07,6.32Q5.57,8.11,5.56,12Z">
                        </path>
                        <path class="ttl__socialMedia"
                          d="M31.1,26.14a18.73,18.73,0,0,1,1.46-7.38,18,18,0,0,1,4.08-6,19.07,19.07,0,0,1,6.21-4,21.73,21.73,0,0,1,15.66,0,19.28,19.28,0,0,1,6.21,4,18.63,18.63,0,0,1,0,26.67,19.12,19.12,0,0,1-6.21,4,21.73,21.73,0,0,1-15.66,0,18.91,18.91,0,0,1-6.21-4,18,18,0,0,1-4.08-6A18.71,18.71,0,0,1,31.1,26.14Zm6.48-.06a17.61,17.61,0,0,0,1.06,6.24,15,15,0,0,0,2.86,4.86,13.21,13.21,0,0,0,4.18,3.16,11.75,11.75,0,0,0,5.08,1.13,11.59,11.59,0,0,0,5-1.13,12.91,12.91,0,0,0,4.16-3.16,15.28,15.28,0,0,0,2.83-4.86,17.61,17.61,0,0,0,1.06-6.24,17.61,17.61,0,0,0-1.06-6.24A15.39,15.39,0,0,0,59.94,15a12.55,12.55,0,0,0-4.16-3.13,11.85,11.85,0,0,0-5-1.1,12,12,0,0,0-5.08,1.1A12.83,12.83,0,0,0,41.5,15a15.09,15.09,0,0,0-2.86,4.86A17.61,17.61,0,0,0,37.58,26.08Z">
                        </path>
                        <path class="ttl__socialMedia"
                          d="M96,44.82a26.1,26.1,0,0,1-9.53-1.57,19.23,19.23,0,0,1-6.65-4.15,16.54,16.54,0,0,1-3.88-5.92,18.72,18.72,0,0,1-1.27-6.77,19.4,19.4,0,0,1,1.29-6.92,17.29,17.29,0,0,1,3.92-6,19.31,19.31,0,0,1,6.61-4.27,25,25,0,0,1,9.4-1.62c1.22,0,2.41.05,3.56.16s2.22.24,3.19.41,1.83.33,2.56.51a16,16,0,0,1,1.71.49l-1,6.8h-1.08a5.36,5.36,0,0,0-2.64-3.7,11.38,11.38,0,0,0-6.1-1.43,15.08,15.08,0,0,0-6.73,1.4,14,14,0,0,0-4.67,3.64,15.28,15.28,0,0,0-2.73,5,17.82,17.82,0,0,0-.89,5.5,15.31,15.31,0,0,0,1,5.47,14.54,14.54,0,0,0,3.08,4.9,15.3,15.3,0,0,0,5.15,3.53,18.1,18.1,0,0,0,7.27,1.35c.25,0,.73,0,1.43-.08A8.65,8.65,0,0,0,101.3,41a11.22,11.22,0,0,0,2.51-1.35,6.59,6.59,0,0,0,2.08-2.51H107l-2.22,6.51a42.78,42.78,0,0,1-4.37.88A30.39,30.39,0,0,1,96,44.82Z">
                        </path>
                        <path class="ttl__socialMedia"
                          d="M118.42,43.69l-3.81,0-3.8.08v-.91a6.86,6.86,0,0,0,2.48-.76,3.43,3.43,0,0,0,1.38-1.49,6.68,6.68,0,0,0,.59-2.21,28,28,0,0,0,.14-2.94V16.31a26.46,26.46,0,0,0-.14-2.89,5.4,5.4,0,0,0-.59-2,3.22,3.22,0,0,0-1.38-1.27,7.51,7.51,0,0,0-2.48-.62v-1l3.86,0,3.86,0,3.78,0,3.78,0v1a7.78,7.78,0,0,0-2.51.62,3.29,3.29,0,0,0-1.43,1.27,4.91,4.91,0,0,0-.62,2,26.46,26.46,0,0,0-.14,2.89V35.48a29.36,29.36,0,0,0,.14,3,6,6,0,0,0,.62,2.22,3.56,3.56,0,0,0,1.43,1.45,6.4,6.4,0,0,0,2.51.71v.91c-1.15-.07-2.43-.1-3.84-.1Z">
                        </path>
                        <path class="ttl__socialMedia"
                          d="M155.36,40.72a3.77,3.77,0,0,0-.14-.76q-.14-.54-.48-1.59c-.24-.7-.54-1.61-.92-2.73s-.86-2.48-1.43-4.1H140.18c-.72,1.76-1.29,3.18-1.73,4.26s-.75,2-1,2.59a12.36,12.36,0,0,0-.4,1.41,3.28,3.28,0,0,0-.08.65,2.13,2.13,0,0,0,.19.94,1.6,1.6,0,0,0,.67.7,4,4,0,0,0,1.32.46,15.4,15.4,0,0,0,2.19.22v1.08c-1.37,0-2.79-.06-4.27-.08l-4.15,0h-1.62q-.71,0-1.35,0l-1.3,0c-.43,0-.93,0-1.51,0v-1a9.13,9.13,0,0,0,2.78-.73,3.55,3.55,0,0,0,1.38-1.21c.18-.29.6-1.11,1.27-2.46s1.45-3,2.37-5,1.93-4.17,3-6.56,2.19-4.78,3.29-7.16,2.14-4.63,3.13-6.75S146.27,9,147,7.56l1.72-.22c.76,2.24,1.62,4.66,2.6,7.27s2,5.23,3.05,7.85,2.1,5.18,3.13,7.64,2,4.66,2.83,6.57c.44,1,.83,1.83,1.19,2.59a8.22,8.22,0,0,0,1.22,1.89,4.75,4.75,0,0,0,1.56,1.16,6.28,6.28,0,0,0,2.3.46v1.08c-1.33,0-2.58-.06-3.73-.08s-2.41,0-3.78,0-2.51,0-3.53,0l-3.54.08V42.77a10.52,10.52,0,0,0,1.86-.22,2.9,2.9,0,0,0,1-.4,1.06,1.06,0,0,0,.41-.6A4,4,0,0,0,155.36,40.72ZM141.64,28h9.45c-.58-1.59-1.22-3.33-1.94-5.24l-2.43-6.48Z">
                        </path>
                        <path class="ttl__socialMedia"
                          d="M175.39,8.53l3.78,0,3.78,0v1a7.85,7.85,0,0,0-2.51.62A3.29,3.29,0,0,0,179,11.39a4.91,4.91,0,0,0-.62,2,26.46,26.46,0,0,0-.14,2.89V34.94c0,1.29,0,2.3.11,3a2.31,2.31,0,0,0,2.38,2.35,31.9,31.9,0,0,0,3.4.14,17.47,17.47,0,0,0,3.7-.33,8.21,8.21,0,0,0,2.51-.94,6.91,6.91,0,0,0,1.75-1.51c.49-.6,1-1.26,1.54-2l.65.44a19.08,19.08,0,0,0-.84,1.94q-.4,1.08-.75,2.19c-.24.74-.44,1.45-.62,2.16s-.33,1.32-.44,1.86a24.7,24.7,0,0,0-4.88-.49q-3,0-7.54,0l-5.77,0c-1.95,0-3.87.06-5.78.13V43a7.92,7.92,0,0,0,2.48-.67,3.16,3.16,0,0,0,1.38-1.3,5.57,5.57,0,0,0,.59-2,26.46,26.46,0,0,0,.14-2.89V16.31a26.46,26.46,0,0,0-.14-2.89,5.4,5.4,0,0,0-.59-2,3.22,3.22,0,0,0-1.38-1.27,7.51,7.51,0,0,0-2.48-.62v-1l3.86,0Z">
                        </path>
                        <path class="ttl__socialMedia"
                          d="M243.38,42.55l-15.5-28.29-1.51,22a2.6,2.6,0,0,0-.06.56v.57a5,5,0,0,0,1.24,3.78A8.76,8.76,0,0,0,231.93,43v.87c-1.37,0-2.67,0-3.89,0s-2.52,0-3.89,0-2.65,0-3.86,0-2.49,0-3.86,0V43a13.49,13.49,0,0,0,2.19-.54,4.13,4.13,0,0,0,1.64-1,4.82,4.82,0,0,0,1.11-1.92,15.59,15.59,0,0,0,.62-3.21L225.56,0h.81l18,33.43L262.28,0h1.24l3.13,36.29a17.41,17.41,0,0,0,.51,3.21,5.08,5.08,0,0,0,1,1.92,3.59,3.59,0,0,0,1.52,1,11.75,11.75,0,0,0,2.13.54v.87c-1.37,0-2.7,0-4,0s-2.62,0-4,0l-4.19,0-4.18,0V43c.75-.14,1.46-.28,2.1-.43a4.09,4.09,0,0,0,1.7-.78,3.65,3.65,0,0,0,1.14-1.62,8.12,8.12,0,0,0,.4-2.84c0-.18,0-.35,0-.51a4.12,4.12,0,0,1,0-.51l-2-22.79L244,42.39Z">
                        </path>
                        <path class="ttl__socialMedia"
                          d="M283.71,26.89v8c0,1.29,0,2.3.08,3a2.59,2.59,0,0,0,.63,1.65,2.54,2.54,0,0,0,1.62.7,26.75,26.75,0,0,0,3.13.14,21.77,21.77,0,0,0,4.48-.38,10.68,10.68,0,0,0,2.89-1,6.77,6.77,0,0,0,1.92-1.56c.5-.62,1-1.28,1.56-2l.65.43a18.81,18.81,0,0,0-.84,2c-.27.74-.52,1.5-.75,2.27s-.45,1.52-.62,2.24-.33,1.35-.44,1.89a29.74,29.74,0,0,0-5.15-.43q-3.27-.06-7.81-.06l-6,0c-2.07,0-4.06.06-6,.14V43a7.86,7.86,0,0,0,2.48-.7A3.41,3.41,0,0,0,277,41a5.17,5.17,0,0,0,.59-2,26.26,26.26,0,0,0,.14-2.88V16.31a26.46,26.46,0,0,0-.14-2.89,5.23,5.23,0,0,0-.59-2,3.22,3.22,0,0,0-1.38-1.27,7.51,7.51,0,0,0-2.48-.62v-1h11.18c3.7,0,6.65,0,8.83-.07A43.37,43.37,0,0,0,298,8.1c-.07.61-.13,1.32-.19,2.13s-.08,1.56-.08,2.24,0,1.31.06,2.08.07,1.45.11,2l-.81.05a19.16,19.16,0,0,0-.92-2,5,5,0,0,0-1.33-1.54,6.23,6.23,0,0,0-2.18-1,13,13,0,0,0-3.51-.38,29.75,29.75,0,0,0-3,.11,2.68,2.68,0,0,0-1.62.62,2.51,2.51,0,0,0-.67,1.56,23.84,23.84,0,0,0-.14,2.89v6.32h3.14c1.11,0,2.09,0,2.94,0a8.18,8.18,0,0,0,2.1-.33,2.64,2.64,0,0,0,1.3-.86,3.3,3.3,0,0,0,.57-1.68h.86q0,1.78,0,3c0,.83,0,1.47,0,1.94s0,1,0,1.7,0,1.56,0,2.68h-.86a2.81,2.81,0,0,0-.57-1.52,3,3,0,0,0-1.32-.83,7.31,7.31,0,0,0-2.11-.35q-1.25-.06-2.91-.06Z">
                        </path>
                        <path class="ttl__socialMedia"
                          d="M310.82,43.79l-3.72,0-3.73.08V43a7.92,7.92,0,0,0,2.48-.67,3.16,3.16,0,0,0,1.38-1.3,5.38,5.38,0,0,0,.59-2,26.46,26.46,0,0,0,.14-2.89V16.31a26.46,26.46,0,0,0-.14-2.89,5.23,5.23,0,0,0-.59-2,3.22,3.22,0,0,0-1.38-1.27,7.51,7.51,0,0,0-2.48-.62v-1l3.78,0,3.78,0c1.05,0,2,0,2.84,0l2.36-.11,2.08-.11c.66,0,1.36,0,2.08,0q10.75,0,16,4.18t5.25,13.1a19.55,19.55,0,0,1-1.22,6.77,16.49,16.49,0,0,1-3.76,5.92,18.47,18.47,0,0,1-6.52,4.16,26,26,0,0,1-9.49,1.56l-2.87,0-2.21,0-2.11,0Q312.29,43.79,310.82,43.79Zm9.61-32.13c-1.55,0-2.75.05-3.62.14a3.42,3.42,0,0,0-1.94.7,2.7,2.7,0,0,0-.78,1.81,33,33,0,0,0-.14,3.4V34.83a12.17,12.17,0,0,0,.3,3.05,2.83,2.83,0,0,0,1.11,1.67,4.74,4.74,0,0,0,2.26.73,34.94,34.94,0,0,0,3.78.17,15.69,15.69,0,0,0,6.35-1.16A12.06,12.06,0,0,0,332,36.21a11.8,11.8,0,0,0,2.43-4.38,16.64,16.64,0,0,0,.76-5q0-7.24-3.65-11.21T320.43,11.66Z">
                        </path>
                        <path class="ttl__socialMedia"
                          d="M349.92,43.69l-3.81,0-3.81.08v-.91a6.91,6.91,0,0,0,2.49-.76,3.35,3.35,0,0,0,1.37-1.49,6.45,6.45,0,0,0,.6-2.21,28.24,28.24,0,0,0,.13-2.94V16.31a26.72,26.72,0,0,0-.13-2.89,5.22,5.22,0,0,0-.6-2,3.13,3.13,0,0,0-1.37-1.27,7.58,7.58,0,0,0-2.49-.62v-1l3.86,0,3.86,0,3.78,0,3.78,0v1a7.85,7.85,0,0,0-2.51.62,3.35,3.35,0,0,0-1.43,1.27,5.06,5.06,0,0,0-.62,2,26.72,26.72,0,0,0-.13,2.89V35.48a29.62,29.62,0,0,0,.13,3,6.17,6.17,0,0,0,.62,2.22,3.63,3.63,0,0,0,1.43,1.45,6.45,6.45,0,0,0,2.51.71v.91c-1.15-.07-2.43-.1-3.83-.1Z">
                        </path>
                        <path class="ttl__socialMedia"
                          d="M385.23,40.72a3.55,3.55,0,0,0-.13-.76c-.09-.36-.26-.89-.49-1.59s-.54-1.61-.92-2.73-.85-2.48-1.43-4.1h-12.2c-.72,1.76-1.3,3.18-1.73,4.26s-.76,2-1,2.59A13,13,0,0,0,367,39.8a4.28,4.28,0,0,0-.08.65,2.13,2.13,0,0,0,.19.94,1.63,1.63,0,0,0,.68.7,4,4,0,0,0,1.32.46,15.4,15.4,0,0,0,2.19.22v1.08c-1.37,0-2.79-.06-4.27-.08l-4.16,0H361.2q-.7,0-1.35,0l-1.29,0c-.44,0-.94,0-1.52,0v-1a9.13,9.13,0,0,0,2.78-.73,3.41,3.41,0,0,0,1.38-1.21c.18-.29.6-1.11,1.27-2.46s1.46-3,2.38-5l3-6.56,3.29-7.16q1.65-3.57,3.14-6.75t2.56-5.4l1.73-.22q1.14,3.36,2.59,7.27t3.05,7.85c1.06,2.63,2.11,5.18,3.13,7.64s2,4.66,2.84,6.57c.43,1,.83,1.83,1.19,2.59a8.2,8.2,0,0,0,1.21,1.89,4.68,4.68,0,0,0,1.57,1.16,6.22,6.22,0,0,0,2.29.46v1.08c-1.33,0-2.57-.06-3.72-.08s-2.41,0-3.78,0-2.51,0-3.54,0l-3.54.08V42.77a10.65,10.65,0,0,0,1.87-.22,2.9,2.9,0,0,0,1-.4,1,1,0,0,0,.4-.6A4,4,0,0,0,385.23,40.72ZM371.52,28H381c-.58-1.59-1.23-3.33-2-5.24l-2.43-6.48Z">
                        </path>
                      </g>
                    </g>
                  </svg>