<svg xmlns="http://www.w3.org/2000/svg" viewBox="0 0 475 44">
                    <defs>
                      <style>
                        .ttl__character--type02 {
                          fill: #fff;
                        }
                      </style>
                    </defs>
                    <g id="レイヤー_2" data-name="レイヤー 2">
                      <g id="レイヤー_2-2" data-name="レイヤー 2">
                        <path class="ttl__character--type02"
                          d="M18.14,42.66l-4.29,0c-1.49,0-2.91,0-4.24.08V42a8,8,0,0,0,2.89-.78,4.08,4.08,0,0,0,1.62-1.54,6.11,6.11,0,0,0,.73-2.4A30.16,30.16,0,0,0,15,33.91V10.53a19.27,19.27,0,0,0-.24-3.46A3.76,3.76,0,0,0,14,5.24a2.17,2.17,0,0,0-1.41-.7,16.23,16.23,0,0,0-2.16-.11,15.2,15.2,0,0,0-4.18.48,8.07,8.07,0,0,0-2.68,1.3A6.4,6.4,0,0,0,1.92,8.13a22.3,22.3,0,0,0-1.16,2.4l-.6,0C.2,9.79.23,9,.27,8.13s0-1.69,0-2.41S.3,4,.24,3.05.11,1.21,0,.49A15.13,15.13,0,0,0,1.86.84c.71.09,1.69.16,3,.21s3,.09,5.05.11,4.83,0,8.21,0,6.17,0,8.26,0,3.77,0,5-.11S33.66.93,34.34.84s1.35-.21,2-.35c-.11.72-.19,1.57-.24,2.56S36,4.93,36,5.72s0,1.53,0,2.41.07,1.66.11,2.35l-.59,0a24.36,24.36,0,0,0-1.16-2.4,6.58,6.58,0,0,0-1.65-1.92,8.11,8.11,0,0,0-2.67-1.3,15.32,15.32,0,0,0-4.19-.48,15.43,15.43,0,0,0-2.24.13,2.16,2.16,0,0,0-1.4.76,3.83,3.83,0,0,0-.73,1.84,19.52,19.52,0,0,0-.22,3.37V33.91a30.62,30.62,0,0,0,.16,3.43,5.71,5.71,0,0,0,.76,2.4,4,4,0,0,0,1.67,1.52,9,9,0,0,0,3,.75v.76c-1.37,0-2.82-.06-4.37-.08Z">
                        </path>
                        <path class="ttl__character--type02"
                          d="M70.85,42.66H67.07c-1.37,0-2.61,0-3.73.11v-.92a7.79,7.79,0,0,0,2.43-.68,3.27,3.27,0,0,0,1.41-1.29,5.26,5.26,0,0,0,.62-2.05,26.84,26.84,0,0,0,.13-2.89V25.76H50.17v9.18a27.33,27.33,0,0,0,.13,2.94,5.06,5.06,0,0,0,.62,2,3.27,3.27,0,0,0,1.43,1.26,8.28,8.28,0,0,0,2.51.68v.92c-1.15-.07-2.43-.11-3.83-.11H47.2l-3.81,0c-1.39,0-2.66,0-3.81.08v-.92a8.05,8.05,0,0,0,2.49-.68,3,3,0,0,0,1.37-1.29,5.44,5.44,0,0,0,.6-2.05,26.84,26.84,0,0,0,.13-2.89V15.17A26.65,26.65,0,0,0,44,12.29a5.22,5.22,0,0,0-.6-2A3.13,3.13,0,0,0,42.07,9a7.65,7.65,0,0,0-2.49-.62v-1l3.86,0,3.86,0,3.78,0,3.78,0v1A7.85,7.85,0,0,0,52.35,9a3.35,3.35,0,0,0-1.43,1.27,5.06,5.06,0,0,0-.62,2,26.65,26.65,0,0,0-.13,2.88v6.92H67.93V15.17a26.65,26.65,0,0,0-.13-2.88,5.06,5.06,0,0,0-.62-2A3.42,3.42,0,0,0,65.77,9a7.39,7.39,0,0,0-2.43-.62v-1l3.84,0L71,7.4l3.81,0,3.8,0v1A7.85,7.85,0,0,0,76.11,9a3.29,3.29,0,0,0-1.43,1.27,5.39,5.39,0,0,0-.65,2,23.69,23.69,0,0,0-.16,2.88V34.94A24.27,24.27,0,0,0,74,37.88a5.39,5.39,0,0,0,.65,2,3.21,3.21,0,0,0,1.43,1.26,8.28,8.28,0,0,0,2.51.68v.92c-1.18,0-2.49-.06-3.91-.08Z">
                        </path>
                        <path class="ttl__character--type02"
                          d="M94.07,25.76v8c0,1.3,0,2.31.08,3a2.59,2.59,0,0,0,.62,1.65,2.65,2.65,0,0,0,1.62.7,27.34,27.34,0,0,0,3.13.13,21,21,0,0,0,4.48-.38,10.57,10.57,0,0,0,2.89-1,6.5,6.5,0,0,0,1.92-1.57c.5-.61,1-1.28,1.57-2l.64.44a18,18,0,0,0-.83,2c-.27.74-.53,1.49-.76,2.27s-.44,1.52-.62,2.24-.33,1.35-.43,1.89a29.61,29.61,0,0,0-5.16-.44q-3.27,0-7.8-.05l-6,0q-3.11,0-6,.13V41.9A7.43,7.43,0,0,0,86,41.2a3.23,3.23,0,0,0,1.37-1.29,5.22,5.22,0,0,0,.6-2A26.72,26.72,0,0,0,88.07,35V15.17a26.65,26.65,0,0,0-.13-2.88,5.22,5.22,0,0,0-.6-2A3.13,3.13,0,0,0,86,9a7.58,7.58,0,0,0-2.49-.62v-1H94.66q5.57,0,8.83-.07a43.94,43.94,0,0,0,4.89-.3c-.08.61-.14,1.32-.19,2.13s-.08,1.56-.08,2.24,0,1.31,0,2.08.07,1.45.11,2l-.81.06a19.16,19.16,0,0,0-.92-2A4.74,4.74,0,0,0,105.22,12,6.37,6.37,0,0,0,103,11a13.45,13.45,0,0,0-3.51-.38c-1.3,0-2.3,0-3,.11a2.68,2.68,0,0,0-1.62.62,2.57,2.57,0,0,0-.68,1.57,24.1,24.1,0,0,0-.13,2.89v6.32H97.2c1.11,0,2.1,0,2.94-.06a7.88,7.88,0,0,0,2.11-.32,2.52,2.52,0,0,0,1.29-.87,3.14,3.14,0,0,0,.57-1.67H105c0,1.19,0,2.2,0,3s0,1.48,0,1.95,0,1,0,1.7,0,1.56,0,2.67h-.86a2.7,2.7,0,0,0-.57-1.51,2.9,2.9,0,0,0-1.32-.84,8.06,8.06,0,0,0-2.11-.35c-.82,0-1.8,0-2.91,0Z">
                        </path>
                        <path class="ttl__character--type02"
                          d="M160.81,43.85A30.14,30.14,0,0,1,149.69,42a23.15,23.15,0,0,1-7.77-4.89,19.49,19.49,0,0,1-4.56-6.94,22.12,22.12,0,0,1-1.5-8A22.64,22.64,0,0,1,137.39,14,20.1,20.1,0,0,1,142,6.94a23.39,23.39,0,0,1,7.74-5A28.43,28.43,0,0,1,160.65,0a40.65,40.65,0,0,1,7.69.65,39.85,39.85,0,0,1,4.73,1.13l-1.14,7.89h-1a6.91,6.91,0,0,0-3-4.46,11.77,11.77,0,0,0-7.07-1.86,18,18,0,0,0-8.07,1.7,17,17,0,0,0-5.67,4.4,18,18,0,0,0-3.33,6.05,21.5,21.5,0,0,0-1.08,6.64,18.48,18.48,0,0,0,5,12.53A18.78,18.78,0,0,0,154,39a21.28,21.28,0,0,0,8.69,1.65c.29,0,.82,0,1.59-.11a10.07,10.07,0,0,0,2.6-.65,11.5,11.5,0,0,0,2.86-1.64,9.1,9.1,0,0,0,2.46-3.16h1l-2.54,7.5a43.34,43.34,0,0,1-4.88,1A36.09,36.09,0,0,1,160.81,43.85Z">
                        </path>
                        <path class="ttl__character--type02"
                          d="M209.3,42.66h-3.78c-1.37,0-2.61,0-3.72.11v-.92a8,8,0,0,0,2.43-.68,3.19,3.19,0,0,0,1.4-1.29,5.26,5.26,0,0,0,.62-2.05,26.59,26.59,0,0,0,.14-2.89V25.76H188.62v9.18a27.33,27.33,0,0,0,.13,2.94,4.91,4.91,0,0,0,.63,2,3.21,3.21,0,0,0,1.43,1.26,8.19,8.19,0,0,0,2.51.68v.92c-1.15-.07-2.43-.11-3.84-.11h-3.83l-3.81,0c-1.38,0-2.65,0-3.8.08v-.92a7.9,7.9,0,0,0,2.48-.68,3.09,3.09,0,0,0,1.38-1.29,5.63,5.63,0,0,0,.59-2.05,26.84,26.84,0,0,0,.13-2.89V15.17a26.65,26.65,0,0,0-.13-2.88,5.4,5.4,0,0,0-.59-2A3.22,3.22,0,0,0,180.52,9,7.51,7.51,0,0,0,178,8.37v-1l3.86,0,3.86,0,3.78,0,3.78,0v1a7.78,7.78,0,0,0-2.51.62,3.29,3.29,0,0,0-1.43,1.27,4.91,4.91,0,0,0-.63,2,26.65,26.65,0,0,0-.13,2.88v6.92h17.77V15.17a26.39,26.39,0,0,0-.14-2.88,5.06,5.06,0,0,0-.62-2A3.33,3.33,0,0,0,204.23,9a7.52,7.52,0,0,0-2.43-.62v-1l3.83,0,3.83,0,3.81,0,3.81,0v1a7.78,7.78,0,0,0-2.51.62,3.29,3.29,0,0,0-1.43,1.27,5.22,5.22,0,0,0-.65,2,21.82,21.82,0,0,0-.16,2.88V34.94a22.38,22.38,0,0,0,.16,2.94,5.22,5.22,0,0,0,.65,2,3.21,3.21,0,0,0,1.43,1.26,8.19,8.19,0,0,0,2.51.68v.92c-1.19,0-2.5-.06-3.92-.08Z">
                        </path>
                        <path class="ttl__character--type02"
                          d="M245.26,39.58a3.59,3.59,0,0,0-.13-.75c-.09-.36-.25-.89-.49-1.6s-.54-1.61-.91-2.72-.86-2.49-1.44-4.11h-12.2c-.72,1.77-1.3,3.19-1.73,4.27s-.75,1.94-1,2.59a11,11,0,0,0-.4,1.4,3.58,3.58,0,0,0-.09.65,2.33,2.33,0,0,0,.19.95,1.68,1.68,0,0,0,.68.7,4,4,0,0,0,1.32.46,14.23,14.23,0,0,0,2.19.21v1.08L227,42.63l-4.16,0h-1.62l-1.35,0-1.29.06c-.43,0-.94,0-1.51,0v-1a9.21,9.21,0,0,0,2.78-.73,3.47,3.47,0,0,0,1.37-1.22c.18-.28.61-1.1,1.27-2.45s1.46-3,2.38-5,1.92-4.16,3-6.56,2.2-4.78,3.3-7.15,2.14-4.63,3.13-6.75,1.84-3.93,2.56-5.4l1.73-.22q1.14,3.35,2.59,7.26c1,2.61,2,5.23,3.06,7.86s2.1,5.18,3.13,7.64,2,4.65,2.83,6.56c.44,1,.83,1.84,1.19,2.59A7.8,7.8,0,0,0,252.64,40a4.4,4.4,0,0,0,1.56,1.16,5.89,5.89,0,0,0,2.3.46v1.08l-3.73-.08-3.78,0-3.54,0-3.53.08V41.63a9.78,9.78,0,0,0,1.86-.21,2.89,2.89,0,0,0,1-.41,1,1,0,0,0,.4-.59A3.42,3.42,0,0,0,245.26,39.58ZM231.55,26.89H241q-.87-2.37-1.95-5.24t-2.43-6.48Z">
                        </path>
                        <path class="ttl__character--type02"
                          d="M262.49,42.66l-3.81,0c-1.38,0-2.65,0-3.8.08v-.92a7.9,7.9,0,0,0,2.48-.68,3.09,3.09,0,0,0,1.38-1.29,5.63,5.63,0,0,0,.59-2.05,26.59,26.59,0,0,0,.14-2.89V15.17a26.39,26.39,0,0,0-.14-2.88,5.4,5.4,0,0,0-.59-2A3.22,3.22,0,0,0,257.36,9a7.51,7.51,0,0,0-2.48-.62v-1l3.78,0,3.78,0c1,0,2.28-.06,3.72-.19S269,7,270.21,7q6.81,0,10.1,2.51a8,8,0,0,1,3.3,6.67,13,13,0,0,1-.63,4.08,10.07,10.07,0,0,1-1.91,3.45,11.41,11.41,0,0,1-3.27,2.62,14.17,14.17,0,0,1-4.67,1.51l7.24,7.78c.93,1,1.76,1.91,2.48,2.59A17.77,17.77,0,0,0,284.93,40,11.06,11.06,0,0,0,287,41.12a13.77,13.77,0,0,0,2.35.78l-.33.92c-.93-.07-1.88-.11-2.83-.13l-2.13,0h-1.62c-.76,0-1.39,0-1.89.05-.18-.18-.53-.55-1.06-1.13l-1.89-2.11-2.45-2.72-2.78-3c-1-1-1.91-2-2.87-3s-1.84-1.86-2.67-2.65h-1.35v6.86a27,27,0,0,0,.14,2.94,4.91,4.91,0,0,0,.62,2,3.21,3.21,0,0,0,1.43,1.26,8.19,8.19,0,0,0,2.51.68v.92c-1.15,0-2.43-.06-3.83-.08Zm3-18h2.92a14.33,14.33,0,0,0,3.24-.38,8.83,8.83,0,0,0,2.91-1.24,6.57,6.57,0,0,0,2.11-2.32,7.53,7.53,0,0,0,.81-3.68,7.26,7.26,0,0,0-.35-2,6,6,0,0,0-1.27-2.19,7.35,7.35,0,0,0-2.59-1.75,10.87,10.87,0,0,0-4.32-.73,5.77,5.77,0,0,0-1.73.21,2.09,2.09,0,0,0-1.05.81,4,4,0,0,0-.54,1.73,26.09,26.09,0,0,0-.14,3Z">
                        </path>
                        <path class="ttl__character--type02"
                          d="M310.5,39.58a3.83,3.83,0,0,0-.14-.75c-.09-.36-.25-.89-.48-1.6s-.54-1.61-.92-2.72-.86-2.49-1.43-4.11H295.32l-1.73,4.27c-.43,1.08-.75,1.94-1,2.59a13,13,0,0,0-.4,1.4,3.37,3.37,0,0,0-.08.65,2.18,2.18,0,0,0,.19.95,1.65,1.65,0,0,0,.67.7,4.13,4.13,0,0,0,1.32.46,14.23,14.23,0,0,0,2.19.21v1.08l-4.26-.08-4.16,0h-1.62l-1.35,0-1.3.06c-.43,0-.93,0-1.51,0v-1a9.13,9.13,0,0,0,2.78-.73,3.57,3.57,0,0,0,1.38-1.22c.18-.28.6-1.1,1.27-2.45s1.45-3,2.37-5,1.93-4.16,3-6.56,2.19-4.78,3.29-7.15,2.14-4.63,3.13-6.75,1.85-3.93,2.57-5.4l1.73-.22c.75,2.23,1.62,4.65,2.59,7.26s2,5.23,3.05,7.86,2.1,5.18,3.13,7.64,2,4.65,2.83,6.56c.44,1,.83,1.84,1.19,2.59A7.8,7.8,0,0,0,317.87,40a4.49,4.49,0,0,0,1.56,1.16,5.89,5.89,0,0,0,2.3.46v1.08L318,42.63l-3.78,0-3.53,0-3.54.08V41.63a9.78,9.78,0,0,0,1.86-.21,2.89,2.89,0,0,0,1-.41,1,1,0,0,0,.41-.59A4,4,0,0,0,310.5,39.58ZM296.78,26.89h9.45q-.86-2.37-1.94-5.24t-2.43-6.48Z">
                        </path>
                        <path class="ttl__character--type02"
                          d="M339.28,43.69a26.32,26.32,0,0,1-9.53-1.57A19.05,19.05,0,0,1,323.11,38a16.49,16.49,0,0,1-3.89-5.91A18.77,18.77,0,0,1,318,25.27a19.35,19.35,0,0,1,1.29-6.91,17.33,17.33,0,0,1,3.92-6,19.54,19.54,0,0,1,6.61-4.26,25,25,0,0,1,9.4-1.62c1.22,0,2.41.05,3.56.16s2.22.24,3.19.4,1.83.34,2.57.52,1.3.34,1.7.48l-1,6.81h-1.08a5.32,5.32,0,0,0-2.64-3.7,11.29,11.29,0,0,0-6.1-1.43,15,15,0,0,0-6.73,1.4A13.82,13.82,0,0,0,328,14.71a15.13,15.13,0,0,0-2.72,5,17.62,17.62,0,0,0-.89,5.5,15.48,15.48,0,0,0,1,5.47,14.58,14.58,0,0,0,3.08,4.91,15.49,15.49,0,0,0,5.16,3.53,18.09,18.09,0,0,0,7.26,1.35c.25,0,.73,0,1.43-.08a9,9,0,0,0,2.29-.54,11.5,11.5,0,0,0,2.52-1.35A6.7,6.7,0,0,0,349.21,36h1.14l-2.22,6.52c-1.44.36-2.89.66-4.37.88A30.39,30.39,0,0,1,339.28,43.69Z">
                        </path>
                        <path class="ttl__character--type02"
                          d="M369.19,42.66l-3.78,0c-1.36,0-2.62,0-3.78.08v-.92a7.89,7.89,0,0,0,2.49-.68,3.09,3.09,0,0,0,1.38-1.29,5.63,5.63,0,0,0,.59-2.05,26.84,26.84,0,0,0,.13-2.89V15.77a15.85,15.85,0,0,0-.21-2.94,3.11,3.11,0,0,0-.68-1.54,1.92,1.92,0,0,0-1.18-.6,13,13,0,0,0-1.81-.11,12.3,12.3,0,0,0-3.49.41,5.79,5.79,0,0,0-2.13,1.11,5.45,5.45,0,0,0-1.3,1.64c-.32.63-.63,1.31-.91,2l-.81-.22c0-.57.07-1.22.1-1.94s.06-1.39.06-2,0-1.5-.08-2.46-.12-1.73-.19-2.35a9.58,9.58,0,0,0,1.59.3c.6.06,1.45.11,2.57.15s2.56,0,4.34.07,4.12,0,7,0,5.27,0,7.07,0,3.25,0,4.35-.07,1.95-.09,2.56-.15a12.71,12.71,0,0,0,1.73-.3,18.31,18.31,0,0,0-.22,2.35c0,1-.05,1.78-.05,2.46s0,1.28,0,2,0,1.37.08,1.94l-.76.22c-.29-.72-.58-1.4-.89-2a5.07,5.07,0,0,0-1.27-1.64A5.79,5.79,0,0,0,379.59,11a12.18,12.18,0,0,0-3.48-.41,13.93,13.93,0,0,0-1.89.11,1.94,1.94,0,0,0-1.22.62,3.32,3.32,0,0,0-.65,1.57,17.8,17.8,0,0,0-.19,2.89V34.94a22.2,22.2,0,0,0,.17,2.94,5.22,5.22,0,0,0,.64,2,3.3,3.3,0,0,0,1.44,1.26,8.19,8.19,0,0,0,2.51.68v.92c-1.16,0-2.44-.06-3.86-.08Z">
                        </path>
                        <path class="ttl__character--type02"
                          d="M398.62,25.76v8c0,1.3,0,2.31.08,3A2.27,2.27,0,0,0,401,39.18a27.34,27.34,0,0,0,3.13.13,21.09,21.09,0,0,0,4.48-.38,10.69,10.69,0,0,0,2.89-1,6.63,6.63,0,0,0,1.92-1.57c.5-.61,1-1.28,1.56-2l.65.44a17.94,17.94,0,0,0-.84,2c-.27.74-.52,1.49-.75,2.27s-.45,1.52-.62,2.24-.33,1.35-.44,1.89a29.58,29.58,0,0,0-5.15-.44q-3.27,0-7.81-.05l-6,0q-3.11,0-6,.13V41.9a7.36,7.36,0,0,0,2.48-.7,3.32,3.32,0,0,0,1.38-1.29,5.23,5.23,0,0,0,.59-2,26.46,26.46,0,0,0,.14-2.89V15.17a26.39,26.39,0,0,0-.14-2.88,5.23,5.23,0,0,0-.59-2A3.22,3.22,0,0,0,390.52,9,7.51,7.51,0,0,0,388,8.37v-1h11.18c3.7,0,6.65,0,8.83-.07a43.89,43.89,0,0,0,4.88-.3c-.07.61-.13,1.32-.19,2.13s-.08,1.56-.08,2.24,0,1.31.06,2.08.07,1.45.11,2l-.81.06a19.16,19.16,0,0,0-.92-2A4.89,4.89,0,0,0,409.77,12a6.23,6.23,0,0,0-2.18-1,13.45,13.45,0,0,0-3.51-.38c-1.3,0-2.31,0-3,.11a2.68,2.68,0,0,0-1.62.62,2.57,2.57,0,0,0-.67,1.57,23.73,23.73,0,0,0-.14,2.89v6.32h3.14q1.67,0,2.94-.06a7.8,7.8,0,0,0,2.1-.32,2.59,2.59,0,0,0,1.3-.87,3.23,3.23,0,0,0,.57-1.67h.86c0,1.19,0,2.2,0,3s0,1.48,0,1.95,0,1,0,1.7,0,1.56,0,2.67h-.86A2.77,2.77,0,0,0,408.1,27a3,3,0,0,0-1.32-.84,8.06,8.06,0,0,0-2.11-.35c-.83,0-1.8,0-2.91,0Z">
                        </path>
                        <path class="ttl__character--type02"
                          d="M424.81,42.66l-3.8,0c-1.39,0-2.66,0-3.81.08v-.92a7.9,7.9,0,0,0,2.48-.68,3.09,3.09,0,0,0,1.38-1.29,5.44,5.44,0,0,0,.59-2.05,26.59,26.59,0,0,0,.14-2.89V15.17a26.39,26.39,0,0,0-.14-2.88,5.23,5.23,0,0,0-.59-2A3.22,3.22,0,0,0,419.68,9a7.51,7.51,0,0,0-2.48-.62v-1l3.78,0,3.78,0c1,0,2.28-.06,3.73-.19S431.28,7,432.54,7q6.79,0,10.09,2.51a8,8,0,0,1,3.3,6.67,13.3,13.3,0,0,1-.62,4.08,10.27,10.27,0,0,1-1.92,3.45,11.14,11.14,0,0,1-3.27,2.62,14.17,14.17,0,0,1-4.67,1.51l7.24,7.78c.93,1,1.76,1.91,2.48,2.59A17.77,17.77,0,0,0,447.25,40a11.39,11.39,0,0,0,2.05,1.16,14.07,14.07,0,0,0,2.35.78l-.32.92c-.94-.07-1.88-.11-2.84-.13l-2.13,0h-1.62c-.76,0-1.39,0-1.89.05-.18-.18-.53-.55-1.05-1.13s-1.16-1.28-1.89-2.11l-2.46-2.72-2.78-3c-1-1-1.91-2-2.86-3s-1.85-1.86-2.68-2.65h-1.35v6.86a27,27,0,0,0,.14,2.94,5.06,5.06,0,0,0,.62,2A3.21,3.21,0,0,0,430,41.17a8.28,8.28,0,0,0,2.51.68v.92c-1.15,0-2.43-.06-3.83-.08Zm3-18h2.92a14.33,14.33,0,0,0,3.24-.38,9,9,0,0,0,2.92-1.24,6.63,6.63,0,0,0,2.1-2.32,7.53,7.53,0,0,0,.81-3.68,7.26,7.26,0,0,0-.35-2,5.85,5.85,0,0,0-1.27-2.19,7.35,7.35,0,0,0-2.59-1.75,10.87,10.87,0,0,0-4.32-.73,5.77,5.77,0,0,0-1.73.21,2.09,2.09,0,0,0-1.05.81,4,4,0,0,0-.54,1.73,26.09,26.09,0,0,0-.14,3Z">
                        </path>
                        <path class="ttl__character--type02"
                          d="M458.62,15.61a4.51,4.51,0,0,0,1.24,3.24A13.54,13.54,0,0,0,463,21.2q1.89,1.05,4.05,2.07a25.61,25.61,0,0,1,4,2.41A12.23,12.23,0,0,1,474.22,29a8.61,8.61,0,0,1,1.25,4.78,8.54,8.54,0,0,1-1.33,4.91,9.4,9.4,0,0,1-3.45,3.08,15.42,15.42,0,0,1-4.76,1.57,31.66,31.66,0,0,1-5.21.43,18.49,18.49,0,0,1-3.72-.38,19.76,19.76,0,0,1-3.35-1l.32-7.51h1.08a14.67,14.67,0,0,0,.76,2.84,3.89,3.89,0,0,0,1.08,1.57,3.28,3.28,0,0,0,1.62.64,18.09,18.09,0,0,0,2.43.14c.54,0,1.3,0,2.27-.11a11.22,11.22,0,0,0,2.91-.62,6.67,6.67,0,0,0,2.54-1.57,3.84,3.84,0,0,0,1.08-2.89,5.42,5.42,0,0,0-1.21-3.64,11.94,11.94,0,0,0-3-2.51,42.06,42.06,0,0,0-4-2.05,22,22,0,0,1-4-2.33,11.7,11.7,0,0,1-3.05-3.26,9,9,0,0,1-1.22-4.89,8.46,8.46,0,0,1,1-4,8.67,8.67,0,0,1,2.8-3.1,14.19,14.19,0,0,1,4.6-2,25.19,25.19,0,0,1,6.29-.7,12.9,12.9,0,0,1,4.64.75l-.43,7.67h-1c-.14-1.91-.57-3.2-1.27-3.89a4,4,0,0,0-2.94-1,10.13,10.13,0,0,0-6.16,1.59A4.9,4.9,0,0,0,458.62,15.61Z">
                        </path>
                      </g>
                    </g>
                  </svg>