<svg xmlns="http://www.w3.org/2000/svg" viewBox="0 0 473 97" class="u-sp">
                  <defs>
                    <style>
                      .ttl__message--type01 {
                        fill: #fff;
                      }
                    </style>
                  </defs>
                  <g id="レイヤー_2" data-name="レイヤー 2">
                    <g id="txt">
                      <path class="ttl__message--type01"
                        d="M52,42.55,36.5,14.26,35,36.29a2.59,2.59,0,0,0-.05.56v.57a5,5,0,0,0,1.24,3.78A8.71,8.71,0,0,0,40.55,43v.87c-1.37,0-2.66,0-3.88,0s-2.53,0-3.89,0-2.66,0-3.86,0-2.5,0-3.86,0V43a13.61,13.61,0,0,0,2.18-.54,4.17,4.17,0,0,0,1.65-1A4.82,4.82,0,0,0,30,39.5a16.3,16.3,0,0,0,.62-3.21L34.18,0H35L53,33.43,70.9,0h1.24l3.14,36.29a15.85,15.85,0,0,0,.51,3.21,4.94,4.94,0,0,0,1,1.92,3.56,3.56,0,0,0,1.51,1,12.1,12.1,0,0,0,2.14.54v.87c-1.37,0-2.7,0-4,0s-2.63,0-4,0l-4.18,0-4.19,0V43c.76-.14,1.46-.28,2.11-.43a4.15,4.15,0,0,0,1.7-.78A3.64,3.64,0,0,0,69,40.15a8.09,8.09,0,0,0,.41-2.84,4.12,4.12,0,0,0,0-.51,4.18,4.18,0,0,1,0-.51l-2-22.79L52.65,42.39Z">
                      </path>
                      <path class="ttl__message--type01"
                        d="M94.5,26.89v8c0,1.29,0,2.3.08,3a2.26,2.26,0,0,0,2.24,2.35,26.87,26.87,0,0,0,3.13.14,21.71,21.71,0,0,0,4.48-.38,10.44,10.44,0,0,0,2.89-1,6.5,6.5,0,0,0,1.92-1.56c.5-.62,1-1.28,1.57-2l.64.43a21.31,21.31,0,0,0-.83,2c-.27.74-.52,1.5-.76,2.27s-.44,1.52-.62,2.24-.32,1.35-.43,1.89a29.77,29.77,0,0,0-5.16-.43q-3.27-.06-7.8-.06l-6,0c-2.07,0-4.06.06-6,.14V43a7.85,7.85,0,0,0,2.49-.7A3.41,3.41,0,0,0,87.78,41a5.41,5.41,0,0,0,.59-2,26.84,26.84,0,0,0,.13-2.89V16.31a26.72,26.72,0,0,0-.13-2.89,5.4,5.4,0,0,0-.59-2,3.22,3.22,0,0,0-1.38-1.27,7.51,7.51,0,0,0-2.49-.62v-1H95.09c3.71,0,6.65,0,8.83-.07a43.41,43.41,0,0,0,4.89-.31c-.07.61-.14,1.32-.19,2.13s-.08,1.56-.08,2.24,0,1.31,0,2.08.07,1.45.11,2l-.81.05a17.26,17.26,0,0,0-.92-2,4.84,4.84,0,0,0-1.32-1.54,6.37,6.37,0,0,0-2.19-1,13,13,0,0,0-3.51-.38,29.65,29.65,0,0,0-3,.11,2.68,2.68,0,0,0-1.62.62A2.52,2.52,0,0,0,94.63,14a24.21,24.21,0,0,0-.13,2.89v6.32h3.13c1.12,0,2.1,0,2.94,0a8.27,8.27,0,0,0,2.11-.33A2.64,2.64,0,0,0,104,22a3.3,3.3,0,0,0,.56-1.68h.87q0,1.78,0,3c0,.83,0,1.47,0,1.94s0,1,0,1.7,0,1.56,0,2.68h-.87a2.81,2.81,0,0,0-.56-1.52,3,3,0,0,0-1.33-.83,7.23,7.23,0,0,0-2.1-.35c-.83,0-1.8-.06-2.92-.06Z">
                      </path>
                      <path class="ttl__message--type01"
                        d="M122.2,16.74A4.47,4.47,0,0,0,123.44,20a13.27,13.27,0,0,0,3.13,2.35q1.89,1.05,4.05,2.08a24.83,24.83,0,0,1,4,2.4,12.58,12.58,0,0,1,3.14,3.29,8.71,8.71,0,0,1,1.24,4.78,8.59,8.59,0,0,1-1.32,4.92,9.7,9.7,0,0,1-3.46,3.08,15.61,15.61,0,0,1-4.75,1.56,31.84,31.84,0,0,1-5.21.43,18.58,18.58,0,0,1-3.73-.37,21,21,0,0,1-3.35-1l.33-7.5h1.08a13.93,13.93,0,0,0,.75,2.83,3.76,3.76,0,0,0,1.08,1.57,3.29,3.29,0,0,0,1.62.65,18.3,18.3,0,0,0,2.43.13c.54,0,1.3,0,2.27-.11a11,11,0,0,0,2.92-.62,6.81,6.81,0,0,0,2.53-1.56A3.85,3.85,0,0,0,133.32,36a5.45,5.45,0,0,0-1.21-3.65,11.94,11.94,0,0,0-3.05-2.51,44.55,44.55,0,0,0-4-2.05,22.31,22.31,0,0,1-4-2.32,12,12,0,0,1-3.05-3.27,9,9,0,0,1-1.22-4.89,8.46,8.46,0,0,1,1-4,8.7,8.7,0,0,1,2.81-3.1,14.25,14.25,0,0,1,4.59-2,25.19,25.19,0,0,1,6.29-.7,12.64,12.64,0,0,1,4.64.76L135.7,16h-1c-.14-1.9-.56-3.2-1.26-3.88a4,4,0,0,0-2.95-1,10.07,10.07,0,0,0-6.15,1.59A4.9,4.9,0,0,0,122.2,16.74Z">
                      </path>
                      <path class="ttl__message--type01"
                        d="M149.79,16.74A4.48,4.48,0,0,0,151,20a13.06,13.06,0,0,0,3.13,2.35q1.89,1.05,4.05,2.08a24.83,24.83,0,0,1,4.05,2.4,12.54,12.54,0,0,1,3.13,3.29,8.63,8.63,0,0,1,1.24,4.78,8.59,8.59,0,0,1-1.32,4.92,9.62,9.62,0,0,1-3.46,3.08,15.52,15.52,0,0,1-4.75,1.56,31.75,31.75,0,0,1-5.21.43,18.65,18.65,0,0,1-3.73-.37,20.59,20.59,0,0,1-3.34-1l.32-7.5h1.08a14.54,14.54,0,0,0,.76,2.83,3.58,3.58,0,0,0,1.08,1.57,3.29,3.29,0,0,0,1.62.65,18.1,18.1,0,0,0,2.43.13c.54,0,1.29,0,2.26-.11a10.81,10.81,0,0,0,2.92-.62,6.85,6.85,0,0,0,2.54-1.56A3.85,3.85,0,0,0,160.92,36a5.46,5.46,0,0,0-1.22-3.65,11.77,11.77,0,0,0-3-2.51,43.23,43.23,0,0,0-4-2.05,22.67,22.67,0,0,1-4-2.32,12,12,0,0,1-3.05-3.27,9,9,0,0,1-1.21-4.89,8.45,8.45,0,0,1,.94-4,8.7,8.7,0,0,1,2.81-3.1,14.25,14.25,0,0,1,4.59-2,25.3,25.3,0,0,1,6.29-.7,12.73,12.73,0,0,1,4.65.76L163.29,16h-1c-.15-1.9-.57-3.2-1.27-3.88a4,4,0,0,0-2.94-1,10.11,10.11,0,0,0-6.16,1.59A4.93,4.93,0,0,0,149.79,16.74Z">
                      </path>
                      <path class="ttl__message--type01"
                        d="M195.37,40.72a3.77,3.77,0,0,0-.14-.76q-.14-.54-.48-1.59c-.24-.7-.54-1.61-.92-2.73s-.86-2.48-1.43-4.1H180.2c-.73,1.76-1.3,3.18-1.73,4.26s-.76,2-1,2.59a11,11,0,0,0-.41,1.41,4.28,4.28,0,0,0-.08.65,2.13,2.13,0,0,0,.19.94,1.6,1.6,0,0,0,.67.7,4.11,4.11,0,0,0,1.33.46,15.08,15.08,0,0,0,2.18.22v1.08c-1.37,0-2.79-.06-4.26-.08l-4.16,0h-1.62q-.71,0-1.35,0l-1.3,0c-.43,0-.93,0-1.51,0v-1a9.13,9.13,0,0,0,2.78-.73,3.41,3.41,0,0,0,1.38-1.21c.18-.29.6-1.11,1.27-2.46s1.46-3,2.37-5,1.93-4.17,3-6.57,2.19-4.77,3.29-7.15,2.14-4.63,3.13-6.75S186.28,9,187,7.56l1.73-.22c.75,2.24,1.62,4.66,2.59,7.27s2,5.23,3.05,7.85,2.11,5.18,3.13,7.64,2,4.66,2.84,6.57c.43,1,.83,1.83,1.19,2.59a7.88,7.88,0,0,0,1.21,1.89,4.68,4.68,0,0,0,1.57,1.16,6.18,6.18,0,0,0,2.29.46v1.08c-1.33,0-2.57-.06-3.72-.08s-2.42,0-3.78,0-2.52,0-3.54,0l-3.54.08V42.77a10.52,10.52,0,0,0,1.86-.22,2.82,2.82,0,0,0,1-.4,1.06,1.06,0,0,0,.41-.6A4,4,0,0,0,195.37,40.72ZM181.65,28h9.45c-.57-1.59-1.22-3.33-1.94-5.24l-2.43-6.48Z">
                      </path>
                      <path class="ttl__message--type01"
                        d="M235.65,40.72a2.36,2.36,0,0,0,.6,1.76,6.83,6.83,0,0,1-1.87.83c-.84.26-1.79.51-2.83.74s-2.13.42-3.24.56a24.9,24.9,0,0,1-3.08.21,26.23,26.23,0,0,1-9.64-1.59A19.17,19.17,0,0,1,209,39a16.43,16.43,0,0,1-3.84-5.94,19.53,19.53,0,0,1-1.24-6.86,19.06,19.06,0,0,1,1.27-6.85,17,17,0,0,1,3.89-6,19.25,19.25,0,0,1,6.61-4.24,25.55,25.55,0,0,1,9.45-1.59c1.23,0,2.41.05,3.57.16s2.21.24,3.18.38,1.83.29,2.57.43,1.3.27,1.7.38l-.81,6.75h-1.08a5,5,0,0,0-2.74-3.54,12.61,12.61,0,0,0-6.19-1.32,15.29,15.29,0,0,0-6.82,1.41,14,14,0,0,0-4.71,3.62,14.56,14.56,0,0,0-2.71,5,18.87,18.87,0,0,0-.86,5.55,15.78,15.78,0,0,0,1,5.49,15.59,15.59,0,0,0,2.87,4.87,14.92,14.92,0,0,0,4.55,3.49,13.25,13.25,0,0,0,6,1.35,13,13,0,0,0,2.16-.22,8.92,8.92,0,0,0,2.87-1.08v-5.5a7.72,7.72,0,0,0-.1-1.41,1.44,1.44,0,0,0-.46-.83,2.39,2.39,0,0,0-1-.46,12,12,0,0,0-1.73-.27V30.62c.86,0,1.9.05,3.1.05h6.16c1.13,0,2.08,0,2.84-.05v1.24a9.2,9.2,0,0,0-1.49.27,1.53,1.53,0,0,0-.86.57,2.45,2.45,0,0,0-.41,1.13,15,15,0,0,0-.11,2Z">
                      </path>
                      <path class="ttl__message--type01"
                        d="M254.28,26.89v8c0,1.29,0,2.3.08,3a2.64,2.64,0,0,0,.62,1.65,2.59,2.59,0,0,0,1.62.7,27.07,27.07,0,0,0,3.14.14,21.77,21.77,0,0,0,4.48-.38,10.68,10.68,0,0,0,2.89-1A6.59,6.59,0,0,0,269,37.48c.51-.62,1-1.28,1.57-2l.65.43a18.81,18.81,0,0,0-.84,2c-.27.74-.52,1.5-.75,2.27s-.45,1.52-.63,2.24-.32,1.35-.43,1.89a29.74,29.74,0,0,0-5.15-.43q-3.27-.06-7.81-.06l-6,0c-2.08,0-4.06.06-6,.14V43a7.86,7.86,0,0,0,2.48-.7,3.41,3.41,0,0,0,1.38-1.3,5.41,5.41,0,0,0,.59-2,26.59,26.59,0,0,0,.14-2.89V16.31a26.46,26.46,0,0,0-.14-2.89,5.4,5.4,0,0,0-.59-2,3.22,3.22,0,0,0-1.38-1.27,7.51,7.51,0,0,0-2.48-.62v-1h11.18c3.7,0,6.65,0,8.83-.07a43.37,43.37,0,0,0,4.88-.31c-.07.61-.13,1.32-.19,2.13s-.08,1.56-.08,2.24,0,1.31.06,2.08.07,1.45.1,2l-.81.05a17.28,17.28,0,0,0-.91-2,5,5,0,0,0-1.33-1.54,6.23,6.23,0,0,0-2.18-1,13,13,0,0,0-3.51-.38,29.75,29.75,0,0,0-3,.11,2.68,2.68,0,0,0-1.62.62,2.51,2.51,0,0,0-.67,1.56,23.84,23.84,0,0,0-.14,2.89v6.32h3.13c1.12,0,2.1,0,2.95,0a8.18,8.18,0,0,0,2.1-.33,2.64,2.64,0,0,0,1.3-.86,3.4,3.4,0,0,0,.57-1.68h.86q0,1.78,0,3c0,.83,0,1.47,0,1.94s0,1,0,1.7,0,1.56,0,2.68h-.86a2.89,2.89,0,0,0-.57-1.52,3,3,0,0,0-1.32-.83,7.31,7.31,0,0,0-2.11-.35c-.83,0-1.8-.06-2.92-.06Z">
                      </path>
                      <path class="ttl__message--type01"
                        d="M309.9,26.89v9.18a27.25,27.25,0,0,0,.14,3,4.91,4.91,0,0,0,.62,2,3.29,3.29,0,0,0,1.43,1.27,8.3,8.3,0,0,0,2.51.67v.92l-3.83-.08-3.84,0-3.81,0-3.8.08V43a7.92,7.92,0,0,0,2.48-.67,3.16,3.16,0,0,0,1.38-1.3,5.57,5.57,0,0,0,.59-2,26.46,26.46,0,0,0,.14-2.89V16.31a26.46,26.46,0,0,0-.14-2.89,5.4,5.4,0,0,0-.59-2,3.22,3.22,0,0,0-1.38-1.27,7.51,7.51,0,0,0-2.48-.62v-1l3,0c1.11,0,2.26,0,3.43,0h6.4q2.75,0,4.77,0l3.49-.05c1,0,1.81,0,2.51-.11a14.62,14.62,0,0,0,1.86-.24c-.07.61-.13,1.23-.19,1.86s-.08,1.29-.08,2,0,1.31.06,2.08.07,1.45.1,2l-.81.05a17.28,17.28,0,0,0-.91-2,5.12,5.12,0,0,0-3.24-2.56,11.14,11.14,0,0,0-3.24-.38c-1.55,0-2.77,0-3.65.11a3.64,3.64,0,0,0-2,.62,2.26,2.26,0,0,0-.78,1.56,23.84,23.84,0,0,0-.14,2.89v6.86h4.65c1.11,0,2.05,0,2.8,0a5.8,5.8,0,0,0,1.81-.33,1.89,1.89,0,0,0,1-.86,4.44,4.44,0,0,0,.43-1.68h.92c0,1.19-.05,2.2-.05,3V27c0,.67,0,1.56.05,2.68h-.92a3.42,3.42,0,0,0-.46-1.52,2.24,2.24,0,0,0-1-.83,5,5,0,0,0-1.78-.35c-.74,0-1.67-.06-2.78-.06Z">
                      </path>
                      <path class="ttl__message--type01"
                        d="M337.77,43.79l-3.81,0-3.81.08V43a8.07,8.07,0,0,0,2.49-.67A3.08,3.08,0,0,0,334,41a5.38,5.38,0,0,0,.6-2,26.72,26.72,0,0,0,.13-2.89V16.31a26.72,26.72,0,0,0-.13-2.89,5.22,5.22,0,0,0-.6-2,3.13,3.13,0,0,0-1.37-1.27,7.65,7.65,0,0,0-2.49-.62v-1l3.78,0,3.78,0c1,0,2.29-.06,3.73-.19s2.79-.19,4.05-.19q6.79,0,10.1,2.52a8,8,0,0,1,3.29,6.66,13.3,13.3,0,0,1-.62,4.08,10.24,10.24,0,0,1-1.92,3.46,11.3,11.3,0,0,1-3.27,2.62A14.41,14.41,0,0,1,348.4,29l7.24,7.77c.93,1,1.76,1.91,2.48,2.6a18.47,18.47,0,0,0,2.08,1.72,11.39,11.39,0,0,0,2.05,1.16,15.4,15.4,0,0,0,2.35.79l-.32.92c-.94-.08-1.88-.12-2.84-.14l-2.13,0h-1.62c-.75,0-1.39,0-1.89.06q-.27-.27-1.05-1.14l-1.89-2.1-2.46-2.73c-.9-1-1.83-2-2.78-3s-1.91-2-2.86-3-1.85-1.85-2.67-2.65h-1.35v6.86a27.53,27.53,0,0,0,.13,3,5.06,5.06,0,0,0,.62,2,3.35,3.35,0,0,0,1.43,1.27,8.3,8.3,0,0,0,2.51.67v.92l-3.83-.08Zm3-18h2.91a13.78,13.78,0,0,0,3.24-.38,8.77,8.77,0,0,0,2.92-1.24,6.55,6.55,0,0,0,2.1-2.32,7.49,7.49,0,0,0,.81-3.67,7,7,0,0,0-.35-2A5.74,5.74,0,0,0,351.1,14a7.28,7.28,0,0,0-2.59-1.76,11,11,0,0,0-4.32-.73,5.47,5.47,0,0,0-1.73.22,2,2,0,0,0-1,.81,3.88,3.88,0,0,0-.54,1.73,26.2,26.2,0,0,0-.13,3Z">
                      </path>
                      <path class="ttl__message--type01"
                        d="M363.52,26.14A18.64,18.64,0,0,1,365,18.77a17.92,17.92,0,0,1,4.08-6,19.07,19.07,0,0,1,6.21-4,21.73,21.73,0,0,1,15.66,0,19.28,19.28,0,0,1,6.21,4,18.63,18.63,0,0,1,0,26.67,19.12,19.12,0,0,1-6.21,4,21.73,21.73,0,0,1-15.66,0,18.91,18.91,0,0,1-6.21-4,18,18,0,0,1-4.08-6A18.71,18.71,0,0,1,363.52,26.14Zm6.48-.06a17.61,17.61,0,0,0,1.06,6.24,15,15,0,0,0,2.86,4.86,13.21,13.21,0,0,0,4.18,3.16,11.75,11.75,0,0,0,5.08,1.13,11.59,11.59,0,0,0,5-1.13,13,13,0,0,0,4.16-3.16,15.28,15.28,0,0,0,2.83-4.86,17.61,17.61,0,0,0,1.06-6.24,17.61,17.61,0,0,0-1.06-6.24A15.39,15.39,0,0,0,392.36,15a12.65,12.65,0,0,0-4.16-3.13,11.85,11.85,0,0,0-5-1.1,12,12,0,0,0-5.08,1.1A12.83,12.83,0,0,0,373.92,15a15.09,15.09,0,0,0-2.86,4.86A17.61,17.61,0,0,0,370,26.08Z">
                      </path>
                      <path class="ttl__message--type01"
                        d="M426.16,42.71,414.07,18.79l-1.3,18.36a2.2,2.2,0,0,0,0,.49v.48a4.29,4.29,0,0,0,1,3.19,7.26,7.26,0,0,0,3.75,1.51v1l-3.51,0-3.51,0c-1.15,0-2.26,0-3.34,0s-2.2,0-3.35,0v-1a16.53,16.53,0,0,0,1.89-.38,3.28,3.28,0,0,0,1.4-.75,3.68,3.68,0,0,0,.95-1.6,13.67,13.67,0,0,0,.51-2.94l2.32-30.56h1.78l15.07,28.56,14.9-28.56h2.43l1.73,30.56a14,14,0,0,0,.41,2.94,3.59,3.59,0,0,0,.81,1.6,2.7,2.7,0,0,0,1.29.75,14.91,14.91,0,0,0,1.87.38v1l-3.49,0-3.48,0-3.78,0-3.78,0v-1c.65-.11,1.25-.22,1.81-.35a3.11,3.11,0,0,0,2.37-2,6.55,6.55,0,0,0,.36-2.43,2.63,2.63,0,0,0,0-.41,3,3,0,0,1,0-.46l-1.67-18.52-11.34,24Z">
                      </path>
                      <path class="ttl__message--type01"
                        d="M15.61,95.79l-3.78,0-3.78.08V95a7.92,7.92,0,0,0,2.48-.67A3.16,3.16,0,0,0,11.91,93,5.57,5.57,0,0,0,12.5,91a26.46,26.46,0,0,0,.14-2.89V68.9A15.7,15.7,0,0,0,12.42,66a3.07,3.07,0,0,0-.68-1.54,2,2,0,0,0-1.18-.59,11.6,11.6,0,0,0-1.81-.11,12.34,12.34,0,0,0-3.49.4,5.79,5.79,0,0,0-2.13,1.11,5.43,5.43,0,0,0-1.29,1.65c-.33.63-.63,1.3-.92,2l-.81-.21c0-.58.07-1.23.11-2s.05-1.38.05-2,0-1.5-.08-2.45S.07,60.55,0,59.94a9.63,9.63,0,0,0,1.59.29c.6.07,1.45.12,2.57.15s2.56.06,4.34.07,4.12,0,7,0,5.27,0,7.07,0,3.25,0,4.35-.07,1.95-.08,2.56-.15a12.47,12.47,0,0,0,1.73-.29A16.57,16.57,0,0,0,31,62.29c0,1-.06,1.77-.06,2.45s0,1.28,0,2,0,1.37.08,2l-.76.21c-.28-.72-.58-1.39-.89-2a5.08,5.08,0,0,0-1.27-1.65A5.79,5.79,0,0,0,26,64.12a12.22,12.22,0,0,0-3.48-.4,12.47,12.47,0,0,0-1.89.11,1.94,1.94,0,0,0-1.22.62A3.23,3.23,0,0,0,18.76,66a18.08,18.08,0,0,0-.18,2.89V88.07a22.55,22.55,0,0,0,.16,3,5.23,5.23,0,0,0,.65,2,3.29,3.29,0,0,0,1.43,1.27,8.22,8.22,0,0,0,2.51.67v.92l-3.86-.08Z">
                      </path>
                      <path class="ttl__message--type01"
                        d="M67.34,95.79H63.56c-1.37,0-2.61,0-3.73.11V95a7.81,7.81,0,0,0,2.43-.67A3.35,3.35,0,0,0,63.67,93,5.21,5.21,0,0,0,64.29,91a26.72,26.72,0,0,0,.13-2.89V78.89H46.66v9.18a27.53,27.53,0,0,0,.13,3,5.06,5.06,0,0,0,.62,2,3.35,3.35,0,0,0,1.43,1.27,8.3,8.3,0,0,0,2.51.67v.92c-1.15-.07-2.43-.11-3.83-.11H43.69l-3.81,0-3.81.08V95a8.07,8.07,0,0,0,2.49-.67A3.08,3.08,0,0,0,39.93,93a5.38,5.38,0,0,0,.6-2.05,26.72,26.72,0,0,0,.13-2.89V68.31a26.72,26.72,0,0,0-.13-2.89,5.22,5.22,0,0,0-.6-2,3.13,3.13,0,0,0-1.37-1.27,7.65,7.65,0,0,0-2.49-.62v-1l3.86,0,3.86,0,3.78,0,3.78,0v1a7.85,7.85,0,0,0-2.51.62,3.35,3.35,0,0,0-1.43,1.27,5.06,5.06,0,0,0-.62,2,26.72,26.72,0,0,0-.13,2.89v6.91H64.42V68.31a26.72,26.72,0,0,0-.13-2.89,5.06,5.06,0,0,0-.62-2,3.42,3.42,0,0,0-1.41-1.27,7.39,7.39,0,0,0-2.43-.62v-1l3.84,0,3.83,0,3.81,0,3.8,0v1a7.85,7.85,0,0,0-2.51.62,3.35,3.35,0,0,0-1.43,1.27,5.39,5.39,0,0,0-.65,2,23.75,23.75,0,0,0-.16,2.89V88.07a24.45,24.45,0,0,0,.16,3,5.4,5.4,0,0,0,.65,2,3.35,3.35,0,0,0,1.43,1.27,8.3,8.3,0,0,0,2.51.67v.92l-3.91-.08Z">
                      </path>
                      <path class="ttl__message--type01"
                        d="M92.18,78.89v8c0,1.29,0,2.3.08,3a2.26,2.26,0,0,0,2.24,2.35,26.87,26.87,0,0,0,3.13.14,21.71,21.71,0,0,0,4.48-.38A10.56,10.56,0,0,0,105,91a6.63,6.63,0,0,0,1.92-1.56c.5-.62,1-1.28,1.56-2l.65.43a18.88,18.88,0,0,0-.83,2c-.27.74-.53,1.5-.76,2.27s-.44,1.52-.62,2.24-.33,1.35-.43,1.89a29.77,29.77,0,0,0-5.16-.43q-3.27-.06-7.8-.06l-6,0c-2.07,0-4.06.06-6,.14V95a7.93,7.93,0,0,0,2.49-.7A3.32,3.32,0,0,0,85.45,93a5.23,5.23,0,0,0,.6-2,26.84,26.84,0,0,0,.13-2.89V68.31a26.72,26.72,0,0,0-.13-2.89,5.22,5.22,0,0,0-.6-2,3.13,3.13,0,0,0-1.37-1.27,7.58,7.58,0,0,0-2.49-.62v-1H92.77c3.71,0,6.65,0,8.83-.07a43.41,43.41,0,0,0,4.89-.31c-.08.61-.14,1.32-.19,2.13s-.08,1.56-.08,2.24,0,1.31,0,2.08.07,1.45.11,2l-.81,0a19.16,19.16,0,0,0-.92-2,4.84,4.84,0,0,0-1.32-1.54,6.37,6.37,0,0,0-2.19-1,13,13,0,0,0-3.51-.38,29.53,29.53,0,0,0-3,.11,2.68,2.68,0,0,0-1.62.62A2.52,2.52,0,0,0,92.31,66a24.21,24.21,0,0,0-.13,2.89v6.32h3.13c1.11,0,2.1,0,2.94,0a8.27,8.27,0,0,0,2.11-.33,2.57,2.57,0,0,0,1.29-.86,3.21,3.21,0,0,0,.57-1.68h.86c0,1.19,0,2.2,0,3s0,1.47,0,1.94,0,1,0,1.7,0,1.56,0,2.68h-.86a2.73,2.73,0,0,0-.57-1.52,2.89,2.89,0,0,0-1.32-.83A7.31,7.31,0,0,0,98.22,79c-.82,0-1.8-.06-2.91-.06Z">
                      </path>
                      <path class="ttl__message--type01"
                        d="M146.82,95.79l-4.29,0-4.24.08v-.75a8.24,8.24,0,0,0,2.89-.79,4.08,4.08,0,0,0,1.62-1.54,6,6,0,0,0,.73-2.4,30,30,0,0,0,.16-3.37V63.12a30,30,0,0,0-.16-3.37,5.91,5.91,0,0,0-.73-2.38,3.94,3.94,0,0,0-1.62-1.48,8.76,8.76,0,0,0-2.89-.76v-.86l4.35,0,4.35,0q3.72,0,6.64-.19c1.94-.12,3.76-.19,5.45-.19q11.71,0,17.69,4.92t6,15.39a23.31,23.31,0,0,1-1.4,8,19.62,19.62,0,0,1-4.27,6.94A21,21,0,0,1,169.77,94a26.75,26.75,0,0,1-10.42,1.86l-3.51,0-3,0-2.83,0C149.08,95.8,148,95.79,146.82,95.79Zm10.86-38.28c-1.84,0-3.27,0-4.3.13a3.76,3.76,0,0,0-2.29.84,3.32,3.32,0,0,0-.92,2.11,36.63,36.63,0,0,0-.16,4V85.75a14.77,14.77,0,0,0,.35,3.59,3.28,3.28,0,0,0,1.32,2,6.15,6.15,0,0,0,2.7.84,41.21,41.21,0,0,0,4.43.19,21.43,21.43,0,0,0,8.37-1.43,14.13,14.13,0,0,0,5.32-3.76,13.6,13.6,0,0,0,2.78-5.29,22.86,22.86,0,0,0,.81-6,28.05,28.05,0,0,0-1-7.72,13.28,13.28,0,0,0-8.86-9.34A25.84,25.84,0,0,0,157.68,57.51Z">
                      </path>
                      <path class="ttl__message--type01"
                        d="M196,78.89v8c0,1.29,0,2.3.08,3a2.26,2.26,0,0,0,2.24,2.35,26.87,26.87,0,0,0,3.13.14,21.71,21.71,0,0,0,4.48-.38,10.44,10.44,0,0,0,2.89-1,6.63,6.63,0,0,0,1.92-1.56c.5-.62,1-1.28,1.57-2l.64.43a18.88,18.88,0,0,0-.83,2c-.27.74-.53,1.5-.76,2.27s-.44,1.52-.62,2.24-.32,1.35-.43,1.89a29.77,29.77,0,0,0-5.16-.43q-3.27-.06-7.8-.06l-6,0c-2.07,0-4.06.06-6,.14V95a7.93,7.93,0,0,0,2.49-.7,3.32,3.32,0,0,0,1.37-1.3,5.23,5.23,0,0,0,.6-2,26.84,26.84,0,0,0,.13-2.89V68.31a26.72,26.72,0,0,0-.13-2.89,5.22,5.22,0,0,0-.6-2,3.13,3.13,0,0,0-1.37-1.27,7.58,7.58,0,0,0-2.49-.62v-1h11.18c3.71,0,6.65,0,8.83-.07a43.41,43.41,0,0,0,4.89-.31c-.08.61-.14,1.32-.19,2.13s-.08,1.56-.08,2.24,0,1.31.05,2.08.07,1.45.11,2l-.81,0a17.26,17.26,0,0,0-.92-2,4.84,4.84,0,0,0-1.32-1.54,6.37,6.37,0,0,0-2.19-1,13,13,0,0,0-3.51-.38,29.65,29.65,0,0,0-3,.11,2.68,2.68,0,0,0-1.62.62,2.52,2.52,0,0,0-.68,1.56A24.21,24.21,0,0,0,196,68.9v6.32h3.13c1.11,0,2.1,0,2.94,0a8.27,8.27,0,0,0,2.11-.33,2.57,2.57,0,0,0,1.29-.86,3.21,3.21,0,0,0,.57-1.68h.87q0,1.78,0,3c0,.83,0,1.47,0,1.94s0,1,0,1.7,0,1.56,0,2.68h-.87a2.73,2.73,0,0,0-.57-1.52,2.89,2.89,0,0,0-1.32-.83,7.23,7.23,0,0,0-2.1-.35c-.83,0-1.81-.06-2.92-.06Z">
                      </path>
                      <path class="ttl__message--type01"
                        d="M232.31,88q2.26-5.19,3.88-8.94t2.7-6.37c.72-1.75,1.29-3.16,1.7-4.24s.73-1.93.95-2.57a9.27,9.27,0,0,0,.4-1.37,3.58,3.58,0,0,0,.09-.65,1.87,1.87,0,0,0-.87-1.62,7.41,7.41,0,0,0-3.51-.7V60.48l4.27.08,4.16,0h1.62q.69,0,1.35,0l1.29-.06,1.51,0v1a9.52,9.52,0,0,0-2.78.73,3.47,3.47,0,0,0-1.37,1.22,20.73,20.73,0,0,0-1.3,2.45q-1,2-2.35,5t-3,6.56c-1.1,2.4-2.2,4.78-3.3,7.16l-3.13,6.75c-1,2.12-1.85,3.92-2.56,5.4l-1.73.21c-.76-2.19-1.62-4.61-2.59-7.23s-2-5.26-3.06-7.89-2.1-5.17-3.13-7.64-2-4.65-2.83-6.56c-.43-1-.83-1.84-1.19-2.59a7.8,7.8,0,0,0-1.22-1.89A4.53,4.53,0,0,0,214.7,62a6.13,6.13,0,0,0-2.27-.46V60.48l3.73.08q1.72,0,3.78,0h1.84c.57,0,1.13,0,1.67,0l1.67-.06,1.89,0v1.08a18.19,18.19,0,0,0-1.86.24,2.58,2.58,0,0,0-1,.38,1,1,0,0,0-.4.59,3.52,3.52,0,0,0-.08.84,7.36,7.36,0,0,0,.35,1.54c.23.81.66,2.12,1.29,3.94s1.5,4.25,2.62,7.29S230.5,83.3,232.31,88Z">
                      </path>
                      <path class="ttl__message--type01"
                        d="M264.06,78.89v8c0,1.29,0,2.3.08,3a2.26,2.26,0,0,0,2.24,2.35,26.87,26.87,0,0,0,3.13.14,21.71,21.71,0,0,0,4.48-.38,10.56,10.56,0,0,0,2.89-1,6.63,6.63,0,0,0,1.92-1.56c.5-.62,1-1.28,1.56-2l.65.43a18.88,18.88,0,0,0-.83,2c-.27.74-.53,1.5-.76,2.27s-.44,1.52-.62,2.24-.33,1.35-.43,1.89a29.77,29.77,0,0,0-5.16-.43q-3.27-.06-7.8-.06l-6,0c-2.07,0-4.06.06-6,.14V95a7.93,7.93,0,0,0,2.49-.7,3.32,3.32,0,0,0,1.37-1.3,5.23,5.23,0,0,0,.6-2,26.84,26.84,0,0,0,.13-2.89V68.31a26.72,26.72,0,0,0-.13-2.89,5.22,5.22,0,0,0-.6-2A3.13,3.13,0,0,0,256,62.12a7.58,7.58,0,0,0-2.49-.62v-1h11.18c3.71,0,6.65,0,8.83-.07a43.41,43.41,0,0,0,4.89-.31c-.08.61-.14,1.32-.19,2.13s-.08,1.56-.08,2.24,0,1.31,0,2.08.07,1.45.11,2l-.81,0a19.16,19.16,0,0,0-.92-2,4.84,4.84,0,0,0-1.32-1.54,6.37,6.37,0,0,0-2.19-1,13,13,0,0,0-3.51-.38,29.65,29.65,0,0,0-3,.11,2.68,2.68,0,0,0-1.62.62,2.52,2.52,0,0,0-.68,1.56,24.21,24.21,0,0,0-.13,2.89v6.32h3.13c1.11,0,2.1,0,2.94,0a8.27,8.27,0,0,0,2.11-.33,2.57,2.57,0,0,0,1.29-.86,3.21,3.21,0,0,0,.57-1.68H275q0,1.78,0,3c0,.83,0,1.47,0,1.94s0,1,0,1.7,0,1.56,0,2.68h-.87a2.73,2.73,0,0,0-.57-1.52,2.89,2.89,0,0,0-1.32-.83A7.31,7.31,0,0,0,270.1,79c-.82,0-1.8-.06-2.91-.06Z">
                      </path>
                      <path class="ttl__message--type01"
                        d="M292.51,60.53l3.78,0,3.78,0v1a7.85,7.85,0,0,0-2.51.62,3.35,3.35,0,0,0-1.43,1.27,5.06,5.06,0,0,0-.62,2,26.72,26.72,0,0,0-.13,2.89V86.94c0,1.29,0,2.3.1,3a2.77,2.77,0,0,0,.65,1.65,2.75,2.75,0,0,0,1.73.7,32,32,0,0,0,3.4.14,17.41,17.41,0,0,0,3.7-.33,8.11,8.11,0,0,0,2.51-.94,7,7,0,0,0,1.76-1.51c.48-.6,1-1.26,1.54-2l.64.44c-.28.57-.56,1.22-.83,1.94s-.53,1.45-.76,2.19-.44,1.45-.62,2.16-.32,1.32-.43,1.86a24.73,24.73,0,0,0-4.89-.49q-3,0-7.53-.05l-5.78,0c-1.94,0-3.87.06-5.78.13V95a8,8,0,0,0,2.49-.67,3.08,3.08,0,0,0,1.37-1.3,5.38,5.38,0,0,0,.6-2.05,26.72,26.72,0,0,0,.13-2.89V68.31a26.72,26.72,0,0,0-.13-2.89,5.22,5.22,0,0,0-.6-2,3.13,3.13,0,0,0-1.37-1.27,7.58,7.58,0,0,0-2.49-.62v-1l3.86,0Z">
                      </path>
                      <path class="ttl__message--type01"
                        d="M311.41,78.14a18.64,18.64,0,0,1,1.46-7.37,17.92,17.92,0,0,1,4.08-6,19.07,19.07,0,0,1,6.21-4,21.73,21.73,0,0,1,15.66,0,19.28,19.28,0,0,1,6.21,4,18.63,18.63,0,0,1,0,26.67,19.12,19.12,0,0,1-6.21,4,21.73,21.73,0,0,1-15.66,0,18.91,18.91,0,0,1-6.21-4,18,18,0,0,1-4.08-6A18.71,18.71,0,0,1,311.41,78.14Zm6.48-.06A17.61,17.61,0,0,0,319,84.32a15,15,0,0,0,2.86,4.86A13.21,13.21,0,0,0,326,92.34a11.75,11.75,0,0,0,5.08,1.13,11.59,11.59,0,0,0,5-1.13,12.91,12.91,0,0,0,4.16-3.16,15.28,15.28,0,0,0,2.83-4.86,18.9,18.9,0,0,0,0-12.48A15.39,15.39,0,0,0,340.25,67a12.55,12.55,0,0,0-4.16-3.13,11.85,11.85,0,0,0-5-1.1,12,12,0,0,0-5.08,1.1A12.83,12.83,0,0,0,321.81,67,15.09,15.09,0,0,0,319,71.84,17.61,17.61,0,0,0,317.89,78.08Z">
                      </path>
                      <path class="ttl__message--type01"
                        d="M359.85,95.79l-3.81,0-3.8.08V95a7.92,7.92,0,0,0,2.48-.67A3.16,3.16,0,0,0,356.1,93a5.57,5.57,0,0,0,.59-2.05,26.46,26.46,0,0,0,.14-2.89V68.31a26.46,26.46,0,0,0-.14-2.89,5.4,5.4,0,0,0-.59-2,3.22,3.22,0,0,0-1.38-1.27,7.51,7.51,0,0,0-2.48-.62v-1l3.78,0,3.78,0c1,0,2.37-.05,4-.16s3.33-.16,5.13-.16a20.08,20.08,0,0,1,5.92.78A12.11,12.11,0,0,1,379,63.12a8.88,8.88,0,0,1,2.49,3.19,9.23,9.23,0,0,1,.84,3.89,11.71,11.71,0,0,1-.81,4.29,10.38,10.38,0,0,1-2.41,3.65,11.91,11.91,0,0,1-3.91,2.51,14.11,14.11,0,0,1-5.35.94,18.59,18.59,0,0,1-4.24-.38,4.83,4.83,0,0,1-2-.75V78.3a10.51,10.51,0,0,0,1.84.38,17.62,17.62,0,0,0,1.89.1,11.07,11.07,0,0,0,3.18-.46,8.76,8.76,0,0,0,2.84-1.4,6.94,6.94,0,0,0,2-2.4,7.36,7.36,0,0,0,.76-3.46,7.91,7.91,0,0,0-.46-2.62,7,7,0,0,0-1.43-2.4,7.45,7.45,0,0,0-2.54-1.78,9.29,9.29,0,0,0-3.83-.7,12.42,12.42,0,0,0-2.54.21,3,3,0,0,0-1.54.81,3.32,3.32,0,0,0-.78,1.73,15.94,15.94,0,0,0-.22,3V88.07a27.25,27.25,0,0,0,.14,3,4.91,4.91,0,0,0,.62,2A3.29,3.29,0,0,0,365,94.31a8.3,8.3,0,0,0,2.51.67v.92l-3.83-.08Z">
                      </path>
                      <path class="ttl__message--type01"
                        d="M395.33,78.89v8c0,1.29,0,2.3.08,3a2.26,2.26,0,0,0,2.24,2.35,26.87,26.87,0,0,0,3.13.14,21.88,21.88,0,0,0,4.49-.38,10.48,10.48,0,0,0,2.88-1,6.5,6.5,0,0,0,1.92-1.56c.5-.62,1-1.28,1.57-2l.65.43a18.81,18.81,0,0,0-.84,2c-.27.74-.52,1.5-.76,2.27s-.44,1.52-.62,2.24-.32,1.35-.43,1.89a29.77,29.77,0,0,0-5.16-.43q-3.27-.06-7.8-.06l-6,0c-2.07,0-4.06.06-6,.14V95a7.86,7.86,0,0,0,2.48-.7,3.41,3.41,0,0,0,1.38-1.3,5.41,5.41,0,0,0,.59-2,26.59,26.59,0,0,0,.14-2.89V68.31a26.46,26.46,0,0,0-.14-2.89,5.4,5.4,0,0,0-.59-2,3.22,3.22,0,0,0-1.38-1.27,7.51,7.51,0,0,0-2.48-.62v-1h11.17c3.71,0,6.65,0,8.83-.07a43.41,43.41,0,0,0,4.89-.31c-.07.61-.14,1.32-.19,2.13s-.08,1.56-.08,2.24,0,1.31.05,2.08.07,1.45.11,2l-.81,0a17.26,17.26,0,0,0-.92-2,4.84,4.84,0,0,0-1.32-1.54,6.37,6.37,0,0,0-2.19-1,13,13,0,0,0-3.51-.38,29.65,29.65,0,0,0-3,.11,2.68,2.68,0,0,0-1.62.62,2.52,2.52,0,0,0-.68,1.56,24.21,24.21,0,0,0-.13,2.89v6.32h3.13c1.12,0,2.1,0,2.94,0a8.27,8.27,0,0,0,2.11-.33,2.64,2.64,0,0,0,1.3-.86,3.3,3.3,0,0,0,.56-1.68h.87q0,1.78,0,3c0,.83,0,1.47,0,1.94s0,1,0,1.7,0,1.56,0,2.68h-.87a2.81,2.81,0,0,0-.56-1.52,3,3,0,0,0-1.33-.83,7.23,7.23,0,0,0-2.1-.35c-.83,0-1.8-.06-2.92-.06Z">
                      </path>
                      <path class="ttl__message--type01"
                        d="M422.06,95.79l-3.81,0-3.81.08V95a7.91,7.91,0,0,0,2.49-.67,3.16,3.16,0,0,0,1.38-1.3A5.57,5.57,0,0,0,418.9,91a26.72,26.72,0,0,0,.13-2.89V68.31a26.72,26.72,0,0,0-.13-2.89,5.4,5.4,0,0,0-.59-2,3.22,3.22,0,0,0-1.38-1.27,7.51,7.51,0,0,0-2.49-.62v-1l3.78,0,3.78,0c1.05,0,2.29-.06,3.73-.19s2.79-.19,4-.19q6.81,0,10.1,2.52a8,8,0,0,1,3.29,6.66,13,13,0,0,1-.62,4.08,10.07,10.07,0,0,1-1.92,3.46,11.39,11.39,0,0,1-3.26,2.62A14.49,14.49,0,0,1,432.7,81l7.23,7.77c.94,1,1.77,1.91,2.49,2.6a17.62,17.62,0,0,0,2.08,1.72,11.06,11.06,0,0,0,2.05,1.16,14.69,14.69,0,0,0,2.35.79l-.33.92c-.93-.08-1.88-.12-2.83-.14l-2.14,0H442q-1.12,0-1.89.06-.27-.27-1-1.14l-1.89-2.1-2.46-2.73c-.9-1-1.82-2-2.78-3s-1.9-2-2.86-3-1.84-1.85-2.67-2.65H425v6.86a27.53,27.53,0,0,0,.13,3,5.06,5.06,0,0,0,.62,2,3.38,3.38,0,0,0,1.44,1.27,8.13,8.13,0,0,0,2.51.67v.92l-3.84-.08Zm3-18h2.91a13.78,13.78,0,0,0,3.24-.38,8.68,8.68,0,0,0,2.92-1.24,6.57,6.57,0,0,0,2.11-2.32A7.49,7.49,0,0,0,437,70.2a7.32,7.32,0,0,0-.35-2A5.88,5.88,0,0,0,435.4,66a7.42,7.42,0,0,0-2.6-1.76,11,11,0,0,0-4.32-.73,5.36,5.36,0,0,0-1.72.22,2,2,0,0,0-1.06.81,3.88,3.88,0,0,0-.54,1.73,26.2,26.2,0,0,0-.13,3Z">
                      </path>
                      <path class="ttl__message--type01"
                        d="M455.86,68.74A4.52,4.52,0,0,0,457.1,72a13.33,13.33,0,0,0,3.14,2.35q1.89,1,4.05,2.08a24.83,24.83,0,0,1,4,2.4,12.54,12.54,0,0,1,3.13,3.29,9.83,9.83,0,0,1-.08,9.7,9.62,9.62,0,0,1-3.46,3.08,15.52,15.52,0,0,1-4.75,1.56,31.75,31.75,0,0,1-5.21.43,18.65,18.65,0,0,1-3.73-.37,21,21,0,0,1-3.35-1l.33-7.5h1.08a14.62,14.62,0,0,0,.75,2.83,3.76,3.76,0,0,0,1.08,1.57,3.37,3.37,0,0,0,1.62.65,18.3,18.3,0,0,0,2.43.13c.54,0,1.3,0,2.27-.11a10.89,10.89,0,0,0,2.92-.62,6.85,6.85,0,0,0,2.54-1.56A3.85,3.85,0,0,0,467,88a5.46,5.46,0,0,0-1.22-3.65,11.94,11.94,0,0,0-3-2.51,43.23,43.23,0,0,0-4-2,22.67,22.67,0,0,1-4-2.32,12,12,0,0,1-3-3.27,9,9,0,0,1-1.21-4.89,8.45,8.45,0,0,1,.94-4,8.7,8.7,0,0,1,2.81-3.1,14.25,14.25,0,0,1,4.59-2,25.25,25.25,0,0,1,6.29-.7,12.64,12.64,0,0,1,4.64.76L469.36,68h-1c-.15-1.9-.57-3.2-1.27-3.88a4,4,0,0,0-2.95-1A10.07,10.07,0,0,0,458,64.66,4.9,4.9,0,0,0,455.86,68.74Z">
                      </path>
                    </g>
                  </g>
                </svg>