<svg class="u-sp" width="641" height="142" viewBox="0 0 641 142" xmlns="http://www.w3.org/2000/svg">
                        <defs>
                          <style>
                            .ttl__theRealmsofValisthea--type01 {
                              fill: #fff;
                              fill-rule: evenodd;
                            }
                          </style>
                        </defs>
                        <path id="The_Realms_of_Valisthea.svg" data-name="The Realms of Valisthea.svg"
                          class="ttl__theRealmsofValisthea--type01"
                          d="M97.418,3922.49q3.439,0.045,6.48.12v-1.12a13.449,13.449,0,0,1-4.4-1.12,5.92,5.92,0,0,1-2.48-2.24,8.624,8.624,0,0,1-1.12-3.56,46.016,46.016,0,0,1-.24-5.08v-34.64a30.166,30.166,0,0,1,.32-5,5.825,5.825,0,0,1,1.08-2.72,3.21,3.21,0,0,1,2.08-1.12,23.263,23.263,0,0,1,3.32-.2,22.349,22.349,0,0,1,6.2.72,11.672,11.672,0,0,1,3.96,1.92,9.6,9.6,0,0,1,2.44,2.84,33.691,33.691,0,0,1,1.72,3.56l0.88-.08q-0.079-1.515-.16-3.48c-0.054-1.31-.08-2.49-0.08-3.56q0-1.755.12-3.96c0.08-1.47.2-2.73,0.36-3.8-0.96.21-1.947,0.39-2.96,0.52s-2.467.24-4.36,0.32-4.387.13-7.48,0.16-7.174.04-12.24,0.04q-7.521,0-12.16-.04t-7.48-.16c-1.894-.08-3.36-0.19-4.4-0.32a21.318,21.318,0,0,1-2.76-.52c0.16,1.07.28,2.33,0.36,3.8s0.12,2.79.12,3.96c0,1.07-.027,2.25-0.08,3.56s-0.108,2.47-.16,3.48l0.88,0.08a33.439,33.439,0,0,1,1.72-3.56,9.564,9.564,0,0,1,2.44-2.84,11.653,11.653,0,0,1,3.96-1.92,22.342,22.342,0,0,1,6.2-.72,25.865,25.865,0,0,1,3.2.16,3.258,3.258,0,0,1,2.08,1.04,5.622,5.622,0,0,1,1.16,2.72,28.136,28.136,0,0,1,.36,5.12v34.64a45.131,45.131,0,0,1-.24,5,9.047,9.047,0,0,1-1.08,3.56,6,6,0,0,1-2.4,2.28,12.1,12.1,0,0,1-4.28,1.16v1.12q2.959-.075,6.28-0.12t6.36-.04Q93.978,3922.45,97.418,3922.49Zm77.08,0q3.161,0.045,5.8.12v-1.36a12.585,12.585,0,0,1-3.72-1,4.86,4.86,0,0,1-2.12-1.88,7.8,7.8,0,0,1-.96-3,33.631,33.631,0,0,1-.24-4.36v-29.28a32.959,32.959,0,0,1,.24-4.28,7.8,7.8,0,0,1,.96-3,4.86,4.86,0,0,1,2.12-1.88,11.373,11.373,0,0,1,3.72-.92v-1.52c-1.707,0-3.587.01-5.64,0.04s-3.934.04-5.64,0.04-3.6-.01-5.68-0.04-3.973-.04-5.68-0.04v1.52a10.775,10.775,0,0,1,3.6.92,4.905,4.905,0,0,1,2.08,1.88,7.361,7.361,0,0,1,.92,3,39.563,39.563,0,0,1,.2,4.28v10.24h-26.32v-10.24a39.563,39.563,0,0,1,.2-4.28,7.361,7.361,0,0,1,.92-3,4.855,4.855,0,0,1,2.12-1.88,11.373,11.373,0,0,1,3.72-.92v-1.52c-1.707,0-3.574.01-5.6,0.04s-3.893.04-5.6,0.04-3.613-.01-5.72-0.04-4.014-.04-5.72-0.04v1.52a10.946,10.946,0,0,1,3.68.92,4.648,4.648,0,0,1,2.04,1.88,7.8,7.8,0,0,1,.88,3,39.563,39.563,0,0,1,.2,4.28v29.28a39.563,39.563,0,0,1-.2,4.28,8.183,8.183,0,0,1-.88,3.04,4.564,4.564,0,0,1-2.04,1.92,12.077,12.077,0,0,1-3.68,1v1.36q2.559-.075,5.64-0.12c2.053-.03,3.933-0.04,5.64-0.04h5.68c2.08,0,3.973.05,5.68,0.16v-1.36a12.585,12.585,0,0,1-3.72-1,4.855,4.855,0,0,1-2.12-1.88,7.361,7.361,0,0,1-.92-3,40.37,40.37,0,0,1-.2-4.36v-13.6h26.32v13.6a39.563,39.563,0,0,1-.2,4.28,7.71,7.71,0,0,1-.92,3.04,4.806,4.806,0,0,1-2.08,1.92,11.944,11.944,0,0,1-3.6,1v1.36c1.653-.11,3.493-0.16,5.52-0.16h5.6C170.485,3922.45,172.391,3922.46,174.5,3922.49Zm33.28-25.08c1.653,0,3.093.03,4.32,0.08a11.171,11.171,0,0,1,3.12.52,4.368,4.368,0,0,1,1.96,1.24,4.076,4.076,0,0,1,.84,2.24h1.28q0-2.475-.04-3.96t-0.04-2.52q0-1.035.04-2.88c0.027-1.23.04-2.72,0.04-4.48h-1.28a4.79,4.79,0,0,1-.84,2.48,3.833,3.833,0,0,1-1.92,1.28,11.724,11.724,0,0,1-3.12.48c-1.254.05-2.707,0.08-4.36,0.08h-4.64v-9.36a35.64,35.64,0,0,1,.2-4.28,3.756,3.756,0,0,1,1-2.32,3.966,3.966,0,0,1,2.4-.92c1.066-.11,2.56-0.16,4.48-0.16a19.955,19.955,0,0,1,5.2.56,9.333,9.333,0,0,1,3.24,1.52,7.259,7.259,0,0,1,1.96,2.28,26.957,26.957,0,0,1,1.36,2.92l1.2-.08q-0.079-1.275-.16-3c-0.053-1.15-.08-2.17-0.08-3.08,0-1.01.04-2.12,0.12-3.32s0.173-2.25.28-3.16a65.478,65.478,0,0,1-7.24.45q-4.841.105-13.08,0.11h-16.56v1.52a10.94,10.94,0,0,1,3.68.92,4.643,4.643,0,0,1,2.04,1.88,7.8,7.8,0,0,1,.88,3,39.563,39.563,0,0,1,.2,4.28v29.36a39.563,39.563,0,0,1-.2,4.28,7.8,7.8,0,0,1-.88,3,4.905,4.905,0,0,1-2.04,1.92,11.191,11.191,0,0,1-3.68,1.04v1.36c2.827-.11,5.773-0.17,8.84-0.2s6.013-.04,8.84-0.04q6.72,0,11.56.08a44.63,44.63,0,0,1,7.64.64c0.16-.8.373-1.73,0.64-2.8s0.573-2.17.92-3.32,0.72-2.27,1.12-3.36a28.223,28.223,0,0,1,1.24-2.92l-0.96-.64c-0.8,1.07-1.574,2.05-2.32,2.96a9.778,9.778,0,0,1-2.84,2.32,15.565,15.565,0,0,1-4.28,1.52,32.306,32.306,0,0,1-6.64.56,41.03,41.03,0,0,1-4.64-.2,3.348,3.348,0,0,1-3.32-3.48c-0.08-1.07-.12-2.56-0.12-4.48v-11.92h4.64Zm68.8,25.08q3.44,0.045,6.48.12v-1.12a11.55,11.55,0,0,1-4.4-1.24,6.393,6.393,0,0,1-2.48-2.52,10.181,10.181,0,0,1-1.12-3.84,49.445,49.445,0,0,1-.24-5.2v-12h5.92q3.281,3.12,7.16,7.24t7.4,8.04q3.52,3.915,6.16,6.88t3.36,3.68c0.907-.05,1.933-0.08,3.08-0.08h2.6c0.747,0,1.933.01,3.56,0.04s3.293,0.09,5,.2l0.32-1.12a19.624,19.624,0,0,1-4.04-1.4,20.59,20.59,0,0,1-3.4-2.12,35.742,35.742,0,0,1-3.56-3.16c-1.253-1.25-2.707-2.79-4.36-4.6l-13.2-14.32a25.715,25.715,0,0,0,7.36-2.76,21.753,21.753,0,0,0,5.6-4.52,19.525,19.525,0,0,0,3.56-5.8,17.948,17.948,0,0,0,1.24-6.6q0-7.845-6.16-11.88t-18-4.04q-1.6,0-3.48.12l-3.8.24c-1.28.08-2.507,0.15-3.68,0.2s-2.213.08-3.12,0.08q-3.041,0-6.44-.04t-6.44-.04v1.28a12.845,12.845,0,0,1,4.28,1.12,5.82,5.82,0,0,1,2.4,2.2,8.694,8.694,0,0,1,1.08,3.52,45.107,45.107,0,0,1,.24,5v34.64a48.511,48.511,0,0,1-.24,5.12,10.7,10.7,0,0,1-1.08,3.84,6.492,6.492,0,0,1-2.4,2.56,10.51,10.51,0,0,1-4.28,1.28v1.12q2.959-.075,6.28-0.12t6.36-.04Q273.139,3922.45,276.578,3922.49Zm-1.76-47.08a38.022,38.022,0,0,1,.28-5.16,5.879,5.879,0,0,1,1.2-3.04,4.513,4.513,0,0,1,2.56-1.44,21.129,21.129,0,0,1,4.36-.36,19.609,19.609,0,0,1,7.76,1.32,13.481,13.481,0,0,1,4.76,3.24,11.124,11.124,0,0,1,2.4,4.08,12.784,12.784,0,0,1,.68,3.76,13.9,13.9,0,0,1-1.28,6.2,11.948,11.948,0,0,1-3.48,4.28,14.625,14.625,0,0,1-5.24,2.48,25.858,25.858,0,0,1-6.56.8h-7.44v-16.16Zm66.96,22c1.653,0,3.093.03,4.32,0.08a11.171,11.171,0,0,1,3.12.52,4.362,4.362,0,0,1,1.96,1.24,4.076,4.076,0,0,1,.84,2.24h1.28q0-2.475-.04-3.96t-0.04-2.52q0-1.035.04-2.88c0.027-1.23.04-2.72,0.04-4.48h-1.28a4.79,4.79,0,0,1-.84,2.48,3.829,3.829,0,0,1-1.92,1.28,11.724,11.724,0,0,1-3.12.48c-1.253.05-2.707,0.08-4.36,0.08h-4.64v-9.36a35.64,35.64,0,0,1,.2-4.28,3.762,3.762,0,0,1,1-2.32,3.966,3.966,0,0,1,2.4-.92c1.067-.11,2.56-0.16,4.48-0.16a19.955,19.955,0,0,1,5.2.56,9.333,9.333,0,0,1,3.24,1.52,7.259,7.259,0,0,1,1.96,2.28,26.957,26.957,0,0,1,1.36,2.92l1.2-.08q-0.079-1.275-.16-3c-0.053-1.15-.08-2.17-0.08-3.08,0-1.01.04-2.12,0.12-3.32s0.173-2.25.28-3.16a65.478,65.478,0,0,1-7.24.45q-4.841.105-13.08,0.11h-16.56v1.52a10.94,10.94,0,0,1,3.68.92,4.643,4.643,0,0,1,2.04,1.88,7.8,7.8,0,0,1,.88,3,39.563,39.563,0,0,1,.2,4.28v29.36a39.563,39.563,0,0,1-.2,4.28,7.8,7.8,0,0,1-.88,3,4.905,4.905,0,0,1-2.04,1.92,11.191,11.191,0,0,1-3.68,1.04v1.36c2.827-.11,5.773-0.17,8.84-0.2s6.013-.04,8.84-0.04q6.72,0,11.56.08a44.63,44.63,0,0,1,7.64.64c0.16-.8.373-1.73,0.64-2.8s0.573-2.17.92-3.32,0.72-2.27,1.12-3.36a28.223,28.223,0,0,1,1.24-2.92l-0.96-.64c-0.8,1.07-1.573,2.05-2.32,2.96a9.778,9.778,0,0,1-2.84,2.32,15.565,15.565,0,0,1-4.28,1.52,32.306,32.306,0,0,1-6.64.56,41.03,41.03,0,0,1-4.64-.2,3.348,3.348,0,0,1-3.32-3.48c-0.08-1.07-.12-2.56-0.12-4.48v-11.92h4.64Zm62.52,21.72a1.5,1.5,0,0,1-.6.88,4.119,4.119,0,0,1-1.48.6,15.123,15.123,0,0,1-2.76.32v1.6q2.959-.075,5.24-0.12c1.52-.03,3.267-0.04,5.24-0.04,2.027,0,3.893.01,5.6,0.04s3.547,0.07,5.52.12v-1.6a9.06,9.06,0,0,1-3.4-.68,6.89,6.89,0,0,1-2.32-1.72,11.832,11.832,0,0,1-1.8-2.8q-0.8-1.68-1.76-3.84-1.92-4.245-4.2-9.72t-4.64-11.32q-2.359-5.835-4.52-11.64t-3.84-10.76l-2.56.32c-1.067,2.19-2.333,4.85-3.8,8s-3.013,6.48-4.64,10-3.253,7.05-4.88,10.6-3.12,6.79-4.48,9.72-2.533,5.4-3.52,7.4-1.613,3.21-1.88,3.64a5.127,5.127,0,0,1-2.04,1.8,13.967,13.967,0,0,1-4.12,1.08v1.52c0.854,0,1.6-.01,2.24-0.04s1.28-.05,1.92-0.08,1.307-.04,2-0.04h2.4q2.88,0,6.16.04t6.32,0.12v-1.6a21.939,21.939,0,0,1-3.24-.32,6.046,6.046,0,0,1-1.96-.68,2.458,2.458,0,0,1-1-1.04,3.285,3.285,0,0,1-.28-1.4,5.812,5.812,0,0,1,.12-0.96,17.937,17.937,0,0,1,.6-2.08q0.48-1.44,1.44-3.84t2.56-6.32h18.08q1.28,3.6,2.12,6.08c0.56,1.65,1.013,3,1.36,4.04s0.587,1.83.72,2.36a5.506,5.506,0,0,1,.2,1.12A5.6,5.6,0,0,1,404.3,3919.13Zm-12.68-37.4q2,5.355,3.6,9.6c1.067,2.83,2.027,5.41,2.88,7.76h-14Zm37.56-11.56c-2.107-.03-4.013-0.04-5.72-0.04v1.52a10.94,10.94,0,0,1,3.68.92,4.643,4.643,0,0,1,2.04,1.88,7.8,7.8,0,0,1,.88,3,39.563,39.563,0,0,1,.2,4.28v29.28a39.563,39.563,0,0,1-.2,4.28,8.183,8.183,0,0,1-.88,3.04,4.559,4.559,0,0,1-2.04,1.92,12.068,12.068,0,0,1-3.68,1v1.36c2.827-.11,5.68-0.17,8.56-0.2s5.733-.04,8.56-0.04q6.72,0,11.16.08a35.953,35.953,0,0,1,7.24.72q0.24-1.2.64-2.76c0.266-1.04.573-2.11,0.92-3.2s0.72-2.17,1.12-3.24a29.274,29.274,0,0,1,1.24-2.88l-0.96-.64c-0.8,1.07-1.56,2.04-2.28,2.92a9.992,9.992,0,0,1-2.6,2.24,12.245,12.245,0,0,1-3.72,1.4,26.272,26.272,0,0,1-5.48.48,48.768,48.768,0,0,1-5.04-.2,4.05,4.05,0,0,1-2.56-1.04,4.008,4.008,0,0,1-.96-2.44c-0.107-1.07-.16-2.56-0.16-4.48v-27.6a39.563,39.563,0,0,1,.2-4.28,7.361,7.361,0,0,1,.92-3,4.86,4.86,0,0,1,2.12-1.88,11.373,11.373,0,0,1,3.72-.92v-1.52c-1.707,0-3.573.01-5.6,0.04s-3.893.04-5.6,0.04S431.285,3870.2,429.178,3870.17Zm71.08,50.52,16.8-35.52,2.48,27.44a4.856,4.856,0,0,0,.04.68,4.267,4.267,0,0,1,.04.6,9.877,9.877,0,0,1-.52,3.6,4.924,4.924,0,0,1-1.4,2,5.086,5.086,0,0,1-2.12,1c-0.827.19-1.72,0.36-2.68,0.52v1.52c1.707,0,3.573-.01,5.6-0.04s3.893-.04,5.6-0.04,3.426,0.01,5.16.04,3.453,0.04,5.16.04v-1.52a24.487,24.487,0,0,1-2.76-.56,4.083,4.083,0,0,1-1.92-1.12,5.562,5.562,0,0,1-1.2-2.36,21.366,21.366,0,0,1-.6-4.36l-2.56-45.28h-3.6l-22.08,42.32-22.32-42.32h-2.64l-3.44,45.28a19.691,19.691,0,0,1-.76,4.36,5.427,5.427,0,0,1-1.4,2.36,4.932,4.932,0,0,1-2.08,1.12,26.707,26.707,0,0,1-2.8.56v1.52c1.707,0,3.36-.01,4.96-0.04s3.253-.04,4.96-0.04,3.44,0.01,5.2.04,3.493,0.04,5.2.04v-1.52q-4-.72-5.56-2.24a6.333,6.333,0,0,1-1.56-4.72v-0.72a3.79,3.79,0,0,1,.08-0.72l1.92-27.2,17.92,35.44Zm49.24-44.36q3.12-2.355,9.12-2.36a6,6,0,0,1,4.36,1.52q1.56,1.515,1.88,5.76h1.52l0.64-11.36a18.91,18.91,0,0,0-6.88-1.12,37.719,37.719,0,0,0-9.32,1.04,20.9,20.9,0,0,0-6.8,2.96,12.816,12.816,0,0,0-4.16,4.6,12.529,12.529,0,0,0-1.4,5.88,13.306,13.306,0,0,0,1.8,7.24,17.764,17.764,0,0,0,4.52,4.84,33.153,33.153,0,0,0,5.88,3.44,62.887,62.887,0,0,1,5.88,3.04,17.622,17.622,0,0,1,4.52,3.72,8.041,8.041,0,0,1,1.8,5.4,5.705,5.705,0,0,1-1.6,4.28,10.179,10.179,0,0,1-3.76,2.32,16.692,16.692,0,0,1-4.32.92c-1.44.11-2.56,0.16-3.36,0.16a27.465,27.465,0,0,1-3.6-.2,4.8,4.8,0,0,1-2.4-.96,5.61,5.61,0,0,1-1.6-2.32,21.566,21.566,0,0,1-1.12-4.2h-1.6l-0.48,11.12a29.581,29.581,0,0,0,4.96,1.44,27.539,27.539,0,0,0,5.52.56,47,47,0,0,0,7.72-.64,22.882,22.882,0,0,0,7.04-2.32,14.084,14.084,0,0,0,5.12-4.56,14.52,14.52,0,0,0,.12-14.36,18.4,18.4,0,0,0-4.64-4.88,37.23,37.23,0,0,0-6-3.56q-3.2-1.515-6-3.08a19.512,19.512,0,0,1-4.64-3.48,6.662,6.662,0,0,1-1.84-4.8A7.261,7.261,0,0,1,549.5,3876.33Zm55.12,30.88a26.74,26.74,0,0,0,6.04,8.84,28.369,28.369,0,0,0,9.2,5.92,32.228,32.228,0,0,0,23.2,0,28.369,28.369,0,0,0,9.2-5.92,27.6,27.6,0,0,0,0-39.52,28.369,28.369,0,0,0-9.2-5.92,32.228,32.228,0,0,0-23.2,0,28.369,28.369,0,0,0-9.2,5.92,26.74,26.74,0,0,0-6.04,8.84A28.683,28.683,0,0,0,604.618,3907.21Zm9-20.24a22.352,22.352,0,0,1,4.24-7.2,18.984,18.984,0,0,1,6.2-4.64,17.638,17.638,0,0,1,7.52-1.64,17.459,17.459,0,0,1,7.44,1.64,18.557,18.557,0,0,1,6.16,4.64,22.768,22.768,0,0,1,4.2,7.2,28.145,28.145,0,0,1,0,18.48,22.768,22.768,0,0,1-4.2,7.2,19.092,19.092,0,0,1-6.16,4.68,17.063,17.063,0,0,1-7.44,1.68,17.237,17.237,0,0,1-7.52-1.68,19.539,19.539,0,0,1-6.2-4.68,22.352,22.352,0,0,1-4.24-7.2A28.145,28.145,0,0,1,613.618,3886.97Zm76.4,10.44c1.653,0,3.027.03,4.12,0.08a7.573,7.573,0,0,1,2.64.52,3.378,3.378,0,0,1,1.52,1.24,5.158,5.158,0,0,1,.68,2.24h1.36q-0.081-2.475-.08-3.96v-5.4c0-1.23.026-2.72,0.08-4.48h-1.36a6.669,6.669,0,0,1-.64,2.48,2.808,2.808,0,0,1-1.48,1.28,8.288,8.288,0,0,1-2.68.48c-1.12.05-2.507,0.08-4.16,0.08h-6.88v-10.16a35.64,35.64,0,0,1,.2-4.28,3.362,3.362,0,0,1,1.16-2.32,5.4,5.4,0,0,1,2.92-.92c1.306-.11,3.107-0.16,5.4-0.16a17.034,17.034,0,0,1,4.8.56,7.551,7.551,0,0,1,4.8,3.8,26.957,26.957,0,0,1,1.36,2.92l1.2-.08q-0.079-1.275-.16-3c-0.053-1.15-.08-2.17-0.08-3.08,0-1.01.04-1.99,0.12-2.92s0.173-1.85.28-2.76a23.331,23.331,0,0,1-2.76.36c-1.04.08-2.28,0.13-3.72,0.16s-3.16.05-5.16,0.08-4.36.04-7.08,0.04h-9.48c-1.733,0-3.427-.01-5.08-0.04s-3.12-.04-4.4-0.04v1.52a10.946,10.946,0,0,1,3.68.92,4.648,4.648,0,0,1,2.04,1.88,7.8,7.8,0,0,1,.88,3,39.563,39.563,0,0,1,.2,4.28v29.28a39.563,39.563,0,0,1-.2,4.28,8.183,8.183,0,0,1-.88,3.04,4.564,4.564,0,0,1-2.04,1.92,12.077,12.077,0,0,1-3.68,1v1.36q2.559-.075,5.64-0.12c2.053-.03,3.933-0.04,5.64-0.04s3.6,0.01,5.68.04,3.973,0.07,5.68.12v-1.36a12.585,12.585,0,0,1-3.72-1,4.855,4.855,0,0,1-2.12-1.88,7.361,7.361,0,0,1-.92-3,40.37,40.37,0,0,1-.2-4.36v-13.6h6.88Zm-526.96,42.96a9.934,9.934,0,0,1,3.8.96,8.77,8.77,0,0,1,2.76,2.24,15.087,15.087,0,0,1,2.12,3.48q0.919,2.04,2.04,4.68,2.561,6.405,5.16,12.28t5.32,11.88q2.719,6,5.56,12.44t5.88,13.96l2.72-.16q2.719-6.075,5.76-12.52t6-12.6q2.96-6.165,5.68-11.72t4.92-9.92q2.2-4.365,3.72-7.24c1.013-1.92,1.68-3.15,2-3.68a12.249,12.249,0,0,1,2.32-2.6,9.062,9.062,0,0,1,4.8-1.64v-1.28q-3.04.075-6.48,0.12t-6.72.04h-2.88c-0.8,0-1.573-.01-2.32-0.04s-1.547-.05-2.4-0.08-1.893-.04-3.12-0.04v1.44a17.432,17.432,0,0,1,3.84.48,7.209,7.209,0,0,1,2.4,1.04,3.614,3.614,0,0,1,1.24,1.48,4.521,4.521,0,0,1,.36,1.8,8.134,8.134,0,0,1-.44,2.48c-0.293.91-.747,2.05-1.36,3.44s-1.413,3.08-2.4,5.08-2.173,4.45-3.56,7.36-2.973,6.33-4.76,10.28-3.8,8.53-6.04,13.76q-4.721-11.835-8.04-19.72t-5.4-12.76q-2.081-4.875-3.08-7.2a10.1,10.1,0,0,1-1-3.2,7.577,7.577,0,0,1,.16-1.56,2.358,2.358,0,0,1,.8-1.32,4.987,4.987,0,0,1,1.84-.92,16.463,16.463,0,0,1,3.28-.52v-1.44c-1.173,0-2.147.01-2.92,0.04s-1.493.05-2.16,0.08-1.373.04-2.12,0.04h-2.88q-3.6,0-7.24-.04t-7.16-.12v1.44Zm95.04,56.76a1.5,1.5,0,0,1-.6.88,4.119,4.119,0,0,1-1.48.6,15.123,15.123,0,0,1-2.76.32v1.6q2.959-.075,5.24-0.12c1.52-.03,3.267-0.04,5.24-0.04,2.027,0,3.893.01,5.6,0.04s3.547,0.07,5.52.12v-1.6a9.06,9.06,0,0,1-3.4-.68,6.89,6.89,0,0,1-2.32-1.72,11.832,11.832,0,0,1-1.8-2.8q-0.8-1.68-1.76-3.84-1.92-4.245-4.2-9.72t-4.64-11.32q-2.36-5.835-4.52-11.64t-3.84-10.76l-2.56.32c-1.067,2.19-2.333,4.85-3.8,8s-3.013,6.48-4.64,10-3.253,7.05-4.88,10.6-3.12,6.79-4.48,9.72-2.533,5.4-3.52,7.4-1.613,3.21-1.88,3.64a5.127,5.127,0,0,1-2.04,1.8,13.967,13.967,0,0,1-4.12,1.08v1.52c0.854,0,1.6-.01,2.24-0.04s1.28-.05,1.92-0.08,1.307-.04,2-0.04h2.4q2.88,0,6.16.04t6.32,0.12v-1.6a21.939,21.939,0,0,1-3.24-.32,6.046,6.046,0,0,1-1.96-.68,2.458,2.458,0,0,1-1-1.04,3.285,3.285,0,0,1-.28-1.4,5.812,5.812,0,0,1,.12-0.96,17.937,17.937,0,0,1,.6-2.08q0.48-1.44,1.44-3.84t2.56-6.32h18.08q1.279,3.6,2.12,6.08c0.56,1.65,1.013,3,1.36,4.04s0.587,1.83.72,2.36a5.506,5.506,0,0,1,.2,1.12A5.6,5.6,0,0,1,258.1,3997.13Zm-12.68-37.4q2,5.355,3.6,9.6c1.067,2.83,2.027,5.41,2.88,7.76h-14Zm37.56-11.56c-2.107-.03-4.013-0.04-5.72-0.04v1.52a10.94,10.94,0,0,1,3.68.92,4.643,4.643,0,0,1,2.04,1.88,7.8,7.8,0,0,1,.88,3,39.563,39.563,0,0,1,.2,4.28v29.28a39.563,39.563,0,0,1-.2,4.28,8.183,8.183,0,0,1-.88,3.04,4.559,4.559,0,0,1-2.04,1.92,12.068,12.068,0,0,1-3.68,1v1.36c2.827-.11,5.68-0.17,8.56-0.2s5.733-.04,8.56-0.04q6.72,0,11.16.08a35.953,35.953,0,0,1,7.24.72q0.24-1.2.64-2.76c0.267-1.04.573-2.11,0.92-3.2s0.72-2.17,1.12-3.24a29.274,29.274,0,0,1,1.24-2.88l-0.96-.64c-0.8,1.07-1.56,2.04-2.28,2.92a9.992,9.992,0,0,1-2.6,2.24,12.245,12.245,0,0,1-3.72,1.4,26.272,26.272,0,0,1-5.48.48,48.768,48.768,0,0,1-5.04-.2,4.05,4.05,0,0,1-2.56-1.04,4.008,4.008,0,0,1-.96-2.44c-0.107-1.07-.16-2.56-0.16-4.48v-27.6a39.563,39.563,0,0,1,.2-4.28,7.361,7.361,0,0,1,.92-3,4.86,4.86,0,0,1,2.12-1.88,11.373,11.373,0,0,1,3.72-.92v-1.52c-1.707,0-3.573.01-5.6,0.04s-3.893.04-5.6,0.04S285.085,3948.2,282.978,3948.17Zm55.24,52.12c2.08,0,3.973.05,5.68,0.16v-1.36a9.546,9.546,0,0,1-3.72-1.04,5.29,5.29,0,0,1-2.12-2.16,8.965,8.965,0,0,1-.92-3.28,43.9,43.9,0,0,1-.2-4.48v-28.4a39.563,39.563,0,0,1,.2-4.28,7.361,7.361,0,0,1,.92-3,4.86,4.86,0,0,1,2.12-1.88,11.373,11.373,0,0,1,3.72-.92v-1.52c-1.707,0-3.573.01-5.6,0.04s-3.893.04-5.6,0.04-3.613-.01-5.72-0.04-4.013-.04-5.72-0.04v1.52a10.94,10.94,0,0,1,3.68.92,4.643,4.643,0,0,1,2.04,1.88,7.8,7.8,0,0,1,.88,3,39.563,39.563,0,0,1,.2,4.28v28.4a41.836,41.836,0,0,1-.2,4.36,9.856,9.856,0,0,1-.88,3.28,5.074,5.074,0,0,1-2.04,2.2,10.007,10.007,0,0,1-3.68,1.12v1.36q2.56-.075,5.64-0.12c2.053-.03,3.933-0.04,5.64-0.04h5.68Zm24.08-45.96q3.12-2.355,9.12-2.36a6,6,0,0,1,4.36,1.52q1.56,1.515,1.88,5.76h1.52l0.64-11.36a18.907,18.907,0,0,0-6.88-1.12,37.719,37.719,0,0,0-9.32,1.04,20.9,20.9,0,0,0-6.8,2.96,12.816,12.816,0,0,0-4.16,4.6,12.529,12.529,0,0,0-1.4,5.88,13.306,13.306,0,0,0,1.8,7.24,17.764,17.764,0,0,0,4.52,4.84,33.153,33.153,0,0,0,5.88,3.44,62.763,62.763,0,0,1,5.88,3.04,17.622,17.622,0,0,1,4.52,3.72,8.041,8.041,0,0,1,1.8,5.4,5.705,5.705,0,0,1-1.6,4.28,10.179,10.179,0,0,1-3.76,2.32,16.692,16.692,0,0,1-4.32.92c-1.44.11-2.56,0.16-3.36,0.16a27.465,27.465,0,0,1-3.6-.2,4.8,4.8,0,0,1-2.4-.96,5.61,5.61,0,0,1-1.6-2.32,21.566,21.566,0,0,1-1.12-4.2h-1.6l-0.48,11.12a29.609,29.609,0,0,0,4.96,1.44,27.539,27.539,0,0,0,5.52.56,47,47,0,0,0,7.72-.64,22.873,22.873,0,0,0,7.04-2.32,14.084,14.084,0,0,0,5.12-4.56,14.52,14.52,0,0,0,.12-14.36,18.387,18.387,0,0,0-4.64-4.88,37.23,37.23,0,0,0-6-3.56q-3.2-1.515-6-3.08a19.532,19.532,0,0,1-4.64-3.48,6.662,6.662,0,0,1-1.84-4.8A7.261,7.261,0,0,1,362.3,3954.33Zm55.4,46.16q3.161,0.045,5.72.12v-1.36a12.585,12.585,0,0,1-3.72-1,4.86,4.86,0,0,1-2.12-1.88,7.8,7.8,0,0,1-.96-3,33.631,33.631,0,0,1-.24-4.36v-28.4a25.482,25.482,0,0,1,.28-4.28,4.709,4.709,0,0,1,.96-2.32,2.87,2.87,0,0,1,1.8-.92,19.832,19.832,0,0,1,2.8-.16,18.123,18.123,0,0,1,5.16.6,8.661,8.661,0,0,1,3.16,1.64,7.585,7.585,0,0,1,1.88,2.44q0.679,1.395,1.32,3l1.12-.32q-0.079-1.275-.12-2.88c-0.027-1.07-.04-2.05-0.04-2.96,0-1.01.027-2.23,0.08-3.64a26.46,26.46,0,0,1,.32-3.48,21.06,21.06,0,0,1-2.56.44c-0.907.09-2.173,0.17-3.8,0.21s-3.773.09-6.44,0.11-6.16.04-10.48,0.04q-6.4,0-10.36-.04t-6.44-.11c-1.653-.04-2.92-0.12-3.8-0.21a15.631,15.631,0,0,1-2.36-.44q0.16,1.365.28,3.48c0.08,1.41.12,2.63,0.12,3.64,0,0.91-.027,1.89-0.08,2.96s-0.107,2.03-.16,2.88l1.2,0.32q0.64-1.605,1.36-3a8.11,8.11,0,0,1,1.92-2.44,8.661,8.661,0,0,1,3.16-1.64,22.5,22.5,0,0,1,7.84-.44,2.948,2.948,0,0,1,1.76.88,4.659,4.659,0,0,1,1,2.28,22.921,22.921,0,0,1,.32,4.36v28.4a39.563,39.563,0,0,1-.2,4.28,8.183,8.183,0,0,1-.88,3.04,4.559,4.559,0,0,1-2.04,1.92,12.068,12.068,0,0,1-3.68,1v1.36q2.56-.075,5.6-0.12c2.027-.03,3.893-0.04,5.6-0.04S415.591,4000.46,417.7,4000.49Zm74.6,0q3.16,0.045,5.8.12v-1.36a12.585,12.585,0,0,1-3.72-1,4.86,4.86,0,0,1-2.12-1.88,7.8,7.8,0,0,1-.96-3,33.631,33.631,0,0,1-.24-4.36v-29.28a32.959,32.959,0,0,1,.24-4.28,7.8,7.8,0,0,1,.96-3,4.86,4.86,0,0,1,2.12-1.88,11.373,11.373,0,0,1,3.72-.92v-1.52c-1.707,0-3.587.01-5.64,0.04s-3.933.04-5.64,0.04-3.6-.01-5.68-0.04-3.973-.04-5.68-0.04v1.52a10.775,10.775,0,0,1,3.6.92,4.9,4.9,0,0,1,2.08,1.88,7.361,7.361,0,0,1,.92,3,39.563,39.563,0,0,1,.2,4.28v10.24h-26.32v-10.24a39.563,39.563,0,0,1,.2-4.28,7.361,7.361,0,0,1,.92-3,4.86,4.86,0,0,1,2.12-1.88,11.373,11.373,0,0,1,3.72-.92v-1.52c-1.707,0-3.573.01-5.6,0.04s-3.893.04-5.6,0.04-3.613-.01-5.72-0.04-4.013-.04-5.72-0.04v1.52a10.94,10.94,0,0,1,3.68.92,4.643,4.643,0,0,1,2.04,1.88,7.8,7.8,0,0,1,.88,3,39.563,39.563,0,0,1,.2,4.28v29.28a39.563,39.563,0,0,1-.2,4.28,8.183,8.183,0,0,1-.88,3.04,4.559,4.559,0,0,1-2.04,1.92,12.068,12.068,0,0,1-3.68,1v1.36q2.56-.075,5.64-0.12c2.053-.03,3.933-0.04,5.64-0.04h5.68c2.08,0,3.973.05,5.68,0.16v-1.36a12.585,12.585,0,0,1-3.72-1,4.86,4.86,0,0,1-2.12-1.88,7.361,7.361,0,0,1-.92-3,40.37,40.37,0,0,1-.2-4.36v-13.6h26.32v13.6a39.563,39.563,0,0,1-.2,4.28,7.71,7.71,0,0,1-.92,3.04,4.8,4.8,0,0,1-2.08,1.92,11.944,11.944,0,0,1-3.6,1v1.36c1.653-.11,3.493-0.16,5.52-0.16h5.6C488.285,4000.45,490.191,4000.46,492.3,4000.49Zm33.28-25.08c1.653,0,3.093.03,4.32,0.08a11.171,11.171,0,0,1,3.12.52,4.362,4.362,0,0,1,1.96,1.24,4.076,4.076,0,0,1,.84,2.24h1.28q0-2.475-.04-3.96t-0.04-2.52q0-1.035.04-2.88c0.027-1.23.04-2.72,0.04-4.48h-1.28a4.79,4.79,0,0,1-.84,2.48,3.829,3.829,0,0,1-1.92,1.28,11.724,11.724,0,0,1-3.12.48c-1.253.05-2.707,0.08-4.36,0.08h-4.64v-9.36a35.64,35.64,0,0,1,.2-4.28,3.762,3.762,0,0,1,1-2.32,3.966,3.966,0,0,1,2.4-.92c1.067-.11,2.56-0.16,4.48-0.16a19.955,19.955,0,0,1,5.2.56,9.333,9.333,0,0,1,3.24,1.52,7.259,7.259,0,0,1,1.96,2.28,26.957,26.957,0,0,1,1.36,2.92l1.2-.08q-0.079-1.275-.16-3c-0.053-1.15-.08-2.17-0.08-3.08,0-1.01.04-2.12,0.12-3.32s0.173-2.25.28-3.16a65.478,65.478,0,0,1-7.24.45q-4.84.105-13.08,0.11h-16.56v1.52a10.94,10.94,0,0,1,3.68.92,4.643,4.643,0,0,1,2.04,1.88,7.8,7.8,0,0,1,.88,3,39.563,39.563,0,0,1,.2,4.28v29.36a39.563,39.563,0,0,1-.2,4.28,7.8,7.8,0,0,1-.88,3,4.905,4.905,0,0,1-2.04,1.92,11.191,11.191,0,0,1-3.68,1.04v1.36c2.827-.11,5.773-0.17,8.84-0.2s6.013-.04,8.84-0.04q6.72,0,11.56.08a44.63,44.63,0,0,1,7.64.64c0.16-.8.373-1.73,0.64-2.8s0.573-2.17.92-3.32,0.72-2.27,1.12-3.36a28.223,28.223,0,0,1,1.24-2.92l-0.96-.64c-0.8,1.07-1.573,2.05-2.32,2.96a9.778,9.778,0,0,1-2.84,2.32,15.565,15.565,0,0,1-4.28,1.52,32.306,32.306,0,0,1-6.64.56,41.03,41.03,0,0,1-4.64-.2,3.348,3.348,0,0,1-3.32-3.48c-0.08-1.07-.12-2.56-0.12-4.48v-11.92h4.64Zm62.52,21.72a1.5,1.5,0,0,1-.6.88,4.119,4.119,0,0,1-1.48.6,15.123,15.123,0,0,1-2.76.32v1.6q2.959-.075,5.24-0.12c1.52-.03,3.267-0.04,5.24-0.04,2.027,0,3.893.01,5.6,0.04s3.547,0.07,5.52.12v-1.6a9.06,9.06,0,0,1-3.4-.68,6.89,6.89,0,0,1-2.32-1.72,11.832,11.832,0,0,1-1.8-2.8q-0.8-1.68-1.76-3.84-1.92-4.245-4.2-9.72t-4.64-11.32q-2.36-5.835-4.52-11.64t-3.84-10.76l-2.56.32c-1.067,2.19-2.333,4.85-3.8,8s-3.013,6.48-4.64,10-3.253,7.05-4.88,10.6-3.12,6.79-4.48,9.72-2.533,5.4-3.52,7.4-1.613,3.21-1.88,3.64a5.127,5.127,0,0,1-2.04,1.8,13.967,13.967,0,0,1-4.12,1.08v1.52c0.854,0,1.6-.01,2.24-0.04s1.28-.05,1.92-0.08,1.307-.04,2-0.04h2.4q2.88,0,6.16.04t6.32,0.12v-1.6a21.939,21.939,0,0,1-3.24-.32,6.046,6.046,0,0,1-1.96-.68,2.458,2.458,0,0,1-1-1.04,3.285,3.285,0,0,1-.28-1.4,5.812,5.812,0,0,1,.12-0.96,17.937,17.937,0,0,1,.6-2.08q0.48-1.44,1.44-3.84t2.56-6.32h18.08q1.28,3.6,2.12,6.08c0.56,1.65,1.013,3,1.36,4.04s0.587,1.83.72,2.36a5.506,5.506,0,0,1,.2,1.12A5.6,5.6,0,0,1,588.1,3997.13Zm-12.68-37.4q2,5.355,3.6,9.6c1.067,2.83,2.027,5.41,2.88,7.76h-14Z"
                          transform="translate(-64.063 -3859.97)"></path>
                      </svg>