<svg xmlns="http://www.w3.org/2000/svg" viewBox="0 0 344 45">
                    <defs>
                      <style>
                        .ttl__world--type02 {
                          fill: #fff;
                        }
                      </style>
                    </defs>
                    <g id="レイヤー_2" data-name="レイヤー 2">
                      <g id="レイヤー_2-2" data-name="レイヤー 2">
                        <path class="ttl__world--type02"
                          d="M18.14,42.17l-4.29,0-4.24.08v-.75a8.24,8.24,0,0,0,2.89-.79,4.08,4.08,0,0,0,1.62-1.54,6.06,6.06,0,0,0,.73-2.4A30,30,0,0,0,15,33.43V10a19.22,19.22,0,0,0-.24-3.45A3.8,3.8,0,0,0,14,4.75a2.22,2.22,0,0,0-1.41-.7,18.13,18.13,0,0,0-2.16-.11,14.78,14.78,0,0,0-4.18.49A7.88,7.88,0,0,0,3.56,5.72,6.4,6.4,0,0,0,1.92,7.64,22.3,22.3,0,0,0,.76,10l-.6,0c0-.68.07-1.47.11-2.35s0-1.68,0-2.4S.3,3.56.24,2.56.11.72,0,0A15.13,15.13,0,0,0,1.86.35c.71.09,1.69.16,3,.22s3,.09,5.05.1,4.83,0,8.21,0,6.17,0,8.26,0,3.77-.05,5-.1S33.66.44,34.34.35s1.35-.21,2-.35c-.11.72-.19,1.58-.24,2.56S36,4.45,36,5.24s0,1.52,0,2.4.07,1.67.11,2.35l-.59,0a24.36,24.36,0,0,0-1.16-2.4,6.58,6.58,0,0,0-1.65-1.92,7.91,7.91,0,0,0-2.67-1.29,14.9,14.9,0,0,0-4.19-.49,15.24,15.24,0,0,0-2.24.14,2.15,2.15,0,0,0-1.4.75,3.87,3.87,0,0,0-.73,1.84A19.59,19.59,0,0,0,21.33,10V33.43a30.43,30.43,0,0,0,.16,3.42,5.8,5.8,0,0,0,.76,2.41,4,4,0,0,0,1.67,1.51,9.23,9.23,0,0,0,3,.76v.75l-4.37-.08Z">
                        </path>
                        <path class="ttl__world--type02"
                          d="M70.85,42.17H67.07c-1.37,0-2.61,0-3.73.11v-.92a7.81,7.81,0,0,0,2.43-.67,3.35,3.35,0,0,0,1.41-1.3,5.26,5.26,0,0,0,.62-2,26.72,26.72,0,0,0,.13-2.89V25.27H50.17v9.18a27.33,27.33,0,0,0,.13,2.94,5,5,0,0,0,.62,2,3.35,3.35,0,0,0,1.43,1.27,8.3,8.3,0,0,0,2.51.67v.92c-1.15-.07-2.43-.11-3.83-.11H47.2l-3.81,0-3.81.08v-.92a8.07,8.07,0,0,0,2.49-.67,3.08,3.08,0,0,0,1.37-1.3,5.44,5.44,0,0,0,.6-2,26.72,26.72,0,0,0,.13-2.89V14.69A26.72,26.72,0,0,0,44,11.8a5.22,5.22,0,0,0-.6-2A3.13,3.13,0,0,0,42.07,8.5a7.65,7.65,0,0,0-2.49-.62v-1l3.86,0,3.86,0,3.78,0,3.78,0v1a7.85,7.85,0,0,0-2.51.62,3.35,3.35,0,0,0-1.43,1.27,5.06,5.06,0,0,0-.62,2,26.72,26.72,0,0,0-.13,2.89V21.6H67.93V14.69a26.72,26.72,0,0,0-.13-2.89,5.06,5.06,0,0,0-.62-2A3.42,3.42,0,0,0,65.77,8.5a7.39,7.39,0,0,0-2.43-.62v-1l3.84,0,3.83,0,3.81,0,3.8,0v1a7.85,7.85,0,0,0-2.51.62,3.29,3.29,0,0,0-1.43,1.27,5.39,5.39,0,0,0-.65,2,23.75,23.75,0,0,0-.16,2.89V34.45A24.27,24.27,0,0,0,74,37.39a5.33,5.33,0,0,0,.65,2,3.29,3.29,0,0,0,1.43,1.27,8.3,8.3,0,0,0,2.51.67v.92l-3.91-.08Z">
                        </path>
                        <path class="ttl__world--type02"
                          d="M94.07,25.27v8.05c0,1.29,0,2.3.08,3a2.26,2.26,0,0,0,2.24,2.35,26.87,26.87,0,0,0,3.13.14,21.71,21.71,0,0,0,4.48-.38,10.56,10.56,0,0,0,2.89-1,6.63,6.63,0,0,0,1.92-1.56c.5-.62,1-1.28,1.57-2l.64.43a18.88,18.88,0,0,0-.83,2c-.27.74-.53,1.49-.76,2.27s-.44,1.52-.62,2.24-.33,1.35-.43,1.89a29.77,29.77,0,0,0-5.16-.43q-3.27-.06-7.8-.06l-6,0c-2.07,0-4.06.06-6,.14v-.92a7.93,7.93,0,0,0,2.49-.7,3.32,3.32,0,0,0,1.37-1.3,5.17,5.17,0,0,0,.6-2,26.65,26.65,0,0,0,.13-2.88V14.69a26.72,26.72,0,0,0-.13-2.89,5.22,5.22,0,0,0-.6-2A3.13,3.13,0,0,0,86,8.5a7.58,7.58,0,0,0-2.49-.62v-1H94.66c3.71,0,6.65,0,8.83-.07a43.41,43.41,0,0,0,4.89-.31c-.08.61-.14,1.32-.19,2.13s-.08,1.56-.08,2.24,0,1.31,0,2.08.07,1.45.11,2l-.81,0a19.16,19.16,0,0,0-.92-2,4.84,4.84,0,0,0-1.32-1.54,6.37,6.37,0,0,0-2.19-1,13,13,0,0,0-3.51-.38,29.53,29.53,0,0,0-3,.11,2.68,2.68,0,0,0-1.62.62,2.52,2.52,0,0,0-.68,1.56,24.21,24.21,0,0,0-.13,2.89V21.6H97.2c1.11,0,2.1,0,2.94-.05a8.27,8.27,0,0,0,2.11-.33,2.57,2.57,0,0,0,1.29-.86,3.21,3.21,0,0,0,.57-1.68H105c0,1.19,0,2.2,0,3s0,1.47,0,1.94,0,1,0,1.7,0,1.56,0,2.68h-.86a2.73,2.73,0,0,0-.57-1.52,2.89,2.89,0,0,0-1.32-.83,7.31,7.31,0,0,0-2.11-.35c-.82,0-1.8-.06-2.91-.06Z">
                        </path>
                        <path class="ttl__world--type02"
                          d="M161.78,3.62a4.13,4.13,0,0,0-.11-1.11,1.56,1.56,0,0,0-.29-.62,1.79,1.79,0,0,0-.43-.35,1.93,1.93,0,0,1-.46-.35V.65h7.34q1.18,0,1.89,0l1.13,0v.65a1.55,1.55,0,0,0-.83.84,5.14,5.14,0,0,0-.14,1.38,14.1,14.1,0,0,0,.54,3.42Q171,9,172,12.42c.7,2.3,1.59,5.16,2.67,8.56s2.34,7.57,3.78,12.5q2.21-6.54,3.86-11.42t2.73-8.34q1.08-3.47,1.62-5.59a14.45,14.45,0,0,0,.54-3.27A3,3,0,0,0,187,3.64a2.42,2.42,0,0,0-.83-1,4.89,4.89,0,0,0-1.62-.71,12.42,12.42,0,0,0-2.6-.32v-1l2.11,0,1.62.06c.5,0,1,0,1.57,0h1.94l4.54,0,4.37-.08v.86a6.11,6.11,0,0,0-3.24,1.11,8.42,8.42,0,0,0-1.57,1.75,23,23,0,0,0-1.08,2.49q-.75,1.93-1.8,4.89T188,18.44q-1.35,3.75-2.94,7.91t-3.35,8.51q-1.76,4.34-3.59,8.45l-1.84.11q-1.67-4.86-3.07-9.32t-2.7-8.67c-.87-2.8-1.72-5.57-2.57-8.29s-1.75-5.42-2.73-8.12q-1.12,2.91-2.48,7t-2.92,8.72q-1.56,4.62-3.34,9.45t-3.73,9.1l-1.83.11q-1.78-5.09-3.22-9.43t-2.78-8.39c-.9-2.7-1.8-5.38-2.7-8s-1.85-5.41-2.86-8.29A32,32,0,0,0,138,6.07a10.36,10.36,0,0,0-1.46-2.32,6,6,0,0,0-1.89-1.48,6.8,6.8,0,0,0-2.59-.65v-1l4.84.08,4.88,0h1.95c.5,0,1,0,1.43,0l1.46-.06,2,0v1a11,11,0,0,0-2.22.35,3.34,3.34,0,0,0-1.24.62,1.58,1.58,0,0,0-.54.89,5.37,5.37,0,0,0-.11,1.06,11.5,11.5,0,0,0,.38,2.16q.38,1.56,1.35,4.86t2.65,8.61q1.67,5.31,4.21,13.31,4.42-13.12,6.56-20.39T161.78,3.62Z">
                        </path>
                        <path class="ttl__world--type02"
                          d="M193.75,24.52a18.73,18.73,0,0,1,1.46-7.38,18,18,0,0,1,4.08-6,19.07,19.07,0,0,1,6.21-4,21.73,21.73,0,0,1,15.66,0,19.28,19.28,0,0,1,6.21,4,18.63,18.63,0,0,1,0,26.67,19.12,19.12,0,0,1-6.21,4,21.73,21.73,0,0,1-15.66,0,18.91,18.91,0,0,1-6.21-4,18,18,0,0,1-4.08-6A18.71,18.71,0,0,1,193.75,24.52Zm6.48-.06a17.84,17.84,0,0,0,1.05,6.24,15.18,15.18,0,0,0,2.87,4.86,13.21,13.21,0,0,0,4.18,3.16,11.85,11.85,0,0,0,10.1,0,13,13,0,0,0,4.16-3.16,15.47,15.47,0,0,0,2.83-4.86,17.84,17.84,0,0,0,1.05-6.24,17.84,17.84,0,0,0-1.05-6.24,15.47,15.47,0,0,0-2.83-4.86,12.65,12.65,0,0,0-4.16-3.13,12.14,12.14,0,0,0-10.1,0,12.83,12.83,0,0,0-4.18,3.13,15.18,15.18,0,0,0-2.87,4.86A17.84,17.84,0,0,0,200.23,24.46Z">
                        </path>
                        <path class="ttl__world--type02"
                          d="M241.65,42.17l-3.81,0-3.81.08v-.92a7.91,7.91,0,0,0,2.49-.67,3.08,3.08,0,0,0,1.37-1.3,5.44,5.44,0,0,0,.6-2,26.72,26.72,0,0,0,.13-2.89V14.69a26.72,26.72,0,0,0-.13-2.89,5.22,5.22,0,0,0-.6-2,3.13,3.13,0,0,0-1.37-1.27A7.51,7.51,0,0,0,234,7.88v-1l3.78,0,3.78,0c1,0,2.29-.06,3.73-.19s2.79-.19,4.05-.19q6.81,0,10.1,2.51a8,8,0,0,1,3.29,6.67,13.3,13.3,0,0,1-.62,4.08,10.07,10.07,0,0,1-1.92,3.46A11.39,11.39,0,0,1,257,25.87a14.57,14.57,0,0,1-4.67,1.51l7.23,7.77c.94,1.05,1.77,1.91,2.49,2.6a18.42,18.42,0,0,0,2.07,1.72,11.13,11.13,0,0,0,2.06,1.16,14.69,14.69,0,0,0,2.35.79l-.33.92c-.94-.08-1.88-.12-2.83-.14l-2.14,0h-1.62q-1.12,0-1.89.06-.27-.27-1.05-1.14L256.74,39l-2.46-2.73c-.9-1-1.82-2-2.78-3s-1.91-2-2.86-3-1.85-1.85-2.67-2.65h-1.35v6.86a27.33,27.33,0,0,0,.13,2.94,5,5,0,0,0,.62,2,3.35,3.35,0,0,0,1.43,1.27,8.29,8.29,0,0,0,2.52.67v.92l-3.84-.08Zm3-18h2.91a13.78,13.78,0,0,0,3.24-.38,8.68,8.68,0,0,0,2.92-1.24,6.57,6.57,0,0,0,2.11-2.32,7.49,7.49,0,0,0,.81-3.67,7,7,0,0,0-.36-2A5.71,5.71,0,0,0,255,12.37a7.42,7.42,0,0,0-2.6-1.76,10.8,10.8,0,0,0-4.32-.73,5.36,5.36,0,0,0-1.72.22,2,2,0,0,0-1.06.81,3.88,3.88,0,0,0-.54,1.73,26.2,26.2,0,0,0-.13,3Z">
                        </path>
                        <path class="ttl__world--type02"
                          d="M277.29,6.91l3.78,0,3.78,0v1a7.78,7.78,0,0,0-2.51.62,3.29,3.29,0,0,0-1.43,1.27,4.76,4.76,0,0,0-.62,2,24.16,24.16,0,0,0-.14,2.89V33.32c0,1.29,0,2.3.11,3a2.31,2.31,0,0,0,2.37,2.35,32.12,32.12,0,0,0,3.41.14,17.37,17.37,0,0,0,3.69-.33,8.28,8.28,0,0,0,2.52-.94A6.92,6.92,0,0,0,294,36c.49-.59,1-1.25,1.54-2l.65.44a19.08,19.08,0,0,0-.84,1.94c-.27.72-.52,1.45-.76,2.19s-.44,1.45-.62,2.16-.32,1.32-.43,1.86a24.73,24.73,0,0,0-4.89-.49q-3,0-7.53-.05l-5.78,0c-1.94,0-3.87.06-5.77.13v-.92a7.92,7.92,0,0,0,2.48-.67,3.16,3.16,0,0,0,1.38-1.3,5.63,5.63,0,0,0,.59-2,26.46,26.46,0,0,0,.14-2.89V14.69A26.46,26.46,0,0,0,274,11.8a5.4,5.4,0,0,0-.59-2,3.22,3.22,0,0,0-1.38-1.27,7.51,7.51,0,0,0-2.48-.62v-1l3.86,0Z">
                        </path>
                        <path class="ttl__world--type02"
                          d="M305.8,42.17l-3.72,0-3.73.08v-.92a7.92,7.92,0,0,0,2.48-.67,3.16,3.16,0,0,0,1.38-1.3,5.63,5.63,0,0,0,.59-2,26.46,26.46,0,0,0,.14-2.89V14.69a26.46,26.46,0,0,0-.14-2.89,5.4,5.4,0,0,0-.59-2,3.22,3.22,0,0,0-1.38-1.27,7.51,7.51,0,0,0-2.48-.62v-1l3.78,0,3.78,0c1,0,2,0,2.84,0l2.36-.11,2.08-.11c.66,0,1.36,0,2.08,0q10.75,0,16,4.18t5.25,13.1a19.55,19.55,0,0,1-1.22,6.77,16.49,16.49,0,0,1-3.76,5.92A18.47,18.47,0,0,1,325,40.72a26,26,0,0,1-9.49,1.56c-1.12,0-2.07,0-2.87,0l-2.21,0-2.11,0C307.62,42.18,306.78,42.17,305.8,42.17ZM315.41,10c-1.55,0-2.75.05-3.62.14a3.42,3.42,0,0,0-1.94.7,2.7,2.7,0,0,0-.78,1.81,33,33,0,0,0-.14,3.4V33.21a12.17,12.17,0,0,0,.3,3,2.83,2.83,0,0,0,1.11,1.67,4.74,4.74,0,0,0,2.26.73,34.94,34.94,0,0,0,3.78.17,15.69,15.69,0,0,0,6.35-1.16A12.15,12.15,0,0,0,327,34.59a11.8,11.8,0,0,0,2.43-4.38,16.64,16.64,0,0,0,.76-5q0-7.24-3.65-11.21T315.41,10Z">
                        </path>
                      </g>
                    </g>
                  </svg>