<svg class="u-pc" viewBox="0 0 967 56" xmlns="http://www.w3.org/2000/svg">
                        <defs>
                          <style>
                            .ttl__theRealmsofValisthea--type01 {
                              fill: #eee;
                              fill-rule: evenodd;
                            }
                          </style>
                        </defs>
                        <path id="The_Realms_of_Valisthea.svg" data-name="The Realms of Valisthea.svg"
                          class="ttl__theRealmsofValisthea--type01"
                          d="M227.9,2522.48c2.006,0.03,3.9.06,5.67,0.11v-0.98a11.77,11.77,0,0,1-3.85-.98,5.222,5.222,0,0,1-2.17-1.96,7.54,7.54,0,0,1-.98-3.12,40.042,40.042,0,0,1-.21-4.44V2480.8a26.41,26.41,0,0,1,.28-4.38,5.126,5.126,0,0,1,.945-2.38,2.854,2.854,0,0,1,1.82-.98,21.033,21.033,0,0,1,2.905-.17,19.56,19.56,0,0,1,5.425.63,10.217,10.217,0,0,1,3.465,1.68,8.427,8.427,0,0,1,2.135,2.48,30.386,30.386,0,0,1,1.5,3.12l0.77-.07c-0.047-.89-0.094-1.9-0.14-3.05s-0.07-2.18-.07-3.11c0-1.03.035-2.18,0.1-3.47s0.175-2.39.315-3.32q-1.26.285-2.59,0.45c-0.887.12-2.159,0.21-3.815,0.28s-3.839.12-6.545,0.14-6.277.04-10.71,0.04q-6.581,0-10.64-.04t-6.545-.14c-1.657-.07-2.94-0.16-3.85-0.28a17.139,17.139,0,0,1-2.415-.45c0.14,0.93.245,2.04,0.315,3.32s0.1,2.44.1,3.47c0,0.93-.024,1.97-0.07,3.11s-0.094,2.16-.14,3.05l0.77,0.07a29.976,29.976,0,0,1,1.505-3.12,8.4,8.4,0,0,1,2.135-2.48,10.2,10.2,0,0,1,3.465-1.68,19.55,19.55,0,0,1,5.425-.63,23.93,23.93,0,0,1,2.8.14,2.85,2.85,0,0,1,1.82.91,4.92,4.92,0,0,1,1.015,2.38,24.628,24.628,0,0,1,.315,4.48v30.31a39.325,39.325,0,0,1-.21,4.37,7.908,7.908,0,0,1-.945,3.12,5.239,5.239,0,0,1-2.1,1.99,10.709,10.709,0,0,1-3.745,1.02v0.98c1.726-.05,3.558-0.08,5.5-0.11s3.791-.03,5.565-0.03S225.891,2522.46,227.9,2522.48Zm67.445,0c1.843,0.03,3.535.06,5.075,0.11v-1.19a10.993,10.993,0,0,1-3.255-.88,4.216,4.216,0,0,1-1.855-1.64,6.848,6.848,0,0,1-.84-2.63,29.412,29.412,0,0,1-.21-3.81v-25.62a28.853,28.853,0,0,1,.21-3.75,6.8,6.8,0,0,1,.84-2.62,4.3,4.3,0,0,1,1.855-1.65,10.052,10.052,0,0,1,3.255-.8v-1.33q-2.241,0-4.935.03c-1.8.03-3.442,0.04-4.935,0.04s-3.15-.01-4.97-0.04-3.477-.03-4.97-0.03V2478a9.533,9.533,0,0,1,3.15.8,4.341,4.341,0,0,1,1.82,1.65,6.427,6.427,0,0,1,.805,2.62,34.731,34.731,0,0,1,.175,3.75v8.96h-23.03v-8.96a34.475,34.475,0,0,1,.175-3.75,6.411,6.411,0,0,1,.805-2.62,4.3,4.3,0,0,1,1.855-1.65,10.052,10.052,0,0,1,3.255-.8v-1.33q-2.241,0-4.9.03c-1.774.03-3.407,0.04-4.9,0.04s-3.162-.01-5-0.04-3.512-.03-5-0.03V2478a9.68,9.68,0,0,1,3.22.8,4.116,4.116,0,0,1,1.785,1.65,6.82,6.82,0,0,1,.77,2.62,34.731,34.731,0,0,1,.175,3.75v25.62a34.533,34.533,0,0,1-.175,3.74,7.143,7.143,0,0,1-.77,2.66,3.955,3.955,0,0,1-1.785,1.68,10.556,10.556,0,0,1-3.22.88v1.19c1.493-.05,3.138-0.08,4.935-0.11s3.441-.03,4.935-0.03h4.97c1.82,0,3.476.05,4.97,0.14v-1.19a10.993,10.993,0,0,1-3.255-.88,4.216,4.216,0,0,1-1.855-1.64,6.46,6.46,0,0,1-.805-2.63,35.145,35.145,0,0,1-.175-3.81v-11.9h23.03v11.9a34.533,34.533,0,0,1-.175,3.74,6.724,6.724,0,0,1-.805,2.66,4.16,4.16,0,0,1-1.82,1.68,10.447,10.447,0,0,1-3.15.88v1.19c1.446-.09,3.056-0.14,4.83-0.14h4.9Q292.578,2522.45,295.343,2522.48Zm29.245-21.94c1.446,0,2.706.02,3.78,0.07a10.178,10.178,0,0,1,2.73.45,3.829,3.829,0,0,1,1.715,1.09,3.592,3.592,0,0,1,.735,1.96h1.12c0-1.45-.012-2.6-0.035-3.47s-0.035-1.59-.035-2.2,0.011-1.45.035-2.52,0.035-2.38.035-3.92h-1.12a4.2,4.2,0,0,1-.735,2.17,3.356,3.356,0,0,1-1.68,1.12,10.8,10.8,0,0,1-2.73.42c-1.1.05-2.369,0.07-3.815,0.07h-4.06v-8.19a31.075,31.075,0,0,1,.175-3.75,3.3,3.3,0,0,1,.875-2.03,3.467,3.467,0,0,1,2.1-.8c0.933-.09,2.24-0.14,3.92-0.14a17.2,17.2,0,0,1,4.55.49,8.287,8.287,0,0,1,2.835,1.33,6.343,6.343,0,0,1,1.715,1.99,24.33,24.33,0,0,1,1.19,2.56l1.05-.07c-0.047-.75-0.094-1.62-0.14-2.63s-0.07-1.9-.07-2.69q0-1.335.105-2.91t0.245-2.76a56.966,56.966,0,0,1-6.335.4q-4.236.09-11.445,0.09h-14.49V2478a9.68,9.68,0,0,1,3.22.8,4.116,4.116,0,0,1,1.785,1.65,6.82,6.82,0,0,1,.77,2.62,34.731,34.731,0,0,1,.175,3.75v25.69a34.533,34.533,0,0,1-.175,3.74,6.873,6.873,0,0,1-.77,2.63,4.3,4.3,0,0,1-1.785,1.68,9.954,9.954,0,0,1-3.22.91v1.19q3.71-.135,7.735-0.18,4.024-.03,7.735-0.03,5.88,0,10.115.07a39.061,39.061,0,0,1,6.685.56c0.14-.7.326-1.52,0.56-2.45s0.5-1.9.805-2.91,0.63-1.98.98-2.94a25.462,25.462,0,0,1,1.085-2.55l-0.84-.56c-0.7.93-1.377,1.8-2.03,2.59a8.671,8.671,0,0,1-2.485,2.03,13.84,13.84,0,0,1-3.745,1.33,27.836,27.836,0,0,1-5.81.49,34.236,34.236,0,0,1-4.06-.18,2.929,2.929,0,0,1-2.905-3.04c-0.07-.93-0.1-2.24-0.1-3.92v-10.43h4.06Zm64.15,21.94c2.006,0.03,3.9.06,5.67,0.11v-0.98a10.1,10.1,0,0,1-3.85-1.09,5.591,5.591,0,0,1-2.17-2.2,8.834,8.834,0,0,1-.98-3.36,43.264,43.264,0,0,1-.21-4.55v-10.5h5.18q2.87,2.73,6.265,6.33,3.395,3.615,6.475,7.04c2.053,2.29,3.85,4.29,5.39,6.02s2.52,2.8,2.94,3.22c0.793-.05,1.691-0.07,2.695-0.07h2.275q0.98,0,3.115.03,2.135,0.045,4.375.18l0.28-.98a16.392,16.392,0,0,1-6.51-3.08,31.331,31.331,0,0,1-3.115-2.77q-1.645-1.635-3.815-4.02l-11.55-12.53a22.149,22.149,0,0,0,6.44-2.42,18.957,18.957,0,0,0,4.9-3.95,17.081,17.081,0,0,0,3.115-5.08,15.625,15.625,0,0,0,1.085-5.77,11.657,11.657,0,0,0-5.39-10.4q-5.391-3.525-15.75-3.53c-0.934,0-1.949.03-3.045,0.1l-3.325.21q-1.68.105-3.22,0.18c-1.027.05-1.937,0.07-2.73,0.07-1.774,0-3.652-.01-5.635-0.04s-3.862-.03-5.635-0.03v1.12a11.242,11.242,0,0,1,3.745.98,5.149,5.149,0,0,1,2.1,1.92,7.658,7.658,0,0,1,.945,3.08,39.645,39.645,0,0,1,.21,4.38v30.31a42.532,42.532,0,0,1-.21,4.48,9.285,9.285,0,0,1-.945,3.36,5.722,5.722,0,0,1-2.1,2.24,9.3,9.3,0,0,1-3.745,1.12v0.98c1.726-.05,3.558-0.08,5.5-0.11s3.791-.03,5.565-0.03S386.731,2522.46,388.738,2522.48Zm-1.54-41.19a33.264,33.264,0,0,1,.245-4.52,5.156,5.156,0,0,1,1.05-2.66,3.945,3.945,0,0,1,2.24-1.26,18.533,18.533,0,0,1,3.815-.31,17.167,17.167,0,0,1,6.79,1.15,11.813,11.813,0,0,1,4.165,2.84,9.738,9.738,0,0,1,2.1,3.57,11.233,11.233,0,0,1,.595,3.29,12.133,12.133,0,0,1-1.12,5.42,10.422,10.422,0,0,1-3.045,3.75,12.91,12.91,0,0,1-4.585,2.17,22.353,22.353,0,0,1-5.74.7H387.2v-14.14Zm57.19,19.25c1.446,0,2.706.02,3.78,0.07a10.178,10.178,0,0,1,2.73.45,3.829,3.829,0,0,1,1.715,1.09,3.592,3.592,0,0,1,.735,1.96h1.12c0-1.45-.012-2.6-0.035-3.47s-0.035-1.59-.035-2.2,0.011-1.45.035-2.52,0.035-2.38.035-3.92h-1.12a4.2,4.2,0,0,1-.735,2.17,3.356,3.356,0,0,1-1.68,1.12,10.8,10.8,0,0,1-2.73.42c-1.1.05-2.369,0.07-3.815,0.07h-4.06v-8.19a31.075,31.075,0,0,1,.175-3.75,3.3,3.3,0,0,1,.875-2.03,3.467,3.467,0,0,1,2.1-.8c0.933-.09,2.24-0.14,3.92-0.14a17.2,17.2,0,0,1,4.55.49,8.287,8.287,0,0,1,2.835,1.33,6.343,6.343,0,0,1,1.715,1.99,24.33,24.33,0,0,1,1.19,2.56l1.05-.07c-0.047-.75-0.094-1.62-0.14-2.63s-0.07-1.9-.07-2.69q0-1.335.1-2.91t0.245-2.76a56.966,56.966,0,0,1-6.335.4q-4.236.09-11.445,0.09h-14.49V2478a9.68,9.68,0,0,1,3.22.8,4.116,4.116,0,0,1,1.785,1.65,6.82,6.82,0,0,1,.77,2.62,34.731,34.731,0,0,1,.175,3.75v25.69a34.533,34.533,0,0,1-.175,3.74,6.873,6.873,0,0,1-.77,2.63,4.3,4.3,0,0,1-1.785,1.68,9.954,9.954,0,0,1-3.22.91v1.19q3.709-.135,7.735-0.18,4.024-.03,7.735-0.03,5.88,0,10.115.07a39.061,39.061,0,0,1,6.685.56c0.14-.7.326-1.52,0.56-2.45s0.5-1.9.805-2.91,0.63-1.98.98-2.94a25.462,25.462,0,0,1,1.085-2.55l-0.84-.56c-0.7.93-1.377,1.8-2.03,2.59a8.671,8.671,0,0,1-2.485,2.03,13.84,13.84,0,0,1-3.745,1.33,27.836,27.836,0,0,1-5.81.49,34.236,34.236,0,0,1-4.06-.18,2.929,2.929,0,0,1-2.905-3.04c-0.07-.93-0.105-2.24-0.105-3.92v-10.43h4.06Zm54.455,19a1.3,1.3,0,0,1-.525.77,3.6,3.6,0,0,1-1.295.53,13.824,13.824,0,0,1-2.415.28v1.4c1.726-.05,3.255-0.08,4.585-0.11s2.858-.03,4.585-0.03q2.659,0,4.9.03c1.493,0.03,3.1.06,4.83,0.11v-1.4a8.044,8.044,0,0,1-2.975-.6,6.092,6.092,0,0,1-2.03-1.5,10.2,10.2,0,0,1-1.575-2.45q-0.7-1.47-1.54-3.36-1.68-3.705-3.675-8.51-2-4.785-4.06-9.9t-3.955-10.19q-1.89-5.07-3.36-9.41l-2.24.28c-0.934,1.91-2.042,4.25-3.325,7s-2.637,5.67-4.06,8.75-2.847,6.17-4.27,9.27-2.73,5.94-3.92,8.51-2.217,4.72-3.08,6.47-1.412,2.82-1.645,3.19a4.494,4.494,0,0,1-1.785,1.57,11.826,11.826,0,0,1-3.6.95v1.33c0.747,0,1.4-.01,1.96-0.04s1.12-.04,1.68-0.07,1.143-.03,1.75-0.03h2.1q2.52,0,5.39.03c1.913,0.03,3.756.06,5.53,0.11v-1.4a20.071,20.071,0,0,1-2.835-.28,5.138,5.138,0,0,1-1.715-.6,2.127,2.127,0,0,1-.875-0.91,2.826,2.826,0,0,1-.245-1.22,4.938,4.938,0,0,1,.1-0.84,16.059,16.059,0,0,1,.525-1.82q0.42-1.26,1.26-3.36t2.24-5.53H495.1q1.119,3.15,1.855,5.32c0.49,1.45.886,2.62,1.19,3.53s0.513,1.6.63,2.07A3.814,3.814,0,0,1,498.843,2519.54Zm-11.1-32.72q1.749,4.695,3.15,8.4c0.933,2.47,1.773,4.74,2.52,6.79h-12.25Zm32.865-10.12q-2.766-.03-5.005-0.03V2478a9.68,9.68,0,0,1,3.22.8,4.116,4.116,0,0,1,1.785,1.65,6.82,6.82,0,0,1,.77,2.62,34.731,34.731,0,0,1,.175,3.75v25.62a34.533,34.533,0,0,1-.175,3.74,7.143,7.143,0,0,1-.77,2.66,3.955,3.955,0,0,1-1.785,1.68,10.556,10.556,0,0,1-3.22.88v1.19q3.71-.135,7.49-0.18,3.78-.03,7.49-0.03,5.88,0,9.765.07a32.4,32.4,0,0,1,6.335.63c0.14-.7.326-1.51,0.56-2.42s0.5-1.84.8-2.8,0.63-1.9.98-2.83a26.884,26.884,0,0,1,1.085-2.52l-0.84-.56q-1.05,1.4-2,2.55a8.679,8.679,0,0,1-2.275,1.96,10.567,10.567,0,0,1-3.255,1.23,23,23,0,0,1-4.8.42,40.69,40.69,0,0,1-4.41-.18,2.99,2.99,0,0,1-3.08-3.04c-0.094-.93-0.14-2.24-0.14-3.92v-24.15a34.475,34.475,0,0,1,.175-3.75,6.411,6.411,0,0,1,.8-2.62,4.3,4.3,0,0,1,1.855-1.65,10.052,10.052,0,0,1,3.255-.8v-1.33q-2.241,0-4.9.03c-1.774.03-3.407,0.04-4.9,0.04S522.456,2476.73,520.613,2476.7Zm62.695,44.21,14.7-31.08,2.17,24.01a4.117,4.117,0,0,0,.035.59,3.877,3.877,0,0,1,.035.53,8.682,8.682,0,0,1-.455,3.15,4.276,4.276,0,0,1-1.225,1.75,4.374,4.374,0,0,1-1.855.87c-0.724.17-1.5,0.32-2.345,0.46v1.33c1.493,0,3.126-.01,4.9-0.04s3.406-.03,4.9-0.03,3,0.01,4.515.03,3.021,0.04,4.515.04v-1.33a20.088,20.088,0,0,1-2.415-.49,3.57,3.57,0,0,1-1.68-.98,4.919,4.919,0,0,1-1.05-2.07,18.617,18.617,0,0,1-.525-3.81l-2.24-39.62h-3.15l-19.32,37.03-19.53-37.03h-2.31l-3.01,39.62a17.283,17.283,0,0,1-.665,3.81,4.817,4.817,0,0,1-1.225,2.07,4.317,4.317,0,0,1-1.82.98,21.891,21.891,0,0,1-2.45.49v1.33c1.493,0,2.94-.01,4.34-0.04s2.846-.03,4.34-0.03,3.01,0.01,4.55.03,3.056,0.04,4.55.04v-1.33q-3.5-.63-4.865-1.96a5.542,5.542,0,0,1-1.365-4.13v-0.63a3.166,3.166,0,0,1,.07-0.63l1.68-23.8,15.68,31.01Zm42.96-38.82q2.73-2.055,7.98-2.06a5.223,5.223,0,0,1,3.815,1.33q1.365,1.335,1.645,5.04h1.33l0.56-9.94a16.68,16.68,0,0,0-6.02-.98,32.706,32.706,0,0,0-8.155.91,18.418,18.418,0,0,0-5.95,2.59,11.248,11.248,0,0,0-3.64,4.02,10.968,10.968,0,0,0-1.225,5.15,11.6,11.6,0,0,0,1.575,6.33,15.553,15.553,0,0,0,3.955,4.24,28.607,28.607,0,0,0,5.145,3.01,56.618,56.618,0,0,1,5.145,2.66,15.36,15.36,0,0,1,3.955,3.25,7.072,7.072,0,0,1,1.575,4.73,4.973,4.973,0,0,1-1.4,3.74,8.829,8.829,0,0,1-3.29,2.03,14.215,14.215,0,0,1-3.78.81c-1.26.09-2.24,0.14-2.94,0.14a22.887,22.887,0,0,1-3.15-.18,4.134,4.134,0,0,1-2.1-.84,4.862,4.862,0,0,1-1.4-2.03,18.781,18.781,0,0,1-.98-3.67h-1.4l-0.42,9.73a27.111,27.111,0,0,0,4.34,1.26,23.644,23.644,0,0,0,4.83.49,41.824,41.824,0,0,0,6.755-.56,19.858,19.858,0,0,0,6.16-2.03,12.332,12.332,0,0,0,4.48-3.99,11.073,11.073,0,0,0,1.715-6.37,11.206,11.206,0,0,0-1.61-6.2,16.161,16.161,0,0,0-4.06-4.27,33.048,33.048,0,0,0-5.25-3.11q-2.8-1.335-5.25-2.7a17.059,17.059,0,0,1-4.06-3.04,5.828,5.828,0,0,1-1.61-4.2A6.362,6.362,0,0,1,626.268,2482.09Zm45.43,27.02a23.31,23.31,0,0,0,5.285,7.74,24.915,24.915,0,0,0,8.05,5.18,28.2,28.2,0,0,0,20.3,0,24.937,24.937,0,0,0,8.05-5.18,24.14,24.14,0,0,0,0-34.58,24.937,24.937,0,0,0-8.05-5.18,28.2,28.2,0,0,0-20.3,0,24.915,24.915,0,0,0-8.05,5.18A23.371,23.371,0,0,0,671.7,2490,25.1,25.1,0,0,0,671.7,2509.11Zm7.875-17.71a19.551,19.551,0,0,1,3.71-6.3,16.688,16.688,0,0,1,5.425-4.06,15.693,15.693,0,0,1,13.09,0,16.328,16.328,0,0,1,5.39,4.06,19.922,19.922,0,0,1,3.675,6.3,24.627,24.627,0,0,1,0,16.17,19.922,19.922,0,0,1-3.675,6.3,16.727,16.727,0,0,1-5.39,4.1,15.305,15.305,0,0,1-13.09,0,17.1,17.1,0,0,1-5.425-4.1,19.551,19.551,0,0,1-3.71-6.3A24.627,24.627,0,0,1,679.573,2491.4Zm66.975,9.14c1.446,0,2.648.02,3.605,0.07a6.88,6.88,0,0,1,2.31.45,2.965,2.965,0,0,1,1.33,1.09,4.555,4.555,0,0,1,.6,1.96h1.19c-0.047-1.45-.07-2.6-0.07-3.47v-4.72c0-1.07.023-2.38,0.07-3.92h-1.19a5.843,5.843,0,0,1-.56,2.17,2.459,2.459,0,0,1-1.295,1.12,7.609,7.609,0,0,1-2.345.42c-0.98.05-2.194,0.07-3.64,0.07h-6.02v-8.89a31.075,31.075,0,0,1,.175-3.75,2.948,2.948,0,0,1,1.015-2.03,4.722,4.722,0,0,1,2.555-.8c1.143-.09,2.718-0.14,4.725-0.14a14.682,14.682,0,0,1,4.2.49,7.177,7.177,0,0,1,2.59,1.33,7.031,7.031,0,0,1,1.61,1.99,24.33,24.33,0,0,1,1.19,2.56l1.05-.07c-0.047-.75-0.094-1.62-0.14-2.63s-0.07-1.9-.07-2.69c0-.89.035-1.74,0.105-2.56s0.151-1.62.245-2.41a20.489,20.489,0,0,1-2.415.31c-0.91.07-2,.12-3.255,0.14s-2.765.05-4.515,0.07-3.815.04-6.195,0.04h-8.3c-1.517,0-3-.01-4.445-0.04s-2.73-.03-3.85-0.03V2478a9.68,9.68,0,0,1,3.22.8,4.116,4.116,0,0,1,1.785,1.65,6.82,6.82,0,0,1,.77,2.62,34.731,34.731,0,0,1,.175,3.75v25.62a34.533,34.533,0,0,1-.175,3.74,7.143,7.143,0,0,1-.77,2.66,3.955,3.955,0,0,1-1.785,1.68,10.556,10.556,0,0,1-3.22.88v1.19c1.493-.05,3.138-0.08,4.935-0.11s3.441-.03,4.935-0.03,3.15,0.01,4.97.03,3.476,0.06,4.97.11v-1.19a10.993,10.993,0,0,1-3.255-.88,4.216,4.216,0,0,1-1.855-1.64,6.46,6.46,0,0,1-.805-2.63,35.145,35.145,0,0,1-.175-3.81v-11.9h6.02Zm33.36-30.66a8.473,8.473,0,0,1,3.325.84,7.761,7.761,0,0,1,2.415,1.96,13.185,13.185,0,0,1,1.855,3.04c0.536,1.19,1.131,2.56,1.785,4.1q2.239,5.595,4.515,10.74t4.655,10.4q2.379,5.25,4.865,10.88t5.145,12.22l2.38-.14q2.379-5.325,5.04-10.96t5.25-11.02q2.589-5.385,4.97-10.26,2.379-4.86,4.305-8.68t3.255-6.33c0.886-1.68,1.47-2.75,1.75-3.22a10.967,10.967,0,0,1,2.03-2.28,7.932,7.932,0,0,1,4.2-1.43v-1.12c-1.774.05-3.664,0.08-5.67,0.1s-3.967.04-5.88,0.04h-2.52c-0.7,0-1.377-.01-2.03-0.04s-1.354-.04-2.1-0.07-1.657-.03-2.73-0.03v1.26a16.058,16.058,0,0,1,3.36.42,6.315,6.315,0,0,1,2.1.91,3.116,3.116,0,0,1,1.085,1.29,3.98,3.98,0,0,1,.315,1.58,7.129,7.129,0,0,1-.385,2.17c-0.257.79-.654,1.8-1.19,3.01s-1.237,2.69-2.1,4.44-1.9,3.9-3.115,6.44-2.6,5.55-4.165,9-3.325,7.47-5.285,12.04q-4.131-10.365-7.035-17.26t-4.725-11.16q-1.821-4.275-2.695-6.3a8.831,8.831,0,0,1-.875-2.8,6.634,6.634,0,0,1,.14-1.37,2.087,2.087,0,0,1,.7-1.15,4.267,4.267,0,0,1,1.61-.81,14.007,14.007,0,0,1,2.87-.45v-1.26q-1.54,0-2.555.03c-0.677.03-1.307,0.05-1.89,0.07s-1.2.04-1.855,0.04h-2.52q-3.15,0-6.335-.04t-6.265-.1v1.26Zm82.535,49.66a1.3,1.3,0,0,1-.525.77,3.6,3.6,0,0,1-1.295.53,13.824,13.824,0,0,1-2.415.28v1.4c1.726-.05,3.255-0.08,4.585-0.11s2.858-.03,4.585-0.03q2.659,0,4.9.03c1.493,0.03,3.1.06,4.83,0.11v-1.4a8.044,8.044,0,0,1-2.975-.6,6.092,6.092,0,0,1-2.03-1.5,10.2,10.2,0,0,1-1.575-2.45q-0.7-1.47-1.54-3.36-1.68-3.705-3.675-8.51-2-4.785-4.06-9.9t-3.955-10.19q-1.89-5.07-3.36-9.41l-2.24.28c-0.934,1.91-2.042,4.25-3.325,7s-2.637,5.67-4.06,8.75-2.847,6.17-4.27,9.27-2.73,5.94-3.92,8.51-2.217,4.72-3.08,6.47-1.412,2.82-1.645,3.19a4.494,4.494,0,0,1-1.785,1.57,11.826,11.826,0,0,1-3.605.95v1.33c0.747,0,1.4-.01,1.96-0.04s1.12-.04,1.68-0.07,1.143-.03,1.75-0.03h2.1q2.52,0,5.39.03c1.913,0.03,3.756.06,5.53,0.11v-1.4a20.071,20.071,0,0,1-2.835-.28,5.138,5.138,0,0,1-1.715-.6,2.127,2.127,0,0,1-.875-0.91,2.826,2.826,0,0,1-.245-1.22,4.938,4.938,0,0,1,.1-0.84,16.059,16.059,0,0,1,.525-1.82q0.42-1.26,1.26-3.36t2.24-5.53H858.7q1.119,3.15,1.855,5.32c0.49,1.45.886,2.62,1.19,3.53s0.513,1.6.63,2.07A3.814,3.814,0,0,1,862.443,2519.54Zm-11.1-32.72q1.749,4.695,3.15,8.4c0.933,2.47,1.773,4.74,2.52,6.79h-12.25Zm32.865-10.12q-2.766-.03-5-0.03V2478a9.68,9.68,0,0,1,3.22.8,4.116,4.116,0,0,1,1.785,1.65,6.82,6.82,0,0,1,.77,2.62,34.731,34.731,0,0,1,.175,3.75v25.62a34.533,34.533,0,0,1-.175,3.74,7.143,7.143,0,0,1-.77,2.66,3.955,3.955,0,0,1-1.785,1.68,10.556,10.556,0,0,1-3.22.88v1.19q3.71-.135,7.49-0.18,3.78-.03,7.49-0.03,5.88,0,9.765.07a32.4,32.4,0,0,1,6.335.63c0.14-.7.326-1.51,0.56-2.42s0.5-1.84.805-2.8,0.63-1.9.98-2.83a26.884,26.884,0,0,1,1.085-2.52l-0.84-.56q-1.05,1.4-2,2.55a8.679,8.679,0,0,1-2.275,1.96,10.567,10.567,0,0,1-3.255,1.23,23,23,0,0,1-4.795.42,40.69,40.69,0,0,1-4.41-.18,2.99,2.99,0,0,1-3.08-3.04c-0.094-.93-0.14-2.24-0.14-3.92v-24.15a34.475,34.475,0,0,1,.175-3.75,6.411,6.411,0,0,1,.805-2.62,4.3,4.3,0,0,1,1.855-1.65,10.052,10.052,0,0,1,3.255-.8v-1.33q-2.241,0-4.9.03c-1.774.03-3.407,0.04-4.9,0.04S886.056,2476.73,884.213,2476.7Zm48.835,45.61c1.82,0,3.476.05,4.97,0.14v-1.19a8.244,8.244,0,0,1-3.255-.91,4.7,4.7,0,0,1-1.855-1.89,7.8,7.8,0,0,1-.805-2.87,38.316,38.316,0,0,1-.175-3.92v-24.85a34.475,34.475,0,0,1,.175-3.75,6.411,6.411,0,0,1,.805-2.62,4.3,4.3,0,0,1,1.855-1.65,10.052,10.052,0,0,1,3.255-.8v-1.33q-2.241,0-4.9.03c-1.774.03-3.407,0.04-4.9,0.04s-3.162-.01-5-0.04-3.512-.03-5-0.03V2478a9.68,9.68,0,0,1,3.22.8,4.116,4.116,0,0,1,1.785,1.65,6.82,6.82,0,0,1,.77,2.62,34.731,34.731,0,0,1,.175,3.75v24.85a36.472,36.472,0,0,1-.175,3.81,8.582,8.582,0,0,1-.77,2.87,4.459,4.459,0,0,1-1.785,1.93,8.762,8.762,0,0,1-3.22.98v1.19c1.493-.05,3.138-0.08,4.935-0.11s3.441-.03,4.935-0.03h4.97Zm20.82-40.22q2.73-2.055,7.98-2.06a5.223,5.223,0,0,1,3.815,1.33q1.365,1.335,1.645,5.04h1.33l0.56-9.94a16.68,16.68,0,0,0-6.02-.98,32.706,32.706,0,0,0-8.155.91,18.418,18.418,0,0,0-5.95,2.59,11.248,11.248,0,0,0-3.64,4.02,10.968,10.968,0,0,0-1.225,5.15,11.6,11.6,0,0,0,1.575,6.33,15.553,15.553,0,0,0,3.955,4.24,28.607,28.607,0,0,0,5.145,3.01,56.618,56.618,0,0,1,5.145,2.66,15.36,15.36,0,0,1,3.955,3.25,7.072,7.072,0,0,1,1.575,4.73,4.973,4.973,0,0,1-1.4,3.74,8.829,8.829,0,0,1-3.29,2.03,14.215,14.215,0,0,1-3.78.81c-1.26.09-2.24,0.14-2.94,0.14a22.887,22.887,0,0,1-3.15-.18,4.134,4.134,0,0,1-2.1-.84,4.862,4.862,0,0,1-1.4-2.03,18.781,18.781,0,0,1-.98-3.67h-1.4l-0.42,9.73a27.111,27.111,0,0,0,4.34,1.26,23.644,23.644,0,0,0,4.83.49,41.824,41.824,0,0,0,6.755-.56,19.858,19.858,0,0,0,6.16-2.03,12.332,12.332,0,0,0,4.48-3.99,11.073,11.073,0,0,0,1.715-6.37,11.206,11.206,0,0,0-1.61-6.2,16.161,16.161,0,0,0-4.06-4.27,33.048,33.048,0,0,0-5.25-3.11q-2.8-1.335-5.25-2.7a17.059,17.059,0,0,1-4.06-3.04,5.828,5.828,0,0,1-1.61-4.2A6.362,6.362,0,0,1,953.868,2482.09Zm48.472,40.39c1.85,0.03,3.51.06,5.01,0.11v-1.19a11.012,11.012,0,0,1-3.26-.88,4.241,4.241,0,0,1-1.85-1.64,6.848,6.848,0,0,1-.84-2.63,29.412,29.412,0,0,1-.21-3.81v-24.85a22.8,22.8,0,0,1,.24-3.75,4.259,4.259,0,0,1,.84-2.03,2.511,2.511,0,0,1,1.58-.8,18.31,18.31,0,0,1,2.45-.14,15.855,15.855,0,0,1,4.51.52,7.463,7.463,0,0,1,2.77,1.44,6.621,6.621,0,0,1,1.64,2.13c0.4,0.82.78,1.7,1.16,2.63l0.98-.28c-0.05-.75-0.08-1.59-0.11-2.52s-0.03-1.8-.03-2.59c0-.89.02-1.95,0.07-3.19a21.981,21.981,0,0,1,.28-3.04,16.589,16.589,0,0,1-2.24.38c-0.8.09-1.9,0.15-3.33,0.19s-3.3.08-5.63,0.1-5.39.03-9.172,0.03q-5.6,0-9.065-.03c-2.31-.02-4.189-0.06-5.635-0.1s-2.555-.1-3.325-0.19a12.422,12.422,0,0,1-2.065-.38c0.093,0.79.175,1.81,0.245,3.04s0.105,2.3.105,3.19c0,0.79-.024,1.66-0.07,2.59s-0.094,1.77-.14,2.52l1.05,0.28c0.373-.93.77-1.81,1.19-2.63a7.2,7.2,0,0,1,1.68-2.13,7.486,7.486,0,0,1,2.765-1.44,15.874,15.874,0,0,1,4.515-.52,16.916,16.916,0,0,1,2.345.14,2.548,2.548,0,0,1,1.54.77,4.065,4.065,0,0,1,.875,1.99,20.191,20.191,0,0,1,.28,3.82v24.85a34.533,34.533,0,0,1-.175,3.74,7.143,7.143,0,0,1-.77,2.66,3.955,3.955,0,0,1-1.785,1.68,10.556,10.556,0,0,1-3.22.88v1.19c1.493-.05,3.126-0.08,4.9-0.11s3.406-.03,4.9-0.03S1000.5,2522.46,1002.34,2522.48Zm65.4,0c1.85,0.03,3.54.06,5.08,0.11v-1.19a11.012,11.012,0,0,1-3.26-.88,4.241,4.241,0,0,1-1.85-1.64,6.848,6.848,0,0,1-.84-2.63,29.412,29.412,0,0,1-.21-3.81v-25.62a28.853,28.853,0,0,1,.21-3.75,6.8,6.8,0,0,1,.84-2.62,4.324,4.324,0,0,1,1.85-1.65,10.072,10.072,0,0,1,3.26-.8v-1.33c-1.5,0-3.14.01-4.94,0.03s-3.44.04-4.93,0.04-3.15-.01-4.97-0.04-3.48-.03-4.97-0.03V2478a9.614,9.614,0,0,1,3.15.8,4.359,4.359,0,0,1,1.82,1.65,6.321,6.321,0,0,1,.8,2.62,33.608,33.608,0,0,1,.18,3.75v8.96h-23.03v-8.96a36.492,36.492,0,0,1,.17-3.75,6.473,6.473,0,0,1,.81-2.62,4.324,4.324,0,0,1,1.85-1.65,10.072,10.072,0,0,1,3.26-.8v-1.33c-1.5,0-3.13.01-4.9,0.03s-3.41.04-4.9,0.04-3.16-.01-5.01-0.04-3.51-.03-5-0.03V2478a9.739,9.739,0,0,1,3.22.8,4.081,4.081,0,0,1,1.78,1.65,6.634,6.634,0,0,1,.77,2.62,33.608,33.608,0,0,1,.18,3.75v25.62a33.417,33.417,0,0,1-.18,3.74,6.944,6.944,0,0,1-.77,2.66,3.924,3.924,0,0,1-1.78,1.68,10.631,10.631,0,0,1-3.22.88v1.19c1.49-.05,3.14-0.08,4.93-0.11s3.44-.03,4.94-0.03h4.97c1.82,0,3.47.05,4.97,0.14v-1.19a11.012,11.012,0,0,1-3.26-.88,4.241,4.241,0,0,1-1.85-1.64,6.522,6.522,0,0,1-.81-2.63,37.189,37.189,0,0,1-.17-3.81v-11.9h23.03v11.9a33.417,33.417,0,0,1-.18,3.74,6.612,6.612,0,0,1-.8,2.66,4.177,4.177,0,0,1-1.82,1.68,10.551,10.551,0,0,1-3.15.88v1.19c1.44-.09,3.05-0.14,4.83-0.14h4.9C1064.23,2522.45,1065.9,2522.46,1067.74,2522.48Zm29.25-21.94c1.44,0,2.7.02,3.78,0.07a10.219,10.219,0,0,1,2.73.45,3.805,3.805,0,0,1,1.71,1.09,3.609,3.609,0,0,1,.74,1.96h1.12c0-1.45-.01-2.6-0.04-3.47s-0.03-1.59-.03-2.2,0.01-1.45.03-2.52,0.04-2.38.04-3.92h-1.12a4.217,4.217,0,0,1-.74,2.17,3.3,3.3,0,0,1-1.68,1.12,10.739,10.739,0,0,1-2.73.42c-1.09.05-2.37,0.07-3.81,0.07h-4.06v-8.19a32.81,32.81,0,0,1,.17-3.75,3.3,3.3,0,0,1,.88-2.03,3.437,3.437,0,0,1,2.1-.8c0.93-.09,2.24-0.14,3.92-0.14a17.246,17.246,0,0,1,4.55.49,8.277,8.277,0,0,1,2.83,1.33,6.271,6.271,0,0,1,1.72,1.99,25.6,25.6,0,0,1,1.19,2.56l1.05-.07c-0.05-.75-0.1-1.62-0.14-2.63s-0.07-1.9-.07-2.69c0-.89.03-1.86,0.1-2.91s0.15-1.97.25-2.76a56.95,56.95,0,0,1-6.34.4c-2.82.06-6.64,0.09-11.44,0.09h-14.49V2478a9.739,9.739,0,0,1,3.22.8,4.081,4.081,0,0,1,1.78,1.65,6.634,6.634,0,0,1,.77,2.62,33.608,33.608,0,0,1,.18,3.75v25.69a33.417,33.417,0,0,1-.18,3.74,6.685,6.685,0,0,1-.77,2.63,4.262,4.262,0,0,1-1.78,1.68,10.023,10.023,0,0,1-3.22.91v1.19q3.7-.135,7.73-0.18c2.69-.02,5.26-0.03,7.74-0.03q5.88,0,10.11.07a39.117,39.117,0,0,1,6.69.56c0.14-.7.32-1.52,0.56-2.45s0.5-1.9.8-2.91,0.63-1.98.98-2.94a24.108,24.108,0,0,1,1.09-2.55l-0.84-.56c-0.7.93-1.38,1.8-2.03,2.59a8.681,8.681,0,0,1-2.49,2.03,13.789,13.789,0,0,1-3.74,1.33,27.876,27.876,0,0,1-5.81.49,34.131,34.131,0,0,1-4.06-.18,2.937,2.937,0,0,1-2.91-3.04c-0.07-.93-0.1-2.24-0.1-3.92v-10.43h4.06Zm54.45,19a1.293,1.293,0,0,1-.52.77,3.578,3.578,0,0,1-1.3.53,13.781,13.781,0,0,1-2.41.28v1.4c1.72-.05,3.25-0.08,4.58-0.11s2.86-.03,4.59-0.03c1.77,0,3.4.01,4.9,0.03s3.1,0.06,4.83.11v-1.4a8.045,8.045,0,0,1-2.98-.6,6.163,6.163,0,0,1-2.03-1.5,10.135,10.135,0,0,1-1.57-2.45c-0.47-.98-0.98-2.1-1.54-3.36q-1.68-3.705-3.68-8.51-1.995-4.785-4.06-9.9t-3.95-10.19q-1.89-5.07-3.36-9.41l-2.24.28c-0.94,1.91-2.04,4.25-3.33,7s-2.63,5.67-4.06,8.75-2.84,6.17-4.27,9.27-2.73,5.94-3.92,8.51-2.21,4.72-3.08,6.47-1.41,2.82-1.64,3.19a4.51,4.51,0,0,1-1.79,1.57,11.812,11.812,0,0,1-3.6.95v1.33c0.75,0,1.4-.01,1.96-0.04s1.12-.04,1.68-0.07,1.14-.03,1.75-0.03h2.1c1.68,0,3.47.01,5.39,0.03s3.75,0.06,5.53.11v-1.4a20.217,20.217,0,0,1-2.84-.28,5.139,5.139,0,0,1-1.71-.6,2.183,2.183,0,0,1-.88-0.91,2.887,2.887,0,0,1-.24-1.22,4.819,4.819,0,0,1,.1-0.84,16.378,16.378,0,0,1,.53-1.82q0.42-1.26,1.26-3.36c0.56-1.4,1.3-3.24,2.24-5.53h15.82q1.11,3.15,1.85,5.32c0.49,1.45.89,2.62,1.19,3.53s0.52,1.6.63,2.07a4.675,4.675,0,0,1,.18.98A4.789,4.789,0,0,1,1151.44,2519.54Zm-11.09-32.72q1.74,4.695,3.15,8.4c0.93,2.47,1.77,4.74,2.52,6.79h-12.25Z"
                          transform="translate(-198.719 -2467.78)"></path>
                      </svg>